<svg width="69" height="65" viewBox="0 0 69 65" fill="none" xmlns="http://www.w3.org/2000/svg">
<path d="M14.7666 4.02429L56.0019 4.59225L63.5478 7.4869L64.9261 21.0731L64.1302 46.7773L62.7802 55.3966L58.5907 60.7143L8.87124 60.3298L5.13782 55.0389L4.00342 41.0338L4.54677 15.1576L14.7666 4.02429Z" fill="#FFF6EF" stroke="#101010" stroke-width="8"/>
<path fill-rule="evenodd" clip-rule="evenodd" d="M25.8431 30.3219L22.6675 31.0464L20.9212 40.3778L20.86 47.4143L21.5395 49.5689L26.093 51.0051L41.9383 51.1427L45.5441 50.3683L48.6221 48.5149L48.7546 33.2604L48.1811 31.268L44.2128 30.4815L44.2847 22.2095L42.2286 17.7331L40.4785 15.1393L34.0927 14.3858L28.8122 16.0657L25.9187 21.6203L25.8431 30.3219ZM39.331 29.7407L30.0325 30.3583L30.1044 22.0863L33.6743 19.2649L36.7914 19.0826L39.7634 23.2447L39.331 29.7407ZM32.3175 39.4026L33.9581 37.1882L35.9287 37.3681L37.0924 40.0887L35.4712 41.5979L35.8695 44.1887L34.8272 45.4462L33.4557 44.421L33.7653 41.5831L32.3175 39.4026Z" fill="#101010"/>
</svg>
