<svg width="440" height="884" viewBox="0 0 440 884" fill="none" xmlns="http://www.w3.org/2000/svg">
<g clip-path="url(#clip0_1667_6484)">
<mask id="mask0_1667_6484" style="mask-type:alpha" maskUnits="userSpaceOnUse" x="-30" y="-66" width="501" height="1016">
<path d="M-29.4258 261.496L-22.918 220.918L-26.7461 180.148L-27.1289 176.895L-26.5547 173.832L-19.4727 134.977L-28.0859 96.121L-29.043 91.91L-28.6602 87.891L-23.4922 46.738L-25.5977 4.8203L-25.7891 0.800797L-24.6406 -3.0273L-13.1563 -44.1797L8.85543 -37.8633H9.81253L6.55863 -58.918L46.3711 -65.2344L50.7734 -66L55.3671 -65.043L95.754 -56.4297L136.141 -55.0898L177.867 -60.2578L181.504 -60.6406L184.949 -60.2578L223.996 -53.75L264 -61.0234L267.637 -61.5977L271.273 -61.2148L313.191 -55.6641L355.109 -55.4727L397.984 -56.8125H401.047L404.109 -56.2383L442.965 -47.2422L460.191 -43.4141L461.914 -25.8047L466.508 19.75L466.891 24.1523L465.742 28.5547L455.406 67.602L460.766 106.266L460.957 108.371V110.477L459.234 154.117V154.309L457.129 197.949V198.332L454.258 240.059L457.512 281.211L457.703 281.02L463.062 324.469V325.043L463.254 325.809L466.508 369.258L466.699 372.129L466.316 374.809L460 415.961L462.871 456.73L463.062 457.113V457.305L464.785 500.945V503.816L461.531 547.457H461.34V588.992L462.297 632.25V634.164L462.105 635.887L457.129 674.168L469.57 712.449L470.91 716.469L470.719 720.488L469.953 764.129V766.234L469.379 768.34L461.34 809.301L463.637 849.687L463.828 854.09L462.488 858.301L450.621 895.625L449.09 900.793L445.262 904.812L419.23 933.141L412.148 940.8L401.621 940.99L357.789 941.56L316.254 945.39L315.871 945.58H315.488L271.848 948.26H268.402L226.676 944.82L185.715 949.22L180.738 949.6L176.145 948.26L137.672 936.78L99.008 941.75L95.754 942.14L92.309 941.56L50.9648 935.63L10.7695 939.46L-11.2422 941.37L-15.4531 919.551L-22.7265 880.313L-23.1094 877.633L-26.5547 834.184L-26.7461 831.695L-26.5547 829.398L-21.7695 788.629L-27.7031 748.434L-28.2773 744.031L-27.3203 739.82L-18.5156 699.051L-18.3242 659.047L-24.832 617.895L-25.4062 614.641L-25.0234 611.195L-20.2383 571.766L-28.8516 531.953L-30 526.594L-28.6601 521.043L-18.8985 481.422L-22.7266 442.184L-22.918 441.801V441.418L-25.9805 397.777V395.289L-24.4492 353.371L-27.5117 310.496V310.113L-29.8086 266.473L-30 263.984L-29.4258 261.496ZM21.2968 307.434L21.4883 307.242L24.3594 350.883L24.5508 352.031L24.3594 353.18L23.0195 395.098L26.082 437.973L25.8906 438.164L30.2929 480.848L30.6758 485.059L29.7187 489.078L20.3398 527.359L28.3789 565.449L29.3359 569.277L28.7617 573.297L23.9765 613.301L30.293 653.879L30.6758 655.984V657.898L30.293 701.539V704.027L29.7187 706.324L21.2969 745.563L27.0391 785.184L27.6133 788.246L27.2305 791.309L22.2539 832.078L25.5078 873.039L28.5703 888.734L50.0078 886.629L52.8789 886.437L55.75 886.82L96.137 892.754L136.332 887.586L141.5 886.82L146.477 888.352L185.141 900.027L224.187 895.816L226.484 895.625L228.781 895.816L270.699 899.262L311.66 896.582L355.301 892.562H357.215L390.328 892.18L405.449 875.719L414.254 847.773L412.531 808.535L412.34 805.473L412.914 802.602L420.953 760.875L421.527 723.359L408.895 683.93L407.363 678.762L407.937 673.402L413.105 631.676L412.34 589.758V589.184L412.531 545.543V544.586L412.723 543.82L415.594 502.859L414.062 459.984L411 416.535L410.809 413.855L411.191 411.176L417.125 370.215L414.254 329.445L409.086 286.953L408.895 286.379V285.996L405.449 242.355L405.258 240.633L405.449 238.719L408.129 195.844V195.652L410.234 152.012V152.203L411.766 110.859L406.215 69.324L405.641 64.348L406.789 59.754L417.125 20.5156L414.828 -3.4102L396.07 -7.6211L355.684 -6.4727H354.727L311.469 -6.8555H310.129L268.785 -12.0234L228.59 -4.9414L224.57 -4.1758L220.551 -4.75L180.547 -11.0664L140.16 -6.2813L138.246 -6.0898H136.332L92.883 -7.4297H90.586L88.48 -8.0039L49.4336 -16.043L28.9531 -12.7891L23.4023 6.1602L25.5078 45.973V48.078L25.3164 50.184L20.5312 89.613L29.3359 129.234L30.2929 133.828L29.5273 138.613L22.2539 179.383L25.8906 219.387L26.2734 222.449L25.6992 225.512L19.1914 266.09L21.2968 307.434Z" fill="black"/>
</mask>
<g mask="url(#mask0_1667_6484)">
<path d="M-146.778 -22.3755L-134.27 -52.3658L-129.153 -79.2454L-128.961 -80.4312L-128.401 -81.5383L-115.658 -106.931L-115.256 -107.685L-100.575 -131.326L-92.419 -155.836L-91.7507 -183.424L-91.6762 -186.23L-89.8707 -188.478L-76.2085 -205.834L-85.1235 -211.962L-74.6242 -217.461L-53.9578 -233.819L-53.5886 -234.121L-53.1634 -234.398L-31.0592 -247.276L-29.584 -248.103L-28.0439 -248.096L-5.6683 -247.335L10.6523 -270.966L13.2503 -274.769L16.8698 -274.005L40.5555 -269.101L57.614 -288.887L59.5001 -291.014L61.8767 -291.228L88.151 -293.648L91.931 -294L93.136 -290.073L100.285 -266.254L109.535 -243.914L109.628 -243.746L109.677 -243.554L117.409 -220.746L130.057 -201.217L131.302 -199.264L130.936 -196.631L126.891 -168.468L148.106 -158.689L149.866 -157.82L150.625 -155.83L159.079 -132.531L159.412 -131.62L159.426 -130.597L160.873 -103.466L169.677 -81.7063L169.807 -81.3944L169.892 -81.0595L176.745 -56.6507L177.076 -55.3592L176.946 -53.9341L174.915 -34.3685L174.959 -34.3914L172.171 -6.94119L171.029 20.7325L171.022 20.8989L170.971 21.0882L168.644 48.786L168.44 51.28L166.916 53.272L149.414 76.166L147.247 101.392L147.201 101.795L147.1 102.174L141.981 129.434L141.937 129.457L138.197 156.483L137.888 158.761L136.471 160.589L117.158 185.516L115.258 187.976L112.594 188.232L89.427 190.381L89.096 190.446L88.797 190.44L66.2461 189.771L43.7252 195.217L42.3147 195.522L41.0195 195.115L19.1286 187.534L-2.3902 190.502L-24.8315 199.163L-47.6566 212.907L-51.0513 214.956L-53.6473 212.572L-71.8566 195.739L-73.0802 194.643L-73.4587 192.779L-78.7245 167.594L-78.8472 167.115L-78.8823 166.591L-80.5098 140.694L-90.9022 120.092L-91.2542 119.3L-91.4312 118.416L-96.2734 93.334L-103.373 69.705L-103.385 69.657L-110.066 47.275L-128.475 31.793L-129.493 30.916L-129.993 29.55L-138.303 6.2301L-138.259 6.20721L-146.97 -16.7401L-148 -19.4021L-146.778 -22.3755ZM-48.0767 199.074L-27.9272 186.894L-27.4583 186.594L-26.9525 186.437L-3.56799 177.392L-2.931 177.167L-2.3132 177.06L20.8961 173.912L22.0442 173.745L23.0716 174.075L44.7507 181.603L66.6101 176.286L67.3031 176.086L67.9577 176.123L90.72 176.845L111.081 174.971L127.033 154.354L130.596 129.157L130.591 128.942L130.642 128.753L135.734 101.778L138.109 74.652L138.313 72.158L139.837 70.166L157.264 47.366L159.419 22.0923L160.574 -5.5336L160.568 -5.7478L160.607 -5.98499L163.401 -33.6016L163.389 -33.6494L165.257 -51.7193L158.865 -74.5245L149.821 -97.0263L149.42 -98.01L149.325 -99.1541L147.841 -126.429L140.503 -146.731L122.033 -155.289L121.927 -153.768L119.606 -126.237L137.953 -113.708L140.172 -112.212L140.252 -108.998L140.669 -81.4354L150.475 -60.7979L153.774 -53.7358L146.465 -50.5045L129.077 -42.6465L128.047 -42.2152L127.018 -42.1646L104.772 -41.2575L82.961 -29.9434L80.293 -28.5458L77.998 -29.9484L58.6454 -41.9509L36.5051 -39.4712L35.3011 -39.3289L34.1931 -39.7796L13.3294 -48.3862L19.2967 -23.9477L19.6945 -22.2027L19.2312 -20.3323L11.9936 9.50272L11.8414 10.0706L11.6018 10.6845L1.1255 36.79L0.791397 37.616L0.333099 38.344L-14.5247 61.101L-21.5832 86.99L-21.9381 88.315L-22.7288 89.489L-37.6934 112.41L-46.3655 138.004L-57.1785 135.311L-57.0963 135.051L-57.1086 135.003L-56.9757 134.554L-56.0962 131.597L-69.8249 115.402L-70.9104 114.071L-71.1016 112.164L-73.8085 87.862L-89.1924 73.727L-85.111 87.325L-84.9936 87.589L-84.9515 87.947L-80.2565 112.455L-69.6662 133.441L-69.0726 134.595L-68.9724 135.954L-67.336 162.66L-62.5223 185.695L-48.0767 199.074ZM-70.5398 -165.721L-64.7393 -170.386L-50.4106 -181.852L-56.2585 -164.79L-44.5162 -162.15L-51.2339 -184.676L-49.19 -185.801L-42.2144 -194.012L-39.9143 -192.395L-20.8292 -199.243L-2.96109 -221.677L-0.716492 -224.535L2.25711 -224.356L26.5685 -222.818L47.5426 -233.911L47.5863 -233.934L72.034 -246.575L76.802 -249.072L78.871 -244.295L88.341 -222.451L102.552 -203.795L103.32 -202.732L103.589 -201.299L108.109 -176.7L115.122 -166.374L119.051 -193.825L107.413 -211.93L107.023 -212.485L106.795 -213.179L98.791 -236.66L89.585 -259.022L89.467 -259.286L89.381 -259.621L83.233 -279.732L63.1719 -277.853L45.487 -257.414L42.9238 -254.444L39.8277 -255.101L16.5777 -259.854L0.708405 -236.784L-1.5379 -233.546L-4.7424 -233.658L-28.8576 -234.43L-49.2802 -222.541L-61.644 -212.702L-58.2307 -210.42L-63.2904 -204.026L-80.2504 -182.502L-80.8143 -157.41L-70.5398 -165.721ZM-26.8797 150.914L-18.6507 123.978L-18.3849 123.079L-17.9073 122.232L-5.0815 99.291L-2.5616 71.764L-2.28059 68.796L-0.207199 66.625L19.6862 45.897L30.7532 23.0636L31.1871 22.2395L31.7452 21.5132L47.6082 1.3226L49.671 -1.27689L52.4274 -1.36398L74.678 -2.05688L95.314 -16.9877L95.77 -17.3354L96.208 -17.5645L119.261 -29.258L120.355 -29.8308L121.427 -29.9043L144.866 -31.3822L146.083 -31.4766L147.159 -30.9552L152.654 -28.2983L156.623 -26.3621L155.267 -21.2023L151.098 5.5061L151.007 6.31329L141.137 33.62L140.941 34.211L140.633 34.752L127.394 59.374L122.175 85.276L122.029 86.058L121.77 86.791L111.734 111.905L105.054 131.139L104.164 133.667L102.118 135.173L79.724 151.567L78.429 152.516L54.4641 156.006L31.6098 164.991L30.2606 165.535L28.9147 165.318L7.5045 161.935L-14.2203 173.584L-19.3579 176.383L-21.2739 171.038L-26.8504 155.673L-27.614 153.469L-26.8797 150.914ZM-33.2486 -167.942L-18.5186 -151.131L-17.3089 -149.703L-17.1683 -147.606L-15.3573 -122.348L5.2934 -112.056L6.7865 -111.264L7.5273 -109.536L17.1134 -87.0472L17.4531 -86.3027L17.5741 -85.4437L21.1878 -60.3151L38.628 -53.0626L61.1742 -55.7006L62.8087 -55.9056L64.1145 -55.0702L82.503 -43.5393L102.857 -54.1452L104.039 -54.7638L105.211 -54.8353L127.581 -55.6447L136.696 -59.7674L129.659 -74.6383L129.097 -75.8632L129.059 -77.363L128.641 -103.188L109.99 -115.938L107.454 -117.703L107.782 -121.455L110.107 -150.128L97.908 -168.102L97.207 -169.091L96.976 -170.381L92.461 -194.766L78.692 -213.057L78.313 -213.564L78.054 -214.188L70.3613 -231.809L50.7258 -221.688L28.3518 -209.862L26.9081 -209.106L25.4555 -209.159L2.6212 -210.548L-14.3564 -189.285L-15.7105 -187.599L-17.478 -186.945L-36.8816 -179.984L-33.2486 -167.942ZM-12.3848 158.678L5.97141 148.793L7.67761 147.899L9.37871 148.148L31.069 151.655L53.1113 142.987L53.736 142.714L54.3538 142.608L76.147 139.55L95.232 125.54L101.098 108.74L101.199 108.362L111.014 83.742L116.373 57.224L116.597 55.968L117.244 54.815L130.81 29.533L139.766 4.6586L143.178 -17.2586L142.213 -17.7302L121.175 -16.3703L99.797 -5.4996L77.974 10.2162L76.428 11.3509L74.757 11.4124L53.46 12.1483L40.293 28.919L29.0248 52.129L28.4021 53.378L27.5063 54.335L8.7151 73.943L6.3506 100.141L6.162 101.922L5.2944 103.57L-8.0528 127.38L-15.2256 150.887L-12.3848 158.678ZM-10.7559 -94.9148L-9.31689 -93.1726L-9.4404 -90.5577L-10.7371 -63.2915L9.9922 -53.8549L6.2085 -80.0338L-2.3777 -100.171L-23.9177 -111.028L-24.4778 -111.277L-10.7559 -94.9148ZM-76.817 28.1251L-73.8203 30.137L-74.7186 34.568L-80.448 63.125L-64.1942 77.944L-62.7535 79.306L-62.4641 81.596L-59.7903 106.348L-50.9687 116.758L-48.1077 108.369L-47.7352 107.306L-47.1264 106.39L-32.2563 83.681L-25.2102 57.744L-24.8115 56.396L-24.0645 55.245L-8.96179 32.089L1.00391 7.28201L7.6069 -19.9959L2.265 -41.9947L-19.5967 -51.9777L-22.6896 -53.3964L-22.5157 -57.557L-21.1879 -86.2501L-34.8223 -102.658L-35.6783 -103.675L-35.9902 -105.085L-41.4502 -130.06L-50.3897 -149.253L-56.7063 -150.665L-57.058 -137.133L-57.103 -135.373L-57.8709 -133.723L-69.9663 -108.127L-70.4193 -107.184L-71.0649 -106.412L-89.1203 -83.9336L-97.4971 -60.2845L-97.9221 -32.7152L-97.943 -32.2159L-98.0076 -31.6938L-101.605 -7.40079L-97.1974 14.4363L-76.817 28.1251ZM-30.6994 -137.481L-30.4402 -136.857L-30.2685 -136.188L-27.1635 -121.753L-28.6162 -141.936L-37.7056 -152.423L-30.6994 -137.481ZM-127.466 -0.856079L-127.442 -0.760376L-119.63 21.1931L-101.11 36.724L-99.9232 37.676L-99.4625 39.28L-92.3086 63.314L-92.1001 64.127L-86.8933 38.177L-105.924 25.3008L-107.603 24.1723L-108.092 21.8782L-113.182 -3.3992L-113.458 -4.66589L-113.258 -6.0181L-109.583 -31.1661L-109.111 -59.5196L-109.111 -60.8758L-108.644 -62.1513L-99.2827 -88.5408L-98.7528 -89.9577L-79.569 -113.841L-68.6315 -136.986L-68.1808 -153.229L-69.875 -153.644L-80.87 -156.078L-80.8733 -155.317L-81.265 -154.135L-90.0909 -127.592L-90.3759 -126.575L-90.9532 -125.73L-106.112 -101.242L-118.05 -77.3556L-123.059 -51.021L-123.181 -50.1431L-123.559 -49.2941L-135.185 -21.2848L-127.466 -0.856079Z" fill="#FFC400"/>
<path d="M-185.017 583.436L-189.755 549.856L-189.798 549.586L-189.809 549.354L-192.017 521.394L-192.1 520.274L-191.933 519.22L-187.334 492.497L-192.321 466.176L-192.53 464.984L-192.432 463.778L-189.925 435.601L-189.881 435.211L-189.809 434.781L-184.835 407.537L-185.721 392.306L-198.308 392.848L-189.685 380.861L-178.686 357.176L-178.376 356.581L-163.408 335.775L-149.42 314.355L-148.505 312.918L-147.092 312.271L-126.749 302.923L-122.783 274.446L-122.132 269.92L-118.555 268.98L-95.1829 262.748L-88.8012 237.416L-87.8158 233.494L-84.595 232.803L-61.1806 227.5L-58.7488 227L-56.7577 228.924L-39.3416 245.951L-20.4152 261.126L-20.2568 261.235L-20.1272 261.384L-2.54131 277.434L17.875 288.315L19.917 289.345L20.8308 291.861L30.6123 318.348L53.9421 316.537L55.8694 316.41L57.5005 317.846L75.9799 333.971L76.7139 334.596L77.2149 335.465L91.3779 358.494L109.419 373.09L111.907 375.145L112.017 378.861L112.775 403.981L112.782 404.136L112.757 404.253L112.754 431.501L120.011 457.136L129.151 483.692L129.191 483.884L129.227 483.998L137.347 511.066L138.07 513.436L137.385 515.87L129.622 543.204L136.923 567.79L137.218 568.862L137.239 569.985L138.201 597.538L138.351 600.787L136.455 602.928L119.954 621.75L119.838 621.911L119.72 621.994L102.58 611.998L102.259 612.362L101.903 612.611L82.7779 626.437L82.5109 626.643L82.2409 626.772L62.3686 637.688L45.3537 654.014L44.2653 655.033L42.9287 655.327L20.1666 660.136L2.991 673.64L-12.5988 692.924L-13.8172 694.453L-15.5213 694.764L-35.52 698.941L-38.1032 699.486L-40.1086 697.253L-57.106 678.657L-57.3004 678.433L-73.5875 658.602L-73.9115 658.229L-74.1455 657.814L-87.564 635.641L-106.282 622.318L-106.949 621.845L-107.503 621.134L-123.403 628.659L-140.664 611.005L-156.96 594.314L-180.391 589.269L-184.327 588.404L-185.017 583.436ZM-153.808 580.797L-152.353 581.078L-151.194 582.265L-144.331 589.352L-145.13 587.994L-160.316 562.763L-161.979 559.971L-161.275 556.606L-155.682 530.806L-165.039 505.539L-165.499 504.204L-165.563 502.811L-166.515 474.832L-166.554 473.322L-166.157 471.947L-157.88 445.791L-163.959 420.412L-164.149 419.607L-164.288 416.59L-163.48 414.809L-159.272 405.584L-156.567 399.684L-151.81 403.031L-132.238 416.897L-131.698 417.298L-131.215 417.78L-118.463 432.153L-120.184 429.442L-134.928 407.137L-146.337 400.608L-148.265 403.371L-155.686 394.837L-152.57 389.19L-153.024 388.668L-149.999 384.382L-149.678 383.359L-149.455 383.543L-145.082 377.217L-144.794 376.816L-144.473 376.453L-128.719 360.068L-122.772 331.965L-122.046 328.404L-119.308 327.232L-96.8855 317.71L-83.5655 299.112L-73.2854 272.476L-70.9264 266.398L-65.9747 269.31L-42.4691 283.304L-20.6183 292.685L-19.3974 293.21L-18.4866 294.331L-5.57001 323.576L14.5586 333.54L16.4745 334.498L17.4677 336.739L28.5395 361.927L53.2677 353.855L55.9478 354.08L57.517 356.837L71.7159 381.958L74.3899 386.719L71.2649 390.816L65.8863 397.963L52.2218 421.073L51.4539 422.388L50.2611 423.14L31.2311 435.025L16.4112 456.366L14.5726 459.086L11.7306 458.675L-11.3626 455.63L-28.0067 465.35L-28.8139 465.814L-29.6353 465.968L-52.6994 469.55L-51.9576 470.33L-33.6389 490.3L-32.1555 491.859L-31.7676 494.283L-26.6713 524.978L-26.5132 525.746L-26.5387 526.523L-26.9275 554.719L-26.9496 555.573L-27.0976 556.355L-32.5503 582.536L-29.5465 582.155L-29.3923 583.504L-29.6667 584.874L-35.2241 611.447L-33.8903 638.401L-44.4539 641.562L-47.1521 634.283L-69.0356 625.524L-70.0903 623.945L-83.6646 603.718L-106.061 597.812L-109.269 624.403L-110.333 620.615L-118.281 593.307L-141.072 590.83L-143.074 590.651L-133.767 600.183L-116.344 618.024L-116.089 618.245L-115.894 618.468L-100.315 610.647L-81.2793 624.189L-80.2638 624.917L-79.5331 626.124L-65.8448 648.827L-49.788 668.319L-34.9833 684.614L-19.2682 681.371L-4.52541 663.017L-4.0892 662.493L-3.58472 662.121L15.072 647.463L15.9874 646.685L17.0538 646.519L39.5456 641.84L55.9983 625.966L56.5281 625.476L57.1262 625.138L77.1209 614.217L95.9219 600.677L112.782 583.66L127.021 594.642L126.193 571.347L118.522 545.382L117.767 542.975L118.485 540.578L126.222 513.361L118.965 489.045L109.749 462.182L109.648 461.993L109.605 461.724L101.946 434.674L101.615 433.488L101.619 432.247L101.676 404.183L101.06 382.816L84.7049 369.499L83.8769 368.84L83.2789 367.86L69.0866 344.87L52.9695 330.729L27.7125 332.668L23.8902 332.96L22.2426 328.501L11.6983 300.111L-7.1154 290.048L-7.71321 289.726L-8.2245 289.285L-26.2209 272.982L-45.1185 257.768L-45.3741 257.547L-45.5974 257.363L-61.4364 241.93L-79.2052 245.888L-85.5651 271.026L-86.5288 274.753L-89.6201 275.593L-112.473 281.762L-116.349 309.537L-116.876 313.399L-119.791 314.735L-141.695 324.852L-154.8 344.797L-154.854 344.954L-169.388 365.159L-175.386 378.187L-175.025 384.682L-173.682 407.837L-173.632 408.92L-173.831 409.937L-178.971 438.236L-178.939 438.273L-181.293 464.428L-176.231 491.055L-175.976 492.593L-176.211 494.155L-180.875 521.462L-178.753 548.225L-178.781 548.265L-174.79 576.298L-153.808 580.797ZM-16.2594 646.616L-13.6921 617.238L-13.7348 616.31L-13.6551 615.376L-10.0938 589.437L-17.9393 589.963L-18.8096 587.058L-17.6771 584.331L-6.8932 558.641L-6.89491 533.292L-6.89101 532.711L-6.82231 532.204L-3.37541 504.448L-2.97391 501.174L-0.685608 499.557L17.0622 487.15L25.5 463.536L42.6554 439.886L43.344 438.846L44.2665 438.223L64.0427 425.218L64.194 425.173L64.3129 425.09L83.1769 414.26L83.9809 412.401L91.8829 394.091L94.3109 414.832L100.354 441.414L100.544 442.219L100.583 443.07L101.513 471.244L101.542 471.863L101.448 472.487L98.3069 500.229L103.038 526.328L103.2 527.174L103.149 528.068L102.692 555.453L102.685 555.957L102.616 556.464L99.9619 576.121L99.8099 577.485L99.2469 578.596L87.1189 576.121L86.4729 577.43L85.4389 578.292L67.4128 592.649L47.5484 599.025L46.6184 600.154L45.3537 600.677L24.603 623.067L11.4042 644.295L10.2902 646.09L8.56799 646.673L-9.1299 652.838L-15.5648 655.033L-16.2594 646.616ZM-129.349 395.019L-128.121 395.699L-127.325 396.981L-113.568 417.858L-90.5299 416.371L-88.8151 416.292L-87.3531 417.387L-68.0842 432.003L-67.3208 432.588L-66.7269 433.491L-51.8529 455.286L-32.1393 452.246L-14.8717 442.071L-13.4988 441.233L-11.9535 441.471L9.81409 444.383L23.4516 424.685L24.1402 423.646L25.124 423.019L44.0098 411.335L56.9315 389.422L57.101 389.104L57.3317 388.784L60.0533 385.247L50.098 367.644L27.6347 365.617L25.3674 379.75L21 371.536L8.79588 345.666L-10.4574 336.049L-8.82271 325.591L-9.63631 324.582L-25.2465 305.457L-46.0672 296.455L-46.3482 296.351L-46.6327 296.171L-65.6223 284.952L-73.9364 306.304L-74.2646 307.172L-74.7549 307.854L-89.4556 328.453L-90.4073 329.776L-91.7296 330.38L-112.765 339.372L-118.412 365.989L-118.867 368.103L-120.215 369.483L-136.985 387.116L-138.77 389.678L-129.349 395.019ZM3.6788 633.798L16.8776 612.57L40.5294 587.876L59.8423 582.184L60.2784 581.66L60.7505 581.251L78.1729 594.722L89.2539 572.157L91.5969 554.414L92.0539 528.346L87.2329 501.63L86.9879 500.324L87.1439 499.038L90.4219 470.941L89.5309 444.277L85.9079 428.242L69.076 437.894L50.5503 450.065L37.053 470.144L26.1395 495.685L25.3929 497.464L23.9947 498.42L7.2054 510.317L4.2504 534.097L-2 560.608L-2.11369 565.045L-8 568.862L-6.68481 588.476L-7.4908 586.686L-6.71927 589.501L-10.3206 591.089L-7.39801 618.494L-5.86551 637.106L3.6788 633.798ZM-114.935 436.138L-94.2143 443.633L-92.1217 444.428L-90.9413 446.738L-78.9324 470.952L-57.1551 468.747L-58.2098 467.168L-74.4949 443.384L-91.4412 430.56L-115.553 432.058L-118.366 432.265L-114.935 436.138ZM-113.969 579.659L-110.36 580.074L-109.119 584.358L-100.947 584.94L-79.735 590.436L-77.7792 590.927L-76.4941 592.845L-62.7182 613.45L-45.8986 620.195L-46.3586 610.875L-46.4121 609.715L-46.1846 608.658L-40.6743 582.396L-43.7358 582.857L-43.89 581.508L-43.6155 580.139L-38.0329 553.447L-37.6594 526.919L-42.2458 499.301L-57.335 482.825L-81.2198 485.244L-84.6422 485.556L-86.4992 481.882L-99.1199 456.378L-119.001 449.116L-120.251 448.631L-121.22 447.59L-137.95 428.788L-152.318 418.636L-152.679 419.466L-146.719 444.269L-146.118 446.644L-146.844 448.887L-155.388 475.909L-154.532 501.14L-144.761 527.395L-143.916 529.76L-149.83 557.241L-137.895 577.195L-113.969 579.659Z" fill="#F63609"/>
<path d="M-29.7396 811.902L-22.8608 787.634L-22.3387 785.748L-20.8256 784.741L-2.9375 772.532L12.8696 755.915L13.4574 755.281L14.2264 754.943L34.5829 745.193L34.8614 745.055L54.8072 737.137L68.8102 718.631L69.6731 717.433L71.0566 717.004L92.6073 709.874L112.775 700.304L113.377 700.048L114.047 699.93L137.247 696.266L149.64 690.679L148.233 688.122L139.026 672L153.572 678.665L177.347 681.269L178.656 681.39L179.825 682.139L202.141 695.658L202.231 695.7L223.437 708.87L246.662 714.145L247.223 714.295L270.803 722.177L273.023 722.876L274.516 725.048L291.871 750.535L313.192 755.469L339.656 760.209L341.291 761.967L353.394 775.112L354.318 776.067L354.842 777.263L368.901 807.511L370.198 810.337L369.358 812.981L362.088 835.9L317.087 862.439L317.499 865.018L316.273 866.954L303.292 887.52L308.858 912.82L309.042 913.54L309.071 914.3L309.715 941L309.722 941.85L309.549 942.62L353.223 966.812L352.18 992.212L352.053 993.212L347.451 1016.82L354.515 1043.6L355.137 1045.91L354.403 1047.85L346.214 1070.46L350.33 1096.26L350.414 1096.99L350.408 1097.67L349.651 1124L349.547 1127.78L346.548 1129.01L324.386 1138.2L313.843 1160.04L313.557 1160.66L313.158 1161.11L298.056 1179.22L297.579 1179.8L296.956 1180.15L278.082 1192.12L259.721 1205.33L259.187 1205.73L258.54 1205.96L236.478 1213.6L236.367 1213.66L214.557 1220.61L198.043 1232.66L187.903 1256.01L187.419 1257.07L186.664 1257.78L169.751 1273.15L167.697 1275.03L164.883 1274.11L144.969 1267.53L144.689 1267.46L144.42 1267.34L120.304 1256.76L119.81 1256.54L96.6973 1244.14L95.2373 1243.37L94.1753 1241.92L77.1621 1218.66L77.0832 1218.57L76.9701 1218.42L62.3076 1196.82L37.7026 1192.4L34.6564 1191.85L32.8423 1188.68L18.1249 1162.92L0.874298 1143.59L-19.5015 1129.36L-42.9318 1119.27L-67.3356 1109.09L-74 1106.36L-71.7379 1099.58L-61.6367 1069.78L-67.6752 1042.62L-68.3237 1039.77L-66.9985 1037.62L-53.8777 1016.42L-47.3506 994.382L-50.5998 967.812L-50.8268 965.962L-50.1791 964.392L-41.3674 942.772L-44.9168 916.432L-45.1063 915.072L-44.8253 913.812L-39.2651 889.692L-37.7314 864.088L-37.7347 863.662L-37.6374 863.228L-33.1331 838.51L-33.178 838.49L-29.8926 812.363L-29.7396 811.902ZM-21.4488 842.482L-21.492 842.675L-21.4795 842.84L-26.0163 867.703L-27.4602 893.342L-27.5001 893.962L-27.619 894.492L-33.062 917.882L-29.3513 944.822L-29.0903 946.742L-29.7487 948.362L-38.7167 970.022L-35.4368 996.232L-35.2347 997.762L-35.6379 999.112L-42.831 1023.24L-43.0596 1024.04L-43.4462 1024.66L-55.6284 1044.31L-49.6971 1070.63L-49.2673 1072.68L-49.8683 1074.48L-58.3301 1099.4L-40.6139 1106.72L-40.5242 1106.77L-16.2858 1117.23L-15.6913 1117.45L-15.0952 1117.89L6.5177 1133L7.2035 1133.47L7.8354 1134.18L26.2708 1154.85L26.8685 1155.5L27.3333 1156.3L40.6905 1179.74L64.9255 1184.04L67.6916 1184.51L69.4791 1187.14L85.9183 1211.41L101.586 1232.94L123.34 1244.55L146.817 1254.88L163.523 1260.31L177.515 1247.59L187.831 1223.89L188.414 1222.61L189.482 1221.83L207.764 1208.52L208.364 1208.05L209.056 1207.84L231.39 1200.75L252.76 1193.32L270.609 1180.41L270.832 1180.3L289.417 1168.51L303.577 1151.51L314.716 1128.56L315.541 1126.87L317.18 1126.18L337.881 1117.55L338.548 1095.59L334.313 1068.78L333.996 1066.88L334.599 1065.3L342.59 1043.13L335.708 1016.86L335.259 1015.12L335.57 1013.51L340.344 988.912L292.501 963.67L292.531 963.1L292.649 962.57L297.883 938.13L297.23 913.23L291.256 885.781L290.619 882.885L291.989 880.749L305.068 859.96L350.21 834.337L349.951 832.624L350.431 831.144L357.307 809.319L345.124 783.066L335.515 772.712L313.295 768.695L313.004 768.668L288.915 763.05L286.372 762.47L284.698 760.002L267.006 734.253L245.734 727.111L245.724 727.159L222.163 721.837L221.166 721.646L220.211 721.049L197.959 707.24L176.902 694.509L163.996 693.112L166.887 698.103L161.214 700.659L142.492 709.084L141.935 709.36L141.32 709.451L118.11 713.163L98.3873 722.512L98.1093 722.651L97.8413 722.74L77.3054 729.538L63.536 747.885L62.7055 748.939L61.5124 749.402L40.3628 757.832L40.3179 757.811L21.0538 767.105L5.4463 783.494L5.0688 783.852L4.6573 784.142L-12.1525 795.516L-18.3129 817.244L-21.4488 842.482ZM166.689 731.437L169.513 730.765L172.125 730.155L174.545 732.167L195.742 749.797L216.052 762.769L239.456 765.257L239.893 765.298L240.262 765.414L264.2 771.706L264.951 771.89L265.613 772.247L288.21 784.514L311.032 796.884L313.11 797.995L314.28 800.285L326.867 825.395L328.071 827.753L327.676 830.176L274.787 854.8L283.456 880.825L284.086 882.654L283.786 884.43L279.807 910.56L279.658 911.45L279.339 912.2L269.083 934.98L267.474 959.59L316.612 984.572L320.536 1011.67L320.608 1012.23L320.59 1012.75L320.674 1039.31L320.675 1039.52L320.666 1039.78L319.08 1065.84L318.908 1068.15L317.499 1069.58L310.609 1076.67L308.556 1078.76L305.552 1077.81L280.717 1069.78L278.733 1069.14L277.309 1067.32L261.189 1046.7L237.215 1042.78L234.303 1042.3L232.469 1039.44L217.558 1016.08L193.341 1008.38L189.417 1007.12L188.331 1002.69L181.241 974.042L114.893 954.93L112.241 951.96L112.917 948.28L117.509 921.85L116.047 897.91L109.527 870.689L109.423 870.269L109.364 869.87L154.691 842.1L154.347 839.658L155.451 837.825L168.312 816.246L163.589 791.391L163.519 791.04L163.494 790.71L160.599 763.665L160.515 762.935L160.576 762.22L162.85 736.852L162.861 736.803L162.926 732.317L166.689 731.437ZM-11.1413 1088.56L8.56 1077.98L8.9608 1077.74L9.3848 1077.61L29.5343 1071.43L43.3119 1051.28L43.8872 1050.48L44.6438 1049.98L63.6027 1037.41L64.0591 1037.14L64.5497 1036.94L85.7263 1029.06L87.2983 1028.45L89.0923 1029.06L114.106 1037.17L133.91 1029.67L134.233 1029.55L134.601 1029.45L156.853 1024.72L157.378 1024.58L157.915 1024.62L182.106 1024.7L185.07 1024.73L187.182 1027.45L205.223 1050.55L223.372 1068.96L245.883 1078.74L247.375 1079.37L248.515 1080.69L265.333 1100.41L289.084 1105.76L295.392 1107.22L294.786 1114.11L294.321 1119.06L294.084 1121.66L292.294 1123.02L292.227 1123.09L292.217 1123.14L276.432 1138.33L262.906 1157.8L262.264 1158.67L261.407 1159.19L241.971 1170.79L241.392 1171.16L240.711 1171.33L219.156 1176.49L207.568 1196.37L206.608 1198L204.957 1198.52L183.249 1205.68L165.094 1217.98L162.59 1219.65L159.647 1217.99L139.609 1206.89L139.395 1206.74L139.126 1206.62L119.048 1193.27L94.5373 1185.12L93.8083 1184.84L93.1113 1184.42L70.9696 1170.34L70.0593 1169.76L69.3484 1168.96L50.9131 1148.29L50.4392 1147.75L50.0426 1147.09L34.8771 1122.66L17.1268 1106.66L-8.056 1101.29L-27.2004 1097.25L-11.1413 1088.56ZM172.409 765.091L175.127 790.939L180.405 818.173L180.896 820.842L179.693 822.895L166.633 844.702L120.879 869.301L127.593 896.98L127.777 897.7L127.827 898.36L129.392 924.06L129.443 924.93L129.315 925.72L125.171 949.28L190.267 966.912L191.609 968.432L192.095 970.462L198.574 996.752L221.277 1003.91L223.687 1004.65L225.182 1007.03L239.788 1029.98L263.482 1033.83L265.968 1034.22L267.731 1036.52L284.145 1057.59L303.901 1063.98L307.373 1060.42L308.846 1037.08L308.756 1011.21L304.888 984.092L304.816 983.532L304.835 983.002L255.667 957.05L255.685 956.52L257.417 930.48L257.486 929.29L257.959 928.29L268.17 905.49L271.844 881.828L263.197 855.707L262.578 853.829L262.877 852.053L315.66 828.124L305.346 807.669L284.636 796.48L262.791 784.61L239.929 778.599L215.562 775.989L214.208 775.847L212.915 774.989L190.739 760.843L190.391 760.63L190.019 760.3L173.99 747.004L172.409 765.091ZM19.0622 1093.84L20.72 1094.18L22.1168 1095.45L42.0968 1113.43L42.964 1114.2L43.5759 1115.22L58.8561 1140.03L76.1749 1159.49L96.7203 1172.52L121.421 1180.7L122.206 1180.96L122.982 1181.47L143.791 1195.31L160.302 1204.47L176.578 1193.49L177.112 1193.1L177.748 1192.91L198.273 1186.16L210.061 1166.05L211.109 1164.25L213.04 1163.81L235.812 1158.3L253.757 1147.6L267.04 1128.55L267.327 1128.15L267.649 1127.82L279.093 1116.75L262.837 1113.08L260.764 1112.61L259.151 1110.75L241.848 1090.55L219.618 1080.84L218.361 1080.27L217.346 1079.27L197.991 1059.61L197.675 1059.26L197.404 1058.92L181.07 1038.15L160.357 1038.01L139.255 1042.48L117.879 1050.59L116.262 1051.18L114.457 1050.62L89.3983 1042.48L70.3744 1049.6L52.5387 1061.36L38.3961 1082.03L37.4342 1083.45L35.8945 1083.91L14.6741 1090.45L11.4001 1092.24L19.0622 1093.84ZM-20.7458 922.562L-11.5815 900.252L-9.9205 875.184L-9.8332 873.47L-8.9487 872.175L4.4266 852.053L5.252 827.403L5.3817 823.956L8.0662 822.582L23.8285 814.553L39.9315 798.604L40.4977 798.066L41.1105 797.763L60.3047 788.118L75.2646 770.423L75.8632 769.741L76.5981 769.334L96.1413 758.574L113.716 744.893L114.138 744.555L114.684 744.327L134.846 735.445L138.965 732.975L142.479 737.614L150.197 747.793L152.141 750.384L151.852 753.44L149.303 779.372L149.281 779.469L149.304 779.586L146.016 805.286L146.071 805.258L143.287 831.136L143.255 831.281L143.278 831.397L90.6983 856.854L93.9203 882.88L94.1123 884.456L93.6983 885.86L86.0773 909.68L86.2833 934.59L90.0463 961.08L90.6973 965.68L136.237 966.752L118.041 975.262L111.29 1001.61L110.433 1004.99L107.316 1005.42L83.8683 1008.86L66.4684 1021.99L64.9012 1023.23L62.807 1022.86L38.2502 1018.89L23.1032 1034.11L22.9145 1034.29L22.7366 1034.42L4.7895 1049.1L4.7446 1049.08L-12.8974 1064.16L-22.6296 1072.45L-22.8467 1057.53L-23.127 1031.63L-23.1627 1031.35L-23.1428 1031.04L-21.4345 1004.88L-21.4178 1004.14L-21.2216 1003.49L-14.4385 979.872L-12.3651 956.052L-20.9211 927.322L-21.6794 924.742L-20.7458 922.562ZM-0.774803 955.152L-0.349899 956.562L-0.4729 958.002L-2.7308 983.962L-2.7815 984.622L-2.9669 985.232L-9.7609 1008.9L-11.3553 1033.89L-11.204 1044.69L-3.1828 1037.84L-3.1163 1037.77L14.4642 1023.4L31.3313 1006.47L33.0515 1004.76L35.5373 1005.16L60.4083 1009.27L77.174 996.552L78.1193 995.872L79.3033 995.672L100.74 992.582L107.307 967.052L58.9313 965.15L60.9813 964.18L77.7193 956.44L74.5803 934.01L74.5053 933.02L74.2653 906.5L74.2223 905.37L74.5393 904.4L82.0173 880.987L78.8993 855.38L78.7793 854.368L78.9293 853.481L131.549 827.405L134.344 801.479L134.355 801.43L134.321 801.362L137.543 775.737L139.757 752.84L137.227 749.555L120.854 756.772L103.457 770.322L103.157 770.557L102.868 770.743L83.8483 781.158L68.9437 798.825L68.3343 799.556L67.4988 799.97L48.0152 809.8L31.9679 825.722L31.4466 826.28L30.8338 826.584L16.9206 833.653L16.2274 856.61L16.1525 858.489L15.2122 859.812L-2.7308 885.292L-4.2513 909.729L-4.3436 910.799L-4.7609 911.779L-9.0082 927.622L-0.774803 955.152Z" fill="#06C0F9"/>
<path d="M212.835 -115.118L225.059 -140.846L214.89 -161.286L214.078 -163.011L214.338 -164.939L217.877 -189.874L210.729 -210.894L209.681 -213.879L211.51 -216.678L225.985 -238.449L226.474 -239.216L227.173 -239.813L246.511 -257.005L258.141 -279.216L267.845 -302.843L274.36 -328.999L274.781 -330.751L276.071 -332.08L294.419 -351.419L294.971 -351.996L295.68 -352.445L316.936 -366.229L319.463 -392.214L319.865 -396.352L323.707 -397.896L332.254 -401.356L323.154 -407.22L341.535 -409.846L342.181 -409.789L365.51 -408.047L387.9 -421.844L389.51 -422.82L391.336 -422.832L415.546 -422.609L439.351 -430.289L441.527 -430.948L443.509 -430.137L467.647 -420.351L490.41 -426.688L491.332 -426.919L492.222 -426.897L515.161 -426.492L537.282 -444.131L541.161 -447.273L544.915 -444.426L565.2 -429.014L567.544 -427.259L567.51 -424.219L567.197 -399.744L579.405 -379.098L580.025 -377.993L580.164 -376.719L582.829 -352.023L589.825 -328.941L598.612 -305.667L598.978 -304.674L599.005 -303.584L599.288 -278.348L605.988 -255.274L606.117 -254.844L606.197 -254.408L609.497 -229.803L615.284 -205.652L615.371 -205.117L615.409 -204.575L616.846 -180.5L629.693 -159.896L630.477 -158.565L630.587 -156.988L631.89 -131.302L631.841 -131.295L634.852 -106.598L634.946 -105.965L634.893 -105.31L633.023 -81.2106L632.91 -80.0003L632.396 -78.882L621.361 -55.2141L621.099 -54.7289L620.833 -54.2928L606.114 -32.4867L605.803 -31.9945L605.436 -31.5938L587.793 -12.7534L579.35 10.5443L579.353 10.5935L570.249 35.031L561.832 60.116L560.971 62.627L558.644 63.954L534.886 77.25L535.037 102.703L535.039 104.146L534.392 105.482L523.514 129.277L522.402 131.725L519.957 132.771L492.863 144.254L490.082 145.447L487.566 144.065L467.092 133.009L442.46 140.16L440.379 140.756L438.449 139.987L415.532 130.723L392.668 125.033L368.076 123.571L343.094 124.304L340.678 124.351L338.986 122.752L319.981 105.167L296.631 108.055L296.582 108.062L270.574 111.081L267.589 111.458L265.559 109.26L247.757 89.811L247.059 89.015L246.641 87.981L237.53 64.305L237.112 63.27L237.13 62.123L236.93 37.374L230.447 13.8698L229.925 12.0536L230.535 10.1754L238.532 -14.5513L225.717 -34.7122L225.162 -35.5784L224.943 -36.592L219.576 -61.1008L219.197 -62.9872L219.904 -64.8794L229.305 -89.309L213.506 -108.347L211.023 -111.376L212.835 -115.118ZM241.433 -95.2212L243.696 -92.5095L242.363 -88.9853L232.241 -62.8605L237.021 -41.1038L250.775 -19.5344L252.277 -17.112L251.342 -14.2419L243.016 11.4274L249.276 33.8683L249.477 34.636L249.487 35.48L249.621 59.99L257.945 81.589L273.024 98.093L296.045 95.451L322.081 92.129L324.871 91.78L326.824 93.591L346.049 111.493L369.16 110.828L369.404 110.793L369.704 110.85L394.691 112.305L395.236 112.327L395.788 112.447L419.807 118.42L420.208 118.511L420.564 118.66L441.858 127.31L466.923 119.997L469.343 119.303L471.5 120.488L491.52 131.41L513.34 122.173L522.415 102.267L522.327 74.168L522.344 70.185L525.907 68.184L550.853 54.221L558.364 31.7032L558.447 31.4922L567.594 6.94971L567.59 6.90051L576.625 -17.8251L577.073 -19.1828L578.087 -20.2232L596.191 -39.5275L610.232 -60.4406L620.588 -82.5188L622.337 -104.81L619.389 -129.317L619.358 -129.76L618.12 -153.814L605.318 -174.475L604.538 -175.756L604.431 -177.283L602.869 -202.436L597.26 -226.164L597.19 -226.452L597.17 -226.748L593.834 -251.149L587.037 -274.906L586.783 -275.716L586.773 -276.56L586.416 -301.437L578.086 -323.831L577.974 -324.014L577.96 -324.211L570.665 -348.046L570.525 -348.623L570.439 -349.158L567.881 -373.024L555.447 -394.085L554.603 -395.557L554.629 -397.302L554.843 -420.369L540.657 -431.179L520.639 -415.234L518.77 -413.723L516.448 -413.739L492.127 -414.146L468.148 -407.535L466.063 -406.989L464.185 -407.716L440.201 -417.425L417.65 -410.173L416.634 -409.878L415.645 -409.886L392.134 -410.01L369.549 -396.185L367.753 -395.033L365.718 -395.19L352.416 -396.176L348.047 -394.407L331.484 -387.662L329.089 -362.592L328.776 -359.313L325.991 -357.472L302.518 -342.227L286.05 -324.948L279.801 -299.923L279.689 -299.41L279.521 -298.988L269.393 -274.355L269.264 -274.088L269.138 -273.771L256.889 -250.527L256.326 -249.401L255.347 -248.565L235.642 -230.973L223.583 -212.781L230.269 -193.436L230.763 -192.014L230.524 -190.487L227.006 -165.952L237.691 -144.492L239.067 -141.753L237.689 -138.869L225.805 -113.935L241.433 -95.2212ZM364.113 -363.068L371.199 -364.826L371.259 -365.382L373.091 -365.296L376.388 -366.165L376.395 -366.066L376.461 -365.827L376.531 -365.538L376.551 -365.243L394.106 -364.865L416.674 -378.936L417.478 -379.449L418.396 -379.729L443.182 -386.803L444.345 -387.118L445.539 -386.99L469.425 -384.333L492.565 -393.759L493.91 -394.299L495.299 -394.199L522.507 -392.762L525.282 -392.612L526.918 -390.407L541.947 -369.667L542.602 -368.765L542.877 -367.66L548.742 -344.516L563.206 -324.79L564.461 -323.078L564.319 -320.869L562.778 -293.482L562.789 -293.334L560.951 -269.488L579.432 -251.629L580.649 -250.459L581.067 -248.728L586.717 -224.409L587.138 -222.628L586.571 -220.855L577.398 -193.871L584.983 -172.962L598.318 -151.731L599.538 -149.816L599.159 -147.473L597.273 -135.611L596.507 -131.023L592.086 -129.993L566.006 -123.78L539.922 -117.615L538.756 -117.349L537.558 -117.526L513.31 -121.127L488.772 -121.104L486.551 -121.086L484.915 -122.593L464.008 -141.25L445.395 -156.055L421.916 -164.891L419.99 -165.611L418.972 -167.455L407.003 -188.931L406.605 -189.671L406.4 -190.487L400.381 -216.545L400.242 -217.122L400.197 -217.763L399.411 -243.125L392.089 -265.912L391.908 -266.384L391.822 -266.918L388.371 -291.552L381.982 -314.422L369.771 -335.814L369.318 -336.645L369.103 -337.609L366.072 -352.7L364.833 -352.772L364.113 -363.068ZM306.467 55.252L318.21 31.1348L318.553 30.3892L319.098 29.7143L335.859 9.5571L336.086 9.27582L336.317 9.04379L353.825 -8.18521L361.642 -33.3835L362.531 -36.1974L365.106 -37.5106L390.187 -50.2488L408.95 -65.0697L427.45 -82.9381L428.331 -83.7604L429.382 -84.2589L447.996 -92.7397L448.569 -93.0205L449.103 -93.1466L474.524 -99.6144L475.977 -100.021L477.384 -99.6747L500.904 -94.4771L525.405 -95.7385L550.536 -98.5825L550.829 -98.6244L576.231 -100.413L578.979 -100.656L580.842 -98.7328L590.417 -88.9058L593.605 -85.6794L591.584 -82.1067L585.132 -57.1532L584.631 -55.1411L583.101 -53.7283L562.724 -35.1443L546.305 -17.1752L544.011 8.62729L543.958 9.28171L543.758 9.957L536.053 35.338L535.65 36.64L534.787 37.709L517.642 58.717L516.824 59.729L515.734 60.383L491.437 74.452L477.712 89.996L475.195 92.843L471.645 92.206L447.031 87.612L423.478 83.365L398.488 85.393L398.243 85.428L397.995 85.413L372.665 85.4L371.135 85.42L369.851 84.707L348.302 73.108L324.639 70.817L323.595 70.717L322.622 70.209L309.018 63.495L303.752 60.914L306.467 55.252ZM381.191 -341.973L393.279 -320.912L393.621 -320.265L393.819 -319.547L400.581 -295.585L400.709 -295.156L400.737 -294.762L404.205 -269.882L411.683 -246.968L411.941 -246.109L411.954 -245.216L412.698 -219.748L418.429 -194.992L428.983 -176.1L451.398 -167.66L452.207 -167.377L452.94 -166.785L472.443 -151.262L472.704 -151.05L491.881 -133.838L514.788 -133.877L515.232 -133.89L515.682 -133.805L539.135 -130.29L563.954 -136.174L585.567 -141.302L586.403 -146.297L573.898 -166.254L573.567 -166.754L573.326 -167.366L564.871 -190.837L564.084 -192.914L564.819 -195.109L574.122 -222.36L569.201 -243.301L549.974 -261.949L548.013 -263.858L548.257 -266.729L550.251 -293.285L551.65 -318.462L537.835 -337.385L537.179 -338.287L536.904 -339.392L530.938 -362.571L518.204 -380.157L495.207 -381.399L471.917 -372.001L470.38 -371.384L468.837 -371.561L444.609 -374.17L421.709 -367.664L398.435 -353.094L396.779 -352.062L394.901 -352.092L379.127 -352.426L381.191 -341.973ZM327.811 58.273L351.519 60.508L352.713 60.636L353.739 61.186L374.988 72.729L398.88 72.649L424.167 70.628L425.002 70.559L425.752 70.701L450.101 75.033L450.154 75.076L471.12 79.046L483.202 65.428L483.933 64.578L484.929 63.988L508.987 50.052L524.399 31.0826L531.596 7.61459L534.076 -19.7569L534.263 -22.0226L535.819 -23.7873L554.074 -43.7599L554.255 -43.9849L554.486 -44.2169L573.475 -61.4583L578.801 -82.022L573.482 -87.4815L550.828 -85.9366L525.505 -83.0153L525.309 -82.9874L525.11 -83.0087L499.768 -81.7764L498.982 -81.7139L498.18 -81.8977L475.315 -86.8906L452.077 -80.9834L434.899 -73.1555L416.86 -55.7512L416.629 -55.5192L416.346 -55.3295L396.877 -40.0097L396.363 -39.588L395.742 -39.3001L372.718 -27.5027L365.259 -3.5495L364.734 -1.88229L363.486 -0.65921L344.873 17.7227L328.938 36.966L320.395 54.606L327.811 58.273ZM240.693 -140.393L252.839 -165.812L241.218 -185.845L239.363 -189.063L241.35 -192.431L254.225 -213.775L254.662 -214.584L255.358 -215.23L273.166 -232.403L278.965 -257.512L279.392 -259.165L280.535 -260.473L297.075 -279.554L307.142 -302.934L315.308 -328.083L316.001 -330.172L317.734 -331.514L338.827 -347.613L339.498 -348.605L341.615 -349.405L349.03 -352.106L356.396 -354.8L357.031 -347.129L358.368 -331.548L358.426 -330.71L358.286 -329.894L353.851 -303.637L363.933 -283.035L363.936 -282.986L363.989 -282.944L374.282 -260.731L389.653 -240.736L391.341 -238.489L390.703 -235.612L385.127 -210.137L402.167 -193.117L403.814 -191.461L403.881 -189.082L404.723 -162.932L404.747 -162.587L404.722 -162.235L402.798 -136.087L402.713 -135.18L402.384 -134.237L393.935 -111.735L393.767 -111.313L393.55 -110.884L381.441 -88.4554L372.94 -63.1593L371.918 -60.1274L368.988 -58.9624L342.959 -48.4771L329.474 -28.7878L316.996 -6.7048L308.801 19.4431L308.041 21.9897L305.767 23.3595L270.888 44.264L272.688 31.8669L275.785 9.78079L264.953 -11.6587L264.322 -12.912L264.271 -14.3476L264.107 -39.9979L264.118 -40.5468L264.181 -41.0534L268.073 -65.8901L259.557 -88.1083L259.139 -89.1432L259.154 -90.3394L259.152 -113.674L241.521 -133.496L238.842 -136.496L240.693 -140.393ZM270.251 -120.883L271.751 -119.206L271.766 -116.87L271.656 -92.3245L280.395 -69.7402L280.997 -68.1843L280.72 -66.5027L276.67 -40.3996L276.787 -16.8323L287.897 5.065L288.807 6.776L288.501 8.7601L286.846 20.3906L297.651 13.9211L305.233 -10.3979L305.482 -11.0802L305.831 -11.7273L318.834 -34.7808L319.013 -35.055L319.142 -35.3223L333.973 -56.9453L335.183 -58.7103L337.104 -59.4823L362.126 -69.5254L369.815 -92.3173L369.973 -92.8871L370.28 -93.4286L382.431 -115.962L390.334 -137.093L392.194 -162.038L391.403 -185.359L373.718 -203.133L371.433 -205.443L372.187 -208.785L377.832 -234.669L363.751 -253.156L363.371 -253.649L363.085 -254.205L352.566 -276.834L341.669 -299.209L340.805 -300.977L341.159 -302.968L345.752 -330.492L345.196 -337.03L326.489 -322.814L318.859 -299.185L318.782 -298.875L318.656 -298.559L308.162 -274.222L307.687 -273.258L307.005 -272.414L290.78 -253.777L284.95 -228.414L284.498 -226.409L282.97 -224.947L264.239 -206.847L253.983 -189.708L265.427 -170.098L267.055 -167.295L265.547 -164.144L253.75 -139.373L270.251 -120.883ZM343.445 -342.999L343.383 -343.189L343.275 -343.323L343.445 -342.999Z" fill="#FF37A5"/>
<path d="M445.614 -14.7625L424.335 5.47525H388.917L387.5 14.5H427.45L464.008 -8.18521L445.614 -14.7625Z" fill="#FF37A5"/>
<path d="M384.838 892.789L385.006 866.724L380.337 843.21L380.064 841.948L380.331 840.481L385.356 812.475L385.682 810.671L386.684 809.061L401.835 784.711L414.87 758.941L415.265 758.238L430.36 733.347L430.641 732.905L430.928 732.511L448.388 709.18L463.893 685.074L464.095 684.772L464.342 684.449L481.339 662.059L492.129 636.322L503.011 608.788L504.152 605.824L506.61 604.246L516.704 597.761L517.095 597.472L517.541 597.26L540.269 586.178L540.893 585.882L563.993 577.459L564.177 577.423L564.405 577.366L586.287 571.17L606.987 553.264L608.447 552.005L610.095 551.636L631.656 547.294L651.777 527.445L652.455 526.763L653.203 526.305L675.71 512.233L677.911 510.881L679.845 511.459L703.007 517.907L723.179 508.809L743.12 491.262L749.472 485.725L751.119 492.936L756.315 515.22L771.577 530.31L773.567 532.306L766.047 565.103L781.46 578.059L783.215 579.599L783.052 582.512L781.358 609.661L790.766 627.886L806.526 643.256L807.049 643.781L807.41 644.538L816.942 665.283L817.553 666.643L817.41 668.412L815.395 696.074L822.86 716.767L822.91 716.795L830.333 737.973L845.111 753.807L847.016 755.895L846.092 759.581L838.213 790.744L837.479 793.567L835.39 795.536L814.89 814.895L810.734 841.354L810.259 844.415L808.062 846.694L787.732 867.673L777.799 891.303L775.059 920.546L774.752 923.424L772.799 925.793L754.555 947.9L744.211 973.42L743.463 975.22L742.196 976.54L723.392 996.44L721.455 1023.96L721.238 1026.8L719.34 1029.24L698.885 1055.28L696.655 1058.14L693.815 1058.3L672.097 1059.37L649.682 1067.62L649.141 1067.83L648.635 1067.91L625.913 1071.46L624.439 1071.7L623.294 1071.06L604.991 1060.91L583.609 1080.79L581.733 1082.56L579.637 1082.68L558.01 1084.16L535.454 1093.31L533.113 1094.21L531.35 1093.04L512.517 1080.52L491.605 1092.39L489.568 1093.51L487.788 1093.06L468.675 1088.15L446.663 1109.62L442.12 1114.09L439.14 1110.24L422.861 1089.04L422.147 1088.04L421.908 1086.65L418.243 1061.99L418.009 1060.66L418.405 1059.08L424.768 1031.78L409.632 1016.99L407.288 1014.75L408.668 1010.49L418.153 981.25L405.678 965.04L404.485 963.49L404.694 961.02L406.744 935.92L390.222 921.326L389.036 920.29L388.751 918.466L384.907 893.891L384.805 893.371L384.838 892.789ZM399.778 910.609L416.952 925.618L418.751 927.137L418.465 930.211L416.332 955.87L429.441 972.75L431.233 975.1L430.035 978.86L420.609 1007.77L435.521 1022.2L437.56 1024.22L436.685 1027.94L429.77 1057.56L433.037 1079.32L445.621 1095.67L465.887 1075.86L468.603 1073.18L471.353 1073.94L491.297 1079.18L513.09 1066.79L515.876 1065.21L517.992 1066.63L537.19 1079.49L558.124 1070.96L558.977 1070.61L559.816 1070.57L580.192 1069.21L603.024 1047.98L606.311 1044.92L609.198 1046.55L629.204 1057.74L650.034 1054.46L672.623 1046.08L673.436 1045.79L674.181 1045.75L693.803 1044.8L710.165 1023.95L712.184 995.87L712.439 992.51L714.888 989.95L734.746 968.94L745.026 943.7L745.622 942.23L746.621 941.04L763.866 920.128L766.532 892.416L766.621 891.033L767.227 889.663L778.509 862.816L779.218 861.088L780.529 859.745L799.89 839.792L804.149 812.975L804.648 809.696L807.123 807.389L827.925 787.784L834.189 763.109L820.761 748.542L820.128 747.862L819.797 746.937L812.053 724.932L804.176 702.99L803.724 701.812L803.848 700.31L805.799 672.936L797.239 654.308L781.563 638.848L781.095 638.399L780.75 637.79L770.386 617.594L769.68 616.227L769.772 614.43L771.362 588.517L755.475 575.064L753.213 573.146L754.112 569.214L760.78 539.913L746.699 525.81L745.806 524.893L745.473 523.504L741.601 507.14L727.145 519.818L726.244 520.606L725.257 521.022L702.358 531.361L700.613 532.137L699.071 531.733L676.297 525.412L656.689 537.645L635.677 558.38L634.019 559.991L632.143 560.416L610.22 564.879L589.778 582.56L588.491 583.686L587.082 584.096L563.786 590.653L541.722 598.688L519.352 609.601L512.023 614.312L502.326 638.861L502.292 638.98L502.253 639.051L490.823 666.277L490.341 667.485L489.56 668.526L472.266 691.211L456.48 715.759L456.277 716.061L456.069 716.314L438.733 739.484L424.117 763.58L411.077 789.301L410.885 789.702L410.643 790.074L396.222 813.356L391.821 837.922L396.363 860.671L396.48 861.337L396.508 862.046L396.296 888.595L399.778 910.609ZM553.582 622.866L559.912 626.052L578.602 608.635L579.626 607.685L580.792 607.184L603.737 597.288L626.091 585.764L626.71 585.419L627.35 585.27L650.43 579.331L650.47 579.261L671.903 572.813L691.998 551.378L695.12 548.094L698.194 549.266L718.734 557.06L720.152 557.625L720.873 559.139L728.276 575.222L743.274 590.025L744.001 590.711L744.353 591.833L751.515 613.65L762.203 632.918L762.243 632.848L773.82 652.107L774.336 652.998L774.504 654.155L777.898 679.356L778.046 680.317L777.881 681.426L773.882 708.482L791.713 719.931L793.371 721.001L793.663 723.337L796.706 748.756L796.91 750.258L796.43 751.929L790.092 774.112L787.911 781.9L782.094 780.481L760.9 775.37L739.976 782.659L717.529 798.197L716.394 798.992L715.248 799.226L692.368 804.4L691.728 804.549L691.162 804.508L668.663 803.933L667.769 803.893L666.983 803.544L649.037 794.572L625.195 801.285L621.736 802.254L620.284 799.127L610.532 778.074L610.297 777.619L610.146 777.072L605.137 755.678L589.135 742.022L588.721 741.65L588.392 741.188L576.236 722.667L576.016 722.358L575.886 722.008L566.498 701.298L565.876 699.839L566.058 698L568.817 669.831L556.527 654.054L556.357 653.774L556.192 653.543L545.171 634.226L545.001 633.945L544.876 633.644L544.865 633.546L537.064 614.559L553.582 622.866ZM484.961 1042.02L498.704 1015.86L499.523 1014.29L500.805 1013.11L521.427 994.47L534.943 971.05L547.87 944.25L548.175 943.59L548.62 942.91L564.792 919.368L580.881 893.233L581.28 892.579L581.78 891.982L600.378 870.122L601.382 868.976L602.527 868.279L626.425 854.064L627.48 853.409L628.493 853.238L649.47 849.585L671.877 840.356L672.011 840.292L694.618 831.638L694.752 831.575L717.833 823.418L718.374 823.214L718.93 823.156L740.323 820.337L762.499 805.34L763.158 804.924L763.833 804.656L786.399 795.609L792.787 793.097L792.393 800.502L792.094 806.573L792.011 808.468L791.272 809.901L781.569 836.619L781.102 837.974L780.242 839.155L763.783 861.754L756.075 888.298L755.344 890.707L753.613 892.508L734.148 912.355L730.222 939.22L730.028 940.5L729.501 941.73L717.198 969.11L716.321 971.02L714.871 972.38L693.165 992.31L675.661 1014.32L673.718 1016.79L671.281 1017.22L648.194 1021.31L647.454 1021.4L646.743 1021.33L626.481 1018.4L604.411 1033.97L603.411 1034.7L602.319 1035.01L579.335 1041.42L577.648 1041.86L576.27 1041.22L556.23 1031.49L535.671 1036.9L512.733 1049.99L511.365 1050.8H510.054L488.025 1051.14L480.118 1051.22L484.961 1042.02ZM566.059 643.556L579.516 660.635L580.764 662.261L580.52 664.851L577.616 693.862L586.202 712.735L597.863 730.563L614.518 744.632L615.554 745.584L615.948 747.099L621.154 769.482L629.268 786.981L651.378 780.728L653.11 780.268L654.493 780.953L673.042 790.309L694.179 790.858L715.227 786.089L737.63 770.572L738.462 770.023L739.276 769.74L762.328 761.752L763.727 761.244L764.98 761.578L781.471 765.619L785.109 752.965L782.518 731.404L763.919 719.34L761.454 717.724L762.036 713.891L766.408 684.132L763.25 661.191L752.227 642.751L752.172 642.674L752.162 642.576L741.149 622.894L740.778 622.039L733.822 600.846L719.019 586.106L718.495 585.581L718.184 584.852L711.068 569.716L695.065 563.639L676.613 583.315L675.099 584.961L673.328 585.491L650.078 592.49L649.855 592.596L627.103 598.534L605.057 609.861L604.611 610.072L582.875 619.447L562.903 638.039L566.059 643.556ZM511.81 1037.18L534.218 1024.4L534.971 1023.99L535.745 1023.77L558.715 1017.68L560.353 1017.21L561.686 1017.87L581.637 1027.64L601.937 1021.99L624.957 1005.67L627.003 1004.18L629.001 1004.47L650.556 1007.66L670.376 1004.14L686.522 983.91L686.972 983.28L687.531 982.81L708.128 963.92L719.101 939.49L723.264 910.863L723.734 907.753L725.975 905.453L745.95 885.107L753.446 859.229L753.926 857.558L754.994 856.124L771.701 833.202L779.545 811.541L765.018 817.293L742.273 832.663L740.96 833.543L739.624 833.764L717.402 836.718L694.862 844.67L672.433 853.239L649.624 862.659L648.995 862.906L648.438 862.963L627.839 866.644L606.191 879.534L589.096 899.65L573.408 925.132L573.245 925.364L573.126 925.575L557.116 948.89L544.54 975.01L544.387 975.34L544.185 975.64L529.519 1001.05L528.73 1002.46L527.616 1003.45L507.172 1022.01L499.089 1037.39L511.81 1037.18ZM410.888 834.813L432.785 810.461L436.227 781.659L436.762 777.384L440.204 774.928L464.726 757.736L478.697 735.079L491.317 709.815L500.977 682.241L501.38 681.174L501.983 680.218L517.263 655.755L520.081 650.914L524.092 651.642L533.74 653.41L536.891 653.978L537.105 657.796L538.567 684.222L544.727 705.43L557.989 721.984L558.313 722.397L558.504 722.874L568.322 743.225L568.748 744.158L568.866 745.288L570.755 770.428L582.489 787.603L596.327 806.977L598.519 810.011L596.177 814.473L582.946 839.717L581.794 868.465L581.68 870.942L580.272 873.156L563.691 899.061L562.605 900.761L561.074 901.796L538.977 916.653L533.138 944.48L532.596 946.9L530.929 948.88L512.959 970.03L500.504 995.52L499.43 997.78L497.558 999.13L473.993 1016.08L459.534 1033.19L451.069 1043.13L450.358 1031.46L448.859 1005.57L448.838 1005.37L447.912 980.03L441.84 957.44L441.699 956.99L437.152 932.851L437.06 932.43L437.059 931.967L435.87 908.144L419.737 892.796L417.494 890.611L418.661 886.552L426.611 858.758L410.009 845.18L405.185 841.177L410.888 834.813ZM437.367 848.762L439.928 850.848L438.693 855.145L430.6 883.368L445.834 897.749L447.141 899.038L447.278 901.241L448.464 926.818L452.884 950.19L459.191 973.24L459.353 973.88L459.391 974.69L460.32 1000.96L460.276 1000.98L461.139 1015.01L467.933 1006.99L468.685 1006.12L469.557 1005.5L491.987 989.35L503.978 964.8L504.56 963.64L505.396 962.68L522.491 942.56L528.682 913.181L529.536 909.27L532.687 907.158L556.365 891.294L570.368 869.395L571.601 840.97L571.673 838.977L572.689 837.052L584.504 814.386L572.803 797.969L572.798 797.92L572.748 797.892L560.334 779.596L559.61 778.496L559.495 776.952L557.491 751.608L548.368 732.525L534.882 715.614L534.337 714.892L534.1 713.973L527.387 691.068L527.175 690.395L527.143 689.637L525.832 666.438L523.108 665.925L511.077 685.188L501.593 712.214L501.377 712.832L501.106 713.373L488.023 739.578L487.831 739.979L487.594 740.4L472.261 765.249L471.219 766.929L469.693 768.013L447.093 783.881L443.801 811.427L443.46 814.424L441.318 816.78L423.032 837.151L437.367 848.762Z" fill="#20CA4B"/>
<path d="M447.093 680.218L430.641 693.862L399 705.43L396.993 693.862L423.517 683.012L456.554 656.848L447.093 680.218Z" fill="#20CA4B"/>
<path d="M342.684 442.049L359.822 420.6L356.788 393.277L356.441 390.145L357.909 387.449L371.21 363.152L374.058 336.866L371.88 306.687L371.787 305.619L371.92 304.58L375.85 275.467L376.549 270.235L380.322 269.093L386.663 267.224L400.213 246.372L415.058 223.492L415.48 222.896L415.948 222.387L433.392 204.39L450.354 185.884L451.324 184.83L452.505 184.372L473.992 177.049L488.99 157.926L489.358 157.526L506.523 139.006L506.924 138.57L507.338 138.257L527.839 123.13L531.433 120.462L533.951 124.4L547.348 145.413L547.404 145.421L547.451 145.508L560.559 166.972L560.791 167.407L571.519 188.363L593.708 190.393L595.757 190.574L597.03 192.768L609.874 214.726L610.083 215.118L610.281 215.591L620.038 239.184L638.497 248.089L640.796 249.237L641.473 252.493L645.802 274.416L646.045 275.666L645.961 276.996L643.865 305.49L647.023 334.536L647.345 337.421L646.101 339.943L633.422 365.903L630.282 392.436L630.918 421.402L630.885 421.438L632.285 450.949L632.395 454.132L630.778 456.647L616.31 479.047L616.1 479.345L615.855 479.68L599.003 500.474L598.157 501.463L597.135 502.023L577.876 511.947L561.625 531.193L561.157 531.702L560.643 532.124L541.74 546.684L541.068 547.207L540.348 547.44L519.591 554.45L499.988 565.711L499.798 565.85L499.618 565.908L480.291 575.011L464.955 595.878L462.934 598.625L460.326 598.088L445.045 595.156L444.479 595.083L443.943 594.771L423.565 583.548L422.95 583.185L422.421 582.589L406.664 565.174L405.15 563.517L404.932 560.727L402.437 528.069L390.548 509.89L372.846 496.654L372.035 496.022L371.444 495.012L359.198 473.78L342.332 452.892L338.158 447.726L342.684 442.049ZM552.129 176.617L539.309 155.596L528.396 138.558L511.926 150.748L495.262 168.724L479.485 188.762L478.385 190.165L477 190.638L455.379 198.106L439.096 215.805L422.144 233.337L407.663 255.614L392.861 278.377L392.506 278.901L391.001 280.536L389.717 280.9L385.371 282.252L382.339 305.021L384.502 334.873L384.536 335.73L384.447 336.653L382.529 354.77L400.215 333.757L399.586 321.367L398.463 320.248L398.594 316.528L398.858 306.608L398.81 305.627L399.088 304.363L399.108 304.203L407.127 305.189L409.268 304.651L409.66 312.826L422.927 325.86L440.292 338.363L459.986 346.613L460.838 346.926L461.493 347.659L477.368 364.602L478.251 365.569L478.734 366.971L487.065 392.251L487.408 393.392L487.471 394.7L488.38 417.039L488.44 418.143L488.207 419.291L482.929 447.459L482.753 448.615L482.28 449.611L471.625 473.921L472.184 503.04L472.25 505.445L471.237 507.509L459.052 533.208L455.209 543.441L452.337 551.036L447.541 546.684L430.385 531.202L430.225 531.1L430.076 530.919L414.108 513.801L413.683 513.3L413.301 512.682L401.044 490.637L400.766 490.114L400.554 489.518L391.762 464.464L377.703 446.372L376.817 445.202L376.445 443.611L371.351 421.143L370.884 419.173L371.297 417.073L376.813 389.057L378.727 372.321L367.447 392.977L370.605 421.128L371.042 425.125L368.741 428.04L353.784 446.843L366.729 462.842L367.028 463.205L367.26 463.641L379.251 484.393L396.805 497.447L397.513 497.985L398.044 498.784L411.445 519.31L412.484 520.865L412.637 523.038L415.102 555.245L428.817 570.408L447.987 580.948L460.038 583.263L474.373 563.69L475.351 562.353L476.599 561.822L497.116 552.181L516.64 540.869L517.043 540.636L517.46 540.527L538.026 533.655L555.687 520.033L572.326 500.226L573.106 499.31L574.094 498.787L593.275 489.016L609.071 469.507L621.734 449.963L620.508 423.359L620.495 423.236L620.515 423.076L619.848 393.456L619.827 392.722L619.919 392.002L623.343 363.028L623.535 361.306L624.272 359.816L636.424 335.047L633.494 307.818L633.38 306.91L633.436 306.023L635.483 278.132L632.03 260.83L614.286 252.179L612.659 251.402L611.806 249.302L601.235 223.979L590.032 204.709L567.684 202.578L565.408 202.368L564.143 199.89L552.129 176.617ZM404.619 268.143L414.049 266.425L429.524 263.573L443.941 245.838L456.167 219.82L456.771 218.475L457.653 217.654L475.259 199.962L475.46 199.744L475.65 199.606L494.254 183.788L495.226 182.938L496.32 182.712L516.795 178.347L517.302 178.209L517.845 178.238L536.324 179.346L538.27 179.432L539.551 181.343L553.676 201.84L553.987 202.327L554.256 202.93L564.297 225.87L583.594 233.176L584.117 233.365L584.562 233.706L602.471 247.131L602.734 247.327L603.02 247.567L619.07 264.045L626.143 271.289L617.508 276.683L599.005 288.125L583.168 307.953L582.646 308.658L582.008 309.145L564.039 322.485L548.814 348.322L547.598 350.401L545.763 351.019L525.182 358.458L524.765 358.567L524.325 358.633L501.288 361.654L500.181 361.756L499.146 361.298L479.044 351.289L478.202 350.897L477.558 350.083L462.926 332.202L445.309 320.318L444.225 319.569L443.562 318.225L432.133 295.555L414.572 285.261L414.196 285.051L413.84 284.68L413.761 284.629L413.063 284.012L404.619 268.143ZM464.487 534.595L481.962 512.986L488.09 487.608L489.506 458.133L489.577 456.68L490.034 455.357L499.116 428.489L507.616 400.327L508.276 398.096L509.717 396.737L527.781 379.51L544.167 361.012L560.739 340.384L561.217 339.795L561.732 339.374L580.482 324.428L598.149 307.841L614.207 292.794L619.02 288.251L621.506 294.907L624.309 302.457L625.095 304.63L624.827 306.505L623.956 335.319L623.942 336.779L623.508 338.146L615.007 364.52L615.969 392.512L616.071 395.084L614.948 397.337L602.695 421.321L605.121 449.786L605.394 453.274L603.576 456.007L586.912 480.725L585.57 482.666L583.722 483.161L562.975 488.303L548.197 509.526L547.243 510.907L545.918 511.591L525.493 521.406L525.099 521.559L524.739 521.675L504.921 526.977L491.03 550.264L488.796 554L485.583 553.019L466.189 546.92L456.89 544.022L464.487 534.595ZM438.091 282.749L439.298 283.432L440.054 284.95L451.508 307.868L468.68 319.411L469.238 319.767L469.71 320.355L484.136 338.047L502.348 347.083L523.919 344.28L542.171 337.721L556.93 312.596L557.671 311.309L558.713 310.59L577.096 296.938L593.177 276.776L593.866 275.889L594.707 275.387L605.361 268.83L596.534 259.777L579.596 247.086L558.992 239.206L557.207 238.53L556.251 236.336L545.523 212.009L533.011 193.75L516.988 192.794L498.07 196.912L480.472 211.842L464.116 228.313L452.055 253.946L451.615 254.906L451.036 255.604L434.683 275.65L433.348 277.307L431.668 277.62L429.864 277.998L438.091 282.749ZM485.516 537.817L498.532 515.962L499.915 513.702L501.91 513.185L523.329 507.519L542.002 498.576L557.144 476.75L558.453 474.846L560.234 474.424L580.948 469.318L594.452 449.272L592.09 421.426L591.825 418.548L593.093 416.07L605.456 391.897L604.505 364.718L604.447 362.923L605.002 361.288L613.591 334.682L614.317 309.465L603.395 319.685L585.428 336.599L585.204 336.774L585.014 336.912L566.677 351.545L550.717 371.438L550.607 371.627L550.506 371.736L533.519 390.889L533.352 391.07L533.128 391.245L516.47 407.149L508.687 433.087L508.667 433.247L508.589 433.399L499.823 459.373L498.436 488.405L498.369 489.372L498.133 490.317L491.33 518.492L490.837 520.542L489.669 522.017L478.647 535.718L485.516 537.817ZM421.364 502.543L436.883 519.116L448.924 530.042L450.278 526.438L450.432 526.132L461.738 502.352L461.18 473.233L461.15 470.995L462.006 469.033L473.035 444.039L477.933 417.935L477.126 398.169L469.643 375.476L455.363 360.24L436.055 352.12L435.645 351.946L435.28 351.655L417.389 338.76L417.127 338.564L416.841 338.324L410.654 332.251L410.785 335.274L410.983 339.118L408.779 341.72L390.093 364.027L387.064 390.37L386.961 391.17L381.752 417.681L386.018 436.509L399.788 454.157L400.432 454.971L400.786 456.032L409.766 481.639L421.364 502.543Z" fill="#9D0AFF"/>
<path d="M404 427L423 433.5L433.348 427L440.292 431L459.986 421.128L453 422.5L433.348 415L423 421.128L405.15 411.5L404 427Z" fill="#9D0AFF"/>
</g>
</g>
<defs>
<clipPath id="clip0_1667_6484">
<rect width="440" height="884" fill="white"/>
</clipPath>
</defs>
</svg>
