<svg width="501" height="1016" viewBox="0 0 501 1016" fill="none" xmlns="http://www.w3.org/2000/svg">
<g opacity="0.05">
<mask id="mask0_1296_36511" style="mask-type:alpha" maskUnits="userSpaceOnUse" x="0" y="0" width="501" height="1016">
<path d="M0.57419 327.496L7.082 286.918L3.25387 246.148L2.87106 242.895L3.44528 239.832L10.5273 200.977L1.91403 162.121L0.956995 157.91L1.33981 153.891L6.50777 112.738L4.4023 70.8203L4.2109 66.8008L5.35933 62.9727L16.8437 21.8203L38.8554 28.1367L39.8125 28.1367L36.5586 7.08203L76.3711 0.765625L80.7734 -2.76343e-07L85.3671 0.957031L125.754 9.57031L166.141 10.9102L207.867 5.74218L211.504 5.35937L214.949 5.74218L253.996 12.25L294 4.97655L297.637 4.40233L301.273 4.78515L343.191 10.3359L385.109 10.5273L427.984 9.18748L431.047 9.18748L434.109 9.7617L472.965 18.7578L490.191 22.5859L491.914 40.1953L496.508 85.75L496.891 90.1523L495.742 94.5547L485.406 133.602L490.766 172.266L490.957 174.371L490.957 176.477L489.234 220.117L489.234 220.309L487.129 263.949L487.129 264.332L484.258 306.059L487.512 347.211L487.703 347.02L493.062 390.469L493.062 391.043L493.254 391.809L496.508 435.258L496.699 438.129L496.316 440.809L490 481.961L492.871 522.73L493.062 523.113L493.062 523.305L494.785 566.945L494.785 569.816L491.531 613.457L491.34 613.457L491.34 654.992L492.297 698.25L492.297 700.164L492.105 701.887L487.129 740.168L499.57 778.449L500.91 782.469L500.719 786.488L499.953 830.129L499.953 832.234L499.379 834.34L491.34 875.301L493.637 915.687L493.828 920.09L492.488 924.301L480.621 961.625L479.09 966.793L475.262 970.812L449.23 999.141L442.148 1006.8L431.621 1006.99L387.789 1007.56L346.254 1011.39L345.871 1011.58L345.488 1011.58L301.848 1014.26L298.402 1014.26L256.676 1010.82L215.715 1015.22L210.738 1015.6L206.145 1014.26L167.672 1002.78L129.008 1007.75L125.754 1008.14L122.309 1007.56L80.9648 1001.63L40.7695 1005.46L18.7578 1007.37L14.5469 985.551L7.27344 946.313L6.89062 943.633L3.44531 900.184L3.2539 897.695L3.44531 895.398L8.23046 854.629L2.29687 814.434L1.72265 810.031L2.67968 805.82L11.4844 765.051L11.6758 725.047L5.16796 683.895L4.59374 680.641L4.97655 677.195L9.7617 637.766L1.14842 597.953L-1.71181e-05 592.594L1.33983 587.043L11.1015 547.422L7.27342 508.184L7.08201 507.801L7.08201 507.418L4.01951 463.777L4.01951 461.289L5.55076 419.371L2.48825 376.496L2.48825 376.113L0.191378 332.473L-2.85972e-05 329.984L0.57419 327.496ZM51.2968 373.434L51.4883 373.242L54.3594 416.883L54.5508 418.031L54.3594 419.18L53.0195 461.098L56.082 503.973L55.8906 504.164L60.2929 546.848L60.6758 551.059L59.7187 555.078L50.3398 593.359L58.3789 631.449L59.3359 635.277L58.7617 639.297L53.9765 679.301L60.293 719.879L60.6758 721.984L60.6758 723.898L60.293 767.539L60.293 770.027L59.7187 772.324L51.2969 811.563L57.0391 851.184L57.6133 854.246L57.2305 857.309L52.2539 898.078L55.5078 939.039L58.5703 954.734L80.0078 952.629L82.8789 952.437L85.75 952.82L126.137 958.754L166.332 953.586L171.5 952.82L176.477 954.352L215.141 966.027L254.187 961.816L256.484 961.625L258.781 961.816L300.699 965.262L341.66 962.582L385.301 958.562L387.215 958.562L420.328 958.18L435.449 941.719L444.254 913.773L442.531 874.535L442.34 871.473L442.914 868.602L450.953 826.875L451.527 789.359L438.895 749.93L437.363 744.762L437.937 739.402L443.105 697.676L442.34 655.758L442.34 655.184L442.531 611.543L442.531 610.586L442.723 609.82L445.594 568.859L444.062 525.984L441 482.535L440.809 479.855L441.191 477.176L447.125 436.215L444.254 395.445L439.086 352.953L438.895 352.379L438.895 351.996L435.449 308.355L435.258 306.633L435.449 304.719L438.129 261.844L438.129 261.652L440.234 218.012L440.234 218.203L441.766 176.859L436.215 135.324L435.641 130.348L436.789 125.754L447.125 86.5156L444.828 62.5898L426.07 58.3789L385.684 59.5273L384.727 59.5273L341.469 59.1445L340.129 59.1445L298.785 53.9766L258.59 61.0586L254.57 61.8242L250.551 61.25L210.547 54.9336L170.16 59.7187L168.246 59.9102L166.332 59.9102L122.883 58.5703L120.586 58.5703L118.48 57.9961L79.4336 49.957L58.9531 53.2109L53.4023 72.1602L55.5078 111.973L55.5078 114.078L55.3164 116.184L50.5312 155.613L59.3359 195.234L60.2929 199.828L59.5273 204.613L52.2539 245.383L55.8906 285.387L56.2734 288.449L55.6992 291.512L49.1914 332.09L51.2968 373.434Z" fill="black"/>
</mask>
<g mask="url(#mask0_1296_36511)">
<path d="M0.57419 327.496L7.082 286.918L3.25387 246.148L2.87106 242.895L3.44528 239.832L10.5273 200.977L1.91403 162.121L0.956995 157.91L1.33981 153.891L6.50777 112.738L4.4023 70.8203L4.2109 66.8008L5.35933 62.9727L16.8437 21.8203L38.8554 28.1367L39.8125 28.1367L36.5586 7.08203L76.3711 0.765625L80.7734 -2.76343e-07L85.3671 0.957031L125.754 9.57031L166.141 10.9102L207.867 5.74218L211.504 5.35937L214.949 5.74218L253.996 12.25L294 4.97655L297.637 4.40233L301.273 4.78515L343.191 10.3359L385.109 10.5273L427.984 9.18748L431.047 9.18748L434.109 9.7617L472.965 18.7578L490.191 22.5859L491.914 40.1953L496.508 85.75L496.891 90.1523L495.742 94.5547L485.406 133.602L490.766 172.266L490.957 174.371L490.957 176.477L489.234 220.117L489.234 220.309L487.129 263.949L487.129 264.332L484.258 306.059L487.512 347.211L487.703 347.02L493.062 390.469L493.062 391.043L493.254 391.809L496.508 435.258L496.699 438.129L496.316 440.809L490 481.961L492.871 522.73L493.062 523.113L493.062 523.305L494.785 566.945L494.785 569.816L491.531 613.457L491.34 613.457L491.34 654.992L492.297 698.25L492.297 700.164L492.105 701.887L487.129 740.168L499.57 778.449L500.91 782.469L500.719 786.488L499.953 830.129L499.953 832.234L499.379 834.34L491.34 875.301L493.637 915.687L493.828 920.09L492.488 924.301L480.621 961.625L479.09 966.793L475.262 970.812L449.23 999.141L442.148 1006.8L431.621 1006.99L387.789 1007.56L346.254 1011.39L345.871 1011.58L345.488 1011.58L301.848 1014.26L298.402 1014.26L256.676 1010.82L215.715 1015.22L210.738 1015.6L206.145 1014.26L167.672 1002.78L129.008 1007.75L125.754 1008.14L122.309 1007.56L80.9648 1001.63L40.7695 1005.46L18.7578 1007.37L14.5469 985.551L7.27344 946.313L6.89062 943.633L3.44531 900.184L3.2539 897.695L3.44531 895.398L8.23046 854.629L2.29687 814.434L1.72265 810.031L2.67968 805.82L11.4844 765.051L11.6758 725.047L5.16796 683.895L4.59374 680.641L4.97655 677.195L9.7617 637.766L1.14842 597.953L-1.71181e-05 592.594L1.33983 587.043L11.1015 547.422L7.27342 508.184L7.08201 507.801L7.08201 507.418L4.01951 463.777L4.01951 461.289L5.55076 419.371L2.48825 376.496L2.48825 376.113L0.191378 332.473L-2.85972e-05 329.984L0.57419 327.496ZM51.2968 373.434L51.4883 373.242L54.3594 416.883L54.5508 418.031L54.3594 419.18L53.0195 461.098L56.082 503.973L55.8906 504.164L60.2929 546.848L60.6758 551.059L59.7187 555.078L50.3398 593.359L58.3789 631.449L59.3359 635.277L58.7617 639.297L53.9765 679.301L60.293 719.879L60.6758 721.984L60.6758 723.898L60.293 767.539L60.293 770.027L59.7187 772.324L51.2969 811.563L57.0391 851.184L57.6133 854.246L57.2305 857.309L52.2539 898.078L55.5078 939.039L58.5703 954.734L80.0078 952.629L82.8789 952.437L85.75 952.82L126.137 958.754L166.332 953.586L171.5 952.82L176.477 954.352L215.141 966.027L254.187 961.816L256.484 961.625L258.781 961.816L300.699 965.262L341.66 962.582L385.301 958.562L387.215 958.562L420.328 958.18L435.449 941.719L444.254 913.773L442.531 874.535L442.34 871.473L442.914 868.602L450.953 826.875L451.527 789.359L438.895 749.93L437.363 744.762L437.937 739.402L443.105 697.676L442.34 655.758L442.34 655.184L442.531 611.543L442.531 610.586L442.723 609.82L445.594 568.859L444.062 525.984L441 482.535L440.809 479.855L441.191 477.176L447.125 436.215L444.254 395.445L439.086 352.953L438.895 352.379L438.895 351.996L435.449 308.355L435.258 306.633L435.449 304.719L438.129 261.844L438.129 261.652L440.234 218.012L440.234 218.203L441.766 176.859L436.215 135.324L435.641 130.348L436.789 125.754L447.125 86.5156L444.828 62.5898L426.07 58.3789L385.684 59.5273L384.727 59.5273L341.469 59.1445L340.129 59.1445L298.785 53.9766L258.59 61.0586L254.57 61.8242L250.551 61.25L210.547 54.9336L170.16 59.7187L168.246 59.9102L166.332 59.9102L122.883 58.5703L120.586 58.5703L118.48 57.9961L79.4336 49.957L58.9531 53.2109L53.4023 72.1602L55.5078 111.973L55.5078 114.078L55.3164 116.184L50.5312 155.613L59.3359 195.234L60.2929 199.828L59.5273 204.613L52.2539 245.383L55.8906 285.387L56.2734 288.449L55.6992 291.512L49.1914 332.09L51.2968 373.434Z" fill="#101010"/>
<path d="M-118.702 49.0115L-106.194 19.0212L-101.077 -7.85838L-100.885 -9.04422L-100.325 -10.1513L-87.5822 -35.5444L-87.1799 -36.2977L-72.4991 -59.9386L-64.3429 -84.4488L-63.6747 -112.037L-63.6002 -114.843L-61.7946 -117.091L-48.1325 -134.447L-57.0475 -140.575L-46.5482 -146.074L-25.8817 -162.432L-25.5125 -162.734L-25.0873 -163.011L-2.98312 -175.889L-1.50799 -176.716L0.0321323 -176.709L22.4077 -175.948L38.7284 -199.579L41.3263 -203.382L44.9458 -202.618L68.6316 -197.714L85.6901 -217.5L87.5762 -219.627L89.9528 -219.841L116.227 -222.261L120.007 -222.613L121.212 -218.686L128.361 -194.867L137.611 -172.527L137.704 -172.359L137.753 -172.167L145.485 -149.359L158.134 -129.83L159.378 -127.877L159.012 -125.244L154.967 -97.0813L176.182 -87.3017L177.942 -86.4334L178.701 -84.4431L187.155 -61.1442L187.488 -60.2333L187.502 -59.2098L188.949 -32.0787L197.753 -10.3193L197.883 -10.0074L197.968 -9.6725L204.821 14.7363L205.153 16.0278L205.022 17.4529L202.991 37.0185L203.035 36.9956L200.247 64.4458L199.105 92.1195L199.098 92.2859L199.047 92.4752L196.72 120.173L196.516 122.667L194.992 124.659L177.49 147.553L175.323 172.779L175.277 173.182L175.176 173.561L170.057 200.821L170.013 200.844L166.273 227.87L165.964 230.148L164.547 231.976L145.234 256.903L143.334 259.363L140.67 259.619L117.503 261.768L117.172 261.833L116.873 261.827L94.3222 261.158L71.8013 266.604L70.3907 266.909L69.0955 266.502L47.2047 258.921L25.6859 261.889L3.24455 270.55L-19.5805 284.294L-22.9752 286.343L-25.5713 283.959L-43.7805 267.126L-45.0042 266.03L-45.3827 264.166L-50.6485 238.981L-50.7711 238.502L-50.8063 237.978L-52.4337 212.081L-62.8262 191.479L-63.1782 190.687L-63.3551 189.803L-68.1974 164.721L-75.2969 141.092L-75.3092 141.044L-81.9901 118.662L-100.398 103.18L-101.417 102.303L-101.916 100.937L-110.227 77.6171L-110.183 77.5942L-118.894 54.6469L-119.924 51.9849L-118.702 49.0115ZM-20.0007 270.461L0.148825 258.281L0.617782 257.981L1.12353 257.824L24.5081 248.779L25.1451 248.554L25.7628 248.447L48.9722 245.299L50.1202 245.132L51.1477 245.462L72.8267 252.99L94.6862 247.673L95.3792 247.473L96.0337 247.51L118.796 248.232L139.157 246.358L155.109 225.741L158.672 200.544L158.667 200.329L158.718 200.14L163.811 173.165L166.185 146.039L166.389 143.545L167.913 141.553L185.34 118.753L187.495 93.4793L188.65 65.8534L188.644 65.6392L188.683 65.402L191.478 37.7854L191.465 37.7376L193.333 19.6677L186.941 -3.13753L177.897 -25.6393L177.496 -26.623L177.401 -27.7671L175.917 -55.0417L168.579 -75.3438L150.109 -83.9021L150.003 -82.3814L147.682 -54.8504L166.029 -42.321L168.248 -40.8247L168.328 -37.6108L168.745 -10.0484L178.551 10.5891L181.85 17.6512L174.541 20.8825L157.153 28.7405L156.123 29.1718L155.094 29.2224L132.848 30.1295L111.037 41.4436L108.369 42.8412L106.074 41.4386L86.7214 29.4361L64.5812 31.9158L63.3772 32.0581L62.2692 31.6074L41.4054 23.0008L47.3728 47.4393L47.7706 49.1843L47.3073 51.0547L40.0696 80.8897L39.9175 81.4576L39.6779 82.0715L29.2015 108.177L28.8675 109.003L28.4091 109.731L13.5513 132.488L6.49289 158.377L6.13796 159.702L5.34722 160.876L-9.61732 183.797L-18.2894 209.391L-29.1024 206.698L-29.0202 206.438L-29.0325 206.39L-28.8996 205.941L-28.0201 202.984L-41.7489 186.789L-42.8343 185.458L-43.0256 183.551L-45.7324 159.249L-61.1163 145.114L-57.0349 158.712L-56.9176 158.976L-56.8755 159.334L-52.1804 183.842L-41.5901 204.828L-40.9965 205.982L-40.8964 207.341L-39.26 234.047L-34.4463 257.082L-20.0007 270.461ZM-42.4637 -94.3338L-36.6633 -98.9994L-22.3345 -110.465L-28.1824 -93.403L-16.4401 -90.7627L-23.1578 -113.289L-21.114 -114.414L-14.1384 -122.625L-11.8383 -121.008L7.24681 -127.856L25.1149 -150.29L27.3596 -153.148L30.3331 -152.969L54.6445 -151.431L75.6186 -162.524L75.6624 -162.547L100.11 -175.188L104.879 -177.685L106.947 -172.908L116.417 -151.064L130.628 -132.408L131.396 -131.345L131.665 -129.912L136.185 -105.313L143.198 -94.9871L147.127 -122.438L135.489 -140.543L135.099 -141.098L134.871 -141.792L126.867 -165.273L117.661 -187.635L117.543 -187.899L117.457 -188.234L111.309 -208.345L91.2479 -206.466L73.563 -186.027L70.9999 -183.057L67.9037 -183.714L44.6538 -188.467L28.7845 -165.397L26.5382 -162.159L23.3336 -162.271L-0.781567 -163.043L-21.2042 -151.154L-33.568 -141.315L-30.1546 -139.033L-35.2143 -132.639L-52.1743 -111.115L-52.7383 -86.0229L-42.4637 -94.3338ZM1.1964 222.301L9.42538 195.365L9.69116 194.466L10.1687 193.619L22.9946 170.678L25.5145 143.151L25.7955 140.183L27.8688 138.012L47.7623 117.284L58.8293 94.4506L59.2631 93.6265L59.8212 92.9002L75.6843 72.7096L77.747 70.1101L80.5034 70.023L102.754 69.3301L123.39 54.3993L123.846 54.0516L124.284 53.8225L147.337 42.129L148.431 41.5562L149.503 41.4827L172.943 40.0048L174.159 39.9104L175.235 40.4318L180.73 43.0887L184.699 45.0249L183.343 50.1847L179.174 76.8931L179.083 77.7003L169.213 105.007L169.017 105.598L168.709 106.139L155.47 130.761L150.251 156.663L150.105 157.445L149.846 158.178L139.81 183.292L133.13 202.526L132.24 205.054L130.194 206.56L107.8 222.954L106.505 223.903L82.5402 227.393L59.6859 236.378L58.3367 236.922L56.9908 236.705L35.5806 233.322L13.8558 244.971L8.71818 247.77L6.80212 242.425L1.22565 227.06L0.462018 224.856L1.1964 222.301ZM-5.17258 -96.5552L9.55744 -79.7444L10.7672 -78.3161L10.9077 -76.2193L12.7188 -50.9606L33.3695 -40.6689L34.8626 -39.8773L35.6033 -38.1492L45.1895 -15.6602L45.5292 -14.9157L45.6502 -14.0567L49.2638 11.0719L66.704 18.3244L89.2502 15.6864L90.8848 15.4814L92.1906 16.3168L110.579 27.8477L130.933 17.2418L132.115 16.6232L133.287 16.5517L155.657 15.7423L164.772 11.6196L157.735 -3.25133L157.173 -4.4762L157.135 -5.97601L156.717 -31.8015L138.066 -44.5512L135.53 -46.3156L135.858 -50.0685L138.183 -78.7415L125.984 -96.7147L125.283 -97.7045L125.052 -98.994L120.537 -123.379L106.768 -141.67L106.39 -142.177L106.13 -142.801L98.4374 -160.422L78.8018 -150.301L56.4279 -138.475L54.9842 -137.719L53.5316 -137.772L30.6973 -139.161L13.7197 -117.898L12.3655 -116.212L10.5981 -115.558L-8.80551 -108.597L-5.17258 -96.5552ZM15.6913 230.065L34.0475 220.18L35.7536 219.286L37.4548 219.535L59.1451 223.042L81.1874 214.374L81.8121 214.101L82.4299 213.995L104.223 210.937L123.308 196.927L129.174 180.127L129.275 179.749L139.09 155.129L144.449 128.611L144.673 127.355L145.32 126.202L158.886 100.92L167.842 76.0456L171.254 54.1284L170.289 53.6568L149.251 55.0167L127.873 65.8874L106.05 81.6032L104.505 82.7379L102.833 82.7994L81.5361 83.5353L68.3691 100.306L57.1009 123.516L56.4782 124.765L55.5823 125.722L36.7912 145.33L34.4267 171.528L34.2381 173.309L33.3705 174.957L20.0233 198.767L12.8505 222.274L15.6913 230.065ZM17.3201 -23.5278L18.7592 -21.7856L18.6356 -19.1707L17.339 8.09545L38.0682 17.5321L34.2845 -8.64685L25.6983 -28.7838L4.1584 -39.6407L3.59829 -39.89L17.3201 -23.5278ZM-48.7409 99.5121L-45.7442 101.524L-46.6426 105.955L-52.372 134.512L-36.1181 149.331L-34.6774 150.693L-34.388 152.983L-31.7143 177.735L-22.8926 188.145L-20.0316 179.756L-19.6592 178.693L-19.0503 177.777L-4.18026 155.068L2.8659 129.131L3.26457 127.783L4.01157 126.632L19.1143 103.476L29.08 78.669L35.683 51.3911L30.341 29.3923L8.47931 19.4093L5.38646 17.9906L5.56038 13.83L6.88815 -14.8631L-6.74619 -31.2711L-7.60226 -32.2877L-7.91416 -33.6979L-13.3742 -58.6734L-22.3136 -77.8657L-28.6302 -79.2781L-28.9819 -65.7462L-29.027 -63.9863L-29.7948 -62.3362L-41.8902 -36.7396L-42.3432 -35.7969L-42.9888 -35.0248L-61.0442 -12.5466L-69.4211 11.1025L-69.8461 38.6718L-69.8669 39.1711L-69.9315 39.6932L-73.5286 63.9862L-69.1213 85.8233L-48.7409 99.5121ZM-2.62334 -66.0944L-2.36415 -65.4705L-2.19246 -64.8007L0.912578 -50.3662L-0.54011 -70.5494L-9.62955 -81.036L-2.62334 -66.0944ZM-99.3903 70.5309L-99.3658 70.6266L-91.5544 92.5801L-73.0339 108.111L-71.8471 109.063L-71.3864 110.667L-64.2325 134.701L-64.024 135.514L-58.8173 109.564L-77.8481 96.6878L-79.5267 95.5593L-80.0156 93.2652L-85.1064 67.9878L-85.3815 66.7211L-85.1824 65.3689L-81.5067 40.2209L-81.0347 11.8674L-81.0351 10.5112L-80.5681 9.23567L-71.2067 -17.1538L-70.6767 -18.5707L-51.4929 -42.4538L-40.5555 -65.5991L-40.1047 -81.8417L-41.799 -82.2566L-52.7939 -84.6915L-52.7972 -83.9301L-53.1889 -82.7483L-62.0148 -56.2053L-62.2998 -55.1879L-62.8771 -54.343L-78.0355 -29.8552L-89.9738 -5.96859L-94.9827 20.366L-95.105 21.2439L-95.4828 22.0929L-107.109 50.1022L-99.3903 70.5309Z" fill="#FFF6EF"/>
<path d="M-155.017 675.9L-159.755 642.32L-159.798 642.05L-159.809 641.818L-162.017 613.858L-162.1 612.738L-161.933 611.684L-157.334 584.961L-162.321 558.64L-162.529 557.448L-162.432 556.242L-159.925 528.065L-159.881 527.675L-159.809 527.245L-154.835 500.001L-155.721 484.77L-168.308 485.312L-159.685 473.325L-148.686 449.64L-148.376 449.045L-133.408 428.239L-119.42 406.819L-118.505 405.382L-117.092 404.735L-96.7486 395.387L-92.7826 366.91L-92.1319 362.384L-88.5543 361.444L-65.1827 355.212L-58.8011 329.88L-57.8157 325.958L-54.5948 325.267L-31.1805 319.964L-28.7486 319.464L-26.7575 321.388L-9.34142 338.415L9.58496 353.59L9.74339 353.699L9.873 353.848L27.4589 369.898L47.8752 380.779L49.9172 381.809L50.8309 384.325L60.6125 410.812L83.9422 409.001L85.8695 408.874L87.5007 410.31L105.98 426.435L106.714 427.06L107.215 427.929L121.378 450.958L139.419 465.554L141.907 467.609L142.017 471.325L142.775 496.445L142.782 496.6L142.757 496.717L142.754 523.965L150.011 549.6L159.151 576.156L159.191 576.348L159.227 576.462L167.347 603.53L168.07 605.9L167.385 608.334L159.622 635.668L166.923 660.254L167.218 661.326L167.239 662.449L168.201 690.002L168.351 693.251L166.455 695.392L149.954 714.214L149.839 714.375L149.72 714.458L132.477 731.841L132.156 732.205L131.8 732.454L112.675 746.28L112.408 746.486L112.138 746.615L92.2657 757.531L75.2509 773.857L74.1624 774.876L72.8258 775.17L50.0637 779.979L32.8882 793.483L17.2983 812.767L16.08 814.296L14.3759 814.607L-5.62285 818.784L-8.20601 819.329L-10.2114 817.096L-27.2088 798.5L-27.4032 798.276L-43.6903 778.445L-44.0144 778.072L-44.2483 777.657L-57.6668 755.484L-76.3852 742.161L-77.0514 741.688L-77.6058 740.977L-93.4029 721.123L-110.664 703.469L-126.96 686.778L-150.39 681.733L-154.327 680.868L-155.017 675.9ZM-123.808 673.261L-122.353 673.542L-121.194 674.729L-114.331 681.816L-115.13 680.458L-130.316 655.227L-131.979 652.435L-131.274 649.07L-125.681 623.27L-135.039 598.003L-135.499 596.668L-135.563 595.275L-136.515 567.296L-136.553 565.786L-136.156 564.411L-127.88 538.255L-133.958 512.876L-134.149 512.071L-134.288 509.054L-133.48 507.273L-129.272 498.048L-126.567 492.148L-121.81 495.495L-102.238 509.361L-101.698 509.762L-101.215 510.244L-88.463 524.617L-90.1836 521.906L-104.928 499.601L-116.337 493.072L-118.265 495.835L-125.686 487.301L-122.57 481.654L-123.024 481.132L-119.999 476.846L-119.678 475.823L-119.455 476.007L-115.082 469.681L-114.794 469.28L-114.473 468.917L-98.7189 452.532L-92.7717 424.429L-92.0459 420.868L-89.3075 419.696L-66.8853 410.174L-53.5653 391.576L-43.2853 364.94L-40.9263 358.862L-35.9745 361.774L-12.469 375.768L9.38184 385.149L10.6028 385.674L11.5136 386.795L27.131 406.076L47.2595 416.04L49.1755 416.998L50.1686 419.239L61.2405 444.427L83.2679 446.319L85.9479 446.544L87.5172 449.301L101.716 474.422L104.39 479.183L101.265 483.28L95.8865 490.427L82.222 513.537L81.454 514.852L80.2613 515.604L61.2313 527.489L46.4114 548.83L44.5728 551.55L41.7308 551.139L18.6376 548.094L1.99346 557.814L1.18629 558.278L0.36488 558.432L-22.6992 562.014L-21.9575 562.794L-3.63871 582.764L-2.15532 584.323L-1.76748 586.747L3.32889 617.442L3.48701 618.21L3.46142 618.987L3.07265 647.183L3.05061 648.037L2.90253 648.819L-2.55012 675L0.350664 701.998L0.504892 703.347L0.230427 704.717L-5.32689 731.29L-3.9931 758.244L-14.5568 761.405L-17.2549 754.126L-39.1384 745.367L-40.1931 743.788L-53.7675 723.561L-76.164 717.655L-79.2688 716.867L-80.3332 713.079L-88.2807 685.771L-111.072 683.294L-113.074 683.115L-103.767 692.647L-86.3442 710.488L-86.0886 710.709L-85.8941 710.932L-70.4174 730.49L-51.3822 744.032L-50.3667 744.76L-49.636 745.967L-35.9476 768.67L-19.8909 788.162L-5.08613 804.457L10.629 801.214L25.3718 782.86L25.8079 782.336L26.3124 781.964L44.9692 767.306L45.8845 766.528L46.9509 766.362L69.4428 761.683L85.8954 745.809L86.4252 745.319L87.0234 744.981L107.018 734.06L125.819 720.52L142.679 703.503L157.021 687.106L156.193 663.811L148.522 637.846L147.767 635.439L148.485 633.042L156.222 605.825L148.965 581.509L139.749 554.646L139.648 554.457L139.605 554.188L131.946 527.138L131.615 525.952L131.619 524.711L131.676 496.647L131.06 475.28L114.705 461.963L113.877 461.304L113.279 460.324L99.0867 437.334L82.9697 423.193L57.7126 425.132L53.8904 425.424L52.2427 420.965L41.6984 392.575L22.8848 382.512L22.2869 382.19L21.7756 381.749L3.77922 365.446L-15.1183 350.232L-15.374 350.011L-15.5972 349.827L-31.4363 334.394L-49.205 338.352L-55.565 363.49L-56.5287 367.217L-59.6199 368.057L-82.4727 374.226L-86.3483 402.001L-86.8762 405.863L-89.7912 407.199L-111.695 417.316L-124.799 437.261L-124.854 437.418L-139.388 457.623L-145.386 470.651L-145.025 477.146L-143.682 500.301L-143.632 501.384L-143.831 502.401L-148.971 530.7L-148.939 530.737L-151.293 556.892L-146.231 583.519L-145.976 585.057L-146.211 586.619L-150.875 613.926L-148.752 640.689L-148.781 640.729L-144.79 668.762L-123.808 673.261ZM18.4568 765.311L16.2051 737.081L16.1623 736.153L16.242 735.219L19.8033 709.28L12.0609 682.427L11.1906 679.522L12.3231 676.795L23.107 651.105L23.1053 625.756L23.1092 625.175L23.1779 624.668L26.6248 596.912L27.0263 593.638L29.3146 592.021L47.0624 579.614L57.4746 555.181L57.7523 554.548L58.0948 553.99L72.6555 532.35L73.3441 531.31L74.2666 530.687L94.0429 517.682L94.1942 517.637L94.3131 517.554L113.177 506.724L113.981 504.865L121.883 486.555L124.311 507.296L130.354 533.878L130.544 534.683L130.583 535.534L131.513 563.708L131.542 564.327L131.448 564.951L128.307 592.693L133.038 618.792L133.2 619.638L133.149 620.532L132.692 647.917L132.685 648.421L132.616 648.928L129.962 668.585L129.81 669.949L129.248 671.06L117.016 695.964L116.37 697.273L115.336 698.135L97.31 712.492L81.7921 732.005L80.8621 733.134L79.5974 733.657L59.3193 741.762L46.1205 762.99L45.0064 764.785L43.2842 765.368L25.5864 771.533L19.1515 773.728L18.4568 765.311ZM-99.3488 487.483L-98.1207 488.163L-97.3252 489.445L-83.5675 510.322L-60.5297 508.835L-58.8149 508.756L-57.3529 509.851L-38.0841 524.467L-37.3206 525.052L-36.7267 525.955L-21.8527 547.75L-2.1391 544.71L15.1285 534.535L16.5014 533.697L18.0467 533.935L39.8142 536.847L53.4518 517.149L54.1404 516.11L55.1241 515.483L74.0099 503.799L86.9317 481.886L87.1012 481.568L87.3319 481.248L90.0534 477.711L80.0981 460.108L57.6349 458.081L54.5838 457.795L53.0762 454.376L41.4969 428.166L22.2435 418.549L21.1775 418.055L20.3638 417.046L4.75363 397.921L-16.0671 388.919L-16.348 388.815L-16.6325 388.635L-35.6221 377.416L-43.9362 398.768L-44.2645 399.636L-44.7547 400.318L-59.4554 420.917L-60.4071 422.24L-61.7295 422.844L-82.7645 431.836L-88.4119 458.453L-88.8669 460.567L-90.2148 461.947L-106.985 479.58L-108.77 482.142L-99.3488 487.483ZM38.3951 752.493L51.5939 731.265L52.6214 729.59L54.1887 728.975L74.7731 720.856L89.7394 702.027L90.1756 701.503L90.6477 701.094L108.173 687.186L119.254 664.621L121.597 646.878L122.054 620.81L117.233 594.094L116.988 592.788L117.144 591.502L120.422 563.405L119.531 536.741L115.908 520.706L99.0762 530.358L80.5504 542.529L67.0532 562.608L56.1397 588.149L55.3931 589.928L53.9949 590.884L37.2056 602.781L34.2505 626.561L34.2445 653.072L34.2328 654.817L33.6268 656.318L23.3154 680.94L30.7234 706.529L31.2341 708.288L30.981 710.122L27.3183 737.189L28.8508 755.801L38.3951 752.493ZM-84.9347 528.602L-64.2141 536.097L-62.1216 536.892L-60.9412 539.202L-48.9322 563.416L-27.1549 561.211L-28.2096 559.632L-44.4947 535.848L-61.441 523.024L-85.5523 524.522L-88.3658 524.729L-84.9347 528.602ZM-83.9691 672.123L-80.3597 672.538L-79.1191 676.822L-71.0494 704.783L-49.8379 710.279L-47.882 710.77L-46.597 712.688L-32.8211 733.293L-16.0014 740.038L-16.4615 730.718L-16.5149 729.558L-16.2875 728.501L-10.7771 702.239L-13.7356 675.321L-13.8898 673.972L-13.6154 672.603L-8.03276 645.911L-7.65924 619.383L-12.2456 591.765L-27.3349 575.289L-51.2197 577.708L-54.6421 578.02L-56.499 574.346L-69.1197 548.842L-89.0011 541.58L-90.2509 541.095L-91.2194 540.054L-107.95 521.252L-122.318 511.1L-122.679 511.93L-116.719 536.733L-116.118 539.108L-116.844 541.351L-125.387 568.373L-124.532 593.604L-114.761 619.859L-113.916 622.224L-119.83 649.705L-107.895 669.659L-83.9691 672.123Z" fill="#FFF6EF"/>
<path d="M-8.23188 925.14L-1.35313 900.872L-0.831025 898.986L0.6821 897.979L18.5702 885.77L34.3773 869.153L34.9651 868.519L35.7341 868.181L56.0906 858.431L56.3691 858.293L76.3149 850.375L90.3179 831.869L91.1808 830.671L92.5643 830.242L114.115 823.112L134.283 813.542L134.885 813.286L135.555 813.168L158.755 809.504L171.148 803.917L169.741 801.36L160.534 785.238L175.08 791.903L198.855 794.507L200.164 794.628L201.333 795.377L223.649 808.896L223.739 808.938L244.945 822.108L268.17 827.383L268.731 827.533L292.311 835.415L294.531 836.114L296.024 838.286L313.379 863.773L334.7 868.707L361.164 873.447L362.799 875.205L374.902 888.35L375.826 889.305L376.35 890.501L390.409 920.749L391.706 923.575L390.866 926.219L383.596 949.138L387.623 975.109L388.035 977.688L386.809 979.624L373.828 1000.19L379.394 1025.49L379.578 1026.21L379.607 1026.97L380.251 1053.67L380.258 1054.52L380.085 1055.29L374.731 1080.05L373.688 1105.45L373.561 1106.45L368.959 1130.06L376.023 1156.84L376.645 1159.15L375.911 1161.09L367.722 1183.7L371.838 1209.5L371.922 1210.23L371.916 1210.91L371.159 1237.24L371.055 1241.02L368.056 1242.25L345.894 1251.44L335.351 1273.28L335.065 1273.9L334.666 1274.35L319.564 1292.46L319.087 1293.04L318.464 1293.39L299.59 1305.36L281.229 1318.57L280.695 1318.97L280.048 1319.2L257.986 1326.84L257.875 1326.9L236.065 1333.85L219.551 1345.9L209.411 1369.25L208.927 1370.31L208.172 1371.02L191.259 1386.39L189.205 1388.27L186.391 1387.35L166.477 1380.77L166.197 1380.7L165.928 1380.58L141.812 1370L141.318 1369.78L118.205 1357.38L116.745 1356.61L115.683 1355.16L98.6698 1331.9L98.5909 1331.81L98.4778 1331.66L83.8153 1310.06L59.2103 1305.64L56.1641 1305.09L54.35 1301.92L39.6326 1276.16L22.382 1256.83L2.00618 1242.6L-21.4241 1232.51L-45.8279 1222.33L-52.4923 1219.6L-50.2302 1212.82L-40.129 1183.02L-46.1675 1155.86L-46.816 1153.01L-45.4908 1150.86L-32.37 1129.66L-25.8429 1107.62L-29.0921 1081.05L-29.3191 1079.2L-28.6714 1077.63L-19.8597 1056.01L-23.4091 1029.67L-23.5986 1028.31L-23.3176 1027.05L-17.7574 1002.93L-16.2237 977.326L-16.227 976.9L-16.1297 976.466L-11.6254 951.748L-11.6703 951.728L-8.38486 925.601L-8.23188 925.14ZM0.0589186 955.72L0.0156929 955.913L0.0281622 956.078L-4.50857 980.941L-5.95253 1006.58L-5.99243 1007.2L-6.11132 1007.73L-11.5543 1031.12L-7.84361 1058.06L-7.58255 1059.98L-8.24099 1061.6L-17.209 1083.26L-13.9291 1109.47L-13.727 1111L-14.1302 1112.35L-21.3233 1136.48L-21.5519 1137.28L-21.9385 1137.9L-34.1207 1157.55L-28.1894 1183.87L-27.7596 1185.92L-28.3606 1187.72L-36.8224 1212.64L-19.1062 1219.96L-19.0165 1220.01L5.22192 1230.47L5.81637 1230.69L6.41247 1231.13L28.0254 1246.24L28.7112 1246.71L29.3431 1247.42L47.7785 1268.09L48.3762 1268.74L48.841 1269.54L62.1982 1292.98L86.4332 1297.28L89.1993 1297.75L90.9868 1300.38L107.426 1324.65L123.094 1346.18L144.848 1357.79L168.325 1368.12L185.031 1373.55L199.023 1360.83L209.339 1337.13L209.922 1335.85L210.99 1335.07L229.272 1321.76L229.872 1321.29L230.564 1321.08L252.898 1313.99L274.268 1306.56L292.117 1293.65L292.34 1293.54L310.925 1281.75L325.085 1264.75L336.224 1241.8L337.049 1240.11L338.688 1239.42L359.389 1230.79L360.056 1208.83L355.821 1182.02L355.504 1180.12L356.107 1178.54L364.098 1156.37L357.216 1130.1L356.767 1128.36L357.078 1126.75L361.852 1102.15L363.037 1076.34L363.067 1075.77L363.185 1075.24L368.419 1050.8L367.766 1025.9L361.792 998.451L361.155 995.555L362.525 993.419L375.604 972.63L371.718 947.575L371.459 945.862L371.939 944.382L378.815 922.557L366.632 896.304L357.023 885.95L334.803 881.933L334.512 881.906L310.423 876.288L307.88 875.708L306.206 873.24L288.514 847.491L267.242 840.349L267.232 840.397L243.671 835.075L242.674 834.884L241.719 834.287L219.467 820.478L198.41 807.747L185.504 806.35L188.395 811.341L182.722 813.897L164 822.322L163.443 822.598L162.828 822.689L139.618 826.401L119.895 835.75L119.617 835.889L119.349 835.978L98.8131 842.776L85.0437 861.123L84.2132 862.177L83.0201 862.64L61.8705 871.07L61.8256 871.049L42.5615 880.343L26.954 896.732L26.5765 897.09L26.165 897.38L9.35521 908.754L3.19476 930.482L0.0589186 955.72ZM188.197 844.675L191.021 844.003L193.633 843.393L196.053 845.405L217.25 863.035L237.56 876.007L260.964 878.495L261.401 878.536L261.77 878.652L285.708 884.944L286.459 885.128L287.121 885.485L309.718 897.752L332.54 910.122L334.618 911.233L335.788 913.523L348.375 938.633L349.579 940.991L349.184 943.414L345.323 967.47L353.992 993.495L354.622 995.324L354.322 997.1L350.343 1023.23L350.194 1024.12L349.875 1024.87L339.619 1047.65L338.01 1072.26L338.12 1097.81L342.044 1124.91L342.116 1125.47L342.098 1125.99L342.182 1152.55L342.183 1152.76L342.174 1153.02L340.588 1179.08L340.416 1181.39L339.007 1182.82L332.117 1189.91L330.064 1192L327.06 1191.05L302.225 1183.02L300.241 1182.38L298.817 1180.56L282.697 1159.94L258.723 1156.02L255.811 1155.54L253.977 1152.68L239.066 1129.32L214.849 1121.62L210.925 1120.36L209.839 1115.93L202.749 1087.28L185.429 1067.6L182.777 1064.63L183.453 1060.95L188.045 1034.52L186.583 1010.58L180.063 983.359L179.959 982.939L179.9 982.54L176.199 955.338L175.855 952.896L176.959 951.063L189.82 929.484L185.097 904.629L185.027 904.278L185.002 903.948L182.107 876.903L182.023 876.173L182.084 875.458L184.358 850.09L184.369 850.041L184.434 845.555L188.197 844.675ZM10.3664 1201.8L30.0677 1191.22L30.4685 1190.98L30.8925 1190.85L51.042 1184.67L64.8196 1164.52L65.3949 1163.72L66.1515 1163.22L85.1104 1150.65L85.5668 1150.38L86.0574 1150.18L107.234 1142.3L108.806 1141.69L110.6 1142.3L135.614 1150.41L155.418 1142.91L155.741 1142.79L156.109 1142.69L178.361 1137.96L178.886 1137.82L179.423 1137.86L203.614 1137.94L206.578 1137.97L208.69 1140.69L226.731 1163.79L244.88 1182.2L267.391 1191.98L268.883 1192.61L270.023 1193.93L286.841 1213.65L310.592 1219L316.9 1220.46L316.294 1227.35L315.829 1232.3L315.592 1234.9L313.802 1236.26L313.735 1236.33L313.725 1236.38L297.94 1251.57L284.414 1271.04L283.772 1271.91L282.915 1272.43L263.479 1284.03L262.9 1284.4L262.219 1284.57L240.664 1289.73L229.076 1309.61L228.116 1311.24L226.465 1311.76L204.757 1318.92L186.602 1331.22L184.098 1332.89L181.155 1331.23L161.117 1320.13L160.903 1319.98L160.634 1319.86L140.556 1306.51L116.045 1298.36L115.316 1298.08L114.619 1297.66L92.4773 1283.58L91.567 1283L90.8561 1282.2L72.4208 1261.53L71.9469 1260.99L71.5503 1260.33L56.3848 1235.9L38.6345 1219.9L13.4517 1214.53L-5.69268 1210.49L10.3664 1201.8ZM193.917 878.329L196.635 904.177L201.913 931.411L202.404 934.08L201.201 936.133L188.141 957.94L191.415 981.971L198.129 1009.65L198.313 1010.37L198.363 1011.03L199.928 1036.73L199.979 1037.6L199.851 1038.39L195.707 1061.95L211.775 1080.15L213.117 1081.67L213.603 1083.7L220.082 1109.99L242.785 1117.15L245.195 1117.89L246.69 1120.27L261.296 1143.22L284.99 1147.07L287.476 1147.46L289.239 1149.76L305.653 1170.83L325.409 1177.22L328.881 1173.66L330.354 1150.32L330.264 1124.45L326.396 1097.33L326.324 1096.77L326.343 1096.24L326.203 1069.72L326.221 1069.19L327.953 1043.15L328.022 1041.96L328.495 1040.96L338.706 1018.16L342.38 994.498L333.733 968.377L333.114 966.499L333.413 964.723L337.168 941.362L326.854 920.907L306.144 909.718L284.299 897.848L261.437 891.837L237.07 889.227L235.716 889.085L234.423 888.227L212.247 874.081L211.899 873.868L211.527 873.538L195.498 860.242L193.917 878.329ZM40.5699 1207.08L42.2277 1207.42L43.6245 1208.69L63.6045 1226.67L64.4717 1227.44L65.0836 1228.46L80.3638 1253.27L97.6826 1272.73L118.228 1285.76L142.929 1293.94L143.714 1294.2L144.49 1294.71L165.299 1308.55L181.81 1317.71L198.086 1306.73L198.62 1306.34L199.256 1306.15L219.781 1299.4L231.569 1279.29L232.617 1277.49L234.548 1277.05L257.32 1271.54L275.265 1260.84L288.548 1241.79L288.835 1241.39L289.157 1241.06L300.601 1229.99L284.345 1226.32L282.272 1225.85L280.659 1223.99L263.356 1203.79L241.126 1194.08L239.869 1193.51L238.854 1192.51L219.499 1172.85L219.183 1172.5L218.912 1172.16L202.578 1151.39L181.865 1151.25L160.763 1155.72L139.387 1163.83L137.77 1164.42L135.965 1163.86L110.906 1155.72L91.8821 1162.84L74.0464 1174.6L59.9038 1195.27L58.9419 1196.69L57.4022 1197.15L36.1818 1203.69L32.9078 1205.48L40.5699 1207.08ZM0.761952 1035.8L9.92621 1013.49L11.5872 988.422L11.6745 986.708L12.559 985.413L25.9343 965.291L26.7597 940.641L26.8894 937.194L29.5739 935.82L45.3362 927.791L61.4392 911.842L62.0054 911.304L62.6182 911.001L81.8124 901.356L96.7723 883.661L97.3709 882.979L98.1058 882.572L117.649 871.812L135.224 858.131L135.646 857.793L136.192 857.565L156.354 848.683L160.473 846.213L163.987 850.852L171.705 861.031L173.649 863.622L173.36 866.678L170.811 892.61L170.789 892.707L170.812 892.824L167.524 918.524L167.579 918.496L164.795 944.374L164.763 944.519L164.786 944.635L161.234 969.524L164.456 995.55L164.648 997.126L164.234 998.53L156.613 1022.35L156.819 1047.26L160.582 1073.75L161.233 1078.35L157.745 1079.99L139.549 1088.5L132.798 1114.85L131.941 1118.23L128.824 1118.66L105.376 1122.1L87.9761 1135.23L86.4089 1136.47L84.3147 1136.1L59.7579 1132.13L44.6109 1147.35L44.4222 1147.53L44.2443 1147.66L26.2972 1162.34L26.2523 1162.32L8.61033 1177.4L-1.12186 1185.69L-1.33895 1170.77L-1.61929 1144.87L-1.65504 1144.59L-1.63509 1144.28L0.0732511 1118.12L0.0898716 1117.38L0.286074 1116.73L7.06923 1093.11L9.14256 1069.29L0.586556 1040.56L-0.171685 1037.98L0.761952 1035.8ZM20.7329 1068.39L21.1578 1069.8L21.0348 1071.24L18.7769 1097.2L18.7262 1097.86L18.5408 1098.47L11.7468 1122.14L10.1524 1147.13L10.3037 1157.93L18.3249 1151.08L18.3914 1151.01L35.9719 1136.64L52.839 1119.71L54.5592 1118L57.045 1118.4L81.916 1122.51L98.6817 1109.79L99.627 1109.11L100.811 1108.91L122.248 1105.82L128.815 1080.29L129.467 1077.82L131.517 1076.85L148.255 1069.11L145.116 1046.68L145.041 1045.69L144.801 1019.17L144.758 1018.04L145.075 1017.07L152.553 993.657L149.435 968.05L149.315 967.038L149.465 966.151L153.057 940.643L155.852 914.717L155.863 914.668L155.829 914.6L159.051 888.975L161.265 866.078L158.735 862.793L142.362 870.01L124.965 883.56L124.665 883.795L124.376 883.981L105.356 894.396L90.4514 912.063L89.842 912.794L89.0065 913.208L69.5229 923.038L53.4756 938.96L52.9543 939.518L52.3415 939.822L38.4283 946.891L37.7351 969.848L37.6602 971.727L36.7199 973.05L23.2117 993.323L21.6912 1017.76L21.5989 1018.83L21.1816 1019.81L12.4995 1040.86L20.7329 1068.39Z" fill="#FFF6EF"/>
<path d="M242.835 -49.1176L255.059 -74.8461L244.89 -95.2857L244.078 -97.0106L244.338 -98.9385L247.877 -123.874L240.729 -144.894L239.681 -147.879L241.51 -150.678L255.985 -172.449L256.474 -173.216L257.173 -173.813L276.511 -191.005L288.141 -213.216L297.845 -236.843L304.36 -262.999L304.781 -264.751L306.071 -266.08L324.419 -285.419L324.971 -285.996L325.68 -286.445L346.935 -300.229L349.463 -326.214L349.865 -330.352L353.707 -331.896L362.254 -335.356L353.154 -341.22L371.535 -343.846L372.181 -343.789L395.51 -342.047L417.899 -355.844L419.51 -356.82L421.336 -356.832L445.546 -356.609L469.351 -364.289L471.527 -364.948L473.509 -364.137L497.647 -354.351L520.41 -360.688L521.332 -360.919L522.222 -360.897L545.161 -360.492L567.282 -378.131L571.161 -381.273L574.915 -378.426L595.2 -363.014L597.544 -361.259L597.51 -358.219L597.197 -333.744L609.405 -313.098L610.025 -311.993L610.164 -310.719L612.829 -286.023L619.825 -262.941L628.612 -239.667L628.978 -238.674L629.005 -237.584L629.288 -212.348L635.988 -189.274L636.117 -188.844L636.197 -188.408L639.497 -163.803L645.284 -139.652L645.371 -139.117L645.409 -138.575L646.846 -114.5L659.693 -93.8957L660.477 -92.5648L660.587 -90.9884L661.89 -65.3017L661.841 -65.2947L664.852 -40.5984L664.946 -39.9649L664.893 -39.3105L663.023 -15.2106L662.91 -14.0003L662.396 -12.882L651.361 10.7859L651.099 11.2711L650.833 11.7072L636.114 33.5133L635.803 34.0055L635.436 34.4062L617.793 53.2466L609.35 76.5443L609.353 76.5935L600.249 101.031L591.832 126.116L590.971 128.627L588.644 129.954L564.886 143.25L565.037 168.703L565.039 170.146L564.392 171.482L553.514 195.277L552.402 197.725L549.957 198.771L522.863 210.254L520.082 211.447L517.566 210.065L497.092 199.009L472.46 206.16L470.379 206.756L468.448 205.987L445.532 196.723L422.668 191.033L398.076 189.571L373.094 190.304L370.678 190.351L368.986 188.752L349.981 171.167L326.631 174.055L326.582 174.062L300.574 177.081L297.589 177.458L295.559 175.26L277.757 155.811L277.059 155.015L276.641 153.981L267.53 130.305L267.112 129.27L267.13 128.123L266.93 103.374L260.447 79.8698L259.925 78.0536L260.535 76.1754L268.532 51.4487L255.717 31.2878L255.162 30.4216L254.943 29.408L249.576 4.89916L249.197 3.01281L249.904 1.12061L259.305 -23.309L243.506 -42.3472L241.023 -45.3759L242.835 -49.1176ZM271.433 -29.2212L273.696 -26.5095L272.363 -22.9853L262.241 3.13946L267.021 24.8962L280.775 46.4656L282.277 48.888L281.342 51.7581L273.015 77.4274L279.276 99.8683L279.477 100.636L279.487 101.48L279.621 125.99L287.945 147.589L303.024 164.093L326.045 161.451L352.081 158.129L354.871 157.78L356.824 159.591L376.049 177.493L399.16 176.828L399.404 176.793L399.704 176.85L424.691 178.305L425.236 178.327L425.788 178.447L449.807 184.42L450.208 184.511L450.564 184.66L471.858 193.31L496.923 185.997L499.343 185.303L501.5 186.488L521.52 197.41L543.34 188.173L552.415 168.267L552.327 140.168L552.344 136.185L555.907 134.184L580.853 120.221L588.363 97.7032L588.447 97.4922L597.594 72.9497L597.59 72.9005L606.625 48.1749L607.073 46.8172L608.087 45.7768L626.191 26.4725L640.232 5.55941L650.588 -16.5188L652.337 -38.8104L649.389 -63.3166L649.358 -63.76L648.12 -87.814L635.318 -108.475L634.538 -109.756L634.431 -111.283L632.869 -136.436L627.26 -160.164L627.19 -160.452L627.17 -160.748L623.834 -185.149L617.037 -208.906L616.783 -209.716L616.773 -210.56L616.416 -235.437L608.086 -257.831L607.974 -258.014L607.96 -258.211L600.665 -282.046L600.525 -282.623L600.439 -283.158L597.881 -307.024L585.447 -328.085L584.603 -329.557L584.629 -331.302L584.843 -354.369L570.657 -365.179L550.639 -349.234L548.77 -347.723L546.448 -347.739L522.127 -348.146L498.148 -341.535L496.063 -340.989L494.185 -341.716L470.201 -351.425L447.65 -344.173L446.634 -343.878L445.645 -343.886L422.134 -344.01L399.549 -330.185L397.753 -329.033L395.718 -329.19L382.416 -330.176L378.047 -328.407L361.484 -321.662L359.089 -296.592L358.776 -293.313L355.991 -291.472L332.518 -276.227L316.05 -258.948L309.801 -233.923L309.689 -233.41L309.521 -232.988L299.393 -208.355L299.264 -208.088L299.138 -207.771L286.889 -184.527L286.326 -183.401L285.347 -182.565L265.642 -164.973L253.583 -146.781L260.269 -127.436L260.763 -126.014L260.524 -124.487L257.006 -99.9523L267.691 -78.4917L269.067 -75.7528L267.689 -72.8691L255.805 -47.9355L271.433 -29.2212ZM394.113 -297.068L401.199 -298.826L401.258 -299.382L403.091 -299.296L406.388 -300.165L406.395 -300.066L406.461 -299.827L406.531 -299.538L406.551 -299.243L424.106 -298.865L446.674 -312.936L447.478 -313.449L448.396 -313.729L473.182 -320.803L474.345 -321.118L475.539 -320.99L499.425 -318.333L522.565 -327.759L523.91 -328.299L525.299 -328.199L552.507 -326.762L555.282 -326.612L556.918 -324.407L571.947 -303.667L572.602 -302.765L572.877 -301.66L578.742 -278.516L593.206 -258.79L594.461 -257.078L594.319 -254.869L592.778 -227.482L592.789 -227.334L590.951 -203.488L609.432 -185.629L610.649 -184.459L611.067 -182.728L616.717 -158.409L617.138 -156.628L616.571 -154.855L607.398 -127.871L614.983 -106.962L628.318 -85.7313L629.538 -83.8159L629.159 -81.473L627.272 -69.6105L626.507 -65.0231L622.086 -63.9935L596.006 -57.7797L569.922 -51.6152L568.756 -51.349L567.558 -51.5262L543.31 -55.1272L518.772 -55.1044L516.551 -55.0857L514.915 -56.5934L494.008 -75.2501L475.395 -90.055L451.916 -98.8907L449.99 -99.6106L448.972 -101.455L437.003 -122.931L436.605 -123.671L436.4 -124.487L430.381 -150.545L430.242 -151.122L430.197 -151.763L429.411 -177.125L422.089 -199.912L421.908 -200.384L421.822 -200.918L418.371 -225.552L411.982 -248.422L399.771 -269.814L399.318 -270.645L399.103 -271.609L396.072 -286.7L394.833 -286.772L394.113 -297.068ZM336.467 121.252L348.21 97.1348L348.553 96.3892L349.098 95.7143L365.859 75.5571L366.086 75.2758L366.317 75.0438L383.825 57.8148L391.642 32.6165L392.531 29.8026L395.106 28.4894L420.187 15.7512L438.95 0.93026L457.45 -16.9381L458.331 -17.7604L459.382 -18.2589L477.996 -26.7397L478.569 -27.0205L479.103 -27.1466L504.524 -33.6144L505.977 -34.021L507.384 -33.6747L530.904 -28.4771L555.405 -29.7385L580.536 -32.5825L580.829 -32.6244L606.231 -34.4126L608.979 -34.656L610.842 -32.7328L620.417 -22.9058L623.605 -19.6794L621.583 -16.1067L615.132 8.84682L614.631 10.8589L613.101 12.2717L592.724 30.8557L576.304 48.8248L574.011 74.6273L573.958 75.2817L573.758 75.957L566.053 101.338L565.65 102.64L564.787 103.709L547.642 124.717L546.824 125.729L545.734 126.383L521.437 140.452L507.712 155.996L505.195 158.843L501.645 158.206L477.031 153.612L453.478 149.365L428.488 151.393L428.243 151.428L427.995 151.413L402.665 151.4L401.135 151.42L399.851 150.707L378.302 139.108L354.639 136.817L353.595 136.717L352.622 136.209L339.018 129.495L333.752 126.914L336.467 121.252ZM411.191 -275.973L423.279 -254.912L423.621 -254.265L423.819 -253.547L430.581 -229.585L430.709 -229.156L430.737 -228.762L434.205 -203.882L441.683 -180.968L441.941 -180.109L441.954 -179.216L442.698 -153.748L448.429 -128.992L458.983 -110.1L481.398 -101.66L482.207 -101.377L482.94 -100.785L502.443 -85.2618L502.704 -85.0504L521.881 -67.8382L544.788 -67.8768L545.232 -67.8904L545.682 -67.8055L569.134 -64.2898L593.954 -70.1742L615.567 -75.302L616.403 -80.2974L603.898 -100.254L603.567 -100.754L603.326 -101.366L594.871 -124.837L594.084 -126.914L594.819 -129.109L604.122 -156.36L599.201 -177.301L579.973 -195.949L578.013 -197.858L578.257 -200.729L580.251 -227.285L581.65 -252.462L567.835 -271.385L567.179 -272.287L566.904 -273.392L560.938 -296.571L548.204 -314.157L525.207 -315.399L501.917 -306.001L500.38 -305.384L498.837 -305.561L474.609 -308.17L451.709 -301.664L428.435 -287.094L426.779 -286.062L424.901 -286.092L409.127 -286.426L411.191 -275.973ZM357.811 124.273L381.519 126.508L382.713 126.636L383.739 127.186L404.988 138.729L428.88 138.649L454.167 136.628L455.002 136.559L455.752 136.701L480.101 141.033L480.154 141.076L501.12 145.046L513.202 131.428L513.933 130.578L514.928 129.988L538.987 116.052L554.399 97.0826L561.596 73.6146L564.076 46.2431L564.263 43.9774L565.819 42.2127L584.074 22.2401L584.255 22.0151L584.486 21.7831L603.475 4.54165L608.801 -16.022L603.482 -21.4815L580.828 -19.9366L555.505 -17.0153L555.309 -16.9874L555.11 -17.0087L529.768 -15.7764L528.982 -15.7139L528.179 -15.8977L505.315 -20.8906L482.077 -14.9834L464.899 -7.15553L446.86 10.2488L446.629 10.4808L446.346 10.6705L426.877 25.9903L426.363 26.412L425.742 26.6999L402.718 38.4973L395.259 62.4505L394.734 64.1177L393.486 65.3408L374.873 83.7227L358.938 102.966L350.395 120.606L357.811 124.273ZM270.693 -74.3929L282.839 -99.8118L271.218 -119.845L269.363 -123.063L271.35 -126.431L284.225 -147.775L284.662 -148.584L285.358 -149.23L303.166 -166.403L308.965 -191.512L309.392 -193.165L310.535 -194.473L327.075 -213.554L337.142 -236.934L345.308 -262.083L346.001 -264.172L347.734 -265.514L368.827 -281.613L369.498 -282.605L371.615 -283.405L379.03 -286.106L386.396 -288.8L387.031 -281.129L388.368 -265.548L388.426 -264.71L388.286 -263.894L383.851 -237.637L393.933 -217.035L393.936 -216.986L393.989 -216.944L404.282 -194.731L419.653 -174.736L421.341 -172.489L420.703 -169.612L415.127 -144.137L432.167 -127.117L433.814 -125.461L433.881 -123.082L434.723 -96.9318L434.747 -96.587L434.722 -96.2352L432.798 -70.0875L432.713 -69.1798L432.384 -68.2372L423.935 -45.7347L423.767 -45.3126L423.55 -44.8836L411.441 -22.4554L402.94 2.84072L401.918 5.8726L398.988 7.03759L372.959 17.5229L359.474 37.2122L346.996 59.2952L338.801 85.4431L338.041 87.9897L335.767 89.3595L300.888 110.264L302.688 97.8669L305.784 75.7808L294.953 54.3413L294.322 53.088L294.271 51.6524L294.107 26.0021L294.118 25.4532L294.181 24.9466L298.073 0.109916L289.557 -22.1083L289.139 -23.1432L289.154 -24.3394L289.152 -47.6744L271.521 -67.4957L268.842 -70.4964L270.693 -74.3929ZM300.251 -54.8825L301.751 -53.206L301.766 -50.8697L301.656 -26.3245L310.395 -3.74016L310.997 -2.18431L310.72 -0.502749L306.67 25.6004L306.787 49.1677L317.897 71.065L318.807 72.776L318.501 74.7601L316.846 86.3906L327.651 79.9211L335.233 55.6021L335.482 54.9198L335.831 54.2727L348.834 31.2192L349.013 30.945L349.142 30.6777L363.973 9.05469L365.183 7.28968L367.104 6.51767L392.126 -3.52541L399.815 -26.3173L399.973 -26.8871L400.28 -27.4286L412.431 -49.9623L420.334 -71.0931L422.194 -96.0375L421.403 -119.359L403.718 -137.133L401.433 -139.443L402.187 -142.785L407.832 -168.669L393.751 -187.156L393.371 -187.649L393.085 -188.205L382.566 -210.834L371.669 -233.209L370.805 -234.977L371.159 -236.968L375.752 -264.492L375.196 -271.03L356.489 -256.814L348.859 -233.185L348.782 -232.875L348.656 -232.559L338.162 -208.222L337.687 -207.258L337.005 -206.414L320.78 -187.777L314.95 -162.414L314.498 -160.409L312.97 -158.947L294.239 -140.847L283.983 -123.708L295.427 -104.098L297.055 -101.295L295.547 -98.1444L283.75 -73.3726L300.251 -54.8825ZM373.445 -276.999L373.383 -277.189L373.275 -277.323L373.445 -276.999Z" fill="#FFF6EF"/>
<path d="M414.838 958.789L415.007 932.724L410.337 909.21L410.064 907.948L410.332 906.481L415.356 878.475L415.682 876.671L416.684 875.061L431.835 850.711L444.87 824.941L445.265 824.238L460.36 799.347L460.641 798.905L460.928 798.511L478.388 775.18L493.893 751.074L494.095 750.772L494.342 750.449L511.339 728.059L522.129 702.322L533.011 674.788L534.152 671.824L536.61 670.246L546.704 663.761L547.095 663.472L547.541 663.26L570.269 652.178L570.893 651.882L593.993 643.459L594.177 643.423L594.405 643.366L616.287 637.17L636.987 619.264L638.447 618.005L640.095 617.636L661.656 613.294L681.777 593.445L682.455 592.763L683.203 592.305L705.71 578.233L707.911 576.881L709.845 577.459L733.007 583.907L753.179 574.809L773.12 557.262L779.472 551.725L781.119 558.936L786.315 581.22L801.577 596.31L803.567 598.306L796.047 631.103L811.46 644.059L813.215 645.599L813.052 648.512L811.358 675.661L820.766 693.886L836.526 709.256L837.049 709.781L837.41 710.538L846.942 731.283L847.553 732.643L847.41 734.412L845.395 762.074L852.86 782.767L852.91 782.795L860.333 803.973L875.111 819.807L877.016 821.895L876.092 825.581L868.213 856.744L867.479 859.567L865.39 861.536L844.89 880.895L840.734 907.354L840.259 910.415L838.062 912.694L817.732 933.673L807.799 957.303L805.059 986.546L804.752 989.424L802.799 991.793L784.555 1013.9L774.211 1039.42L773.463 1041.22L772.196 1042.54L753.392 1062.44L751.455 1089.96L751.238 1092.8L749.34 1095.24L728.885 1121.28L726.655 1124.14L723.815 1124.3L702.097 1125.37L679.682 1133.62L679.141 1133.83L678.635 1133.91L655.913 1137.46L654.439 1137.7L653.294 1137.06L634.991 1126.91L613.609 1146.79L611.733 1148.56L609.637 1148.68L588.01 1150.16L565.454 1159.31L563.113 1160.21L561.35 1159.04L542.517 1146.52L521.605 1158.39L519.568 1159.51L517.788 1159.06L498.675 1154.15L476.663 1175.62L472.12 1180.09L469.14 1176.24L452.861 1155.04L452.147 1154.04L451.908 1152.65L448.243 1127.99L448.009 1126.66L448.405 1125.08L454.768 1097.78L439.632 1082.99L437.288 1080.75L438.668 1076.49L448.153 1047.25L435.678 1031.04L434.485 1029.49L434.694 1027.02L436.744 1001.92L420.222 987.326L419.036 986.29L418.751 984.466L414.907 959.891L414.805 959.371L414.838 958.789ZM429.778 976.609L446.952 991.618L448.751 993.137L448.465 996.211L446.332 1021.87L459.441 1038.75L461.233 1041.1L460.035 1044.86L450.609 1073.77L465.521 1088.2L467.56 1090.22L466.685 1093.94L459.77 1123.56L463.037 1145.32L475.621 1161.67L495.887 1141.86L498.603 1139.18L501.353 1139.94L521.297 1145.18L543.09 1132.79L545.876 1131.21L547.992 1132.63L567.19 1145.49L588.124 1136.96L588.977 1136.61L589.816 1136.57L610.192 1135.21L633.024 1113.98L636.311 1110.92L639.198 1112.55L659.204 1123.74L680.034 1120.46L702.623 1112.08L703.436 1111.79L704.181 1111.75L723.803 1110.8L740.165 1089.95L742.184 1061.87L742.439 1058.51L744.888 1055.95L764.746 1034.94L775.026 1009.7L775.622 1008.23L776.621 1007.04L793.866 986.128L796.532 958.416L796.621 957.033L797.227 955.663L808.509 928.816L809.218 927.088L810.529 925.745L829.89 905.792L834.149 878.975L834.648 875.696L837.123 873.389L857.925 853.784L864.189 829.109L850.761 814.542L850.128 813.862L849.797 812.937L842.053 790.932L834.176 768.99L833.724 767.812L833.848 766.31L835.799 738.936L827.239 720.308L811.563 704.848L811.095 704.399L810.75 703.79L800.386 683.594L799.68 682.227L799.772 680.43L801.362 654.517L785.475 641.064L783.213 639.146L784.112 635.214L790.78 605.913L776.699 591.81L775.806 590.893L775.473 589.504L771.601 573.14L757.145 585.818L756.244 586.606L755.257 587.022L732.358 597.361L730.613 598.137L729.071 597.733L706.297 591.412L686.689 603.645L665.677 624.38L664.019 625.991L662.143 626.416L640.22 630.879L619.778 648.56L618.491 649.686L617.082 650.096L593.786 656.653L571.722 664.688L549.352 675.601L542.023 680.312L532.326 704.861L532.292 704.98L532.253 705.051L520.823 732.277L520.341 733.485L519.56 734.526L502.266 757.211L486.48 781.759L486.277 782.061L486.069 782.314L468.733 805.484L454.117 829.58L441.077 855.301L440.885 855.702L440.643 856.074L426.222 879.356L421.821 903.922L426.363 926.671L426.48 927.337L426.508 928.046L426.296 954.595L429.778 976.609ZM583.582 688.866L589.912 692.052L608.602 674.635L609.626 673.685L610.792 673.184L633.737 663.288L656.091 651.764L656.71 651.419L657.35 651.27L680.43 645.331L680.47 645.261L701.903 638.813L721.998 617.378L725.12 614.094L728.194 615.266L748.734 623.06L750.152 623.625L750.873 625.139L758.276 641.222L773.274 656.025L774.001 656.711L774.353 657.833L781.515 679.65L792.203 698.918L792.243 698.848L803.821 718.107L804.336 718.998L804.504 720.155L807.898 745.356L808.046 746.317L807.881 747.426L803.882 774.482L821.713 785.931L823.371 787.001L823.663 789.337L826.706 814.756L826.91 816.258L826.43 817.929L820.092 840.112L817.911 847.9L812.094 846.481L790.9 841.37L769.976 848.659L747.529 864.197L746.394 864.992L745.248 865.226L722.368 870.4L721.728 870.549L721.162 870.508L698.663 869.933L697.769 869.893L696.983 869.544L679.037 860.572L655.195 867.285L651.736 868.254L650.284 865.127L640.532 844.074L640.297 843.619L640.146 843.072L635.137 821.678L619.135 808.022L618.721 807.65L618.392 807.188L606.236 788.667L606.016 788.358L605.886 788.008L596.498 767.298L595.876 765.839L596.058 764L598.817 735.831L586.527 720.054L586.357 719.774L586.192 719.543L575.171 700.226L575.001 699.945L574.876 699.644L574.865 699.546L567.064 680.559L583.582 688.866ZM514.961 1108.02L528.704 1081.86L529.523 1080.29L530.805 1079.11L551.427 1060.47L564.943 1037.05L577.87 1010.25L578.175 1009.59L578.62 1008.91L594.792 985.368L610.881 959.233L611.281 958.579L611.78 957.982L630.378 936.122L631.382 934.976L632.527 934.279L656.425 920.064L657.48 919.409L658.493 919.238L679.47 915.585L701.877 906.356L702.011 906.292L724.618 897.638L724.752 897.575L747.833 889.418L748.374 889.214L748.93 889.156L770.323 886.337L792.499 871.34L793.158 870.924L793.833 870.656L816.399 861.609L822.787 859.097L822.393 866.502L822.094 872.573L822.011 874.468L821.272 875.901L811.569 902.619L811.102 903.974L810.242 905.155L793.783 927.754L786.075 954.298L785.344 956.707L783.613 958.508L764.148 978.355L760.222 1005.22L760.028 1006.5L759.501 1007.73L747.198 1035.11L746.321 1037.02L744.871 1038.38L723.165 1058.31L705.661 1080.32L703.718 1082.79L701.281 1083.22L678.194 1087.31L677.454 1087.4L676.743 1087.33L656.481 1084.4L634.411 1099.97L633.411 1100.7L632.319 1101.01L609.335 1107.42L607.648 1107.86L606.27 1107.22L586.23 1097.49L565.671 1102.9L542.733 1115.99L541.365 1116.8L540.054 1116.8L518.025 1117.14L510.118 1117.22L514.961 1108.02ZM596.059 709.556L609.516 726.635L610.764 728.261L610.52 730.851L607.616 759.862L616.202 778.735L627.863 796.563L644.518 810.632L645.554 811.584L645.948 813.099L651.154 835.482L659.268 852.981L681.378 846.728L683.11 846.268L684.493 846.953L703.042 856.309L724.179 856.858L745.227 852.089L767.63 836.572L768.462 836.023L769.276 835.74L792.328 827.752L793.727 827.244L794.98 827.578L811.471 831.619L815.109 818.965L812.518 797.404L793.919 785.34L791.454 783.724L792.036 779.891L796.408 750.132L793.25 727.191L782.227 708.751L782.172 708.674L782.162 708.576L771.149 688.894L770.778 688.039L763.822 666.846L749.019 652.106L748.495 651.581L748.184 650.852L741.068 635.716L725.065 629.639L706.613 649.315L705.099 650.961L703.328 651.491L680.078 658.49L679.855 658.596L657.103 664.534L635.057 675.861L634.611 676.072L612.875 685.447L592.903 704.039L596.059 709.556ZM541.81 1103.18L564.218 1090.4L564.971 1089.99L565.745 1089.77L588.715 1083.68L590.353 1083.21L591.686 1083.87L611.637 1093.64L631.937 1087.99L654.957 1071.67L657.003 1070.18L659.001 1070.47L680.556 1073.66L700.376 1070.14L716.522 1049.91L716.972 1049.28L717.531 1048.81L738.128 1029.92L749.101 1005.49L753.264 976.863L753.734 973.753L755.975 971.453L775.95 951.107L783.446 925.229L783.926 923.558L784.994 922.124L801.701 899.202L809.546 877.541L795.019 883.293L772.273 898.663L770.96 899.543L769.624 899.764L747.402 902.718L724.862 910.67L702.433 919.239L679.624 928.659L678.995 928.906L678.438 928.963L657.839 932.644L636.191 945.534L619.096 965.65L603.408 991.132L603.245 991.364L603.126 991.575L587.116 1014.89L574.54 1041.01L574.387 1041.34L574.185 1041.64L559.519 1067.05L558.73 1068.46L557.616 1069.45L537.172 1088.01L529.09 1103.39L541.81 1103.18ZM440.888 900.813L462.785 876.461L466.227 847.659L466.762 843.384L470.204 840.928L494.726 823.736L508.697 801.079L521.317 775.815L530.977 748.241L531.38 747.174L531.983 746.218L547.263 721.755L550.081 716.914L554.092 717.642L563.74 719.41L566.891 719.978L567.105 723.796L568.567 750.222L574.727 771.43L587.989 787.984L588.313 788.397L588.504 788.874L598.322 809.225L598.748 810.158L598.866 811.288L600.755 836.428L612.489 853.603L626.327 872.977L628.519 876.011L626.177 880.473L612.946 905.717L611.794 934.465L611.68 936.942L610.273 939.156L593.691 965.061L592.605 966.761L591.074 967.796L568.977 982.653L563.138 1010.48L562.596 1012.9L560.929 1014.88L542.959 1036.03L530.504 1061.52L529.43 1063.78L527.558 1065.13L503.993 1082.08L489.534 1099.19L481.069 1109.13L480.358 1097.46L478.859 1071.57L478.838 1071.37L477.912 1046.03L471.84 1023.44L471.699 1022.99L467.152 998.851L467.061 998.43L467.059 997.967L465.87 974.144L449.738 958.796L447.494 956.611L448.661 952.552L456.611 924.758L440.009 911.18L435.185 907.177L440.888 900.813ZM467.367 914.762L469.928 916.848L468.693 921.145L460.6 949.368L475.834 963.749L477.141 965.038L477.278 967.241L478.464 992.818L482.884 1016.19L489.191 1039.24L489.353 1039.88L489.391 1040.69L490.32 1066.96L490.276 1066.98L491.139 1081.01L497.933 1072.99L498.685 1072.12L499.557 1071.5L521.987 1055.35L533.978 1030.8L534.56 1029.64L535.396 1028.68L552.491 1008.56L558.682 979.181L559.536 975.27L562.687 973.158L586.365 957.294L600.368 935.395L601.601 906.97L601.673 904.977L602.689 903.052L614.504 880.386L602.803 863.969L602.798 863.92L602.748 863.892L590.335 845.596L589.61 844.496L589.495 842.952L587.491 817.608L578.368 798.525L564.882 781.614L564.337 780.892L564.1 779.973L557.387 757.068L557.175 756.395L557.143 755.637L555.832 732.438L553.108 731.925L541.077 751.188L531.593 778.214L531.377 778.832L531.106 779.373L518.023 805.578L517.831 805.979L517.594 806.4L502.261 831.249L501.219 832.929L499.693 834.013L477.093 849.881L473.801 877.427L473.46 880.424L471.318 882.78L453.032 903.151L467.367 914.762Z" fill="#FFF6EF"/>
<path d="M372.684 508.049L389.822 486.6L386.788 459.277L386.441 456.145L387.909 453.449L401.21 429.152L404.058 402.866L401.88 372.687L401.787 371.619L401.92 370.58L405.85 341.467L406.549 336.235L410.322 335.093L416.663 333.224L430.213 312.372L445.058 289.492L445.48 288.896L445.948 288.387L463.392 270.39L480.354 251.884L481.324 250.83L482.505 250.372L503.992 243.049L518.99 223.926L519.358 223.526L536.523 205.006L536.924 204.57L537.338 204.257L557.839 189.13L561.433 186.462L563.951 190.4L577.348 211.413L577.404 211.421L577.451 211.508L590.559 232.972L590.791 233.407L601.519 254.363L623.708 256.393L625.757 256.574L627.03 258.768L639.874 280.726L640.083 281.118L640.281 281.591L650.038 305.184L668.497 314.089L670.796 315.237L671.473 318.493L675.802 340.416L676.045 341.666L675.961 342.996L673.865 371.49L677.023 400.536L677.345 403.421L676.101 405.943L663.422 431.903L660.282 458.436L660.918 487.402L660.885 487.438L662.285 516.949L662.395 520.132L660.778 522.647L646.31 545.047L646.1 545.345L645.855 545.68L629.003 566.474L628.157 567.463L627.135 568.023L607.876 577.947L591.625 597.193L591.157 597.702L590.643 598.124L571.74 612.684L571.068 613.207L570.348 613.44L549.591 620.45L529.988 631.711L529.798 631.85L529.618 631.908L510.291 641.011L494.955 661.878L492.934 664.625L490.326 664.088L475.045 661.156L474.479 661.083L473.943 660.771L453.565 649.548L452.95 649.185L452.421 648.589L436.664 631.174L435.15 629.517L434.932 626.727L432.437 594.069L420.548 575.89L402.846 562.654L402.035 562.022L401.444 561.012L389.198 539.78L372.332 518.892L368.158 513.726L372.684 508.049ZM582.129 242.617L569.309 221.596L558.396 204.558L541.926 216.748L525.262 234.724L509.485 254.762L508.385 256.165L507 256.638L485.379 264.106L469.096 281.805L452.144 299.337L437.663 321.614L422.861 344.377L422.506 344.901L421.001 346.536L419.717 346.9L415.371 348.252L412.339 371.021L414.502 400.873L414.536 401.73L414.447 402.653L412.529 420.77L430.215 399.757L429.586 387.367L428.463 386.248L428.594 382.528L428.858 372.608L428.81 371.627L429.088 370.363L429.108 370.203L437.127 371.189L439.268 370.651L439.66 378.826L452.927 391.86L470.292 404.363L489.986 412.613L490.838 412.926L491.493 413.659L507.368 430.602L508.251 431.569L508.734 432.971L517.065 458.251L517.409 459.392L517.471 460.7L518.38 483.039L518.44 484.143L518.207 485.291L512.929 513.459L512.753 514.615L512.28 515.611L501.625 539.921L502.184 569.04L502.25 571.445L501.237 573.509L489.052 599.208L485.209 609.441L482.337 617.036L477.541 612.684L460.385 597.202L460.225 597.1L460.076 596.919L444.108 579.801L443.683 579.3L443.301 578.682L431.044 556.637L430.766 556.114L430.554 555.518L421.762 530.464L407.703 512.372L406.817 511.202L406.445 509.611L401.351 487.143L400.884 485.173L401.297 483.073L406.813 455.057L408.727 438.321L397.447 458.977L400.605 487.128L401.042 491.125L398.741 494.04L383.784 512.843L396.729 528.842L397.028 529.205L397.26 529.641L409.251 550.393L426.805 563.447L427.513 563.985L428.044 564.784L441.445 585.31L442.484 586.865L442.637 589.038L445.102 621.245L458.817 636.408L477.987 646.948L490.038 649.263L504.373 629.69L505.351 628.353L506.599 627.822L527.116 618.181L546.64 606.869L547.043 606.636L547.46 606.527L568.026 599.655L585.687 586.033L602.326 566.226L603.106 565.31L604.094 564.787L623.276 555.016L639.071 535.507L651.734 515.963L650.508 489.359L650.495 489.236L650.515 489.076L649.848 459.456L649.827 458.722L649.919 458.002L653.343 429.028L653.535 427.306L654.272 425.816L666.424 401.047L663.494 373.818L663.38 372.91L663.436 372.023L665.483 344.132L662.03 326.83L644.286 318.179L642.659 317.402L641.806 315.302L631.235 289.979L620.032 270.709L597.684 268.578L595.408 268.368L594.143 265.89L582.129 242.617ZM434.619 334.143L444.049 332.425L459.524 329.573L473.941 311.838L486.167 285.82L486.771 284.475L487.653 283.654L505.259 265.962L505.46 265.744L505.65 265.606L524.254 249.788L525.226 248.938L526.32 248.712L546.795 244.347L547.302 244.209L547.845 244.238L566.324 245.346L568.27 245.432L569.551 247.343L583.676 267.84L583.987 268.327L584.256 268.93L594.297 291.87L613.594 299.176L614.117 299.365L614.562 299.706L632.471 313.131L632.734 313.327L633.02 313.567L649.07 330.045L656.143 337.289L647.508 342.683L629.005 354.125L613.168 373.953L612.646 374.658L612.008 375.145L594.039 388.485L578.814 414.322L577.598 416.401L575.763 417.019L555.182 424.458L554.765 424.567L554.325 424.633L531.288 427.654L530.181 427.756L529.146 427.298L509.044 417.289L508.202 416.897L507.558 416.083L492.926 398.202L475.309 386.318L474.225 385.569L473.562 384.225L462.133 361.555L444.572 351.261L444.196 351.051L443.84 350.68L443.761 350.629L443.063 350.012L434.619 334.143ZM494.487 600.595L511.962 578.986L518.09 553.608L519.506 524.133L519.577 522.68L520.034 521.357L529.116 494.489L537.616 466.327L538.276 464.096L539.717 462.737L557.781 445.51L574.167 427.012L590.739 406.384L591.217 405.795L591.732 405.374L610.482 390.428L628.149 373.841L644.207 358.794L649.02 354.251L651.506 360.907L654.309 368.457L655.096 370.63L654.827 372.505L653.956 401.319L653.942 402.779L653.508 404.146L645.007 430.52L645.969 458.512L646.071 461.084L644.948 463.337L632.695 487.321L635.121 515.786L635.394 519.274L633.576 522.007L616.912 546.725L615.57 548.666L613.722 549.161L592.975 554.303L578.197 575.526L577.243 576.907L575.918 577.591L555.493 587.406L555.099 587.559L554.739 587.675L534.921 592.977L521.03 616.264L518.796 620L515.583 619.019L496.189 612.92L486.89 610.022L494.487 600.595ZM468.091 348.749L469.298 349.432L470.054 350.95L481.508 373.868L498.68 385.411L499.238 385.767L499.71 386.355L514.136 404.047L532.348 413.083L553.919 410.28L572.171 403.721L586.93 378.596L587.671 377.309L588.713 376.59L607.096 362.938L623.177 342.776L623.866 341.889L624.707 341.387L635.361 334.83L626.534 325.777L609.596 313.086L588.992 305.206L587.207 304.53L586.251 302.336L575.523 278.009L563.011 259.75L546.988 258.794L528.07 262.912L510.472 277.842L494.116 294.313L482.055 319.946L481.615 320.906L481.036 321.604L464.683 341.65L463.348 343.307L461.668 343.62L459.864 343.998L468.091 348.749ZM515.516 603.817L528.532 581.962L529.915 579.702L531.91 579.185L553.329 573.519L572.002 564.576L587.144 542.75L588.453 540.846L590.234 540.424L610.948 535.318L624.452 515.272L622.09 487.426L621.825 484.548L623.093 482.07L635.456 457.897L634.505 430.718L634.447 428.923L635.002 427.288L643.591 400.682L644.317 375.465L633.395 385.685L615.428 402.599L615.204 402.774L615.014 402.912L596.677 417.545L580.717 437.438L580.607 437.627L580.506 437.736L563.519 456.889L563.352 457.07L563.128 457.245L546.47 473.149L538.687 499.087L538.667 499.247L538.589 499.399L529.823 525.373L528.436 554.405L528.369 555.372L528.133 556.317L521.33 584.492L520.837 586.542L519.669 588.017L508.647 601.718L515.516 603.817ZM451.364 568.543L466.883 585.116L478.924 596.042L480.278 592.438L480.432 592.132L491.738 568.352L491.18 539.233L491.15 536.995L492.006 535.033L503.035 510.039L507.933 483.935L507.126 464.169L499.643 441.476L485.363 426.24L466.055 418.12L465.646 417.946L465.28 417.655L447.389 404.76L447.127 404.564L446.841 404.324L440.654 398.251L440.785 401.274L440.983 405.118L438.779 407.72L420.093 430.027L417.064 456.37L416.961 457.17L411.752 483.681L416.018 502.509L429.788 520.157L430.432 520.971L430.786 522.032L439.766 547.639L451.364 568.543Z" fill="#FFF6EF"/>
</g>
</g>
</svg>
