<svg width="64" height="64" viewBox="0 0 64 64" fill="none" xmlns="http://www.w3.org/2000/svg">
<path fill-rule="evenodd" clip-rule="evenodd" d="M31.6161 38.418L31.6181 38.4316L31.62 38.4443L33.7587 53.3164H25.6767L24.1942 43.0137H18.4911L16.6689 53.3164H8.54541L11.1815 38.4062L14.5751 11.499H27.5575L31.6161 38.418ZM23.0116 35.0137H19.6727L21.1933 22.9531L23.0116 35.0137Z" fill="#FFF6EF"/>
<path fill-rule="evenodd" clip-rule="evenodd" d="M55.8905 28.0234L50.9862 17.7988H38.2958L35.9462 28.2861L43.7528 30.0352L44.702 25.7988H45.9501L47.6034 29.2451L47.2079 31.7803L36.9052 34.2275L33.6991 44.2178L37.2753 53.3164H55.7147V45.3164H54.1454L54.7284 35.4756L55.8905 28.0234ZM42.1874 43.9463L43.1425 40.9688L46.4345 40.1865L46.1308 45.3164H42.7265L42.1874 43.9463Z" fill="#FFF6EF"/>
</svg>
