<svg width="35" height="33" viewBox="0 0 35 33" fill="none" xmlns="http://www.w3.org/2000/svg">
<path d="M7.38344 2.01215L28.0007 2.29612L31.7736 3.74342L32.4627 10.5364L32.0647 23.3883L31.3898 27.6978L29.2951 30.3566L4.43582 30.1644L2.56914 27.519L2.00195 20.5165L2.27362 7.57867L7.38344 2.01215Z" fill="#20CA4B" stroke="#101010" stroke-width="4"/>
<path d="M14.1261 19.0093L15.122 20.3787L20.2788 11.2652L15.122 19.8773L14.1261 19.0093Z" fill="#101010"/>
<path fill-rule="evenodd" clip-rule="evenodd" d="M25.4878 9.79188L18.1912 22.2511L16.1671 24.1214L13.5626 24.3648L9.50916 18.7721L9.07617 17.6209L11.6269 15.8768L14.1261 19.0093L15.122 20.3787L20.2788 11.2652L22.8849 8.66773L25.4878 9.79188Z" fill="#101010"/>
</svg>
