<svg width="69" height="65" viewBox="0 0 69 65" fill="none" xmlns="http://www.w3.org/2000/svg">
<path d="M14.7666 4.02429L56.0019 4.59225L63.5478 7.4869L64.9261 21.0731L64.1302 46.7773L62.7802 55.3966L58.5907 60.7143L8.87124 60.3298L5.13782 55.0389L4.00342 41.0338L4.54677 15.1576L14.7666 4.02429Z" fill="#FFC400" stroke="#101010" stroke-width="8"/>
<path d="M44.9548 12.8679L55.8616 31.06L47.7253 50.0228L28.5959 52.5862L18.5427 43.4951L12.6871 27.3151L26.4086 11.758L44.9548 12.8679ZM19.3048 28.5725L23.5008 40.1655L30.4892 46.4841L43.6954 44.7147L49.367 31.4975L41.5561 18.4701L28.8841 17.7119L19.3048 28.5725Z" fill="#101010"/>
<path d="M44.8736 33.4522L29.852 39.528L32.4427 20.3324L34.7762 20.6419L37.3682 22.1531L37.2848 27.7831L35.774 31.9354L38.958 30.7635L42.1378 30.0637L43.5301 31.5535L44.8736 33.4522Z" fill="#101010"/>
</svg>
