<svg width="35" height="33" viewBox="0 0 35 33" fill="none" xmlns="http://www.w3.org/2000/svg">
<path d="M7.38344 2.01215L28.0007 2.29612L31.7736 3.74342L32.4627 10.5364L32.0647 23.3883L31.3898 27.6978L29.2951 30.3566L4.43582 30.1644L2.56914 27.519L2.00195 20.5165L2.27362 7.57867L7.38344 2.01215Z" fill="#F63609" stroke="#101010" stroke-width="4"/>
<path fill-rule="evenodd" clip-rule="evenodd" d="M11.0015 12.4348L12.8761 14.5135L15.0917 16.7291L12.9099 18.6944L11.1012 20.5031L10.5469 21.3093L10.6638 21.6929L12.5728 23.3351L13.159 23.4685L15.1743 21.7163L17.5078 19.1452L20.3508 22.2812L21.9164 23.6329L22.3644 23.4154L23.5664 22.2134L24.2211 21.1166L23.7132 20.2554L22.2514 18.7936L20.0274 16.6256L21.4589 15.4317L23.8868 12.7662L24.3831 12.1203L24.2692 11.648L22.9389 9.94547L22.3561 9.63843L20.7975 10.9187L19.5196 12.1076L17.6504 14.0658L15.647 11.7898L13.9279 10.0707L13.2598 9.54424L12.6689 10.0586L10.904 12.0588L11.0015 12.4348Z" fill="#101010"/>
</svg>
