<svg width="100" height="100" viewBox="0 0 100 100" fill="none" xmlns="http://www.w3.org/2000/svg">
<path d="M28.2321 29.3603C30.7281 26.8643 36.0197 21.7974 37.2178 21.4979L46.5779 20.0002L56.3124 21.4979L64.5492 23.3699L71.6629 34.602V45.8341L68.6677 52.9478L64.5492 59.3126L66.4213 62.6822L71.6629 74.2888L69.7909 84.3976C65.9221 86.8937 57.81 91.8857 56.3124 91.8857C54.8148 91.8857 44.9555 91.1369 40.213 90.7625L29.3553 85.8953L27.1089 78.0328V69.4215L29.3553 60.4358L27.1089 56.3174L23.7393 46.5829L24.4881 38.346L28.2321 29.3603Z" fill="#06C0F9" stroke="#FFF6EF" stroke-width="3"/>
<path d="M42.137 59.092V48.7477L50.3902 48.0803L50.9404 51.4172V55.4214L49.84 60.093L47.0889 62.4288H44.0627L42.137 59.092Z" fill="#06C0F9"/>
<path d="M42 52.157V63.6919L43.9687 67.4128H47.0625L49.875 64.8082L51 59.5989V55.1338L50.4375 51.4128" stroke="#FFF6EF" stroke-width="3"/>
<path d="M42.3311 49.6403L45.6642 47.5481H48.1639L49.8304 49.6403M26.478 36.3407L22.2903 40.3615L19 49.9495L19.8974 56.7538L29.17 63.8675H34.2551L40.5365 59.2282L42.3313 52.7331V45.9287L36.648 37.8872L32.4603 35.4128L26.478 36.3407ZM57.3085 36.3407L53.1208 40.3615L49.8305 49.9495L50.7279 56.7538L55.6633 60.9384L65.2458 63.0306L71.3671 59.2282L73.1618 52.7331L74.4117 44.6188L69.8287 38.7605L63.2909 35.4128L57.3085 36.3407Z" stroke="#FFF6EF" stroke-width="3"/>
<path d="M56.4451 38.4371L58.9964 35.9297L62.6412 35.3511L66.6244 37.4387L69.4166 41.0919L68.6551 46.152L67.5616 50.2024L63.8322 52.5736L57.9941 51.2689L54.9871 48.6594L54.4404 44.4162L56.4451 38.4371Z" fill="#FFF6EF"/>
<path d="M61.1797 46.9162L62.6773 44.1428L64.9237 43.5881L67.1701 44.9748V48.0255L66.4213 49.9669L64.1749 51.0762L61.9285 49.9669L61.1797 46.9162Z" fill="#101010"/>
<path d="M36.3189 52.3631L33.2056 54.1247L29.5352 53.7403L26.228 50.6929L24.4765 46.4414L26.5218 41.7508L28.6262 38.1215L32.8423 36.7963L38.1438 39.5676L40.3729 42.8664L39.8028 47.1066L36.3189 52.3631Z" fill="#FFF6EF"/>
<path d="M27.2107 47.0629L28.7083 44.2895L30.9547 43.7349L33.2011 45.1215V48.1722L31.7035 50.1136L30.2059 51.2229L27.9595 50.1136L27.2107 47.0629Z" fill="#101010"/>
<path d="M37.2177 70.9187L33.4737 69.0467L31.9761 74.6627V80.2788L37.2177 83.6484L45.0802 85.5204L52.9427 86.2692L62.3028 82.1508L63.426 77.2835L62.3028 70.9187L60.4307 68.2979L54.0659 72.4163L48.4498 73.9139L37.2177 70.9187Z" fill="#101010" stroke="#FFF6EF" stroke-width="3"/>
<path d="M36.8435 73.5398L37.2179 70.9189L40.5875 72.4166L39.8387 75.0374L38.7155 77.2838L36.8435 76.1606V73.5398Z" fill="#FFF6EF"/>
<path d="M41.158 75.8916L40.6772 72.5081L45.3938 73.1495L45.4106 76.6681L44.8282 79.8575L42.1029 79.1401L41.158 75.8916Z" fill="#FFF6EF"/>
<path d="M58.1845 75.7297L58.1847 70.7578L53.9486 72.9876L53.9319 76.5062L54.5142 79.6956L57.2396 78.9782L58.1845 75.7297Z" fill="#FFF6EF"/>
<path d="M46.6707 76.1606L46.9525 74.2885L51.3722 73.9106L51.3141 77.4287L50.6641 80.605L47.3267 80.2788L46.6707 76.1606Z" fill="#FFF6EF"/>
<path d="M17 22L26.8319 30L28.5 26.5L31.7479 27.5L37.2101 25L43.2185 28L49.7731 24L54.1429 28.5L58.5126 24L65.0672 28.5L72.7143 31L82 22L71.6218 23.5L76.5378 13L65.0672 19.5L63.4286 11.5L51.958 17.5L50.8655 9L42.6723 16L38.8487 9L33.9328 16L25.1933 10.5V19.5L17 22Z" fill="#06C0F9" stroke="#FFF6EF" stroke-width="3"/>
</svg>
