<svg width="100" height="100" viewBox="0 0 100 100" fill="none" xmlns="http://www.w3.org/2000/svg">
<path d="M12.845 76.4922L11.3333 85.5625L20.0256 83.2949L27.9621 87.4521L36.6545 84.4287L51.7716 81.4052L67.2667 84.4287L74.0695 87.4521L84.2735 84.4287L91.8321 86.3183L90.3204 79.8935L88.0528 66.666L86.5411 47.0137L80.6832 35.1591L73.5026 23.4433L61.4088 17.3965L51.5827 19.2861H39.8669L28.529 27.9785L25.6946 35.1591L20.4035 45.1241L17.0022 58.3516L12.845 76.4922Z" fill="#FFC400" stroke="#FFF6EF" stroke-width="3"/>
<path d="M75.7324 54.5797L73.238 55.3606L72.169 47.9422L66.1114 36.2289L51.8581 30.7627L40.8117 35.0576L33.3287 46.3804V57.7033L29.7654 56.1415L28.3401 60.0459L29.7654 67.0739H33.3287L35.8231 69.4166L36.8921 76.4445L43.3061 84.6438L47.9384 88.1578L53.6397 89.7196L61.4791 86.9865L66.1114 82.3012L71.1 68.2452H74.307L76.8014 65.1217L78.2267 56.1415L75.7324 54.5797Z" fill="#FFC400" stroke="#FFF6EF" stroke-width="3"/>
<path d="M33.4421 43.4736L33.2532 53.0606L30.3333 51.2889L28.3333 45.9556L29.096 38.3214L42.6658 30.1196L60.6259 25.2411L68.9674 30.6241L73.5026 36.6709L75.7702 46.4971L72.7467 52.166L66.6999 39.6944L56.1179 35.2561L44.6747 33.0651L33.4421 43.4736Z" fill="#FFC400" stroke="#FFF6EF" stroke-width="3"/>
<path d="M47.3333 76.0199L49.3719 72.9618L50.731 72.6221L53.4493 73.3016L53.789 76.6994L52.0901 78.3983L50.0515 79.4176L48.0128 78.7381L47.3333 76.0199Z" fill="#101010" stroke="#FFF6EF" stroke-width="1.79811"/>
<path d="M58.8615 54.4304L56.9651 56.6837L59.1776 53.1786L62.3383 51.9268L66.1312 53.1786L68.2726 52.9282L67.0083 54.9311L69.5369 54.4304L68.5887 55.9326H66.0601L65.4991 54.4304L62.0223 53.1786L58.8615 54.4304Z" fill="#101010" stroke="#101010" stroke-width="1.19874"/>
<path d="M58.0976 56.0415L59.0616 54.5754L61.6857 53.3462L64.9623 53.567L66.5746 55.8942L66.0904 57.7989L63.8597 58.9609L60.3193 59.5659L57.6997 58.4519L58.0976 56.0415Z" fill="#FFF6EF"/>
<path d="M60.5815 55.8121L60.9096 55.083L61.6752 54.6455L62.5501 55.083L62.8782 56.5412L62.6594 57.5619L62.0033 57.9993H61.019L60.3628 57.1244L60.5815 55.8121Z" fill="#101010"/>
<path d="M46.574 54.4304L48.4705 56.6837L46.2579 53.1786L43.0972 51.9268L39.3043 53.1786L37.163 52.9282L38.4272 54.9311L35.8987 54.4304L36.8469 55.9326H39.3755L39.9365 54.4304L43.4133 53.1786L46.574 54.4304Z" fill="#101010" stroke="#101010" stroke-width="1.19874"/>
<path d="M47.338 56.0415L46.3739 54.5754L43.7499 53.3462L40.4732 53.567L38.8609 55.8942L39.3452 57.7989L41.5758 58.9609L45.1162 59.5659L47.7358 58.4519L47.338 56.0415Z" fill="#FFF6EF"/>
<path d="M44.854 55.8121L44.5259 55.083L43.7604 54.6455L42.8855 55.083L42.5574 56.5412L42.7761 57.5619L43.4323 57.9993H44.4166L45.0728 57.1244L44.854 55.8121Z" fill="#101010"/>
<path d="M44.7053 71.2891C44.6538 71.3595 44.6013 71.4282 44.548 71.4951C44.0791 72.0828 43.5414 72.5325 42.9346 72.8442L43.2657 72.3084C43.2659 72.3249 43.266 72.3414 43.266 72.358C43.266 73.0566 43.1042 73.7553 42.7805 74.454C42.7446 74.5316 42.7066 74.6092 42.6667 74.6868C42.6267 74.6092 42.5887 74.5316 42.5528 74.454C42.2291 73.7553 42.0673 73.0566 42.0673 72.358C42.0673 72.3414 42.0674 72.3249 42.0676 72.3084L42.0717 71.9316L42.3987 71.7725C43.0122 71.4742 43.6946 71.3138 44.4461 71.2914C44.5316 71.2888 44.618 71.288 44.7053 71.2891Z" fill="#FFF6EF"/>
<path d="M64.0985 81.7384L69.4545 81.9109L73.9298 78.3255L75.1094 72.7093L72.9356 68.0677L68.9304 65.7733L64.6386 65.996L60.3008 68.6233L58.9362 71.2905L58.2813 73.4876L53.0395 75.9425L58.3001 78.0497L64.0985 81.7384Z" fill="#FFC400" stroke="#FFF6EF" stroke-width="2.33333"/>
<path d="M71.6667 72.9551C71.5807 72.8613 71.4966 72.7667 71.4146 72.6713C70.8198 71.9789 70.3334 71.2425 69.9553 70.4619L70.3085 70.8164C70.1109 70.7498 69.9159 70.677 69.7234 70.598C68.7304 70.1901 67.8058 69.6157 66.9496 68.8749C66.8545 68.7926 66.7602 68.7082 66.6667 68.6217C66.794 68.626 66.9203 68.6322 67.0459 68.6405C68.1756 68.7154 69.237 68.9568 70.23 69.3646C70.4225 69.4437 70.6124 69.529 70.7997 69.6206L71.0806 69.7579L71.1529 69.975C71.4267 70.7979 71.5922 71.6649 71.6493 72.5759C71.6572 72.7014 71.663 72.8278 71.6667 72.9551Z" fill="#FFF6EF"/>
<path d="M53.2917 54.1958L52.812 58.9527L51.6128 61.8408V63.2566L52.812 64.3892H54.7308L55.6901 63.5397" stroke="#FFF6EF" stroke-width="2.69716"/>
<path d="M34.5713 21.7051L40.0585 25.7295L40.1852 29.5493L41.8146 32.5545L34.7723 39.289L30.1632 38.6772L28.1392 35.3027L28.7384 30.3115L25.1611 26.2238L25.811 22.7606L34.5713 21.7051Z" fill="#FFC400" stroke="#FFF6EF" stroke-width="3"/>
<path d="M47.8671 16.4127L46.4329 23.0646L48.8729 26.0062L49.6483 29.3356L59.3856 29.7002L62.4275 26.1838L61.7023 22.3163L57.9419 18.9802L57.9053 13.5483L55.1209 11.3888L47.8671 16.4127Z" fill="#FFC400" stroke="#FFF6EF" stroke-width="3"/>
<path d="M40.4656 26.4808L42.2868 23.7436L45.3174 22.8782L48.0546 24.6994L49.3526 29.2452L47.1621 32.3771L43.7496 33.2551L42.1583 31.3959L40.4656 26.4808Z" fill="#FFC400" stroke="#FFF6EF" stroke-width="3"/>
</svg>
