<svg width="393" height="400" viewBox="0 0 393 400" fill="none" xmlns="http://www.w3.org/2000/svg">
<path d="M173.46 123.505L145.13 137.145L131.637 165.475V247.316L173.46 279.843L238.513 270.4L257.4 247.316V165.475L238.513 137.145L207.036 123.505H173.46Z" fill="#4C1A35"/>
<path fill-rule="evenodd" clip-rule="evenodd" d="M30.3972 392.758L119.046 400L343.544 400L381.491 389.399L392.048 358.829V148.483V43.8946L368.781 12.2363L310.843 2.88048L47.7016 0L12.3084 11.377L1.67671 60.2217L0 315.639L8.31936 380.063L30.3972 392.758ZM145.13 137.145L173.46 123.505H207.036L238.513 137.145L257.4 165.475V247.316L238.513 270.4L173.46 279.843L131.637 247.316V165.475L145.13 137.145Z" fill="#FF37A5"/>
</svg>
