<svg width="100" height="100" viewBox="0 0 100 100" fill="none" xmlns="http://www.w3.org/2000/svg">
<path d="M31.9593 66.1025L28.8333 49.9267L30.5247 34.5144L32.654 28.1245L39.9481 19.3333H55.9257L68.7772 28.1245L70.1666 42.1904V63.2893L61.8304 77.3552L49.3262 83.3332C46.8949 82.1611 41.9627 79.7464 41.6848 79.4651C41.4069 79.1838 35.0854 70.4395 31.9593 66.1025Z" fill="#1C51FF"/>
<path d="M53.5 38.3334L56.5 36.6667H61.5L63.8333 38.6667" stroke="#FFF6EF" stroke-width="3"/>
<path d="M36.1667 37.6667L39.1667 36H44.1667L46.5001 38" stroke="#FFF6EF" stroke-width="3"/>
<path d="M47.5 55.3333L49.8333 57.6666L52.1667 58.3333L54.8333 55.9999" stroke="#FFF6EF" stroke-width="3"/>
<path d="M44.1667 65.6923L38.1667 63.5385L38.8334 66.6154L40.5001 68.7692L43.8334 71.8462L49.1667 74H53.5001L58.5001 71.2308L61.5001 66.9231L62.1667 62L60.5001 62.9231L56.8334 65.3846L50.5001 66L44.1667 65.6923Z" fill="#101010" stroke="#FFF6EF" stroke-width="3"/>
<path d="M43.5 71.9999L46.752 69.9999L51.9553 70.6666L55.5325 69.3333L56.8333 71.3333" stroke="#FFF6EF" stroke-width="2"/>
<path d="M35.8767 43.5072L37.4419 40.8985L41.0941 39.3333L45.268 40.8985L46.8333 46.1159L45.7898 49.768L42.6593 51.3333H37.9637L34.8333 48.2028L35.8767 43.5072Z" fill="#FFF6EF"/>
<path d="M41.1231 45.8262L41.5579 45.1015L42.5724 44.6667L43.7318 45.1015L44.1666 46.5508L43.8767 47.5653L43.0072 48.0001H41.7028L40.8333 47.1305L41.1231 45.8262Z" fill="#101010"/>
<path d="M63.7898 43.5072L62.2246 40.8985L58.5724 39.3333L54.3985 40.8985L52.8333 46.1159L53.8767 49.768L57.0072 51.3333H61.7028L64.8333 48.2028L63.7898 43.5072Z" fill="#FFF6EF"/>
<path d="M59.2101 45.8262L58.7754 45.1015L57.7609 44.6667L56.6014 45.1015L56.1667 46.5508L56.4565 47.5653L57.3261 48.0001H58.6304L59.5 47.1305L59.2101 45.8262Z" fill="#101010"/>
<path d="M50.1667 18L52.8334 23L58.8334 27L69.5001 30L74.8334 32" stroke="#FFF6EF" stroke-width="3"/>
<path d="M49.5 18L46.8333 23L40.8333 27L30.1667 30L24.8333 32" stroke="#FFF6EF" stroke-width="3"/>
<path d="M37.5 12.3333L46.5 15L52.5 12.3333L62.5 10L73.5 12.3333L80.5 22.6667L83.8333 30.6667V39.3333L82.5 48.6667L87.1667 55.6667V66.3333L82.5 74.6667L83.1667 79.6667L87.1667 83.3333L93.1667 81.3333L89.5 87.3333L83.8333 91H74.8333L63.5 87.3333L61.1667 77.3333L64.5 71.6667L69.5 60.3333V37L67.5 27.6667L57.5 21.6667L49.1667 20.3333L40.5 21.6667L33.8333 29L29.8333 42.6667L31.8333 60.3333L40.5 75.6667L39.5 83.3333L34.5 91L19.8333 92.6667L10.8333 89.3333L9.5 82.3333L16.5 83.3333L19.8333 77.3333L15.8333 70.3333L13.1667 60.3333L16.5 55.6667L18.8333 48.6667L16.5 39.3333L18.8333 27.6667L25.5 16.6667L37.5 12.3333Z" fill="#1C51FF"/>
<path d="M30.5699 34.1026L30.5247 34.5144M30.5247 34.5144L28.8333 49.9267L31.9593 66.1026C35.0854 70.4396 41.4069 79.1839 41.6848 79.4652C41.9627 79.7465 46.8949 82.1612 49.3262 83.3333L61.8304 77.3553L70.1666 63.2894V42.1905L69.1666 30L59.1666 27L53.4999 23L51.1666 19.6667L48.8333 19L46.8333 23L43.4999 25L39.4999 27.3333L34.8333 28.6667L31.9593 30L30.5247 34.5144Z" stroke="#FFF6EF" stroke-width="3"/>
<path d="M61.1667 77.3333L63.5 87.3333L74.8333 91H83.8333L89.5 87.3333L93.1667 81.3333L87.1667 83.3333L83.1667 79.6667L82.5 74.6667L87.1667 66.3333V55.6667L82.5 48.6667L83.8333 39.3333V30.6667L80.5 22.6667L73.5 12.3333L62.5 10L52.5 12.3333L46.5 15L37.5 12.3333L25.5 16.6667L18.8333 27.6667L16.5 39.3333L18.8333 48.6667L16.5 55.6667L13.1667 60.3333L15.8333 70.3333L19.8333 77.3333L16.5 83.3333L9.5 82.3333L10.8333 89.3333L19.8333 92.6667L34.5 91L39.5 83.3333L41.5 79.6667" stroke="#FFF6EF" stroke-width="3"/>
</svg>
