<svg width="100" height="100" viewBox="0 0 100 100" fill="none" xmlns="http://www.w3.org/2000/svg">
<path d="M33.8794 30.7023L43.6605 20.8819L48.5511 19.2451L53.4416 23.337L60.7775 35.6125L64.0379 54.4349L57.5171 75.7125L48.5511 87.1696L43.6605 84.7145L38.2265 79.9244L34.6945 69.1656L31.4341 52.7982L33.8794 30.7023Z" fill="#F63609" stroke="#FFF6EF" stroke-width="3"/>
<path d="M40.727 43.4207L41.4971 38.5892L44.298 36.3805L45.5731 40.0363L46.0404 44.2562L45.752 49.509L43.8626 52.0914L41.5578 50.9228L40.727 43.4207Z" fill="#FFF6EF"/>
<path d="M41.2836 47.3973L41.9276 45.898L44.2695 45.2126L45.3356 46.3471L45.7264 47.6566L45.4852 49.2866L43.9054 50.088L41.9783 49.7253L41.2836 47.3973Z" fill="#101010"/>
<path d="M51.1342 43.109L52.076 38.0142L53.7867 35.3294L57.1444 38.451L57.2491 43.929L56.8578 49.462L54.6512 52.2016L52.0077 50.9972L51.1342 43.109Z" fill="#FFF6EF"/>
<path d="M52.3606 45.6996L53.148 44.1186L54.5784 43.2855L57.386 44.2541L57.4735 45.954L57.1463 47.671L55.3013 48.5211L53.091 48.1474L52.3606 45.6996Z" fill="#101010"/>
<path d="M42 67.2075L43.8113 69.6226L45.8814 71.434L49.1159 70.8302L55.5849 66" stroke="#FFF6EF" stroke-width="3"/>
<path d="M48.1886 52.4995V56.9995L44.9998 61.4995L46.3773 65.4335L48.1886 64.9806L50.4528 60.9052" stroke="#FFF6EF" stroke-width="3"/>
<path d="M33.1351 17.871C33.6541 16.8271 39.8378 14.8265 42.8649 13.9567L48.0541 11.9995L51.2973 15.9138L55.1892 14.609L62.3243 17.871L66.2162 24.3948L72.0541 38.7472C72.7027 42.2266 74 49.5767 74 51.1425V69.4092L70.1081 82.4568L65.5676 85.7187L61.6757 88.9806L59.0811 86.3711L55.1892 87.6759L51.9459 83.1092C51.9459 83.1092 55.9676 78.2816 56.4865 77.2378L59.0811 73.9758L61.027 64.1901L60.3784 53.0996L61.027 40.5278L57.2453 31.0184L52.5946 24.3948L45.4595 27.0043L39.6216 32.8758L35.7297 47.8806V64.1901V73.3235L37.6757 79.8473H33.1351L29.8919 84.414L26 82.4568V69.4092V53.0996L27.2973 38.7472C29.027 32.2234 32.6162 18.9148 33.1351 17.871Z" fill="#F63609" stroke="#FFF6EF" stroke-width="3"/>
<path d="M44.5661 19.2451L42.3019 21.9621H38.6793L37.7736 25.1319L35.0566 27.8489" stroke="#FFF6EF" stroke-width="3"/>
<path d="M59.0566 25.5845L61.7736 26.943L64.0378 35.0939" stroke="#FFF6EF" stroke-width="3"/>
</svg>
