<svg width="64" height="64" viewBox="0 0 64 64" fill="none" xmlns="http://www.w3.org/2000/svg">
<path fill-rule="evenodd" clip-rule="evenodd" d="M20.0754 29.2774L15.7009 30.3155L13.4023 43.2165V52.9294L14.366 55.8952L20.6683 57.823H42.541L47.5087 56.7108L51.7349 54.1158V33.0587L50.9193 30.3155L45.4326 29.2774V17.859L42.541 11.705L40.0942 8.14583L31.271 7.18237L24.0027 9.56436L20.0754 17.266V29.2774ZM38.6855 28.3135L25.8584 29.2774V17.859L30.752 13.9219L35.0524 13.6329L39.2045 19.342L38.6855 28.3135ZM29.1208 41.7337L31.3588 38.6575L34.0809 38.8823L35.7197 42.6235L33.5 44.7261L34.0809 48.2973L32.6574 50.0454L30.752 48.6469L31.1452 44.7261L29.1208 41.7337Z" fill="#101010"/>
</svg>
