<svg width="150" height="150" viewBox="0 0 150 150" fill="none" xmlns="http://www.w3.org/2000/svg">
<path d="M43.376 25.3659L41.768 35.561L34.8 34.4878L28.904 35.561L23.008 40.3902L21.936 48.439L26.76 55.4146H24.08L15.504 60.7805L10.68 66.1463L12.288 76.3415L18.72 81.7073L13.36 83.8537L8 88.6829V95.6585L11.216 103.707H18.72L16.576 106.927L14.432 112.829L15.504 119.805L20.864 122.488H28.904L31.048 126.78L34.8 130H41.768L44.984 126.78L50.88 127.854L55.704 125.707L58.384 119.805L49.272 115.512L43.376 105.317L36.944 95.6585L33.192 79.0244L36.944 76.3415L41.768 74.7317V69.3659L39.624 65.6098H43.376L47.128 64L49.272 57.561H53.56H58.384L59.456 52.7317H63.744C65.352 52.0163 68.7824 50.4781 69.64 50.0488C70.4976 49.6195 72.1413 47.7236 72.856 46.8293L74.464 38.2439V41.4634L75.536 44.1463L77.68 46.8293C79.288 47.3659 82.7184 48.439 83.576 48.439H88.4L90.008 52.7317L95.904 55.4146L102.336 53.8049V57.561L103.944 61.8537L109.84 62.9268L108.768 65.6098L107.16 69.3659L109.84 73.6585H115.736V79.0244L109.84 92.9756L107.16 98.3415L105.552 106.927L100.192 112.829L92.152 120.878L93.76 124.634L98.584 127.854L105.552 125.707L109.84 130L118.952 127.854L121.632 120.878L127.528 122.488L132.888 120.878L136.64 112.829L135.032 103.707L142 96.7317V87.0732L132.888 80.6341L136.64 76.3415L138.784 69.3659L136.64 58.6341L125.92 53.8049L127.528 45.7561L124.848 38.2439L118.952 30.7317H107.16L105.016 25.3659L96.976 20H79.824L70.176 25.3659L64.816 21.0732H51.952L43.376 25.3659Z" fill="#101010"/>
<path d="M92.152 120.878L100.192 112.829L105.552 106.927L107.16 98.3415L109.84 92.9756L115.736 79.0244V73.6585H109.84L107.16 69.3659L108.768 65.6098L109.84 62.9268L103.944 61.8537L102.336 57.561V53.8049L95.904 55.4146L90.008 52.7317L88.4 48.439H83.576C82.7184 48.439 79.288 47.3659 77.68 46.8293L75.536 44.1463L74.464 41.4634V38.2439L72.856 46.8293C72.1413 47.7236 70.4976 49.6195 69.64 50.0488C68.7824 50.4781 65.352 52.0163 63.744 52.7317H59.456L58.384 57.561H53.56H49.272L47.128 64L43.376 65.6098H39.624L41.768 69.3659V74.7317L36.944 76.3415L33.192 79.0244L36.944 95.6585L43.376 105.317L49.272 115.512L58.384 119.805L69.64 124.634L77.68 126.78L83.576 125.707L90.008 123.561L92.152 120.878Z" fill="#101010"/>
<path d="M92.152 120.878L93.76 124.634L98.584 127.854L105.552 125.707L109.84 130L118.952 127.854L121.632 120.878L127.528 122.488L132.888 120.878L136.64 112.829L135.032 103.707L142 96.7317V87.0732L132.888 80.6341L136.64 76.3415L138.784 69.3659L136.64 58.6341L125.92 53.8049L127.528 45.7561L124.848 38.2439L118.952 30.7317H107.16L105.016 25.3659L96.976 20H79.824L70.176 25.3659L64.816 21.0732H51.952L43.376 25.3659L41.768 35.561L34.8 34.4878L28.904 35.561L23.008 40.3902L21.936 48.439L26.76 55.4146H24.08L15.504 60.7805L10.68 66.1463L12.288 76.3415L18.72 81.7073L13.36 83.8537L8 88.6829V95.6585L11.216 103.707H18.72L16.576 106.927L14.432 112.829L15.504 119.805L20.864 122.488H28.904L31.048 126.78L34.8 130H41.768L44.984 126.78L50.88 127.854L55.704 125.707L58.384 119.805M58.384 119.805L69.64 124.634L77.68 126.78L83.576 125.707L90.008 123.561L92.152 120.878L100.192 112.829L105.552 106.927L107.16 98.3415L109.84 92.9756L115.736 79.0244V73.6585H109.84L107.16 69.3659L108.768 65.6098L109.84 62.9268L103.944 61.8537L102.336 57.561V53.8049L95.904 55.4146L90.008 52.7317L88.4 48.439H83.576M88.4 48.439C87.1493 48.439 84.4336 48.439 83.576 48.439M83.576 48.439C82.7184 48.439 79.288 47.3659 77.68 46.8293L75.536 44.1463L74.464 41.4634V38.2439L72.856 46.8293C72.1413 47.7236 70.4976 49.6195 69.64 50.0488C68.7824 50.4781 65.352 52.0163 63.744 52.7317H59.456L58.384 57.561H53.56H49.272L47.128 64L43.376 65.6098H39.624L41.768 69.3659V74.7317L36.944 76.3415L33.192 79.0244L36.944 95.6585L43.376 105.317L49.272 115.512L58.384 119.805" stroke="#101010" stroke-width="4.5"/>
<path d="M85.3913 75.5652L87.4783 72.087L92.3478 70L97.913 72.087L100 79.0435L98.6087 83.913L94.4348 86H88.1739L84 81.8261L85.3913 75.5652Z" fill="#101010"/>
<path d="M52.3913 78.5652L54.4783 75.087L59.3478 73L64.913 75.087L67 82.0435L65.6087 86.913L61.4348 89H55.1739L51 84.8261L52.3913 78.5652Z" fill="#101010"/>
<path d="M69.1104 78.9167L74.5 77.8333L79.3507 78.375M103.065 77.2917L116 70.25M47.013 81.625L33 77.2917M52.9416 70.7917L47.5519 77.8333V86.5L52.9416 92.4583L59.4091 93L68.0325 88.6667L70.1883 81.0833L66.9545 72.4167L59.4091 69.1667L52.9416 70.7917ZM86.3571 68.0833C85.926 68.0833 82.5844 72.0556 80.9675 74.0417L79.8896 82.7083L86.3571 89.2083L95.5195 90.2917L102.526 83.7917V74.0417L98.2143 68.625L92.2857 67L86.3571 68.0833Z" stroke="#101010" stroke-width="4.5"/>
<path d="M90.4348 77.7391L91.087 76.6522L92.6087 76L94.3478 76.6522L95 78.8261L94.5652 80.3478L93.2609 81H91.3043L90 79.6957L90.4348 77.7391Z" fill="#101010"/>
<path d="M52.5217 83.087L53.3043 81.7826L55.1304 81L57.2174 81.7826L58 84.3913L57.4783 86.2174L55.913 87H53.5652L52 85.4348L52.5217 83.087Z" fill="#101010"/>
<path d="M69 94L71.8571 97H78.8231L81 94" stroke="#101010" stroke-width="4.5"/>
<path d="M70.2075 107.25L62 105.95L63.6415 110.5L66.3774 114.4L72.9434 117L79.5094 116.35L86.0755 113.1L91 104L87.1698 105.95L80.0566 107.25H70.2075Z" fill="#101010" stroke="#101010" stroke-width="4.5" stroke-linejoin="bevel"/>
</svg>
