<svg width="150" height="150" viewBox="0 0 150 150" fill="none" xmlns="http://www.w3.org/2000/svg">
<path d="M41.4903 57L53.2581 50.5L94.9355 41L108.174 49L117 80.5L111.606 93.5L100.329 101H73.3613L53.2581 106L46.3935 96.5C44.5957 92.6667 41 84.9 41 84.5C41 84.1 41.3269 66 41.4903 57Z" fill="#101010" stroke="#101010" stroke-width="4.5"/>
<path d="M87.2174 69.2174L89.0435 65.9565L93.3043 64L98.1739 65.9565L100 72.4783L98.7826 77.0435L95.1304 79H89.6522L86 75.087L87.2174 69.2174Z" fill="#101010"/>
<path d="M57.2174 72.2174L59.0435 68.9565L63.3043 67L68.1739 68.9565L70 75.4783L68.7826 80.0435L65.1304 82H59.6522L56 78.087L57.2174 72.2174Z" fill="#101010"/>
<path d="M44.5081 86.4663L45.9593 59.3006L53.2154 61.816L59.0203 51.2515L66.2764 56.7853L67.7276 48.7362L77.4024 54.2699L81.7561 47.227L91.4309 54.2699L93.8496 46.2209L99.1707 56.7853L104.492 52.7607L111.748 83.4479L120.939 88.9816L124.325 84.454L129.646 87.9755L125.293 72.8834L134 73.8896L127.228 52.7607L134 51.2515L124.325 41.1902L132.065 35.1534L117.553 28.6135L124.325 20.5644L97.7195 21.5706L101.589 10L81.7561 23.5828L78.3699 16.0368L73.0488 23.5828L51.7642 13.0184L55.1504 23.5828H36.7683L42.5732 29.6196L18.8699 40.184L30.4797 43.2025L15 62.8221L26.6098 59.3006L18.8699 79.4233L28.5447 75.9018L26.6098 92L34.8333 84.454L36.7683 90.9939L44.5081 86.4663Z" fill="#101010" stroke="#101010" stroke-width="4.5"/>
<path d="M72.6299 72L77.5 71L81.8831 71.5M103.312 70.5L115 64M52.6623 74.5L40 70.5M58.0195 64.5L53.1494 71V79L58.0195 84.5L63.8636 85L71.6558 81L73.6039 74L70.6818 66L63.8636 63L58.0195 64.5ZM88.2143 62C87.8247 62 84.8052 65.6667 83.3442 67.5L82.3701 75.5L88.2143 81.5L96.4935 82.5L102.825 76.5V67.5L98.9286 62.5L93.5714 61L88.2143 62Z" stroke="#101010" stroke-width="4.5"/>
<path d="M73.3846 86.5C72.9949 86.5 70.2991 88.8333 69 90L69.4872 94.5L71.9231 97L75.3333 94.5L78.2564 97L82.641 95.5L83.6154 93.5L87.0256 94L88 91L86.5385 87L82.1538 86L81.6667 78" stroke="#101010" stroke-width="4.5"/>
<path d="M36.9711 100L45.2254 88.5L47.6532 87L48.6243 93.5H53.9653L55.9075 102L65.6185 95.5L72.4162 96L80.6705 98L87.9538 93.5L98.6358 99L100.092 93.5H103.977L106.89 83.5L110.775 83L120 96L116.116 99L120 106L116.116 108L117.087 120L113.688 118.5L112.231 131L105.919 129L100.092 138.5L93.7803 136L88.9249 140.5L82.6127 137L74.8439 142L69.0173 137L62.7052 140.5L55.9075 131L51.5376 135L46.6821 122.5L42.7977 125L41.341 113L36 115.5L41.341 102L36.9711 100Z" fill="#101010" stroke="#101010" stroke-width="4.5"/>
<path d="M68 109L72.878 106L82.1463 105H88V109L83.6098 112H78.2439L70.439 114L68 109Z" fill="#101010" stroke="#101010" stroke-width="4.5"/>
<path d="M94.4348 70.7391L95.087 69.6522L96.6087 69L98.3478 69.6522L99 71.8261L98.5652 73.3478L97.2609 74H95.3043L94 72.6957L94.4348 70.7391Z" fill="#101010"/>
<path d="M58.4348 74.7391L59.087 73.6522L60.6087 73L62.3478 73.6522L63 75.8261L62.5652 77.3478L61.2609 78H59.3043L58 76.6957L58.4348 74.7391Z" fill="#101010"/>
</svg>
