<svg width="250" height="75" viewBox="0 0 250 75" fill="none" xmlns="http://www.w3.org/2000/svg">
<path fill-rule="evenodd" clip-rule="evenodd" d="M27.9239 74.6965L72.1723 64.8032V25.6029L49.8321 0L9.9595 4.07703L0.330475 48.2767L27.9239 74.6965ZM27.801 32.3324L31.0566 39.6313L30.4756 45.9993L27.015 67.1316L14.0311 54.6992L6.99201 46.2838L7.85945 36.4721L13.1674 12.1057L27.801 32.3324ZM65.4723 25.2822L47.8256 5.0579L16.3691 8.27419L29.744 26.7623L41.4346 32.594L65.4723 25.2822ZM41.0135 37.7701L67.3269 29.7656V56.1095L64.1976 61.6378L31.6308 68.9188L35.4721 45.4641L41.0135 37.7701Z" fill="#FFF6EF"/>
<path d="M85.9622 32.0867V8.22726H90.7282V32.0867H85.9622Z" fill="#FFF6EF"/>
<path d="M102.457 32.4275C100.581 32.4275 98.9543 32.0677 97.5762 31.3482C96.2172 30.6097 95.1645 29.5777 94.418 28.2521C93.6715 26.9077 93.2983 25.3265 93.2983 23.5087C93.2983 21.7097 93.6619 20.157 94.3893 18.8504C95.1166 17.5249 96.1502 16.5023 97.49 15.7827C98.849 15.0632 100.447 14.7034 102.285 14.7034C104.984 14.7034 107.099 15.4608 108.63 16.9757C110.161 18.4906 110.927 20.5641 110.927 23.1962V24.7868H97.8633C98.0547 26.0555 98.5332 27.0213 99.2988 27.684C100.084 28.3468 101.127 28.6782 102.428 28.6782C104.381 28.6782 105.606 27.987 106.103 26.6047H110.869C110.486 28.4226 109.549 29.8522 108.056 30.8937C106.582 31.9163 104.716 32.4275 102.457 32.4275ZM97.9781 21.6624H106.362C106.036 19.5037 104.687 18.4243 102.313 18.4243C99.94 18.4243 98.4949 19.5037 97.9781 21.6624Z" fill="#FFF6EF"/>
<path d="M128.685 32.4275C126.886 32.4275 125.307 32.0677 123.948 31.3482C122.608 30.6097 121.555 29.5777 120.79 28.2521C120.043 26.9266 119.67 25.3644 119.67 23.5655C119.67 21.7665 120.043 20.2043 120.79 18.8788C121.536 17.5533 122.589 16.5307 123.948 15.8111C125.307 15.0726 126.886 14.7034 128.685 14.7034C130.963 14.7034 132.839 15.2715 134.312 16.4076C135.786 17.5438 136.715 19.106 137.097 21.0943H132.303C131.786 19.5605 130.58 18.7936 128.685 18.7936C127.403 18.7936 126.369 19.2102 125.584 20.0434C124.819 20.8765 124.436 22.0506 124.436 23.5655C124.436 25.0803 124.828 26.2544 125.613 27.0876C126.398 27.9207 127.422 28.3373 128.685 28.3373C130.714 28.3373 131.949 27.4852 132.389 25.781H137.184C136.839 27.8639 135.93 29.4924 134.456 30.6665C132.982 31.8405 131.059 32.4275 128.685 32.4275Z" fill="#FFF6EF"/>
<path d="M170.844 32.4275C169.409 32.4275 168.174 32.1624 167.141 31.6322C166.107 31.0831 165.284 30.3067 164.671 29.3031H163.466V32.0867H158.642V27.4284H160.996V8.22726H165.762V17.3734H165.877C166.375 16.5212 167.074 15.868 167.973 15.4135C168.892 14.9401 169.983 14.7034 171.246 14.7034C172.892 14.7034 174.299 15.0726 175.467 15.8111C176.634 16.5497 177.524 17.5817 178.137 18.9072C178.768 20.2327 179.084 21.7855 179.084 23.5655C179.084 25.3265 178.768 26.8793 178.137 28.2237C177.505 29.5492 176.577 30.5813 175.352 31.3198C174.127 32.0583 172.624 32.4275 170.844 32.4275ZM169.954 28.3373C171.409 28.3373 172.5 27.9113 173.227 27.0592C173.955 26.207 174.318 25.0425 174.318 23.5655C174.318 22.0884 173.955 20.9239 173.227 20.0718C172.5 19.2196 171.409 18.7936 169.954 18.7936C168.672 18.7936 167.648 19.1534 166.882 19.8729C166.136 20.5736 165.762 21.5488 165.762 22.7985V24.3324C165.762 25.5821 166.136 26.5668 166.882 27.2864C167.648 27.987 168.672 28.3373 169.954 28.3373Z" fill="#FFF6EF"/>
<path d="M189.801 32.4275C187.925 32.4275 186.298 32.0677 184.92 31.3482C183.561 30.6097 182.508 29.5777 181.762 28.2521C181.015 26.9077 180.642 25.3265 180.642 23.5087C180.642 21.7097 181.006 20.157 181.733 18.8504C182.461 17.5249 183.494 16.5023 184.834 15.7827C186.193 15.0632 187.791 14.7034 189.629 14.7034C192.328 14.7034 194.443 15.4608 195.974 16.9757C197.505 18.4906 198.271 20.5641 198.271 23.1962V24.7868H185.207C185.399 26.0555 185.877 27.0213 186.643 27.684C187.428 28.3468 188.471 28.6782 189.772 28.6782C191.725 28.6782 192.95 27.987 193.447 26.6047H198.213C197.83 28.4226 196.893 29.8522 195.4 30.8937C193.926 31.9163 192.06 32.4275 189.801 32.4275ZM185.322 21.6624H193.706C193.38 19.5037 192.031 18.4243 189.657 18.4243C187.284 18.4243 185.839 19.5037 185.322 21.6624Z" fill="#FFF6EF"/>
<path d="M108.579 59.1138V46.7297H106.225V42.0714H111.049V45.4231H112.254C112.695 44.2491 113.412 43.3685 114.408 42.7815C115.403 42.1756 116.532 41.8726 117.796 41.8726H119.26V45.9628H117.595C116.102 45.9628 115.001 46.3794 114.293 47.2126C113.604 48.0457 113.259 49.144 113.259 50.5074V59.1138H108.579Z" fill="#FFF6EF"/>
<path d="M126.51 59.4263C124.481 59.4263 122.893 58.9434 121.744 57.9777C120.596 57.0119 120.022 55.7243 120.022 54.1147C120.022 52.4294 120.615 51.1323 121.802 50.2234C122.988 49.3144 124.692 48.86 126.912 48.86H131.85V48.2067C131.85 46.3699 130.74 45.4515 128.52 45.4515C126.587 45.4515 125.419 46.1143 125.017 47.4398H120.28C120.663 45.5651 121.553 44.1449 122.95 43.1792C124.347 42.2134 126.204 41.7306 128.52 41.7306C131.066 41.7306 133.018 42.3081 134.377 43.4632C135.736 44.5994 136.415 46.2468 136.415 48.4055V54.4556H138.655V59.1138H133.832V56.3303H132.626C132.032 57.3149 131.238 58.0818 130.243 58.631C129.247 59.1612 128.003 59.4263 126.51 59.4263ZM127.228 55.8474C128.568 55.8474 129.668 55.4971 130.53 54.7964C131.41 54.0958 131.85 53.2437 131.85 52.2401V51.9844H127.142C125.419 51.9844 124.558 52.6188 124.558 53.8875C124.558 54.5124 124.797 54.9953 125.276 55.3361C125.754 55.677 126.405 55.8474 127.228 55.8474Z" fill="#FFF6EF"/>
<path d="M141.648 65.9308V46.7297H139.293V42.0714H144.117V44.855H145.323C145.935 43.8514 146.758 43.0845 147.792 42.5543C148.825 42.0051 150.06 41.7306 151.495 41.7306C153.275 41.7306 154.778 42.0998 156.003 42.8383C157.228 43.5768 158.156 44.6183 158.788 45.9628C159.42 47.2883 159.735 48.8316 159.735 50.5926C159.735 52.3726 159.42 53.9254 158.788 55.2509C158.175 56.5764 157.285 57.6084 156.118 58.3469C154.95 59.0854 153.543 59.4547 151.897 59.4547C150.634 59.4547 149.543 59.2275 148.624 58.773C147.725 58.2996 147.026 57.6368 146.528 56.7847H146.414V65.9308H141.648ZM150.605 55.3645C152.06 55.3645 153.151 54.9385 153.878 54.0863C154.606 53.2342 154.969 52.0696 154.969 50.5926C154.969 49.1156 154.606 47.9511 153.878 47.0989C153.151 46.2468 152.06 45.8207 150.605 45.8207C149.323 45.8207 148.299 46.1805 147.533 46.9001C146.787 47.6007 146.414 48.5759 146.414 49.8257V51.3595C146.414 52.6093 146.787 53.594 147.533 54.3136C148.299 55.0142 149.323 55.3645 150.605 55.3645Z" fill="#FFF6EF"/>
<path d="M162.212 59.1138V35.2544H166.978V44.5142H167.093C168.203 42.6774 170.06 41.759 172.663 41.759C174.826 41.759 176.539 42.4123 177.802 43.7188C179.084 45.0065 179.726 46.7391 179.726 48.9168V59.1138H174.96V49.7973C174.96 47.241 173.629 45.9628 170.969 45.9628C168.308 45.9628 166.978 47.241 166.978 49.7973V59.1138H162.212Z" fill="#FFF6EF"/>
<path d="M183.112 59.1138V42.0714H187.878V59.1138H183.112ZM185.495 40.3956C184.767 40.3956 184.145 40.1494 183.629 39.6571C183.131 39.1458 182.882 38.5304 182.882 37.8108C182.882 37.0912 183.131 36.4853 183.629 35.9929C184.145 35.4817 184.767 35.226 185.495 35.226C186.222 35.226 186.835 35.4817 187.332 35.9929C187.849 36.4853 188.107 37.0912 188.107 37.8108C188.107 38.5304 187.849 39.1458 187.332 39.6571C186.835 40.1494 186.222 40.3956 185.495 40.3956Z" fill="#FFF6EF"/>
<path d="M203.77 65.9308V56.7847H203.655C203.157 57.6368 202.449 58.2996 201.53 58.773C200.631 59.2275 199.549 59.4547 198.286 59.4547C196.64 59.4547 195.233 59.0854 194.065 58.3469C192.898 57.6084 191.998 56.5764 191.367 55.2509C190.754 53.9254 190.448 52.3726 190.448 50.5926C190.448 48.8316 190.764 47.2883 191.395 45.9628C192.027 44.6183 192.955 43.5768 194.18 42.8383C195.405 42.0998 196.908 41.7306 198.688 41.7306C200.123 41.7306 201.358 42.0051 202.391 42.5543C203.425 43.0845 204.248 43.8514 204.861 44.855H206.066V42.0714H210.89V46.7297H208.536V65.9308H203.77ZM199.578 55.3645C200.86 55.3645 201.875 55.0142 202.621 54.3136C203.387 53.594 203.77 52.6093 203.77 51.3595V49.8257C203.77 48.5759 203.387 47.6007 202.621 46.9001C201.875 46.1805 200.86 45.8207 199.578 45.8207C198.123 45.8207 197.032 46.2468 196.305 47.0989C195.577 47.9511 195.214 49.1156 195.214 50.5926C195.214 52.0696 195.577 53.2342 196.305 54.0863C197.032 54.9385 198.123 55.3645 199.578 55.3645Z" fill="#FFF6EF"/>
<path d="M241.167 59.4547C239.291 59.4547 237.664 59.0949 236.286 58.3753C234.927 57.6368 233.874 56.6048 233.128 55.2793C232.381 53.9348 232.008 52.3537 232.008 50.5358C232.008 48.7369 232.372 47.1841 233.099 45.8776C233.826 44.552 234.86 43.5295 236.2 42.8099C237.559 42.0904 239.157 41.7306 240.994 41.7306C243.693 41.7306 245.808 42.488 247.339 44.0029C248.871 45.5178 249.636 47.5913 249.636 50.2234V51.814H236.573C236.764 53.0827 237.243 54.0485 238.008 54.7112C238.793 55.374 239.836 55.7054 241.138 55.7054C243.09 55.7054 244.315 55.0142 244.813 53.6319H249.579C249.196 55.4497 248.258 56.8794 246.765 57.9209C245.291 58.9434 243.425 59.4547 241.167 59.4547ZM236.688 48.6896H245.071C244.746 46.5309 243.396 45.4515 241.023 45.4515C238.65 45.4515 237.205 46.5309 236.688 48.6896Z" fill="#FFF6EF"/>
<path d="M145.659 32.4127C144.328 32.4127 143.181 32.1286 142.218 31.5605C141.277 30.9697 140.543 30.1403 140.015 29.0723C139.511 27.9816 139.258 26.675 139.258 25.1526L139.262 15.0419H144.148L144.145 24.3686C144.145 25.1867 144.282 25.9024 144.558 26.516C144.833 27.1068 145.223 27.5612 145.727 27.8794C146.232 28.1975 146.852 28.3566 147.586 28.3566C148.113 28.3566 148.606 28.277 149.065 28.118C149.524 27.9362 149.914 27.6862 150.235 27.3681C150.556 27.05 150.809 26.675 150.992 26.2433C151.176 25.8116 151.268 25.3457 151.268 24.8458L151.271 15.0419H156.157L156.154 32.0718H151.508L151.336 28.3566L152.231 27.9475C151.956 28.7883 151.497 29.5495 150.855 30.2312C150.212 30.9129 149.444 31.4469 148.549 31.8332C147.654 32.2195 146.691 32.4127 145.659 32.4127Z" fill="#FFF6EF"/>
<path d="M219.336 59.4547C218.006 59.4547 216.859 59.1707 215.895 58.6026C214.955 58.0118 214.221 57.1824 213.693 56.1144C213.188 55.0237 212.936 53.7171 212.936 52.1946L212.94 42.084H217.826L217.822 51.4107C217.822 52.2287 217.96 52.9445 218.235 53.558C218.511 54.1488 218.901 54.6033 219.405 54.9214C219.91 55.2395 220.529 55.3986 221.263 55.3986C221.791 55.3986 222.284 55.3191 222.743 55.16C223.202 54.9782 223.592 54.7283 223.913 54.4101C224.234 54.092 224.487 53.7171 224.67 53.2853C224.854 52.8536 224.945 52.3878 224.945 51.8879L224.949 42.084H229.835L229.832 59.1138H225.186L225.014 55.3986L225.909 54.9896C225.634 55.8303 225.175 56.5916 224.532 57.2733C223.89 57.955 223.122 58.489 222.227 58.8753C221.332 59.2615 220.369 59.4547 219.336 59.4547Z" fill="#FFF6EF"/>
<path d="M100.584 44.855H101.79V42.0714H100.584V44.855Z" fill="#FFF6EF"/>
<path fill-rule="evenodd" clip-rule="evenodd" d="M88.8412 64.7095C90.4681 65.7509 92.5736 66.2717 95.1576 66.2717C98.0669 66.2717 100.306 65.6089 101.876 64.2834C103.465 62.9579 104.259 61.0832 104.259 58.6594V46.7297V42.0714H101.79V44.855H100.584C99.9714 43.8514 99.1484 43.0845 98.1148 42.5543C97.0812 42.0051 95.8466 41.7306 94.4111 41.7306C91.8271 41.7306 89.7886 42.5164 88.2957 44.0881C86.8219 45.6598 86.0849 47.7712 86.0849 50.4222C86.0849 52.2022 86.4103 53.7455 87.0611 55.0521C87.731 56.3397 88.6593 57.3433 89.8461 58.0629C91.0519 58.7635 92.4683 59.1138 94.0953 59.1138C96.6218 59.1138 98.421 58.186 99.4929 56.3303H99.6364V58.6026C99.6364 59.8713 99.2345 60.837 98.4306 61.4998C97.6458 62.1815 96.507 62.5223 95.014 62.5223C92.8128 62.5223 91.4826 61.8217 91.0232 60.4204H85.9701C86.2764 62.2572 87.2334 63.6869 88.8412 64.7095ZM98.3445 53.9443C97.598 54.6639 96.574 55.0237 95.2724 55.0237C93.8751 55.0237 92.7841 54.626 91.9994 53.8307C91.2337 53.0354 90.8509 51.9087 90.8509 50.4506C90.8509 48.9925 91.2337 47.8564 91.9994 47.0421C92.7841 46.2279 93.8751 45.8207 95.2724 45.8207C96.574 45.8207 97.598 46.1805 98.3445 46.9001C99.1101 47.6007 99.4929 48.5665 99.4929 49.7973V50.9903C99.4929 52.2401 99.1101 53.2247 98.3445 53.9443Z" fill="#FFF6EF"/>
</svg>
