<svg width="100" height="100" viewBox="0 0 100 100" fill="none" xmlns="http://www.w3.org/2000/svg">
<path d="M31.6667 20.5001L30.6667 26.8334L26.3334 26.1667L22.6667 26.8334L19.0001 29.8334L18.3334 34.8334L21.3334 39.1667H19.6667L14.3334 42.5001L11.3334 45.8334L12.3334 52.1667L16.3334 55.5001L13.0001 56.8334L9.66675 59.8334V64.1667L11.6667 69.1667H16.3334L15.0001 71.1667L13.6667 74.8334L14.3334 79.1667L17.6667 80.8334H22.6667L24.0001 83.5001L26.3334 85.5001H30.6667L32.6667 83.5001L36.3334 84.1667L39.3334 82.8334L41.0001 79.1667L35.3334 76.5001L31.6667 70.1667L27.6667 64.1667L25.3334 53.8334L27.6667 52.1667L30.6667 51.1667V47.8334L29.3334 45.5001H31.6667L34.0001 44.5001L35.3334 40.5001H38.0001H41.0001L41.6667 37.5001H44.3334C45.3334 37.0556 47.4667 36.1001 48.0001 35.8334C48.5334 35.5667 49.5556 34.389 50.0001 33.8334L51.0001 28.5001V30.5001L51.6667 32.1667L53.0001 33.8334C54.0001 34.1667 56.1334 34.8334 56.6667 34.8334H59.6667L60.6667 37.5001L64.3334 39.1667L68.3334 38.1667V40.5001L69.3334 43.1667L73.0001 43.8334L72.3334 45.5001L71.3334 47.8334L73.0001 50.5001H76.6667V53.8334L73.0001 62.5001L71.3334 65.8334L70.3334 71.1667L67.0001 74.8334L62.0001 79.8334L63.0001 82.1667L66.0001 84.1667L70.3334 82.8334L73.0001 85.5001L78.6667 84.1667L80.3334 79.8334L84.0001 80.8334L87.3334 79.8334L89.6667 74.8334L88.6667 69.1667L93.0001 64.8334V58.8334L87.3334 54.8334L89.6667 52.1667L91.0001 47.8334L89.6667 41.1667L83.0001 38.1667L84.0001 33.1667L82.3334 28.5001L78.6667 23.8334H71.3334L70.0001 20.5001L65.0001 17.1667H54.3334L48.3334 20.5001L45.0001 17.8334H37.0001L31.6667 20.5001Z" fill="#9D0AFF"/>
<path d="M62.0001 79.8334L67.0001 74.8334L70.3334 71.1667L71.3334 65.8334L73.0001 62.5001L76.6667 53.8334V50.5001H73.0001L71.3334 47.8334L72.3334 45.5001L73.0001 43.8334L69.3334 43.1667L68.3334 40.5001V38.1667L64.3334 39.1667L60.6667 37.5001L59.6667 34.8334H56.6667C56.1334 34.8334 54.0001 34.1667 53.0001 33.8334L51.6667 32.1667L51.0001 30.5001V28.5001L50.0001 33.8334C49.5556 34.389 48.5334 35.5667 48.0001 35.8334C47.4667 36.1001 45.3334 37.0556 44.3334 37.5001H41.6667L41.0001 40.5001H38.0001H35.3334L34.0001 44.5001L31.6667 45.5001H29.3334L30.6667 47.8334V51.1667L27.6667 52.1667L25.3334 53.8334L27.6667 64.1667L31.6667 70.1667L35.3334 76.5001L41.0001 79.1667L48.0001 82.1667L53.0001 83.5001L56.6667 82.8334L60.6667 81.5001L62.0001 79.8334Z" fill="#9D0AFF"/>
<path d="M62.0001 79.8334L63.0001 82.1667L66.0001 84.1667L70.3334 82.8334L73.0001 85.5001L78.6667 84.1667L80.3334 79.8334L84.0001 80.8334L87.3334 79.8334L89.6667 74.8334L88.6667 69.1667L93.0001 64.8334V58.8334L87.3334 54.8334L89.6667 52.1667L91.0001 47.8334L89.6667 41.1667L83.0001 38.1667L84.0001 33.1667L82.3334 28.5001L78.6667 23.8334H71.3334L70.0001 20.5001L65.0001 17.1667H54.3334L48.3334 20.5001L45.0001 17.8334H37.0001L31.6667 20.5001L30.6667 26.8334L26.3334 26.1667L22.6667 26.8334L19.0001 29.8334L18.3334 34.8334L21.3334 39.1667H19.6667L14.3334 42.5001L11.3334 45.8334L12.3334 52.1667L16.3334 55.5001L13.0001 56.8334L9.66675 59.8334V64.1667L11.6667 69.1667H16.3334L15.0001 71.1667L13.6667 74.8334L14.3334 79.1667L17.6667 80.8334H22.6667L24.0001 83.5001L26.3334 85.5001H30.6667L32.6667 83.5001L36.3334 84.1667L39.3334 82.8334L41.0001 79.1667M62.0001 79.8334L67.0001 74.8334L70.3334 71.1667L71.3334 65.8334L73.0001 62.5001L76.6667 53.8334V50.5001H73.0001L71.3334 47.8334L72.3334 45.5001L73.0001 43.8334L69.3334 43.1667L68.3334 40.5001V38.1667L64.3334 39.1667L60.6667 37.5001L59.6667 34.8334M62.0001 79.8334L60.6667 81.5001L56.6667 82.8334L53.0001 83.5001L48.0001 82.1667L41.0001 79.1667M59.6667 34.8334C58.889 34.8334 57.2001 34.8334 56.6667 34.8334M59.6667 34.8334H56.6667M56.6667 34.8334C56.1334 34.8334 54.0001 34.1667 53.0001 33.8334L51.6667 32.1667L51.0001 30.5001V28.5001L50.0001 33.8334C49.5556 34.389 48.5334 35.5667 48.0001 35.8334C47.4667 36.1001 45.3334 37.0556 44.3334 37.5001H41.6667L41.0001 40.5001H38.0001H35.3334L34.0001 44.5001L31.6667 45.5001H29.3334L30.6667 47.8334V51.1667L27.6667 52.1667L25.3334 53.8334L27.6667 64.1667L31.6667 70.1667L35.3334 76.5001L41.0001 79.1667" stroke="#FFF6EF" stroke-width="3"/>
<path d="M57.8696 51.645L59.1739 49.4711L62.2174 48.1667L65.6957 49.4711L67 53.8189L66.1304 56.8624L63.5217 58.1667H59.6087L57 55.5581L57.8696 51.645Z" fill="#FFF6EF"/>
<path d="M37.2028 53.645L38.5072 51.4711L41.5506 50.1667L45.0289 51.4711L46.3333 55.8189L45.4637 58.8624L42.855 60.1667H38.9419L36.3333 57.5581L37.2028 53.645Z" fill="#FFF6EF"/>
<path d="M47.6666 53.8333L50.9999 53.1667L53.9999 53.5M68.6666 52.8333L76.6666 48.5M33.9999 55.5L25.3333 52.8333M37.6666 48.8333L34.3333 53.1667V58.5L37.6666 62.1667L41.6666 62.5L46.9999 59.8333L48.3333 55.1667L46.3333 49.8333L41.6666 47.8333L37.6666 48.8333ZM58.3332 47.1667C58.0666 47.1667 55.9999 49.6111 54.9999 50.8333L54.3333 56.1667L58.3332 60.1667L63.9999 60.8333L68.3332 56.8333V50.8333L65.6666 47.5L61.9999 46.5L58.3332 47.1667Z" stroke="#101010" stroke-width="3"/>
<path d="M60.9566 52.9927L61.3914 52.268L62.4059 51.8333L63.5653 52.268L64.0001 53.7173L63.7102 54.7318L62.8407 55.1666H61.5363L60.6667 54.297L60.9566 52.9927Z" fill="#101010"/>
<path d="M37.6231 56.3262L38.0579 55.6015L39.0724 55.1667L40.2318 55.6015L40.6666 57.0508L40.3767 58.0653L39.5072 58.5001H38.2028L37.3333 57.6305L37.6231 56.3262Z" fill="#101010"/>
<path d="M47.6667 63.1667L49.4128 65.1667H53.6698L55.0001 63.1667" stroke="#FFF6EF" stroke-width="3"/>
<path d="M48.4276 71.1667L43.3333 70.3667L44.3521 73.1667L46.0502 75.5667L50.1257 77.1667L54.2012 76.7667L58.2766 74.7667L61.3333 69.1667L58.9559 70.3667L54.5408 71.1667H48.4276Z" fill="#101010" stroke="#FFF6EF" stroke-width="3" stroke-linejoin="bevel"/>
</svg>
