<svg width="100" height="100" viewBox="0 0 100 100" fill="none" xmlns="http://www.w3.org/2000/svg">
<path d="M47.3947 88L40.5526 80.5L38 68.5L40.5526 59.6456L39.5 56.6076L45.8158 49.519L64.2368 48L66.3421 54.0759L69.5 71.2911L63.7105 84.962L57.3947 88H47.3947Z" fill="#FF37A5" stroke="#FFF6EF" stroke-width="3"/>
<path d="M66.2053 65.6794L71.0659 63.4033L72.5659 60.4033L69.6389 57.5993L64.5661 55.9036L60.5866 66.4581L66.2053 65.6794Z" fill="#FF37A5"/>
<path d="M64.7079 55.2998L68.6971 57.9487L72.5659 59.4033L72.0659 62.9033L65.1937 66.1655L60.5739 66.4321" stroke="#FFF6EF" stroke-width="3"/>
<path d="M57 71L50.5 73.5L50 76L53 77.5L59 77L63.5 75.5L61.5 71H57Z" fill="#FF37A5" stroke="#FFF6EF" stroke-width="3"/>
<path d="M44.6667 55.9091L46.6667 54.6364L49.3333 54L52 55.9091L50.6667 59.0909L47.3333 61L44 59.0909L44.6667 55.9091Z" fill="#FF37A5"/>
<path d="M44.3471 57.2782L45.5971 56.5509L47.2638 56.1873L48.9304 57.2782L48.0971 59.0963L46.0138 60.1873L43.9304 59.0963L44.3471 57.2782Z" fill="#FF37A5"/>
<path d="M55.6667 54.7622L57.6667 53.5874L60.3333 53L63 54.7622L62.5 57.6993L59 59L55 57.6993L55.6667 54.7622Z" fill="#FF37A5"/>
<path d="M58.4167 54.881L59.6667 54.2936L61.6244 53.7915L63.0385 54.7787L62.7603 56.3495L60.5 56.9999L58 56.3495L58.4167 54.881Z" fill="#FF37A5"/>
<path d="M32.75 63H37.4167L40.3333 55.9697L46.1667 54.2121L50.8333 50.697L53.75 54.2121C53.75 54.2121 60.2833 53.5091 60.75 53.0404C61.2167 52.5717 64.5 50.697 64.5 50.697L67.5 56L74.1667 53.5L78.5 50L80 43.0808V32.5354L74.1667 27.2626L73.5833 20.2323H67.75V12.0303L63.0833 7.92929L59 13.202L56.6667 7.34343L50.8333 5L47.9167 10.8586L43.8333 9.68687L34.5 12.0303L33.3333 20.2323L26.9167 21.9899V28.4343L19.9167 34.2929L18.75 41.3232L17 48.3535L19.9167 48.9394L22.25 54.2121L28.6667 53.0404L26.9167 58.3131L32.75 63Z" fill="#FF37A5"/>
<path d="M32.75 31.9495L32.1667 37.2222L36.25 36.6364L38 41.9091L42.0833 41.3232M52.5833 41.3232L58.4167 43.0808L61.3333 39.5657L65.4167 41.3232M56.0833 22.5758L61.3333 21.9899L63.0833 27.2626L70.6667 32.5354M37.4167 63H32.75L26.9167 58.3131L28.6667 53.0404L22.25 54.2121L19.9167 48.9394L17 48.3535L18.75 41.3232L19.9167 34.2929L26.9167 28.4343V21.9899L33.3333 20.2323L34.5 12.0303L43.8333 9.68687L47.9167 10.8586L50.8333 5L56.6667 7.34343L59 13.202L63.0833 7.92929L67.75 12.0303V20.2323H73.5833L74.1667 27.2626L80 32.5354V43.0808L78.5 50L74.1667 53.5L67.5 56L64.5 50.697C64.5 50.697 61.2167 52.5717 60.75 53.0404C60.2833 53.5091 53.75 54.2121 53.75 54.2121L50.8333 50.697L46.1667 54.2121L40.3333 55.9697L37.4167 63Z" stroke="#FFF6EF" stroke-width="3"/>
<path d="M47.3947 88L40.5526 80.5L38 68.5L40.5526 59.6456L39.5 56.6076L45.8158 49.519L64.2368 48L66.3421 54.0759L69.5 71.2911L63.7105 84.962L57.3947 88H47.3947Z" fill="#FF37A5" stroke="#FFF6EF" stroke-width="3"/>
<path d="M66.2053 65.6794L71.0659 63.4033L72.5659 60.4033L69.6389 57.5993L64.5661 55.9036L60.5866 66.4581L66.2053 65.6794Z" fill="#FF37A5"/>
<path d="M64.7079 55.2998L68.6971 57.9487L72.5659 59.4033L72.0659 62.9033L65.1937 66.1655L60.5739 66.4321" stroke="#FFF6EF" stroke-width="3"/>
<path d="M57 71L50.5 73.5L50 76L53 77.5L59 77L63.5 75.5L61.5 71H57Z" fill="#101010" stroke="#FFF6EF" stroke-width="3"/>
<path d="M44.6667 55.9091L46.6667 54.6364L49.3333 54L52 55.9091L50.6667 59.0909L47.3333 61L44 59.0909L44.6667 55.9091Z" fill="#FFF6EF"/>
<path d="M44.3471 57.2782L45.5971 56.5509L47.2638 56.1873L48.9304 57.2782L48.0971 59.0963L46.0138 60.1873L43.9304 59.0963L44.3471 57.2782Z" fill="#101010"/>
<path d="M55.6667 54.7622L57.6667 53.5874L60.3333 53L63 54.7622L62.5 57.6993L59 59L55 57.6993L55.6667 54.7622Z" fill="#FFF6EF"/>
<path d="M58.4167 54.881L59.6667 54.2936L61.6244 53.7915L63.0385 54.7787L62.7603 56.3495L60.5 56.9999L58 56.3495L58.4167 54.881Z" fill="#101010"/>
<path d="M32.75 63H37.4167L40.3333 55.9697L46.1667 54.2121L50.8333 50.697L53.75 54.2121C53.75 54.2121 60.2833 53.5091 60.75 53.0404C61.2167 52.5717 64.5 50.697 64.5 50.697L67.5 56L74.1667 53.5L78.5 50L80 43.0808V32.5354L74.1667 27.2626L73.5833 20.2323H67.75V12.0303L63.0833 7.92929L59 13.202L56.6667 7.34343L50.8333 5L47.9167 10.8586L43.8333 9.68687L34.5 12.0303L33.3333 20.2323L26.9167 21.9899V28.4343L19.9167 34.2929L18.75 41.3232L17 48.3535L19.9167 48.9394L22.25 54.2121L28.6667 53.0404L26.9167 58.3131L32.75 63Z" fill="#FF37A5"/>
<path d="M32.75 31.9495L32.1667 37.2222L36.25 36.6364L38 41.9091L42.0833 41.3232M52.5833 41.3232L58.4167 43.0808L61.3333 39.5657L65.4167 41.3232M56.0833 22.5758L61.3333 21.9899L63.0833 27.2626L70.6667 32.5354M37.4167 63H32.75L26.9167 58.3131L28.6667 53.0404L22.25 54.2121L19.9167 48.9394L17 48.3535L18.75 41.3232L19.9167 34.2929L26.9167 28.4343V21.9899L33.3333 20.2323L34.5 12.0303L43.8333 9.68687L47.9167 10.8586L50.8333 5L56.6667 7.34343L59 13.202L63.0833 7.92929L67.75 12.0303V20.2323H73.5833L74.1667 27.2626L80 32.5354V43.0808L78.5 50L74.1667 53.5L67.5 56L64.5 50.697C64.5 50.697 61.2167 52.5717 60.75 53.0404C60.2833 53.5091 53.75 54.2121 53.75 54.2121L50.8333 50.697L46.1667 54.2121L40.3333 55.9697L37.4167 63Z" stroke="#FFF6EF" stroke-width="3"/>
</svg>
