<svg width="100" height="100" viewBox="0 0 100 100" fill="none" xmlns="http://www.w3.org/2000/svg">
<path d="M29.5 38.5L42.5 25L50.5 24L63.5 26.5C65.3333 30.6667 69 39.2 69 40C69 41 71.5 59 71 60C70.6 60.8 67.5 68.3333 66 72C61.5 75.5 52.4 82.5 52 82.5C51.6 82.5 38.8333 79.1667 32.5 77.5L28 63L29.5 38.5Z" fill="#20CA4B" stroke="#FFF6EF" stroke-width="3"/>
<path d="M36 47.4852L40.7999 41.2671L44.5332 42.3034L46.1332 46.4489L42.3999 50.5943L38.6666 52.667L36 51.1124V47.4852Z" fill="#FFF6EF"/>
<path d="M39.8 47.8881L42.2 44.4336L44.0667 45.0093L44.8667 47.3124L43 49.6154L41.1334 50.7669L39.8 49.9032V47.8881Z" fill="#101010"/>
<path d="M55.5878 51.8018L51.9303 44.85L54.4259 41.8864L58.8612 42.1561L61.0776 47.2756L61.4092 51.5328L58.8862 53.3109L55.5878 51.8018Z" fill="#FFF6EF"/>
<path d="M55.4803 49.4581L53.5308 45.7525L54.861 44.1727L57.2252 44.3165L58.4066 47.0454L58.5834 49.3147L57.2385 50.2625L55.4803 49.4581Z" fill="#101010"/>
<path d="M34.4039 43.3846L23.9292 47.1923L19 42.1154L20.8485 32.5962L25.1616 24.3462L30.0908 19.2692C32.5554 18.8462 37.7311 18 38.717 18H43.6462L50.4245 22.4423L54.1209 20.5385L57.8178 19.2692H62.1309L68.2924 21.1731L71.9894 26.8846L75.6869 37.0385L80 49.7308L73.8384 51L62.7476 45.9231L57.8178 37.6731L50.4245 31.9615L39.9493 36.4038L34.4039 43.3846Z" fill="#20CA4B" stroke="#FFF6EF" stroke-width="3"/>
<path d="M36 67L38.9091 69.6087L45.4545 71L53.4545 70.8261L57.4545 69.4348L60 67.3478" stroke="#FFF6EF" stroke-width="3"/>
<path d="M44.4286 75.6154L44 71L47 71.3846V76L44.4286 75.6154Z" fill="#FFF6EF"/>
<path d="M49.7143 76L50 71L48 71.4167V75.5833L49.7143 76Z" fill="#FFF6EF"/>
<path d="M46 54L45 57L48.5 59.5L52.5 58L53 54" stroke="#FFF6EF" stroke-width="3"/>
</svg>
