<svg width="100" height="100" viewBox="0 0 100 100" fill="none" xmlns="http://www.w3.org/2000/svg">
<path d="M28.9936 38.6225L36.8388 34.2891L64.6237 27.9558L73.4495 33.2891L79.3334 54.2891L75.7377 62.9558L68.2194 67.9558H50.2409L36.8388 71.2891L32.2624 64.9558C31.0639 62.4003 28.6667 57.2225 28.6667 56.9558C28.6667 56.6891 28.8847 44.6225 28.9936 38.6225Z" fill="#FF8A04" stroke="#FFF6EF" stroke-width="3"/>
<path d="M59.4783 46.7673L60.6957 44.5934L63.5363 43.2891L66.7827 44.5934L68.0001 48.9412L67.1885 51.9847L64.7537 53.2891H61.1015L58.6667 50.6804L59.4783 46.7673Z" fill="#FFF6EF"/>
<path d="M39.4783 48.7673L40.6957 46.5934L43.5363 45.2891L46.7827 46.5934L48.0001 50.9412L47.1885 53.9847L44.7537 55.2891H41.1015L38.6667 52.6804L39.4783 48.7673Z" fill="#FFF6EF"/>
<path d="M31.0053 58.2666L31.9728 40.1561L36.8102 41.833L40.6801 34.7901L45.5175 38.4792L46.485 33.1132L52.9349 36.8024L55.8373 32.1071L62.2872 36.8024L63.8996 31.4363L67.4471 38.4792L70.9945 35.7962L75.8319 56.2543L81.9593 59.9435L84.2167 56.9251L87.7641 59.2727L84.8617 49.2114L90.6666 49.8821L86.1517 35.7962L90.6666 34.7901L84.2167 28.0825L89.3766 24.058L79.7018 19.6981L84.2167 14.332L66.4796 15.0028L69.0595 7.28906L55.8373 16.3443L53.5799 11.3136L50.0324 16.3443L35.8427 9.30133L38.1002 16.3443H25.8454L29.7154 20.3688L13.9132 27.4118L21.653 29.424L11.3333 42.5038L19.0731 40.1561L13.9132 53.5713L20.3631 51.2236L19.0731 61.9557L24.5555 56.9251L25.8454 61.285L31.0053 58.2666Z" fill="#FF8A04" stroke="#FFF6EF" stroke-width="3"/>
<path d="M49.7532 48.6224L53 47.9557L55.9221 48.2891M70.2078 47.6224L78 43.2891M36.4416 50.2891L28 47.6224M40.013 43.6224L36.7662 47.9557V53.2891L40.013 56.9557L43.9091 57.2891L49.1039 54.6224L50.4026 49.9557L48.4545 44.6224L43.9091 42.6224L40.013 43.6224ZM60.1429 41.9557C59.8831 41.9557 57.8701 44.4002 56.8961 45.6224L56.2468 50.9557L60.1429 54.9557L65.6623 55.6224L69.8831 51.6224V45.6224L67.2857 42.2891L63.7143 41.2891L60.1429 41.9557Z" stroke="#101010" stroke-width="3"/>
<path d="M50.2563 58.289C49.9965 58.289 48.1993 59.8445 47.3333 60.6223L47.658 63.6223L49.282 65.289L51.5555 63.6223L53.5042 65.289L56.4273 64.289L57.0768 62.9556L59.3503 63.289L59.9999 61.289L59.0256 58.6223L56.1025 57.9556L55.7777 52.6223" stroke="#FFF6EF" stroke-width="3"/>
<path d="M25.9807 67.2891L31.4835 59.6225L33.102 58.6225L33.7494 62.9558H37.3101L38.6049 68.6225L45.0789 64.2891L49.6107 64.6225L55.1136 65.9558L59.9691 62.9558L67.0905 66.6225L68.0616 62.9558H70.6512L72.5934 56.2891L75.183 55.9558L81.3333 64.6225L78.7437 66.6225L81.3333 71.2891L78.7437 72.6225L79.3911 80.6225L77.1252 79.6225L76.1541 87.9558L71.946 86.6225L68.0616 92.9558L63.8535 91.2891L60.6165 94.2891L56.4084 91.9558L51.2292 95.2891L47.3448 91.9558L43.1367 94.2891L38.6049 87.9558L35.6916 90.6225L32.4546 82.2891L29.865 83.9558L28.8939 75.9558L25.3333 77.6225L28.8939 68.6225L25.9807 67.2891Z" fill="#FF8A04" stroke="#FFF6EF" stroke-width="3"/>
<path d="M46.6667 73.289L49.9188 71.289L56.0976 70.6223H60.0001V73.289L57.0733 75.289H53.496L48.2928 76.6223L46.6667 73.289Z" fill="#101010" stroke="#FFF6EF" stroke-width="3"/>
<path d="M64.2899 47.7817L64.7246 47.0571L65.7391 46.6223L66.8986 47.0571L67.3333 48.5064L67.0435 49.5209L66.1739 49.9556H64.8696L64 49.0861L64.2899 47.7817Z" fill="#101010"/>
<path d="M40.2899 50.4485L40.7246 49.7238L41.7391 49.2891L42.8986 49.7238L43.3333 51.1731L43.0435 52.1876L42.1739 52.6224H40.8696L40 51.7528L40.2899 50.4485Z" fill="#101010"/>
</svg>
