<svg width="64" height="64" viewBox="0 0 64 64" fill="none" xmlns="http://www.w3.org/2000/svg">
<path d="M49.5635 31.8003L47.0838 34.2019L43.7134 31.8385L46.703 27.9471L49.5635 31.8003Z" fill="#FFF6EF"/>
<path d="M51.0928 5.21973L50.4131 19.8115L57.0449 23.5986L57.1465 23.6572L57.2188 23.75L59.793 27.0312V41.6406L59.7803 41.7031L59.166 44.5684L59.1338 44.7148L59.0371 44.8301L58.0156 46.0352L57.916 46.1533L57.7715 46.208L50.8164 48.8545V56.9043L50.8037 56.9658L50.3467 59.1143L48.7432 59.8057L48.627 59.8555L19.4629 59.6494L19.3799 59.6484L19.3008 59.626L15.8135 58.623L15.5195 58.5391L15.415 58.251L13.9033 54.0635L13.8672 53.9648V48.8701L8.68262 46.9414L8.62012 46.918L8.56445 46.8818L5.46973 44.8633L4.69336 38.5371L4.68945 38.5V29.4277L5.89355 26.6396L6.02441 26.5439L14.2324 20.4951L13.8682 7.4502L13.8633 7.28906L15.0986 5.01953L19.0371 4.04297L19.1084 4.02539H47.9092L51.0928 5.21973ZM20.0664 44.3711V52.6602L21.0654 53.665H42.9551L44.6162 53.4053L44.6172 45.2598L44.3145 44.5674L41.3184 44.3232H20.1299L20.0664 44.3711ZM11.4668 30.3936L10.9072 40.1885L13.8672 42.0371V39.1309L14.124 38.9512L15.1562 38.2324L15.3115 38.124H48.416L48.4971 38.1475L49.9893 38.5752L50.332 38.6738L50.4102 39.0215L50.8018 40.7764L50.8164 40.8408V42.2197L53.5928 41.1631V28.6953L46.9121 25.0303H18.041L11.4668 30.3936ZM21.2432 10.2227L20.1875 10.4355L20.0664 10.7578V16.8115L20.4531 18.5332L22.9932 18.8047L44.4424 18.6533L44.6143 12.5938L44.2891 10.5137L43.7393 10.0039L21.2432 10.2227Z" fill="#FFF6EF"/>
</svg>
