<svg width="64" height="64" viewBox="0 0 64 64" fill="none" xmlns="http://www.w3.org/2000/svg">
<path d="M15.3401 35.4284L14.8252 37.8955L16.8898 39.9014L15.6924 37.4988L15.3401 35.4284Z" fill="#FFF6EF"/>
<path d="M22.7299 45.4467L28.083 50.7764L34.2906 49.3481L28.5294 49.6463L22.7299 45.4467Z" fill="#FFF6EF"/>
<path d="M49.3594 45.8809L49.3521 44.12L47.1471 46.3899L49.3594 45.8809Z" fill="#FFF6EF"/>
<path fill-rule="evenodd" clip-rule="evenodd" d="M40.6904 7.87891L55.2744 24.8447L55.3789 50.6533L26.2461 57.3564L8.27832 39.9014L14.418 10.4805L40.6904 7.87891ZM28.083 50.7764L22.7299 45.4467L16.8898 39.9014L14.8252 37.8955L15.3401 35.4284L18.9006 18.369L19.3916 16.0166L21.9592 15.7624L36.766 14.2966L38.1738 14.1572L39.3746 15.554L44.4206 21.2376L49.2822 27.0791L49.3 33.5723L49.3521 44.12L49.3594 45.8809L47.1471 46.3899L34.2906 49.3481L28.083 50.7764Z" fill="#FFF6EF"/>
<path d="M21.9592 15.7624L19.3916 16.0166L18.9006 18.369L21.9592 15.7624Z" fill="#FFF6EF"/>
<path d="M49.2822 27.0791L44.4206 21.2376L48.6713 27.4239L49.3 33.5723L49.2822 27.0791Z" fill="#FFF6EF"/>
<path fill-rule="evenodd" clip-rule="evenodd" d="M23.1621 35.2825L29.8932 41.8213L39.1183 39.6987L40.7533 37.9016L40.72 29.7053L35.1819 23.2627L25.4699 24.2243L23.1621 35.2825Z" fill="#FFF6EF"/>
</svg>
