<svg width="64" height="64" viewBox="0 0 64 64" fill="none" xmlns="http://www.w3.org/2000/svg">
<path d="M27.6094 16.1455L27.833 16.2266L28.041 16.3418L35.7207 20.6084L44.915 18.1006L52.5918 19.3672H61.0195L55.1709 35.752L55.1436 35.8271L55.1123 35.9014L51.5859 44.3281L51.5684 44.3691L51.5498 44.4092L46.7881 54.9004L30.2773 51.0498L30.2715 51.0479L22.0576 49.1143L14.5693 47.6172L14.333 47.5273L3.41406 43.3457L11.8809 26.7637L11.9287 26.6709L11.9824 26.5811L19.9414 13.3564L27.6094 16.1455ZM17.1777 29.584L11.793 40.1289L16.2441 41.834L23.2842 43.2422L23.334 43.252L23.3828 43.2637L31.6396 45.2061L43.3574 47.9395L46.0693 41.9639L49.542 33.6699L52.5068 25.3672H52.0996L45.2314 24.2334L34.9443 27.041L25.3379 21.7031L22.5342 20.6836L17.1777 29.584Z" fill="#FFF6EF"/>
<path d="M43.7612 35.4053L37.4067 52.4736L18.9243 48.0283L25.939 32.998L26.0063 32.8545L26.0884 32.7178L33.5454 20.3447L53.105 14.3262L43.7612 35.4053ZM37.5005 25.4043L31.3091 35.6777L27.4663 43.9111L33.6392 45.3955L38.1733 33.2197L38.2056 33.1348L38.2427 33.0508L42.2837 23.9326L37.5005 25.4043Z" fill="#FFF6EF"/>
</svg>
