<svg width="64" height="64" viewBox="0 0 64 64" fill="none" xmlns="http://www.w3.org/2000/svg">
<g clip-path="url(#clip0_1354_39045)">
<path fill-rule="evenodd" clip-rule="evenodd" d="M28.0727 43.4287H14.1139L7.82943 44.3544L6.62939 48.4287V52.1496L9.21927 53.4287H28.6294L29.6294 48.4287L29.0395 45.14L28.0727 43.4287Z" fill="#FFF6EF"/>
<path fill-rule="evenodd" clip-rule="evenodd" d="M36.0562 20.6289H50.015L56.2995 19.7032L57.4995 15.6289V11.908L54.9096 10.6289H35.4995L34.4995 15.6289L35.0894 18.9176L36.0562 20.6289Z" fill="#FFF6EF"/>
<path d="M12.2087 23.7842L12.6294 31.0645H18.1294L13.4585 30.1785L12.2087 23.7842Z" fill="#FFF6EF"/>
<path d="M23.6294 16.6289H21.8452L23.6294 18.3084V16.6289Z" fill="#FFF6EF"/>
<path fill-rule="evenodd" clip-rule="evenodd" d="M7.18647 11.3539L24.8685 10.6289L28.9777 11.3539L29.6294 17.5177L29.289 36.6939L13.4585 37.0645L7.18647 36.0713L6.62939 28.9736L7.18647 11.3539ZM12.6294 31.0645H18.1294L23.3427 30.5809L24.1923 24.7232L23.6294 18.3084V16.6289H21.8452H13.103L12.2087 23.7842L12.6294 31.0645Z" fill="#FFF6EF"/>
<path d="M40.0788 40.2734L40.4995 32.9932H45.9995L41.3286 33.8791L40.0788 40.2734Z" fill="#FFF6EF"/>
<path d="M51.4995 47.4287H49.7153L51.4995 45.7492V47.4287Z" fill="#FFF6EF"/>
<path fill-rule="evenodd" clip-rule="evenodd" d="M35.0566 52.7038L52.7386 53.4287L56.8478 52.7038L57.4995 46.54L57.1591 27.3637L41.3286 26.9932L35.0566 27.9863L34.4995 35.084L35.0566 52.7038ZM40.4995 32.9932H45.9995L51.2128 33.4767L52.0624 39.3344L51.4995 45.7492V47.4287H49.7153H40.9731L40.0788 40.2734L40.4995 32.9932Z" fill="#FFF6EF"/>
</g>
<defs>
<clipPath id="clip0_1354_39045">
<rect width="64" height="64" fill="white"/>
</clipPath>
</defs>
</svg>
