<svg width="64" height="64" viewBox="0 0 64 64" fill="none" xmlns="http://www.w3.org/2000/svg">
<g clip-path="url(#clip0_1702_34353)">
<rect width="64" height="64" rx="8" fill="#101010"/>
<path d="M49.5297 26.2341V45.4396L27.9326 50.2858L14.4705 37.35L19.1671 15.7131L38.6446 13.7144L49.5297 26.2341ZM34.4587 32.4187L31.8822 36.0091L30.1082 46.8822L45.2714 43.4796L46.6858 40.9732V28.6857L34.4587 32.4187ZM18.6261 31.6092L18.2196 36.2186L21.5224 40.1818L27.3992 45.8295L28.9809 36.1355L29.2529 33.1385L27.7281 29.7057L21.0499 20.4414L18.6261 31.6092ZM22.9288 18.1848L29.0579 26.6869L34.5257 29.4246L45.5973 26.0447L37.4664 16.6933L22.9288 18.1848Z" fill="#FFF6EF"/>
<path fill-rule="evenodd" clip-rule="evenodd" d="M44.095 7.702V-12.2332L66.4517 -17.2644L80.3887 -3.83497L75.5258 18.6296L55.3674 20.7043L44.095 7.702ZM56.5368 17.7423L47.9941 7.88978L60.3039 4.12092H62.2744L64.7667 6.393L71.7955 16.172L56.5368 17.7423ZM66.9813 -12.8333L74.7145 -5.38056L76.8429 -2.81971L76.525 0.686559L73.6588 13.928L66.8666 4.47854L65.0941 0.479198L65.4454 -3.39664L66.9813 -12.8333ZM57.7919 1.93369L46.9147 5.26372V-8.17818L47.6268 -9.59357L51.6725 -11.0405L64.2938 -13.8808L62.7123 -4.16127L60.8645 0.00792466L57.7919 1.93369Z" fill="url(#paint0_linear_1702_34353)"/>
<path fill-rule="evenodd" clip-rule="evenodd" d="M57.8128 46.0697V26.1345L80.1694 21.1033L94.1064 34.5327L89.2435 56.9973L69.0852 59.072L57.8128 46.0697ZM70.2546 56.11L61.7119 46.2575L74.0217 42.4886H75.9921L78.4845 44.7607L85.5133 54.5397L70.2546 56.11ZM80.6991 25.5343L88.4322 32.9871L90.5606 35.548L90.2428 39.0542L87.3766 52.2956L80.5844 42.8462L78.8119 38.8469L79.1632 34.971L80.6991 25.5343ZM71.5097 40.3014L60.6325 43.6314V30.1895L61.3446 28.7741L65.3903 27.3272L78.0115 24.4869L76.4301 34.2064L74.5823 38.3756L71.5097 40.3014Z" fill="url(#paint1_linear_1702_34353)"/>
<path fill-rule="evenodd" clip-rule="evenodd" d="M30.1106 78.0184V58.0832L52.4673 53.052L66.4043 66.4814L61.5414 88.946L41.3831 91.0208L30.1106 78.0184ZM42.5524 88.0587L34.0098 78.2062L46.3196 74.4373H48.29L50.7823 76.7094L57.8112 86.4884L42.5524 88.0587ZM52.9969 57.4831L60.7301 64.9358L62.8585 67.4967L62.5406 71.003L59.6744 84.2444L52.8822 74.7949L51.1097 70.7956L51.4611 66.9198L52.9969 57.4831ZM43.8075 72.2501L32.9303 75.5801V62.1382L33.6424 60.7228L37.6881 59.2759L50.3094 56.4356L48.7279 66.1551L46.8801 70.3243L43.8075 72.2501Z" fill="url(#paint2_linear_1702_34353)"/>
<path fill-rule="evenodd" clip-rule="evenodd" d="M-13.0271 67.8819V47.9467L9.3296 42.9155L23.2666 56.345L18.4037 78.8096L-1.75465 80.8843L-13.0271 67.8819ZM-0.585275 77.9223L-9.12793 68.0697L3.18187 64.3009H5.1523L7.64461 66.5729L14.6735 76.352L-0.585275 77.9223ZM9.85921 47.3466L17.5924 54.7994L19.7208 57.3602L19.4029 60.8665L16.5367 74.1079L9.74452 64.6585L7.97201 60.6591L8.32337 56.7833L9.85921 47.3466ZM0.669845 62.1136L-10.2073 65.4437V52.0018L-9.49525 50.5864L-5.44958 49.1394L7.17168 46.2991L5.59022 56.0187L3.74244 60.1879L0.669845 62.1136Z" fill="url(#paint3_linear_1702_34353)"/>
<path fill-rule="evenodd" clip-rule="evenodd" d="M-24.0683 23.5314V3.59615L-1.71166 -1.43506L12.2253 11.9944L7.36244 34.459L-12.7959 36.5337L-24.0683 23.5314ZM-11.6265 33.5717L-20.1692 23.7191L-7.85939 19.9503H-5.88896L-3.39665 22.2223L3.6322 32.0014L-11.6265 33.5717ZM-1.18205 2.99601L6.55114 10.4488L8.67954 13.0096L8.36168 16.5159L5.49549 29.7573L-1.29674 20.3079L-3.06925 16.3085L-2.71789 12.4327L-1.18205 2.99601ZM-10.3714 17.763L-21.2486 21.0931V7.65117L-20.5365 6.23578L-16.4908 4.78885L-3.86958 1.94853L-5.45104 11.6681L-7.29882 15.8373L-10.3714 17.763Z" fill="url(#paint4_linear_1702_34353)"/>
<path fill-rule="evenodd" clip-rule="evenodd" d="M7.57768 -5.65737V-25.5926L29.9343 -30.6238L43.8713 -17.1943L39.0084 5.27027L18.8501 7.34497L7.57768 -5.65737ZM20.0195 4.38295L11.4768 -5.4696L23.7866 -9.23845H25.757L28.2494 -6.96637L35.2782 2.81265L20.0195 4.38295ZM30.464 -26.1927L38.1971 -18.7399L40.3255 -16.1791L40.0077 -12.6728L37.1415 0.568585L30.3493 -8.88083L28.5767 -12.8802L28.9281 -16.756L30.464 -26.1927ZM21.2746 -11.4257L10.3974 -8.09565V-21.5376L11.1095 -22.9529L15.1552 -24.3999L27.7764 -27.2402L26.195 -17.5206L24.3472 -13.3514L21.2746 -11.4257Z" fill="url(#paint5_linear_1702_34353)"/>
</g>
<defs>
<linearGradient id="paint0_linear_1702_34353" x1="64.3727" y1="-0.118242" x2="45.9505" y2="19.9407" gradientUnits="userSpaceOnUse">
<stop stop-color="#101010"/>
<stop offset="0.771762" stop-color="#FF37A5"/>
</linearGradient>
<linearGradient id="paint1_linear_1702_34353" x1="57.8128" y1="35.5206" x2="67.5811" y2="35.5206" gradientUnits="userSpaceOnUse">
<stop stop-color="#FFC70E"/>
<stop offset="1" stop-color="#101010" stop-opacity="0.0666667"/>
</linearGradient>
<linearGradient id="paint2_linear_1702_34353" x1="48.2575" y1="53.052" x2="48.2575" y2="64.3355" gradientUnits="userSpaceOnUse">
<stop stop-color="#F63609"/>
<stop offset="1" stop-color="#101010"/>
</linearGradient>
<linearGradient id="paint3_linear_1702_34353" x1="16.6885" y1="48.3733" x2="-0.658279" y2="64.63" gradientUnits="userSpaceOnUse">
<stop stop-color="#06C0F9"/>
<stop offset="1" stop-color="#101010"/>
</linearGradient>
<linearGradient id="paint4_linear_1702_34353" x1="-0.715688" y1="22.8902" x2="10.3929" y2="22.8902" gradientUnits="userSpaceOnUse">
<stop stop-color="#101010"/>
<stop offset="1" stop-color="#20CA4B"/>
</linearGradient>
<linearGradient id="paint5_linear_1702_34353" x1="25.7245" y1="-0.446401" x2="25.7245" y2="7.34497" gradientUnits="userSpaceOnUse">
<stop stop-color="#101010"/>
<stop offset="1" stop-color="#9D0AFF"/>
</linearGradient>
<clipPath id="clip0_1702_34353">
<rect width="64" height="64" rx="8" fill="white"/>
</clipPath>
</defs>
</svg>
