<svg width="90" height="90" viewBox="0 0 90 90" fill="none" xmlns="http://www.w3.org/2000/svg">
<path d="M25.4089 26.4243C27.6553 24.1779 32.4177 19.6177 33.496 19.3481L41.9201 18.0002L50.6811 19.3481L58.0943 21.0329L64.4966 31.1418V41.2507L61.8009 47.653L58.0943 53.3814L59.7791 56.4141L64.4966 66.8599L62.8118 75.9579C59.3298 78.2043 52.0289 82.6972 50.6811 82.6972C49.3332 82.6972 40.4599 82.0233 36.1917 81.6863L26.4197 77.3058L24.398 70.2295V62.4794L26.4197 54.3923L24.398 50.6857L21.3653 41.9246L22.0392 34.5114L25.4089 26.4243Z" fill="#06C0F9" stroke="white" stroke-width="2.7"/>
<path d="M37.9232 53.1828V43.873L45.3511 43.2723L45.8463 46.2755V49.8793L44.856 54.0838L42.38 56.186H39.6564L37.9232 53.1828Z" fill="#06C0F9"/>
<path d="M37.8 46.9414V57.3228L39.5719 60.6716H42.3562L44.8875 58.3274L45.9 53.639V49.6204L45.3937 46.2716" stroke="white" stroke-width="2.7"/>
<path d="M38.098 44.6763L41.0977 42.7933H43.3475L44.8474 44.6763M23.8301 32.7067L20.0613 36.3254L17.1 44.9545L17.9076 51.0785L26.253 57.4808H30.8295L36.4829 53.3054L38.0981 47.4598V41.3359L32.9832 34.0985L29.2143 31.8716L23.8301 32.7067ZM51.5776 32.7067L47.8087 36.3254L44.8474 44.9545L45.6551 51.0785L50.097 54.8445L58.7212 56.7276L64.2303 53.3054L65.8456 47.4598L66.9705 40.1569L62.8458 34.8844L56.9618 31.8716L51.5776 32.7067Z" stroke="white" stroke-width="2.7"/>
<path d="M50.8004 34.5934L53.0967 32.3368L56.377 31.816L59.9619 33.6949L62.4748 36.9828L61.7895 41.5369L60.8054 45.1822L57.4489 47.3163L52.1946 46.1421L49.4883 43.7936L48.9963 39.9746L50.8004 34.5934Z" fill="white"/>
<path d="M55.0616 42.2246L56.4095 39.7286L58.4313 39.2294L60.4531 40.4774V43.223L59.7791 44.9702L57.7574 45.9686L55.7356 44.9702L55.0616 42.2246Z" fill="black"/>
<path d="M32.687 47.1268L29.885 48.7122L26.5817 48.3662L23.6052 45.6236L22.0289 41.7973L23.8696 37.5757L25.7636 34.3093L29.558 33.1166L34.3294 35.6108L36.3356 38.5798L35.8225 42.3959L32.687 47.1268Z" fill="white"/>
<path d="M24.4896 42.3566L25.8375 39.8605L27.8593 39.3613L29.881 40.6093V43.355L28.5332 45.1022L27.1853 46.1006L25.1636 45.1022L24.4896 42.3566Z" fill="black"/>
<path d="M33.4959 63.827L30.1263 62.1422L28.7784 67.1966V72.2511L33.4959 75.2838L40.5722 76.9686L47.6484 77.6425L56.0725 73.9359L57.0834 69.5554L56.0725 63.827L54.3876 61.4683L48.6593 65.1749L43.6048 66.5227L33.4959 63.827Z" fill="black" stroke="white" stroke-width="2.7"/>
<path d="M33.1591 66.186L33.4961 63.8273L36.5288 65.1751L35.8548 67.5339L34.8439 69.5556L33.1591 68.5448V66.186Z" fill="white"/>
<path d="M37.0422 68.3027L36.6094 65.2575L40.8544 65.8349L40.8695 69.0015L40.3454 71.872L37.8926 71.2264L37.0422 68.3027Z" fill="white"/>
<path d="M52.366 68.157L52.3662 63.6823L48.5538 65.6892L48.5387 68.8558L49.0628 71.7263L51.5156 71.0807L52.366 68.157Z" fill="white"/>
<path d="M42.0036 68.5448L42.2572 66.8599L46.2349 66.5198L46.1827 69.6861L45.5977 72.5448L42.594 72.2512L42.0036 68.5448Z" fill="white"/>
<path d="M15.3 19.8L24.1487 27L25.65 23.85L28.5731 24.75L33.4891 22.5L38.8966 25.2L44.7958 21.6L48.7286 25.65L52.6613 21.6L58.5605 25.65L65.4428 27.9L73.8 19.8L64.4597 21.15L68.884 11.7L58.5605 17.55L57.0857 10.35L46.7622 15.75L45.779 8.09998L38.405 14.4L34.9639 8.09998L30.5395 14.4L22.6739 9.44998V17.55L15.3 19.8Z" fill="#06C0F9" stroke="white" stroke-width="2.7"/>
</svg>
