<svg width="90" height="90" viewBox="0 0 90 90" fill="none" xmlns="http://www.w3.org/2000/svg">
<path d="M42.6553 79.2L36.4974 72.45L34.2 61.65L36.4974 53.681L35.55 50.9468L41.2342 44.567L57.8132 43.2L59.7079 48.6683L62.55 64.162L57.3395 76.4658L51.6553 79.2H42.6553Z" fill="#FF37A5" stroke="white" stroke-width="2.7"/>
<path d="M59.5848 59.1115L63.9593 57.063L65.3093 54.363L62.6751 51.8394L58.1095 50.3133L54.5279 59.8123L59.5848 59.1115Z" fill="#FF37A5"/>
<path d="M58.2371 49.7699L61.8274 52.1538L65.3093 53.463L64.8593 56.613L58.6743 59.549L54.5165 59.7889" stroke="white" stroke-width="2.7"/>
<path d="M51.3 63.9L45.45 66.15L45 68.4L47.7 69.75L53.1 69.3L57.15 67.95L55.35 63.9H51.3Z" fill="#FF37A5" stroke="white" stroke-width="2.7"/>
<path d="M40.2 50.3182L42 49.1727L44.4 48.6L46.8 50.3182L45.6 53.1818L42.6 54.9L39.6 53.1818L40.2 50.3182Z" fill="#FF37A5"/>
<path d="M39.9124 51.5504L41.0374 50.8959L42.5374 50.5686L44.0374 51.5504L43.2874 53.1868L41.4124 54.1686L39.5374 53.1868L39.9124 51.5504Z" fill="#FF37A5"/>
<path d="M50.1 49.286L51.9 48.2286L54.3 47.7L56.7 49.286L56.25 51.9293L53.1 53.1L49.5 51.9293L50.1 49.286Z" fill="#FF37A5"/>
<path d="M52.575 49.393L53.7 48.8644L55.4619 48.4125L56.7347 49.3009L56.4843 50.7147L54.45 51.3L52.2 50.7147L52.575 49.393Z" fill="#FF37A5"/>
<path d="M29.475 56.7H33.675L36.3 50.3727L41.55 48.7909L45.75 45.6273L48.375 48.7909C48.375 48.7909 54.255 48.1582 54.675 47.7364C55.095 47.3145 58.05 45.6273 58.05 45.6273L60.75 50.4L66.75 48.15L70.65 45L72 38.7727V29.2818L66.75 24.5364L66.225 18.2091H60.975V10.8273L56.775 7.13636L53.1 11.8818L51 6.60909L45.75 4.5L43.125 9.77273L39.45 8.71818L31.05 10.8273L30 18.2091L24.225 19.7909V25.5909L17.925 30.8636L16.875 37.1909L15.3 43.5182L17.925 44.0455L20.025 48.7909L25.8 47.7364L24.225 52.4818L29.475 56.7Z" fill="#FF37A5"/>
<path d="M29.475 28.7545L28.95 33.5L32.625 32.9727L34.2 37.7182L37.875 37.1909M47.325 37.1909L52.575 38.7727L55.2 35.6091L58.875 37.1909M50.475 20.3182L55.2 19.7909L56.775 24.5364L63.6 29.2818M33.675 56.7H29.475L24.225 52.4818L25.8 47.7364L20.025 48.7909L17.925 44.0455L15.3 43.5182L16.875 37.1909L17.925 30.8636L24.225 25.5909V19.7909L30 18.2091L31.05 10.8273L39.45 8.71818L43.125 9.77273L45.75 4.5L51 6.60909L53.1 11.8818L56.775 7.13636L60.975 10.8273V18.2091H66.225L66.75 24.5364L72 29.2818V38.7727L70.65 45L66.75 48.15L60.75 50.4L58.05 45.6273C58.05 45.6273 55.095 47.3145 54.675 47.7364C54.255 48.1582 48.375 48.7909 48.375 48.7909L45.75 45.6273L41.55 48.7909L36.3 50.3727L33.675 56.7Z" stroke="white" stroke-width="2.7"/>
<path d="M42.6553 79.2L36.4974 72.45L34.2 61.65L36.4974 53.681L35.55 50.9468L41.2342 44.567L57.8132 43.2L59.7079 48.6683L62.55 64.162L57.3395 76.4658L51.6553 79.2H42.6553Z" fill="#FF37A5" stroke="white" stroke-width="2.7"/>
<path d="M59.5848 59.1115L63.9593 57.063L65.3093 54.363L62.6751 51.8394L58.1095 50.3133L54.5279 59.8123L59.5848 59.1115Z" fill="#FF37A5"/>
<path d="M58.2371 49.7699L61.8274 52.1538L65.3093 53.463L64.8593 56.613L58.6743 59.549L54.5165 59.7889" stroke="white" stroke-width="2.7"/>
<path d="M51.3 63.9L45.45 66.15L45 68.4L47.7 69.75L53.1 69.3L57.15 67.95L55.35 63.9H51.3Z" fill="black" stroke="white" stroke-width="2.7"/>
<path d="M40.2 50.3182L42 49.1727L44.4 48.6L46.8 50.3182L45.6 53.1818L42.6 54.9L39.6 53.1818L40.2 50.3182Z" fill="white"/>
<path d="M39.9124 51.5504L41.0374 50.8959L42.5374 50.5686L44.0374 51.5504L43.2874 53.1868L41.4124 54.1686L39.5374 53.1868L39.9124 51.5504Z" fill="black"/>
<path d="M50.1 49.286L51.9 48.2286L54.3 47.7L56.7 49.286L56.25 51.9293L53.1 53.1L49.5 51.9293L50.1 49.286Z" fill="white"/>
<path d="M52.575 49.393L53.7 48.8644L55.4619 48.4125L56.7347 49.3009L56.4843 50.7147L54.45 51.3L52.2 50.7147L52.575 49.393Z" fill="black"/>
<path d="M29.475 56.7H33.675L36.3 50.3727L41.55 48.7909L45.75 45.6273L48.375 48.7909C48.375 48.7909 54.255 48.1582 54.675 47.7364C55.095 47.3145 58.05 45.6273 58.05 45.6273L60.75 50.4L66.75 48.15L70.65 45L72 38.7727V29.2818L66.75 24.5364L66.225 18.2091H60.975V10.8273L56.775 7.13636L53.1 11.8818L51 6.60909L45.75 4.5L43.125 9.77273L39.45 8.71818L31.05 10.8273L30 18.2091L24.225 19.7909V25.5909L17.925 30.8636L16.875 37.1909L15.3 43.5182L17.925 44.0455L20.025 48.7909L25.8 47.7364L24.225 52.4818L29.475 56.7Z" fill="#FF37A5"/>
<path d="M29.475 28.7545L28.95 33.5L32.625 32.9727L34.2 37.7182L37.875 37.1909M47.325 37.1909L52.575 38.7727L55.2 35.6091L58.875 37.1909M50.475 20.3182L55.2 19.7909L56.775 24.5364L63.6 29.2818M33.675 56.7H29.475L24.225 52.4818L25.8 47.7364L20.025 48.7909L17.925 44.0455L15.3 43.5182L16.875 37.1909L17.925 30.8636L24.225 25.5909V19.7909L30 18.2091L31.05 10.8273L39.45 8.71818L43.125 9.77273L45.75 4.5L51 6.60909L53.1 11.8818L56.775 7.13636L60.975 10.8273V18.2091H66.225L66.75 24.5364L72 29.2818V38.7727L70.65 45L66.75 48.15L60.75 50.4L58.05 45.6273C58.05 45.6273 55.095 47.3145 54.675 47.7364C54.255 48.1582 48.375 48.7909 48.375 48.7909L45.75 45.6273L41.55 48.7909L36.3 50.3727L33.675 56.7Z" stroke="white" stroke-width="2.7"/>
</svg>
