<svg width="90" height="90" viewBox="0 0 90 90" fill="none" xmlns="http://www.w3.org/2000/svg">
<path d="M26.55 34.65L38.25 22.5L45.45 21.6L57.15 23.85C58.8 27.6 62.1 35.28 62.1 36C62.1 36.9 64.35 53.1 63.9 54C63.54 54.72 60.75 61.5 59.4 64.8C55.35 67.95 47.16 74.25 46.8 74.25C46.44 74.25 34.95 71.25 29.25 69.75L25.2 56.7L26.55 34.65Z" fill="#20CA4B" stroke="white" stroke-width="2.7"/>
<path d="M32.4 42.7366L36.7199 37.1403L40.0799 38.073L41.5199 41.8038L38.1599 45.5347L34.7999 47.4001L32.4 46.0011V42.7366Z" fill="white"/>
<path d="M35.82 43.0992L37.98 39.9901L39.66 40.5083L40.38 42.581L38.7 44.6537L37.02 45.69L35.82 44.9128V43.0992Z" fill="black"/>
<path d="M50.029 46.6215L46.7373 40.3649L48.9833 37.6976L52.9751 37.9403L54.9698 42.5479L55.2683 46.3794L52.9975 47.9797L50.029 46.6215Z" fill="white"/>
<path d="M49.9323 44.5121L48.1777 41.177L49.3749 39.7553L51.5027 39.8847L52.566 42.3407L52.725 44.383L51.5146 45.236L49.9323 44.5121Z" fill="black"/>
<path d="M30.9635 39.0461L21.5363 42.473L17.1 37.9038L18.7636 29.3365L22.6454 21.9115L27.0817 17.3423C29.2999 16.9615 33.958 16.2 34.8453 16.2H39.2816L45.3821 20.198L48.7088 18.4846L52.036 17.3423H55.9178L61.4632 19.0557L64.7904 24.1961L68.1182 33.3346L72 44.7576L66.4546 45.9L56.4729 41.3307L52.036 33.9057L45.3821 28.7653L35.9543 32.7634L30.9635 39.0461Z" fill="#20CA4B" stroke="white" stroke-width="2.7"/>
<path d="M32.4 60.2999L35.0181 62.6478L40.9091 63.8999L48.1091 63.7434L51.7091 62.4912L54 60.613" stroke="white" stroke-width="2.7"/>
<path d="M39.9857 68.0537L39.6 63.8999L42.3 64.2461V68.3999L39.9857 68.0537Z" fill="white"/>
<path d="M44.7429 68.3999L45 63.8999L43.2 64.2749V68.0249L44.7429 68.3999Z" fill="white"/>
<path d="M41.4 48.6L40.5 51.3L43.65 53.55L47.25 52.2L47.7 48.6" stroke="white" stroke-width="2.7"/>
</svg>
