<svg width="90" height="90" viewBox="0 0 90 90" fill="none" xmlns="http://www.w3.org/2000/svg">
<path d="M30.4915 27.6321L39.2945 18.7937L43.696 17.3207L48.0975 21.0033L54.6998 32.0513L57.6341 48.9915L51.7654 68.1413L43.696 78.4528L39.2945 76.2432L34.4039 71.932L31.2251 62.2491L28.2907 47.5185L30.4915 27.6321Z" fill="#F63609" stroke="white" stroke-width="2.7"/>
<path d="M36.6543 39.0791L37.3474 34.7307L39.8682 32.7429L41.0158 36.0331L41.4364 39.831L41.1768 44.5586L39.4763 46.8827L37.402 45.831L36.6543 39.0791Z" fill="white"/>
<path d="M37.1553 42.658L37.7348 41.3086L39.8426 40.6918L40.8021 41.7128L41.1538 42.8913L40.9367 44.3583L39.5149 45.0795L37.7805 44.7532L37.1553 42.658Z" fill="black"/>
<path d="M46.0208 38.7986L46.8684 34.2132L48.408 31.7969L51.43 34.6063L51.5242 39.5366L51.1721 44.5162L49.1861 46.9819L46.807 45.898L46.0208 38.7986Z" fill="white"/>
<path d="M47.1245 41.13L47.8332 39.7071L49.1206 38.9573L51.6474 39.8291L51.7261 41.359L51.4317 42.9043L49.7711 43.6694L47.7819 43.333L47.1245 41.13Z" fill="black"/>
<path d="M37.8 60.4869L39.4302 62.6605L41.2933 64.2907L44.2044 63.7473L50.0265 59.4001" stroke="white" stroke-width="2.7"/>
<path d="M43.3698 47.2496V51.2996L40.4998 55.3496L41.7396 58.8902L43.3698 58.4826L45.4075 54.8147" stroke="white" stroke-width="2.7"/>
<path d="M29.8216 16.084C30.2887 15.1446 35.8541 13.344 38.5784 12.5611L43.2487 10.7997L46.1676 14.3225L49.6703 13.1483L56.0919 16.084L59.5946 21.9554L64.8487 34.8726C65.4325 38.004 66.6 44.6192 66.6 46.0283V62.4684L63.0973 74.2113L59.0108 77.147L55.5081 80.0827L53.173 77.7341L49.6703 78.9084L46.7514 74.7984C46.7514 74.7984 50.3708 70.4535 50.8379 69.5141L53.173 66.5784L54.9243 57.7712L54.3406 47.7898L54.9243 36.4752L51.5208 27.9167L47.3352 21.9554L40.9135 24.304L35.6595 29.5883L32.1568 43.0926V57.7712V65.9913L33.9081 71.8627H29.8216L26.9027 75.9727L23.4 74.2113V62.4684V47.7898L24.5676 34.8726C26.1243 29.0012 29.3546 17.0234 29.8216 16.084Z" fill="#F63609" stroke="white" stroke-width="2.7"/>
<path d="M40.1095 17.3207L38.0718 19.766H34.8114L33.9963 22.6188L31.551 25.0641" stroke="white" stroke-width="2.7"/>
<path d="M53.151 23.0261L55.5963 24.2488L57.634 31.5846" stroke="white" stroke-width="2.7"/>
</svg>
