<svg width="42" height="42" viewBox="0 0 42 42" fill="none" xmlns="http://www.w3.org/2000/svg">
<path fill-rule="evenodd" clip-rule="evenodd" d="M37.5824 15.8884V34.0662L17.1467 38.6514L4.41797 26.4202L8.85754 5.96702L9.30428 5.92168L27.3104 4.07367L37.5824 15.8884ZM8.69009 25.126L9.04917 21.0479L11.1003 11.5999L16.7417 19.4254L18.094 22.4685L17.8534 25.1199L16.5113 33.3432L11.6262 28.6485L8.69009 25.126ZM23.5231 22.0665L21.2713 25.2052L19.7389 34.5982L33.0213 31.6173L34.1953 29.5371V18.8088L23.5231 22.0665ZM18.5558 16.1501L13.3382 8.91222L25.9067 7.62218L32.898 15.6629L23.3841 18.5676L18.5558 16.1501Z" fill="#101010"/>
</svg>
