<svg width="42" height="42" viewBox="0 0 42 42" fill="none" xmlns="http://www.w3.org/2000/svg">
<path d="M15.2747 14.7759L17.5722 4.5162L23.1044 12.3939L34.5814 7.44519L30.3613 16.6778L39.9407 19.1747L30.4187 25.795L32.0785 36.3775L23.0897 30.3051L14.8794 37.4975L15.2022 28.6246L4.12848 29.5082L11.1714 21.5372L3.2334 14.7752L15.2747 14.7759ZM16.7772 21.1394L13.5346 24.8083L19.2989 24.3483L19.1461 28.5255L22.7791 25.3428L26.7868 28.0514L26.1473 23.9692L30.6671 20.827L24.8319 19.3045L26.7489 15.1102L21.7233 17.2777L19.4682 14.0673L18.4287 18.7131L13.9282 18.7128L16.7772 21.1394Z" fill="#101010"/>
</svg>
