<svg width="42" height="42" viewBox="0 0 42 42" fill="none" xmlns="http://www.w3.org/2000/svg">
<path d="M29.9946 21.8434L28.8519 23.93L26.6533 21.7314L21.5264 26.4482L23.9129 28.8348L21.8325 30.0337L23.1431 32.3081L27.9348 29.546L30.9835 32.7849L30.2439 33.5251L32.0999 35.3811L33.6988 33.7821L35.6214 32.18L33.9411 30.1638L32.9215 31.0129L29.7889 27.6849L32.2972 23.104L29.9946 21.8434Z" fill="#101010"/>
<path d="M14.4375 19.3594L19.4559 14.534L13.7813 8.85938L7.21875 7.21875L8.85938 13.7812L14.4375 19.3594Z" fill="#101010"/>
<path d="M17.3573 28.8519L32.428 13.7813L34.0686 7.21875L27.5061 8.85938L12.4526 23.9129L11.2537 21.8325L8.97922 23.1431L11.7414 27.9348L8.50241 30.9835L7.76221 30.2439L5.90625 32.0999L7.50522 33.6988L9.10739 35.6214L11.1236 33.9411L10.2744 32.9214L13.6024 29.7889L18.1834 32.2972L19.444 29.9946L17.3573 28.8519Z" fill="#101010"/>
</svg>
