<svg width="440" height="956" viewBox="0 0 440 956" fill="none" xmlns="http://www.w3.org/2000/svg">
<g clip-path="url(#clip0_1666_6460)">
<mask id="mask0_1666_6460" style="mask-type:alpha" maskUnits="userSpaceOnUse" x="-30" y="-30" width="501" height="1016">
<path d="M-29.4258 297.496L-22.918 256.918L-26.7461 216.148L-27.1289 212.895L-26.5547 209.832L-19.4727 170.977L-28.0859 132.121L-29.043 127.91L-28.6602 123.891L-23.4922 82.738L-25.5977 40.8203L-25.7891 36.8008L-24.6406 32.9727L-13.1563 -8.1797L8.85543 -1.8633H9.81253L6.55863 -22.918L46.3711 -29.2344L50.7734 -30L55.3671 -29.043L95.754 -20.4297L136.141 -19.0898L177.867 -24.2578L181.504 -24.6406L184.949 -24.2578L223.996 -17.75L264 -25.0234L267.637 -25.5977L271.273 -25.2148L313.191 -19.6641L355.109 -19.4727L397.984 -20.8125H401.047L404.109 -20.2383L442.965 -11.2422L460.191 -7.4141L461.914 10.1953L466.508 55.75L466.891 60.1523L465.742 64.5547L455.406 103.602L460.766 142.266L460.957 144.371V146.477L459.234 190.117V190.309L457.129 233.949V234.332L454.258 276.059L457.512 317.211L457.703 317.02L463.062 360.469V361.043L463.254 361.809L466.508 405.258L466.699 408.129L466.316 410.809L460 451.961L462.871 492.73L463.062 493.113V493.305L464.785 536.945V539.816L461.531 583.457H461.34V624.992L462.297 668.25V670.164L462.105 671.887L457.129 710.168L469.57 748.449L470.91 752.469L470.719 756.488L469.953 800.129V802.234L469.379 804.34L461.34 845.301L463.637 885.687L463.828 890.09L462.488 894.301L450.621 931.625L449.09 936.793L445.262 940.812L419.23 969.141L412.148 976.8L401.621 976.99L357.789 977.56L316.254 981.39L315.871 981.58H315.488L271.848 984.26H268.402L226.676 980.82L185.715 985.22L180.738 985.6L176.145 984.26L137.672 972.78L99.008 977.75L95.754 978.14L92.309 977.56L50.9648 971.63L10.7695 975.46L-11.2422 977.37L-15.4531 955.551L-22.7265 916.313L-23.1094 913.633L-26.5547 870.184L-26.7461 867.695L-26.5547 865.398L-21.7695 824.629L-27.7031 784.434L-28.2773 780.031L-27.3203 775.82L-18.5156 735.051L-18.3242 695.047L-24.832 653.895L-25.4062 650.641L-25.0234 647.195L-20.2383 607.766L-28.8516 567.953L-30 562.594L-28.6601 557.043L-18.8985 517.422L-22.7266 478.184L-22.918 477.801V477.418L-25.9805 433.777V431.289L-24.4492 389.371L-27.5117 346.496V346.113L-29.8086 302.473L-30 299.984L-29.4258 297.496ZM21.2968 343.434L21.4883 343.242L24.3594 386.883L24.5508 388.031L24.3594 389.18L23.0195 431.098L26.082 473.973L25.8906 474.164L30.2929 516.848L30.6758 521.059L29.7187 525.078L20.3398 563.359L28.3789 601.449L29.3359 605.277L28.7617 609.297L23.9765 649.301L30.293 689.879L30.6758 691.984V693.898L30.293 737.539V740.027L29.7187 742.324L21.2969 781.563L27.0391 821.184L27.6133 824.246L27.2305 827.309L22.2539 868.078L25.5078 909.039L28.5703 924.734L50.0078 922.629L52.8789 922.437L55.75 922.82L96.137 928.754L136.332 923.586L141.5 922.82L146.477 924.352L185.141 936.027L224.187 931.816L226.484 931.625L228.781 931.816L270.699 935.262L311.66 932.582L355.301 928.562H357.215L390.328 928.18L405.449 911.719L414.254 883.773L412.531 844.535L412.34 841.473L412.914 838.602L420.953 796.875L421.527 759.359L408.895 719.93L407.363 714.762L407.937 709.402L413.105 667.676L412.34 625.758V625.184L412.531 581.543V580.586L412.723 579.82L415.594 538.859L414.062 495.984L411 452.535L410.809 449.855L411.191 447.176L417.125 406.215L414.254 365.445L409.086 322.953L408.895 322.379V321.996L405.449 278.355L405.258 276.633L405.449 274.719L408.129 231.844V231.652L410.234 188.012V188.203L411.766 146.859L406.215 105.324L405.641 100.348L406.789 95.754L417.125 56.5156L414.828 32.5898L396.07 28.3789L355.684 29.5273H354.727L311.469 29.1445H310.129L268.785 23.9766L228.59 31.0586L224.57 31.8242L220.551 31.25L180.547 24.9336L140.16 29.7187L138.246 29.9102H136.332L92.883 28.5703H90.586L88.48 27.9961L49.4336 19.957L28.9531 23.2109L23.4023 42.1602L25.5078 81.973V84.078L25.3164 86.184L20.5312 125.613L29.3359 165.234L30.2929 169.828L29.5273 174.613L22.2539 215.383L25.8906 255.387L26.2734 258.449L25.6992 261.512L19.1914 302.09L21.2968 343.434Z" fill="black"/>
</mask>
<g mask="url(#mask0_1666_6460)">
<path d="M-29.4258 297.496L-22.918 256.918L-26.7461 216.148L-27.1289 212.895L-26.5547 209.832L-19.4727 170.977L-28.0859 132.121L-29.043 127.91L-28.6602 123.891L-23.4922 82.738L-25.5977 40.8203L-25.7891 36.8008L-24.6406 32.9727L-13.1563 -8.1797L8.85543 -1.8633H9.81253L6.55863 -22.918L46.3711 -29.2344L50.7734 -30L55.3671 -29.043L95.754 -20.4297L136.141 -19.0898L177.867 -24.2578L181.504 -24.6406L184.949 -24.2578L223.996 -17.75L264 -25.0234L267.637 -25.5977L271.273 -25.2148L313.191 -19.6641L355.109 -19.4727L397.984 -20.8125H401.047L404.109 -20.2383L442.965 -11.2422L460.191 -7.4141L461.914 10.1953L466.508 55.75L466.891 60.1523L465.742 64.5547L455.406 103.602L460.766 142.266L460.957 144.371V146.477L459.234 190.117V190.309L457.129 233.949V234.332L454.258 276.059L457.512 317.211L457.703 317.02L463.062 360.469V361.043L463.254 361.809L466.508 405.258L466.699 408.129L466.316 410.809L460 451.961L462.871 492.73L463.062 493.113V493.305L464.785 536.945V539.816L461.531 583.457H461.34V624.992L462.297 668.25V670.164L462.105 671.887L457.129 710.168L469.57 748.449L470.91 752.469L470.719 756.488L469.953 800.129V802.234L469.379 804.34L461.34 845.301L463.637 885.687L463.828 890.09L462.488 894.301L450.621 931.625L449.09 936.793L445.262 940.812L419.23 969.141L412.148 976.8L401.621 976.99L357.789 977.56L316.254 981.39L315.871 981.58H315.488L271.848 984.26H268.402L226.676 980.82L185.715 985.22L180.738 985.6L176.145 984.26L137.672 972.78L99.008 977.75L95.754 978.14L92.309 977.56L50.9648 971.63L10.7695 975.46L-11.2422 977.37L-15.4531 955.551L-22.7265 916.313L-23.1094 913.633L-26.5547 870.184L-26.7461 867.695L-26.5547 865.398L-21.7695 824.629L-27.7031 784.434L-28.2773 780.031L-27.3203 775.82L-18.5156 735.051L-18.3242 695.047L-24.832 653.895L-25.4062 650.641L-25.0234 647.195L-20.2383 607.766L-28.8516 567.953L-30 562.594L-28.6601 557.043L-18.8985 517.422L-22.7266 478.184L-22.918 477.801V477.418L-25.9805 433.777V431.289L-24.4492 389.371L-27.5117 346.496V346.113L-29.8086 302.473L-30 299.984L-29.4258 297.496ZM21.2968 343.434L21.4883 343.242L24.3594 386.883L24.5508 388.031L24.3594 389.18L23.0195 431.098L26.082 473.973L25.8906 474.164L30.2929 516.848L30.6758 521.059L29.7187 525.078L20.3398 563.359L28.3789 601.449L29.3359 605.277L28.7617 609.297L23.9765 649.301L30.293 689.879L30.6758 691.984V693.898L30.293 737.539V740.027L29.7187 742.324L21.2969 781.563L27.0391 821.184L27.6133 824.246L27.2305 827.309L22.2539 868.078L25.5078 909.039L28.5703 924.734L50.0078 922.629L52.8789 922.437L55.75 922.82L96.137 928.754L136.332 923.586L141.5 922.82L146.477 924.352L185.141 936.027L224.187 931.816L226.484 931.625L228.781 931.816L270.699 935.262L311.66 932.582L355.301 928.562H357.215L390.328 928.18L405.449 911.719L414.254 883.773L412.531 844.535L412.34 841.473L412.914 838.602L420.953 796.875L421.527 759.359L408.895 719.93L407.363 714.762L407.937 709.402L413.105 667.676L412.34 625.758V625.184L412.531 581.543V580.586L412.723 579.82L415.594 538.859L414.062 495.984L411 452.535L410.809 449.855L411.191 447.176L417.125 406.215L414.254 365.445L409.086 322.953L408.895 322.379V321.996L405.449 278.355L405.258 276.633L405.449 274.719L408.129 231.844V231.652L410.234 188.012V188.203L411.766 146.859L406.215 105.324L405.641 100.348L406.789 95.754L417.125 56.5156L414.828 32.5898L396.07 28.3789L355.684 29.5273H354.727L311.469 29.1445H310.129L268.785 23.9766L228.59 31.0586L224.57 31.8242L220.551 31.25L180.547 24.9336L140.16 29.7187L138.246 29.9102H136.332L92.883 28.5703H90.586L88.48 27.9961L49.4336 19.957L28.9531 23.2109L23.4023 42.1602L25.5078 81.973V84.078L25.3164 86.184L20.5312 125.613L29.3359 165.234L30.2929 169.828L29.5273 174.613L22.2539 215.383L25.8906 255.387L26.2734 258.449L25.6992 261.512L19.1914 302.09L21.2968 343.434Z" fill="#101010"/>
<path d="M-148.702 19.0115L-136.194 -10.9788L-131.077 -37.8584L-130.885 -39.0442L-130.325 -40.1513L-117.582 -65.5444L-117.18 -66.2977L-102.499 -89.9386L-94.3431 -114.449L-93.6748 -142.037L-93.6003 -144.843L-91.7948 -147.091L-78.1326 -164.447L-87.0476 -170.575L-76.5483 -176.074L-55.8819 -192.432L-55.5127 -192.734L-55.0875 -193.011L-32.9832 -205.889L-31.5081 -206.716L-29.968 -206.709L-7.59238 -205.948L8.72823 -229.579L11.3262 -233.382L14.9457 -232.618L38.6314 -227.714L55.6899 -247.5L57.576 -249.627L59.9526 -249.841L86.2269 -252.261L90.0069 -252.613L91.2119 -248.686L98.3609 -224.867L107.611 -202.527L107.704 -202.359L107.753 -202.167L115.485 -179.359L128.133 -159.83L129.378 -157.877L129.012 -155.244L124.967 -127.081L146.182 -117.302L147.942 -116.433L148.701 -114.443L157.155 -91.1442L157.488 -90.2333L157.502 -89.2098L158.949 -62.0787L167.753 -40.3193L167.883 -40.0074L167.968 -39.6725L174.821 -15.2637L175.152 -13.9722L175.022 -12.5471L172.991 7.01849L173.035 6.99561L170.247 34.4458L169.105 62.1195L169.098 62.2859L169.047 62.4752L166.72 90.173L166.516 92.667L164.992 94.659L147.49 117.553L145.323 142.779L145.277 143.182L145.176 143.561L140.057 170.821L140.013 170.844L136.273 197.87L135.964 200.148L134.547 201.976L115.234 226.903L113.334 229.363L110.67 229.619L87.5029 231.768L87.1719 231.833L86.8729 231.827L64.322 231.158L41.8011 236.604L40.3906 236.909L39.0954 236.502L17.2045 228.921L-4.31427 231.889L-26.7556 240.55L-49.5807 254.294L-52.9754 256.343L-55.5714 253.959L-73.7807 237.126L-75.0043 236.03L-75.3828 234.166L-80.6486 208.981L-80.7713 208.502L-80.8064 207.978L-82.4339 182.081L-92.8263 161.479L-93.1783 160.687L-93.3553 159.803L-98.1975 134.721L-105.297 111.092L-105.309 111.044L-111.99 88.662L-130.399 73.18L-131.417 72.303L-131.917 70.937L-140.227 47.6171L-140.183 47.5942L-148.894 24.6469L-149.924 21.9849L-148.702 19.0115ZM-50.0008 240.461L-29.8513 228.281L-29.3823 227.981L-28.8766 227.824L-5.49207 218.779L-4.85507 218.554L-4.23727 218.447L18.972 215.299L20.1201 215.132L21.1475 215.462L42.8266 222.99L64.686 217.673L65.379 217.473L66.0336 217.51L88.7959 218.232L109.157 216.358L125.109 195.741L128.672 170.544L128.667 170.329L128.718 170.14L133.81 143.165L136.185 116.039L136.389 113.545L137.913 111.553L155.34 88.753L157.495 63.4793L158.65 35.8534L158.644 35.6392L158.683 35.402L161.477 7.7854L161.465 7.73761L163.333 -10.3323L156.941 -33.1375L147.897 -55.6393L147.496 -56.623L147.401 -57.7671L145.917 -85.0417L138.579 -105.344L120.109 -113.902L120.003 -112.381L117.682 -84.8504L136.029 -72.321L138.248 -70.8247L138.328 -67.6108L138.745 -40.0484L148.551 -19.4109L151.85 -12.3488L144.541 -9.11749L127.153 -1.25951L126.123 -0.828201L125.094 -0.777603L102.848 0.129501L81.0369 11.4436L78.3689 12.8412L76.0739 11.4386L56.7213 -0.563904L34.581 1.9158L33.377 2.05811L32.269 1.60741L11.4053 -6.99921L17.3726 17.4393L17.7704 19.1843L17.3071 21.0547L10.0695 50.8897L9.91733 51.4576L9.67773 52.0715L-0.798569 78.177L-1.13268 79.003L-1.59097 79.731L-16.4488 102.488L-23.5072 128.377L-23.8622 129.702L-24.6529 130.876L-39.6174 153.797L-48.2896 179.391L-59.1026 176.698L-59.0204 176.438L-59.0327 176.39L-58.8998 175.941L-58.0203 172.984L-71.749 156.789L-72.8345 155.458L-73.0257 153.551L-75.7326 129.249L-91.1165 115.114L-87.0351 128.712L-86.9177 128.976L-86.8756 129.334L-82.1806 153.842L-71.5903 174.828L-70.9967 175.982L-70.8965 177.341L-69.2601 204.047L-64.4464 227.082L-50.0008 240.461ZM-72.4639 -124.334L-66.6634 -128.999L-52.3347 -140.465L-58.1826 -123.403L-46.4403 -120.763L-53.158 -143.289L-51.1141 -144.414L-44.1385 -152.625L-41.8384 -151.008L-22.7533 -157.856L-4.88516 -180.29L-2.64056 -183.148L0.333038 -182.969L24.6444 -181.431L45.6185 -192.524L45.6622 -192.547L70.1099 -205.188L74.8779 -207.685L76.9469 -202.908L86.4169 -181.064L100.628 -162.408L101.396 -161.345L101.665 -159.912L106.185 -135.313L113.198 -124.987L117.127 -152.438L105.489 -170.543L105.099 -171.098L104.871 -171.792L96.8669 -195.273L87.6609 -217.635L87.5429 -217.899L87.4569 -218.234L81.3089 -238.345L61.2478 -236.466L43.5629 -216.027L40.9997 -213.057L37.9036 -213.714L14.6536 -218.467L-1.21567 -195.397L-3.46198 -192.159L-6.66647 -192.271L-30.7817 -193.043L-51.2043 -181.154L-63.5681 -171.315L-60.1548 -169.033L-65.2145 -162.639L-82.1745 -141.115L-82.7384 -116.023L-72.4639 -124.334ZM-28.8037 192.301L-20.5748 165.365L-20.309 164.466L-19.8314 163.619L-7.00557 140.678L-4.48567 113.151L-4.20467 110.183L-2.13127 108.012L17.7621 87.284L28.8291 64.4506L29.263 63.6265L29.8211 62.9002L45.6841 42.7096L47.7469 40.1101L50.5033 40.023L72.7539 39.3301L93.3899 24.3993L93.8459 24.0516L94.2839 23.8225L117.337 12.129L118.431 11.5562L119.503 11.4827L142.942 10.0048L144.159 9.9104L145.235 10.4318L150.73 13.0887L154.699 15.0249L153.343 20.1847L149.174 46.8931L149.083 47.7003L139.213 75.007L139.017 75.598L138.709 76.139L125.47 100.761L120.251 126.663L120.105 127.445L119.846 128.178L109.81 153.292L103.13 172.526L102.24 175.054L100.194 176.56L77.7999 192.954L76.5049 193.903L52.54 197.393L29.6857 206.378L28.3365 206.922L26.9906 206.705L5.58043 203.322L-16.1444 214.971L-21.282 217.77L-23.198 212.425L-28.7745 197.06L-29.5381 194.856L-28.8037 192.301ZM-35.1727 -126.555L-20.4427 -109.744L-19.233 -108.316L-19.0924 -106.219L-17.2814 -80.9606L3.36932 -70.6689L4.86243 -69.8773L5.60323 -68.1492L15.1893 -45.6602L15.529 -44.9157L15.65 -44.0567L19.2637 -18.9281L36.7039 -11.6756L59.2501 -14.3136L60.8846 -14.5186L62.1904 -13.6832L80.5789 -2.1523L100.933 -12.7582L102.115 -13.3768L103.287 -13.4483L125.657 -14.2577L134.772 -18.3804L127.735 -33.2513L127.173 -34.4762L127.135 -35.976L126.717 -61.8015L108.066 -74.5512L105.53 -76.3156L105.858 -80.0685L108.183 -108.742L95.9839 -126.715L95.2829 -127.704L95.0519 -128.994L90.5369 -153.379L76.7679 -171.67L76.3889 -172.177L76.1299 -172.801L68.4372 -190.422L48.8017 -180.301L26.4277 -168.475L24.984 -167.719L23.5314 -167.772L0.697128 -169.161L-16.2805 -147.898L-17.6346 -146.212L-19.4021 -145.558L-38.8056 -138.597L-35.1727 -126.555ZM-14.3089 200.065L4.04733 190.18L5.75354 189.286L7.45464 189.535L29.1449 193.042L51.1872 184.374L51.8119 184.101L52.4297 183.995L74.2229 180.937L93.3079 166.927L99.1739 150.127L99.2749 149.749L109.09 125.129L114.449 98.611L114.673 97.355L115.32 96.202L128.886 70.92L137.842 46.0456L141.254 24.1284L140.289 23.6568L119.251 25.0167L97.8729 35.8874L76.0499 51.6032L74.5039 52.7379L72.8329 52.7994L51.5359 53.5353L38.3689 70.306L27.1007 93.516L26.478 94.765L25.5822 95.722L6.79103 115.33L4.42653 141.528L4.23793 143.309L3.37033 144.957L-9.97687 168.767L-17.1497 192.274L-14.3089 200.065ZM-12.68 -53.5278L-11.241 -51.7856L-11.3645 -49.1707L-12.6612 -21.9046L8.06813 -12.4679L4.28442 -38.6469L-4.30177 -58.7838L-25.8417 -69.6407L-26.4018 -69.89L-12.68 -53.5278ZM-78.7411 69.5121L-75.7444 71.524L-76.6427 75.955L-82.3721 104.512L-66.1183 119.331L-64.6776 120.693L-64.3882 122.983L-61.7144 147.735L-52.8928 158.145L-50.0318 149.756L-49.6593 148.693L-49.0505 147.777L-34.1804 125.068L-27.1342 99.131L-26.7356 97.783L-25.9886 96.632L-10.8859 73.476L-0.920166 48.669L5.68283 21.3911L0.340927 -0.607697L-21.5208 -10.5907L-24.6137 -12.0094L-24.4398 -16.17L-23.112 -44.8631L-36.7463 -61.2711L-37.6024 -62.2877L-37.9143 -63.6979L-43.3743 -88.6734L-52.3138 -107.866L-58.6304 -109.278L-58.9821 -95.7462L-59.0271 -93.9863L-59.795 -92.3362L-71.8904 -66.7396L-72.3434 -65.7969L-72.989 -65.0248L-91.0444 -42.5466L-99.4212 -18.8975L-99.8462 8.67178L-99.8671 9.17111L-99.9317 9.69321L-103.529 33.9862L-99.1215 55.8233L-78.7411 69.5121ZM-32.6235 -96.0944L-32.3643 -95.4705L-32.1926 -94.8007L-29.0876 -80.3662L-30.5402 -100.549L-39.6297 -111.036L-32.6235 -96.0944ZM-129.39 40.5309L-129.366 40.6266L-121.555 62.5801L-103.034 78.111L-101.847 79.063L-101.387 80.667L-94.2327 104.701L-94.0242 105.514L-88.8174 79.564L-107.848 66.6878L-109.527 65.5593L-110.016 63.2652L-115.107 37.9878L-115.382 36.7211L-115.182 35.3689L-111.507 10.2209L-111.035 -18.1326L-111.035 -19.4888L-110.568 -20.7643L-101.207 -47.1538L-100.677 -48.5707L-81.4931 -72.4538L-70.5556 -95.5991L-70.1049 -111.842L-71.7991 -112.257L-82.7941 -114.691L-82.7974 -113.93L-83.1891 -112.748L-92.015 -86.2053L-92.3 -85.1879L-92.8773 -84.343L-108.036 -59.8552L-119.974 -35.9686L-124.983 -9.634L-125.105 -8.7561L-125.483 -7.9071L-137.109 20.1022L-129.39 40.5309Z" fill="#FFC400"/>
<path d="M-185.017 645.9L-189.755 612.32L-189.798 612.05L-189.809 611.818L-192.017 583.858L-192.1 582.738L-191.933 581.684L-187.334 554.961L-192.321 528.64L-192.53 527.448L-192.432 526.242L-189.925 498.065L-189.881 497.675L-189.809 497.245L-184.835 470.001L-185.721 454.77L-198.308 455.312L-189.685 443.325L-178.686 419.64L-178.376 419.045L-163.408 398.239L-149.42 376.819L-148.505 375.382L-147.092 374.735L-126.749 365.387L-122.783 336.91L-122.132 332.384L-118.555 331.444L-95.1829 325.212L-88.8012 299.88L-87.8158 295.958L-84.595 295.267L-61.1806 289.964L-58.7488 289.464L-56.7577 291.388L-39.3416 308.415L-20.4152 323.59L-20.2568 323.699L-20.1272 323.848L-2.54131 339.898L17.875 350.779L19.917 351.809L20.8308 354.325L30.6123 380.812L53.9421 379.001L55.8694 378.874L57.5005 380.31L75.9799 396.435L76.7139 397.06L77.2149 397.929L91.3779 420.958L109.419 435.554L111.907 437.609L112.017 441.325L112.775 466.445L112.782 466.6L112.757 466.717L112.754 493.965L120.011 519.6L129.151 546.156L129.191 546.348L129.227 546.462L137.347 573.53L138.07 575.9L137.385 578.334L129.622 605.668L136.923 630.254L137.218 631.326L137.239 632.449L138.201 660.002L138.351 663.251L136.455 665.392L119.954 684.214L119.838 684.375L119.72 684.458L102.477 701.841L102.156 702.205L101.8 702.454L82.6749 716.28L82.4079 716.486L82.1379 716.615L62.2656 727.531L45.2507 743.857L44.1623 744.876L42.8257 745.17L20.0636 749.979L2.888 763.483L-12.7018 782.767L-13.9202 784.296L-15.6243 784.607L-35.623 788.784L-38.2062 789.329L-40.2116 787.096L-57.209 768.5L-57.4034 768.276L-73.6905 748.445L-74.0145 748.072L-74.2485 747.657L-87.667 725.484L-106.385 712.161L-107.052 711.688L-107.606 710.977L-123.403 691.123L-140.664 673.469L-156.96 656.778L-180.391 651.733L-184.327 650.868L-185.017 645.9ZM-153.808 643.261L-152.353 643.542L-151.194 644.729L-144.331 651.816L-145.13 650.458L-160.316 625.227L-161.979 622.435L-161.275 619.07L-155.682 593.27L-165.039 568.003L-165.499 566.668L-165.563 565.275L-166.515 537.296L-166.554 535.786L-166.157 534.411L-157.88 508.255L-163.959 482.876L-164.149 482.071L-164.288 479.054L-163.48 477.273L-159.272 468.048L-156.567 462.148L-151.81 465.495L-132.238 479.361L-131.698 479.762L-131.215 480.244L-118.463 494.617L-120.184 491.906L-134.928 469.601L-146.337 463.072L-148.265 465.835L-155.686 457.301L-152.57 451.654L-153.024 451.132L-149.999 446.846L-149.678 445.823L-149.455 446.007L-145.082 439.681L-144.794 439.28L-144.473 438.917L-128.719 422.532L-122.772 394.429L-122.046 390.868L-119.308 389.696L-96.8855 380.174L-83.5655 361.576L-73.2854 334.94L-70.9264 328.862L-65.9747 331.774L-42.4691 345.768L-20.6183 355.149L-19.3974 355.674L-18.4866 356.795L-2.8692 376.076L17.2594 386.04L19.1753 386.998L20.1685 389.239L31.2403 414.427L53.2677 416.319L55.9478 416.544L57.517 419.301L71.7159 444.422L74.3899 449.183L71.2649 453.28L65.8863 460.427L52.2218 483.537L51.4539 484.852L50.2611 485.604L31.2311 497.489L16.4112 518.83L14.5726 521.55L11.7306 521.139L-11.3626 518.094L-28.0067 527.814L-28.8139 528.278L-29.6353 528.432L-52.6994 532.014L-51.9576 532.794L-33.6389 552.764L-32.1555 554.323L-31.7676 556.747L-26.6713 587.442L-26.5132 588.21L-26.5387 588.987L-26.9275 617.183L-26.9496 618.037L-27.0976 618.819L-32.5503 645L-29.6495 671.998L-29.4953 673.347L-29.7697 674.717L-35.3271 701.29L-33.9933 728.244L-44.5569 731.405L-47.2551 724.126L-69.1386 715.367L-70.1933 713.788L-83.7676 693.561L-106.164 687.655L-109.269 686.867L-110.333 683.079L-118.281 655.771L-141.072 653.294L-143.074 653.115L-133.767 662.647L-116.344 680.488L-116.089 680.709L-115.894 680.932L-100.418 700.49L-81.3823 714.032L-80.3668 714.76L-79.6361 715.967L-65.9478 738.67L-49.891 758.162L-35.0863 774.457L-19.3712 771.214L-4.6284 752.86L-4.1922 752.336L-3.68771 751.964L14.969 737.306L15.8844 736.528L16.9508 736.362L39.4426 731.683L55.8953 715.809L56.4251 715.319L57.0232 714.981L77.0179 704.06L95.8189 690.52L112.679 673.503L127.021 657.106L126.193 633.811L118.522 607.846L117.767 605.439L118.485 603.042L126.222 575.825L118.965 551.509L109.749 524.646L109.648 524.457L109.605 524.188L101.946 497.138L101.615 495.952L101.619 494.711L101.676 466.647L101.06 445.28L84.7049 431.963L83.8769 431.304L83.2789 430.324L69.0866 407.334L52.9695 393.193L27.7125 395.132L23.8902 395.424L22.2426 390.965L11.6983 362.575L-7.1154 352.512L-7.71321 352.19L-8.2245 351.749L-26.2209 335.446L-45.1185 320.232L-45.3741 320.011L-45.5974 319.827L-61.4364 304.394L-79.2052 308.352L-85.5651 333.49L-86.5288 337.217L-89.6201 338.057L-112.473 344.226L-116.349 372.001L-116.876 375.863L-119.791 377.199L-141.695 387.316L-154.8 407.261L-154.854 407.418L-169.388 427.623L-175.386 440.651L-175.025 447.146L-173.682 470.301L-173.632 471.384L-173.831 472.401L-178.971 500.7L-178.939 500.737L-181.293 526.892L-176.231 553.519L-175.976 555.057L-176.211 556.619L-180.875 583.926L-178.753 610.689L-178.781 610.729L-174.79 638.762L-153.808 643.261ZM-11.5433 735.311L-13.7951 707.081L-13.8378 706.153L-13.7581 705.219L-10.1968 679.28L-17.9393 652.427L-18.8096 649.522L-17.6771 646.795L-6.8932 621.105L-6.89491 595.756L-6.89101 595.175L-6.82231 594.668L-3.37541 566.912L-2.97391 563.638L-0.685608 562.021L17.0622 549.614L27.4744 525.181L27.7522 524.548L28.0947 523.99L42.6554 502.35L43.344 501.31L44.2665 500.687L64.0427 487.682L64.194 487.637L64.3129 487.554L83.1769 476.724L83.9809 474.865L91.8829 456.555L94.3109 477.296L100.354 503.878L100.544 504.683L100.583 505.534L101.513 533.708L101.542 534.327L101.448 534.951L98.3069 562.693L103.038 588.792L103.2 589.638L103.149 590.532L102.692 617.917L102.685 618.421L102.616 618.928L99.9619 638.585L99.8099 639.949L99.2469 641.06L87.0159 665.964L86.3699 667.273L85.3359 668.135L67.3098 682.492L51.7919 702.005L50.8619 703.134L49.5972 703.657L29.3191 711.762L16.1203 732.99L15.0063 734.785L13.2841 735.368L-4.4138 741.533L-10.8487 743.728L-11.5433 735.311ZM-129.349 457.483L-128.121 458.163L-127.325 459.445L-113.568 480.322L-90.5299 478.835L-88.8151 478.756L-87.3531 479.851L-68.0842 494.467L-67.3208 495.052L-66.7269 495.955L-51.8529 517.75L-32.1393 514.71L-14.8717 504.535L-13.4988 503.697L-11.9535 503.935L9.81409 506.847L23.4516 487.149L24.1402 486.11L25.124 485.483L44.0098 473.799L56.9315 451.886L57.101 451.568L57.3317 451.248L60.0533 447.711L50.098 430.108L27.6347 428.081L24.5837 427.795L23.076 424.376L11.4967 398.166L-7.75661 388.549L-8.82271 388.055L-9.63631 387.046L-25.2465 367.921L-46.0672 358.919L-46.3482 358.815L-46.6327 358.635L-65.6223 347.416L-73.9364 368.768L-74.2646 369.636L-74.7549 370.318L-89.4556 390.917L-90.4073 392.24L-91.7296 392.844L-112.765 401.836L-118.412 428.453L-118.867 430.567L-120.215 431.947L-136.985 449.58L-138.77 452.142L-129.349 457.483ZM8.3949 722.493L21.5937 701.265L22.6213 699.59L24.1886 698.975L44.7729 690.856L59.7393 672.027L60.1754 671.503L60.6475 671.094L78.1729 657.186L89.2539 634.621L91.5969 616.878L92.0539 590.81L87.2329 564.094L86.9879 562.788L87.1439 561.502L90.4219 533.405L89.5309 506.741L85.9079 490.706L69.076 500.358L50.5503 512.529L37.053 532.608L26.1395 558.149L25.3929 559.928L23.9947 560.884L7.2054 572.781L4.2504 596.561L4.24429 623.072L4.23259 624.817L3.62669 626.318L-6.68481 650.94L0.723297 676.529L1.23389 678.288L0.980896 680.122L-2.68192 707.189L-1.14941 725.801L8.3949 722.493ZM-114.935 498.602L-94.2143 506.097L-92.1217 506.892L-90.9413 509.202L-78.9324 533.416L-57.1551 531.211L-58.2098 529.632L-74.4949 505.848L-91.4412 493.024L-115.553 494.522L-118.366 494.729L-114.935 498.602ZM-113.969 642.123L-110.36 642.538L-109.119 646.822L-101.05 674.783L-79.838 680.279L-77.8822 680.77L-76.5971 682.688L-62.8212 703.293L-46.0016 710.038L-46.4616 700.718L-46.5151 699.558L-46.2876 698.501L-40.7773 672.239L-43.7358 645.321L-43.89 643.972L-43.6155 642.603L-38.0329 615.911L-37.6594 589.383L-42.2458 561.765L-57.335 545.289L-81.2198 547.708L-84.6422 548.02L-86.4992 544.346L-99.1199 518.842L-119.001 511.58L-120.251 511.095L-121.22 510.054L-137.95 491.252L-152.318 481.1L-152.679 481.93L-146.719 506.733L-146.118 509.108L-146.844 511.351L-155.388 538.373L-154.532 563.604L-144.761 589.859L-143.916 592.224L-149.83 619.705L-137.895 639.659L-113.969 642.123Z" fill="#F63609"/>
<path d="M-38.232 895.14L-31.3533 870.872L-30.8312 868.986L-29.318 867.979L-11.4299 855.77L4.37717 839.153L4.96497 838.519L5.73396 838.181L26.0905 828.431L26.369 828.293L46.3148 820.375L60.3178 801.869L61.1807 800.671L62.5642 800.242L84.1149 793.112L104.283 783.542L104.885 783.286L105.555 783.168L128.755 779.504L141.148 773.917L139.741 771.36L130.534 755.238L145.08 761.903L168.855 764.507L170.164 764.628L171.333 765.377L193.649 778.896L193.739 778.938L214.945 792.108L238.17 797.383L238.731 797.533L262.311 805.415L264.531 806.114L266.024 808.286L283.379 833.773L304.7 838.707L331.164 843.447L332.799 845.205L344.902 858.35L345.826 859.305L346.35 860.501L360.409 890.749L361.706 893.575L360.866 896.219L353.596 919.138L357.623 945.109L358.035 947.688L356.809 949.624L343.828 970.19L349.394 995.49L349.578 996.21L349.607 996.97L350.251 1023.67L350.258 1024.52L350.085 1025.29L344.731 1050.05L343.688 1075.45L343.561 1076.45L338.959 1100.06L346.023 1126.84L346.645 1129.15L345.911 1131.09L337.722 1153.7L341.838 1179.5L341.922 1180.23L341.916 1180.91L341.159 1207.24L341.055 1211.02L338.056 1212.25L315.894 1221.44L305.351 1243.28L305.065 1243.9L304.666 1244.35L289.564 1262.46L289.087 1263.04L288.464 1263.39L269.59 1275.36L251.229 1288.57L250.695 1288.97L250.048 1289.2L227.986 1296.84L227.875 1296.9L206.065 1303.85L189.551 1315.9L179.411 1339.25L178.927 1340.31L178.172 1341.02L161.259 1356.39L159.205 1358.27L156.391 1357.35L136.477 1350.77L136.197 1350.7L135.928 1350.58L111.812 1340L111.318 1339.78L88.2049 1327.38L86.7449 1326.61L85.6829 1325.16L68.6697 1301.9L68.5908 1301.81L68.4777 1301.66L53.8152 1280.06L29.2102 1275.64L26.164 1275.09L24.3499 1271.92L9.63246 1246.16L-7.61813 1226.83L-27.994 1212.6L-51.4242 1202.51L-75.828 1192.33L-82.4924 1189.6L-80.2303 1182.82L-70.1291 1153.02L-76.1676 1125.86L-76.8161 1123.01L-75.4909 1120.86L-62.3701 1099.66L-55.843 1077.62L-59.0922 1051.05L-59.3192 1049.2L-58.6715 1047.63L-49.8598 1026.01L-53.4092 999.67L-53.5987 998.31L-53.3177 997.05L-47.7575 972.93L-46.2238 947.326L-46.2271 946.9L-46.1298 946.466L-41.6255 921.748L-41.6704 921.728L-38.385 895.601L-38.232 895.14ZM-29.9412 925.72L-29.9844 925.913L-29.972 926.078L-34.5087 950.941L-35.9527 976.58L-35.9926 977.2L-36.1115 977.73L-41.5544 1001.12L-37.8437 1028.06L-37.5827 1029.98L-38.2411 1031.6L-47.2091 1053.26L-43.9292 1079.47L-43.7271 1081L-44.1303 1082.35L-51.3234 1106.48L-51.552 1107.28L-51.9386 1107.9L-64.1208 1127.55L-58.1895 1153.87L-57.7597 1155.92L-58.3607 1157.72L-66.8225 1182.64L-49.1063 1189.96L-49.0166 1190.01L-24.7782 1200.47L-24.1838 1200.69L-23.5877 1201.13L-1.97473 1216.24L-1.28893 1216.71L-0.657036 1217.42L17.7784 1238.09L18.3761 1238.74L18.8409 1239.54L32.1981 1262.98L56.4331 1267.28L59.1992 1267.75L60.9867 1270.38L77.4259 1294.65L93.0939 1316.18L114.848 1327.79L138.325 1338.12L155.031 1343.55L169.023 1330.83L179.339 1307.13L179.922 1305.85L180.99 1305.07L199.272 1291.76L199.872 1291.29L200.564 1291.08L222.898 1283.99L244.268 1276.56L262.117 1263.65L262.34 1263.54L280.925 1251.75L295.085 1234.75L306.224 1211.8L307.049 1210.11L308.688 1209.42L329.389 1200.79L330.056 1178.83L325.821 1152.02L325.504 1150.12L326.107 1148.54L334.098 1126.37L327.216 1100.1L326.767 1098.36L327.078 1096.75L331.852 1072.15L333.037 1046.34L333.067 1045.77L333.185 1045.24L338.419 1020.8L337.766 995.9L331.792 968.451L331.155 965.555L332.525 963.419L345.604 942.63L341.718 917.575L341.459 915.862L341.939 914.382L348.815 892.557L336.632 866.304L327.023 855.95L304.803 851.933L304.512 851.906L280.423 846.288L277.88 845.708L276.206 843.24L258.514 817.491L237.242 810.349L237.232 810.397L213.671 805.075L212.674 804.884L211.719 804.287L189.467 790.478L168.41 777.747L155.504 776.35L158.395 781.341L152.722 783.897L134 792.322L133.443 792.598L132.828 792.689L109.618 796.401L89.8949 805.75L89.6169 805.889L89.3489 805.978L68.813 812.776L55.0436 831.123L54.2131 832.177L53.02 832.64L31.8704 841.07L31.8255 841.049L12.5614 850.343L-3.04613 866.732L-3.42363 867.09L-3.83513 867.38L-20.6449 878.754L-26.8054 900.482L-29.9412 925.72ZM158.197 814.675L161.021 814.003L163.633 813.393L166.053 815.405L187.25 833.035L207.56 846.007L230.964 848.495L231.401 848.536L231.77 848.652L255.708 854.944L256.459 855.128L257.121 855.485L279.718 867.752L302.54 880.122L304.618 881.233L305.788 883.523L318.375 908.633L319.579 910.991L319.184 913.414L315.323 937.47L323.992 963.495L324.622 965.324L324.322 967.1L320.343 993.23L320.194 994.12L319.875 994.87L309.619 1017.65L308.01 1042.26L308.12 1067.81L312.044 1094.91L312.116 1095.47L312.098 1095.99L312.182 1122.55L312.183 1122.76L312.174 1123.02L310.588 1149.08L310.416 1151.39L309.007 1152.82L302.117 1159.91L300.064 1162L297.06 1161.05L272.225 1153.02L270.241 1152.38L268.817 1150.56L252.697 1129.94L228.723 1126.02L225.811 1125.54L223.977 1122.68L209.066 1099.32L184.849 1091.62L180.925 1090.36L179.839 1085.93L172.749 1057.28L155.429 1037.6L152.777 1034.63L153.453 1030.95L158.045 1004.52L156.583 980.58L150.063 953.359L149.959 952.939L149.9 952.54L146.199 925.338L145.855 922.896L146.959 921.063L159.82 899.484L155.097 874.629L155.027 874.278L155.002 873.948L152.107 846.903L152.023 846.173L152.084 845.458L154.358 820.09L154.369 820.041L154.434 815.555L158.197 814.675ZM-19.6337 1171.8L0.0675659 1161.22L0.468369 1160.98L0.892365 1160.85L21.0419 1154.67L34.8195 1134.52L35.3948 1133.72L36.1514 1133.22L55.1103 1120.65L55.5667 1120.38L56.0573 1120.18L77.2339 1112.3L78.8059 1111.69L80.5999 1112.3L105.614 1120.41L125.418 1112.91L125.741 1112.79L126.109 1112.69L148.361 1107.96L148.886 1107.82L149.423 1107.86L173.614 1107.94L176.578 1107.97L178.69 1110.69L196.731 1133.79L214.88 1152.2L237.391 1161.98L238.883 1162.61L240.023 1163.93L256.841 1183.65L280.592 1189L286.9 1190.46L286.294 1197.35L285.829 1202.3L285.592 1204.9L283.802 1206.26L283.735 1206.33L283.725 1206.38L267.94 1221.57L254.414 1241.04L253.772 1241.91L252.915 1242.43L233.479 1254.03L232.9 1254.4L232.219 1254.57L210.664 1259.73L199.076 1279.61L198.116 1281.24L196.465 1281.76L174.757 1288.92L156.602 1301.22L154.098 1302.89L151.155 1301.23L131.117 1290.13L130.903 1289.98L130.634 1289.86L110.556 1276.51L86.0449 1268.36L85.3159 1268.08L84.6189 1267.66L62.4772 1253.58L61.5669 1253L60.856 1252.2L42.4207 1231.53L41.9468 1230.99L41.5502 1230.33L26.3847 1205.9L8.63437 1189.9L-16.5484 1184.53L-35.6928 1180.49L-19.6337 1171.8ZM163.917 848.329L166.635 874.177L171.913 901.411L172.404 904.08L171.201 906.133L158.141 927.94L161.415 951.971L168.129 979.65L168.313 980.37L168.363 981.03L169.928 1006.73L169.979 1007.6L169.851 1008.39L165.707 1031.95L181.775 1050.15L183.117 1051.67L183.603 1053.7L190.082 1079.99L212.785 1087.15L215.195 1087.89L216.69 1090.27L231.296 1113.22L254.99 1117.07L257.476 1117.46L259.239 1119.76L275.653 1140.83L295.409 1147.22L298.881 1143.66L300.354 1120.32L300.264 1094.45L296.396 1067.33L296.324 1066.77L296.343 1066.24L296.203 1039.72L296.221 1039.19L297.953 1013.15L298.022 1011.96L298.495 1010.96L308.706 988.16L312.38 964.498L303.733 938.377L303.114 936.499L303.413 934.723L307.168 911.362L296.854 890.907L276.144 879.718L254.299 867.848L231.437 861.837L207.07 859.227L205.716 859.085L204.423 858.227L182.247 844.081L181.899 843.868L181.527 843.538L165.498 830.242L163.917 848.329ZM10.5698 1177.08L12.2276 1177.42L13.6244 1178.69L33.6044 1196.67L34.4716 1197.44L35.0835 1198.46L50.3637 1223.27L67.6825 1242.73L88.2279 1255.76L112.929 1263.94L113.714 1264.2L114.49 1264.71L135.299 1278.55L151.81 1287.71L168.086 1276.73L168.62 1276.34L169.256 1276.15L189.781 1269.4L201.569 1249.29L202.617 1247.49L204.548 1247.05L227.32 1241.54L245.265 1230.84L258.548 1211.79L258.835 1211.39L259.157 1211.06L270.601 1199.99L254.345 1196.32L252.272 1195.85L250.659 1193.99L233.356 1173.79L211.126 1164.08L209.869 1163.51L208.854 1162.51L189.499 1142.85L189.183 1142.5L188.912 1142.16L172.578 1121.39L151.865 1121.25L130.763 1125.72L109.387 1133.83L107.77 1134.42L105.965 1133.86L80.9059 1125.72L61.882 1132.84L44.0463 1144.6L29.9037 1165.27L28.9418 1166.69L27.4021 1167.15L6.18167 1173.69L2.90767 1175.48L10.5698 1177.08ZM-29.2382 1005.8L-20.0739 983.49L-18.4129 958.422L-18.3256 956.708L-17.4411 955.413L-4.06583 935.291L-3.24043 910.641L-3.11073 907.194L-0.426231 905.82L15.3361 897.791L31.4391 881.842L32.0053 881.304L32.6181 881.001L51.8123 871.356L66.7722 853.661L67.3708 852.979L68.1057 852.572L87.6489 841.812L105.224 828.131L105.646 827.793L106.192 827.565L126.354 818.683L130.473 816.213L133.987 820.852L141.705 831.031L143.649 833.622L143.36 836.678L140.811 862.61L140.789 862.707L140.812 862.824L137.524 888.524L137.579 888.496L134.795 914.374L134.763 914.519L134.786 914.635L131.234 939.524L134.456 965.55L134.648 967.126L134.234 968.53L126.613 992.35L126.819 1017.26L130.582 1043.75L131.233 1048.35L127.745 1049.99L109.549 1058.5L102.798 1084.85L101.941 1088.23L98.8239 1088.66L75.3759 1092.1L57.976 1105.23L56.4088 1106.47L54.3146 1106.1L29.7578 1102.13L14.6108 1117.35L14.4221 1117.53L14.2442 1117.66L-3.70293 1132.34L-3.74783 1132.32L-21.3898 1147.4L-31.122 1155.69L-31.3391 1140.77L-31.6194 1114.87L-31.6552 1114.59L-31.6352 1114.28L-29.9269 1088.12L-29.9103 1087.38L-29.7141 1086.73L-22.9309 1063.11L-20.8576 1039.29L-29.4136 1010.56L-30.1718 1007.98L-29.2382 1005.8ZM-9.26723 1038.39L-8.84233 1039.8L-8.96533 1041.24L-11.2232 1067.2L-11.2739 1067.86L-11.4593 1068.47L-18.2533 1092.14L-19.8477 1117.13L-19.6964 1127.93L-11.6752 1121.08L-11.6087 1121.01L5.97177 1106.64L22.8389 1089.71L24.5591 1088L27.0449 1088.4L51.9159 1092.51L68.6816 1079.79L69.6269 1079.11L70.8109 1078.91L92.2479 1075.82L98.8149 1050.29L99.4669 1047.82L101.517 1046.85L118.255 1039.11L115.116 1016.68L115.041 1015.69L114.801 989.17L114.758 988.04L115.075 987.07L122.553 963.657L119.435 938.05L119.315 937.038L119.465 936.151L123.057 910.643L125.852 884.717L125.863 884.668L125.829 884.6L129.051 858.975L131.265 836.078L128.735 832.793L112.362 840.01L94.9649 853.56L94.6649 853.795L94.3759 853.981L75.3559 864.396L60.4513 882.063L59.8419 882.794L59.0064 883.208L39.5228 893.038L23.4755 908.96L22.9542 909.518L22.3414 909.822L8.42816 916.891L7.73497 939.848L7.66006 941.727L6.71976 943.05L-6.78844 963.323L-8.30893 987.76L-8.40123 988.83L-8.81853 989.81L-17.5006 1010.86L-9.26723 1038.39Z" fill="#06C0F9"/>
<path d="M212.835 -79.1176L225.059 -104.846L214.89 -125.286L214.078 -127.011L214.338 -128.939L217.877 -153.874L210.729 -174.894L209.681 -177.879L211.51 -180.678L225.985 -202.449L226.474 -203.216L227.173 -203.813L246.511 -221.005L258.141 -243.216L267.845 -266.843L274.36 -292.999L274.781 -294.751L276.071 -296.08L294.419 -315.419L294.971 -315.996L295.68 -316.445L316.936 -330.229L319.463 -356.214L319.865 -360.352L323.707 -361.896L332.254 -365.356L323.154 -371.22L341.535 -373.846L342.181 -373.789L365.51 -372.047L387.9 -385.844L389.51 -386.82L391.336 -386.832L415.546 -386.609L439.351 -394.289L441.527 -394.948L443.509 -394.137L467.647 -384.351L490.41 -390.688L491.332 -390.919L492.222 -390.897L515.161 -390.492L537.282 -408.131L541.161 -411.273L544.915 -408.426L565.2 -393.014L567.544 -391.259L567.51 -388.219L567.197 -363.744L579.405 -343.098L580.025 -341.993L580.164 -340.719L582.829 -316.023L589.825 -292.941L598.612 -269.667L598.978 -268.674L599.005 -267.584L599.288 -242.348L605.988 -219.274L606.117 -218.844L606.197 -218.408L609.497 -193.803L615.284 -169.652L615.371 -169.117L615.409 -168.575L616.846 -144.5L629.693 -123.896L630.477 -122.565L630.587 -120.988L631.89 -95.3017L631.841 -95.2947L634.852 -70.5984L634.946 -69.9649L634.893 -69.3105L633.023 -45.2106L632.91 -44.0003L632.396 -42.882L621.361 -19.2141L621.099 -18.7289L620.833 -18.2928L606.114 3.51331L605.803 4.00549L605.436 4.40619L587.793 23.2466L579.35 46.5443L579.353 46.5935L570.249 71.031L561.832 96.116L560.971 98.627L558.644 99.954L534.886 113.25L535.037 138.703L535.039 140.146L534.392 141.482L523.514 165.277L522.402 167.725L519.957 168.771L492.863 180.254L490.082 181.447L487.566 180.065L467.092 169.009L442.46 176.16L440.379 176.756L438.449 175.987L415.532 166.723L392.668 161.033L368.076 159.571L343.094 160.304L340.678 160.351L338.986 158.752L319.981 141.167L296.631 144.055L296.582 144.062L270.574 147.081L267.589 147.458L265.559 145.26L247.757 125.811L247.059 125.015L246.641 123.981L237.53 100.305L237.112 99.27L237.13 98.123L236.93 73.374L230.447 49.8698L229.925 48.0536L230.535 46.1754L238.532 21.4487L225.717 1.28781L225.162 0.4216L224.943 -0.59201L219.576 -25.1008L219.197 -26.9872L219.904 -28.8794L229.305 -53.309L213.506 -72.3472L211.023 -75.3759L212.835 -79.1176ZM241.433 -59.2212L243.696 -56.5095L242.363 -52.9853L232.241 -26.8605L237.021 -5.10379L250.775 16.4656L252.277 18.888L251.342 21.7581L243.016 47.4274L249.276 69.8683L249.477 70.636L249.487 71.48L249.621 95.99L257.945 117.589L273.024 134.093L296.045 131.451L322.081 128.129L324.871 127.78L326.824 129.591L346.049 147.493L369.16 146.828L369.404 146.793L369.704 146.85L394.691 148.305L395.236 148.327L395.788 148.447L419.807 154.42L420.208 154.511L420.564 154.66L441.858 163.31L466.923 155.997L469.343 155.303L471.5 156.488L491.52 167.41L513.34 158.173L522.415 138.267L522.327 110.168L522.344 106.185L525.907 104.184L550.853 90.221L558.364 67.7032L558.447 67.4922L567.594 42.9497L567.59 42.9005L576.625 18.1749L577.073 16.8172L578.087 15.7768L596.191 -3.5275L610.232 -24.4406L620.588 -46.5188L622.337 -68.8104L619.389 -93.3166L619.358 -93.76L618.12 -117.814L605.318 -138.475L604.538 -139.756L604.431 -141.283L602.869 -166.436L597.26 -190.164L597.19 -190.452L597.17 -190.748L593.834 -215.149L587.037 -238.906L586.783 -239.716L586.773 -240.56L586.416 -265.437L578.086 -287.831L577.974 -288.014L577.96 -288.211L570.665 -312.046L570.525 -312.623L570.439 -313.158L567.881 -337.024L555.447 -358.085L554.603 -359.557L554.629 -361.302L554.843 -384.369L540.657 -395.179L520.639 -379.234L518.77 -377.723L516.448 -377.739L492.127 -378.146L468.148 -371.535L466.063 -370.989L464.185 -371.716L440.201 -381.425L417.65 -374.173L416.634 -373.878L415.645 -373.886L392.134 -374.01L369.549 -360.185L367.753 -359.033L365.718 -359.19L352.416 -360.176L348.047 -358.407L331.484 -351.662L329.089 -326.592L328.776 -323.313L325.991 -321.472L302.518 -306.227L286.05 -288.948L279.801 -263.923L279.689 -263.41L279.521 -262.988L269.393 -238.355L269.264 -238.088L269.138 -237.771L256.889 -214.527L256.326 -213.401L255.347 -212.565L235.642 -194.973L223.583 -176.781L230.269 -157.436L230.763 -156.014L230.524 -154.487L227.006 -129.952L237.691 -108.492L239.067 -105.753L237.689 -102.869L225.805 -77.9355L241.433 -59.2212ZM364.113 -327.068L371.199 -328.826L371.259 -329.382L373.091 -329.296L376.388 -330.165L376.395 -330.066L376.461 -329.827L376.531 -329.538L376.551 -329.243L394.106 -328.865L416.674 -342.936L417.478 -343.449L418.396 -343.729L443.182 -350.803L444.345 -351.118L445.539 -350.99L469.425 -348.333L492.565 -357.759L493.91 -358.299L495.299 -358.199L522.507 -356.762L525.282 -356.612L526.918 -354.407L541.947 -333.667L542.602 -332.765L542.877 -331.66L548.742 -308.516L563.206 -288.79L564.461 -287.078L564.319 -284.869L562.778 -257.482L562.789 -257.334L560.951 -233.488L579.432 -215.629L580.649 -214.459L581.067 -212.728L586.717 -188.409L587.138 -186.628L586.571 -184.855L577.398 -157.871L584.983 -136.962L598.318 -115.731L599.538 -113.816L599.159 -111.473L597.273 -99.6105L596.507 -95.0231L592.086 -93.9935L566.006 -87.7797L539.922 -81.6152L538.756 -81.349L537.558 -81.5262L513.31 -85.1272L488.772 -85.1044L486.551 -85.0857L484.915 -86.5934L464.008 -105.25L445.395 -120.055L421.916 -128.891L419.99 -129.611L418.972 -131.455L407.003 -152.931L406.605 -153.671L406.4 -154.487L400.381 -180.545L400.242 -181.122L400.197 -181.763L399.411 -207.125L392.089 -229.912L391.908 -230.384L391.822 -230.918L388.371 -255.552L381.982 -278.422L369.771 -299.814L369.318 -300.645L369.103 -301.609L366.072 -316.7L364.833 -316.772L364.113 -327.068ZM306.467 91.252L318.21 67.1348L318.553 66.3892L319.098 65.7143L335.859 45.5571L336.086 45.2758L336.317 45.0438L353.825 27.8148L361.642 2.61652L362.531 -0.197388L365.106 -1.51059L390.187 -14.2488L408.95 -29.0697L427.45 -46.9381L428.331 -47.7604L429.382 -48.2589L447.996 -56.7397L448.569 -57.0205L449.103 -57.1466L474.524 -63.6144L475.977 -64.021L477.384 -63.6747L500.904 -58.4771L525.405 -59.7385L550.536 -62.5825L550.829 -62.6244L576.231 -64.4126L578.979 -64.656L580.842 -62.7328L590.417 -52.9058L593.605 -49.6794L591.584 -46.1067L585.132 -21.1532L584.631 -19.1411L583.101 -17.7283L562.724 0.855713L546.305 18.8248L544.011 44.6273L543.958 45.2817L543.758 45.957L536.053 71.338L535.65 72.64L534.787 73.709L517.642 94.717L516.824 95.729L515.734 96.383L491.437 110.452L477.712 125.996L475.195 128.843L471.645 128.206L447.031 123.612L423.478 119.365L398.488 121.393L398.243 121.428L397.995 121.413L372.665 121.4L371.135 121.42L369.851 120.707L348.302 109.108L324.639 106.817L323.595 106.717L322.622 106.209L309.018 99.495L303.752 96.914L306.467 91.252ZM381.191 -305.973L393.279 -284.912L393.621 -284.265L393.819 -283.547L400.581 -259.585L400.709 -259.156L400.737 -258.762L404.205 -233.882L411.683 -210.968L411.941 -210.109L411.954 -209.216L412.698 -183.748L418.429 -158.992L428.983 -140.1L451.398 -131.66L452.207 -131.377L452.94 -130.785L472.443 -115.262L472.704 -115.05L491.881 -97.8382L514.788 -97.8768L515.232 -97.8904L515.682 -97.8055L539.135 -94.2898L563.954 -100.174L585.567 -105.302L586.403 -110.297L573.898 -130.254L573.567 -130.754L573.326 -131.366L564.871 -154.837L564.084 -156.914L564.819 -159.109L574.122 -186.36L569.201 -207.301L549.974 -225.949L548.013 -227.858L548.257 -230.729L550.251 -257.285L551.65 -282.462L537.835 -301.385L537.179 -302.287L536.904 -303.392L530.938 -326.571L518.204 -344.157L495.207 -345.399L471.917 -336.001L470.38 -335.384L468.837 -335.561L444.609 -338.17L421.709 -331.664L398.435 -317.094L396.779 -316.062L394.901 -316.092L379.127 -316.426L381.191 -305.973ZM327.811 94.273L351.519 96.508L352.713 96.636L353.739 97.186L374.988 108.729L398.88 108.649L424.167 106.628L425.002 106.559L425.752 106.701L450.101 111.033L450.154 111.076L471.12 115.046L483.202 101.428L483.933 100.578L484.929 99.988L508.987 86.052L524.399 67.0826L531.596 43.6146L534.076 16.2431L534.263 13.9774L535.819 12.2127L554.074 -7.75989L554.255 -7.98489L554.486 -8.21689L573.475 -25.4583L578.801 -46.022L573.482 -51.4815L550.828 -49.9366L525.505 -47.0153L525.309 -46.9874L525.11 -47.0087L499.768 -45.7764L498.982 -45.7139L498.18 -45.8977L475.315 -50.8906L452.077 -44.9834L434.899 -37.1555L416.86 -19.7512L416.629 -19.5192L416.346 -19.3295L396.877 -4.0097L396.363 -3.58801L395.742 -3.30011L372.718 8.49731L365.259 32.4505L364.734 34.1177L363.486 35.3408L344.873 53.7227L328.938 72.966L320.395 90.606L327.811 94.273ZM240.693 -104.393L252.839 -129.812L241.218 -149.845L239.363 -153.063L241.35 -156.431L254.225 -177.775L254.662 -178.584L255.358 -179.23L273.166 -196.403L278.965 -221.512L279.392 -223.165L280.535 -224.473L297.075 -243.554L307.142 -266.934L315.308 -292.083L316.001 -294.172L317.734 -295.514L338.827 -311.613L339.498 -312.605L341.615 -313.405L349.03 -316.106L356.396 -318.8L357.031 -311.129L358.368 -295.548L358.426 -294.71L358.286 -293.894L353.851 -267.637L363.933 -247.035L363.936 -246.986L363.989 -246.944L374.282 -224.731L389.653 -204.736L391.341 -202.489L390.703 -199.612L385.127 -174.137L402.167 -157.117L403.814 -155.461L403.881 -153.082L404.723 -126.932L404.747 -126.587L404.722 -126.235L402.798 -100.087L402.713 -99.1798L402.384 -98.2372L393.935 -75.7347L393.767 -75.3126L393.55 -74.8836L381.441 -52.4554L372.94 -27.1593L371.918 -24.1274L368.988 -22.9624L342.959 -12.4771L329.474 7.21219L316.996 29.2952L308.801 55.4431L308.041 57.9897L305.767 59.3595L270.888 80.264L272.688 67.8669L275.785 45.7808L264.953 24.3413L264.322 23.088L264.271 21.6524L264.107 -3.99789L264.118 -4.54681L264.181 -5.05341L268.073 -29.8901L259.557 -52.1083L259.139 -53.1432L259.154 -54.3394L259.152 -77.6744L241.521 -97.4957L238.842 -100.496L240.693 -104.393ZM270.251 -84.8825L271.751 -83.206L271.766 -80.8697L271.656 -56.3245L280.395 -33.7402L280.997 -32.1843L280.72 -30.5027L276.67 -4.3996L276.787 19.1677L287.897 41.065L288.807 42.776L288.501 44.7601L286.846 56.3906L297.651 49.9211L305.233 25.6021L305.482 24.9198L305.831 24.2727L318.834 1.21921L319.013 0.945007L319.142 0.677704L333.973 -20.9453L335.183 -22.7103L337.104 -23.4823L362.126 -33.5254L369.815 -56.3173L369.973 -56.8871L370.28 -57.4286L382.431 -79.9623L390.334 -101.093L392.194 -126.038L391.403 -149.359L373.718 -167.133L371.433 -169.443L372.187 -172.785L377.832 -198.669L363.751 -217.156L363.371 -217.649L363.085 -218.205L352.566 -240.834L341.669 -263.209L340.805 -264.977L341.159 -266.968L345.752 -294.492L345.196 -301.03L326.489 -286.814L318.859 -263.185L318.782 -262.875L318.656 -262.559L308.162 -238.222L307.687 -237.258L307.005 -236.414L290.78 -217.777L284.95 -192.414L284.498 -190.409L282.97 -188.947L264.239 -170.847L253.983 -153.708L265.427 -134.098L267.055 -131.295L265.547 -128.144L253.75 -103.373L270.251 -84.8825ZM343.445 -306.999L343.383 -307.189L343.275 -307.323L343.445 -306.999Z" fill="#FF37A5"/>
<path d="M384.838 928.789L385.006 902.724L380.337 879.21L380.064 877.948L380.331 876.481L385.356 848.475L385.682 846.671L386.684 845.061L401.835 820.711L414.87 794.941L415.265 794.238L430.36 769.347L430.641 768.905L430.928 768.511L448.388 745.18L463.893 721.074L464.095 720.772L464.342 720.449L481.339 698.059L492.129 672.322L503.011 644.788L504.152 641.824L506.61 640.246L516.704 633.761L517.095 633.472L517.541 633.26L540.269 622.178L540.893 621.882L563.993 613.459L564.177 613.423L564.405 613.366L586.287 607.17L606.987 589.264L608.447 588.005L610.095 587.636L631.656 583.294L651.777 563.445L652.455 562.763L653.203 562.305L675.71 548.233L677.911 546.881L679.845 547.459L703.007 553.907L723.179 544.809L743.12 527.262L749.472 521.725L751.119 528.936L756.315 551.22L771.577 566.31L773.567 568.306L766.047 601.103L781.46 614.059L783.215 615.599L783.052 618.512L781.358 645.661L790.766 663.886L806.526 679.256L807.049 679.781L807.41 680.538L816.942 701.283L817.553 702.643L817.41 704.412L815.395 732.074L822.86 752.767L822.91 752.795L830.333 773.973L845.111 789.807L847.016 791.895L846.092 795.581L838.213 826.744L837.479 829.567L835.39 831.536L814.89 850.895L810.734 877.354L810.259 880.415L808.062 882.694L787.732 903.673L777.799 927.303L775.059 956.546L774.752 959.424L772.799 961.793L754.555 983.9L744.211 1009.42L743.463 1011.22L742.196 1012.54L723.392 1032.44L721.455 1059.96L721.238 1062.8L719.34 1065.24L698.885 1091.28L696.655 1094.14L693.815 1094.3L672.097 1095.37L649.682 1103.62L649.141 1103.83L648.635 1103.91L625.913 1107.46L624.439 1107.7L623.294 1107.06L604.991 1096.91L583.609 1116.79L581.733 1118.56L579.637 1118.68L558.01 1120.16L535.454 1129.31L533.113 1130.21L531.35 1129.04L512.517 1116.52L491.605 1128.39L489.568 1129.51L487.788 1129.06L468.675 1124.15L446.663 1145.62L442.12 1150.09L439.14 1146.24L422.861 1125.04L422.147 1124.04L421.908 1122.65L418.243 1097.99L418.009 1096.66L418.405 1095.08L424.768 1067.78L409.632 1052.99L407.288 1050.75L408.668 1046.49L418.153 1017.25L405.678 1001.04L404.485 999.49L404.694 997.02L406.744 971.92L390.222 957.326L389.036 956.29L388.751 954.466L384.907 929.891L384.805 929.371L384.838 928.789ZM399.778 946.609L416.952 961.618L418.751 963.137L418.465 966.211L416.332 991.87L429.441 1008.75L431.233 1011.1L430.035 1014.86L420.609 1043.77L435.521 1058.2L437.56 1060.22L436.685 1063.94L429.77 1093.56L433.037 1115.32L445.621 1131.67L465.887 1111.86L468.603 1109.18L471.353 1109.94L491.297 1115.18L513.09 1102.79L515.876 1101.21L517.992 1102.63L537.19 1115.49L558.124 1106.96L558.977 1106.61L559.816 1106.57L580.192 1105.21L603.024 1083.98L606.311 1080.92L609.198 1082.55L629.204 1093.74L650.034 1090.46L672.623 1082.08L673.436 1081.79L674.181 1081.75L693.803 1080.8L710.165 1059.95L712.184 1031.87L712.439 1028.51L714.888 1025.95L734.746 1004.94L745.026 979.7L745.622 978.23L746.621 977.04L763.866 956.128L766.532 928.416L766.621 927.033L767.227 925.663L778.509 898.816L779.218 897.088L780.529 895.745L799.89 875.792L804.149 848.975L804.648 845.696L807.123 843.389L827.925 823.784L834.189 799.109L820.761 784.542L820.128 783.862L819.797 782.937L812.053 760.932L804.176 738.99L803.724 737.812L803.848 736.31L805.799 708.936L797.239 690.308L781.563 674.848L781.095 674.399L780.75 673.79L770.386 653.594L769.68 652.227L769.772 650.43L771.362 624.517L755.475 611.064L753.213 609.146L754.112 605.214L760.78 575.913L746.699 561.81L745.806 560.893L745.473 559.504L741.601 543.14L727.145 555.818L726.244 556.606L725.257 557.022L702.358 567.361L700.613 568.137L699.071 567.733L676.297 561.412L656.689 573.645L635.677 594.38L634.019 595.991L632.143 596.416L610.22 600.879L589.778 618.56L588.491 619.686L587.082 620.096L563.786 626.653L541.722 634.688L519.352 645.601L512.023 650.312L502.326 674.861L502.292 674.98L502.253 675.051L490.823 702.277L490.341 703.485L489.56 704.526L472.266 727.211L456.48 751.759L456.277 752.061L456.069 752.314L438.733 775.484L424.117 799.58L411.077 825.301L410.885 825.702L410.643 826.074L396.222 849.356L391.821 873.922L396.363 896.671L396.48 897.337L396.508 898.046L396.296 924.595L399.778 946.609ZM553.582 658.866L559.912 662.052L578.602 644.635L579.626 643.685L580.792 643.184L603.737 633.288L626.091 621.764L626.71 621.419L627.35 621.27L650.43 615.331L650.47 615.261L671.903 608.813L691.998 587.378L695.12 584.094L698.194 585.266L718.734 593.06L720.152 593.625L720.873 595.139L728.276 611.222L743.274 626.025L744.001 626.711L744.353 627.833L751.515 649.65L762.203 668.918L762.243 668.848L773.82 688.107L774.336 688.998L774.504 690.155L777.898 715.356L778.046 716.317L777.881 717.426L773.882 744.482L791.713 755.931L793.371 757.001L793.663 759.337L796.706 784.756L796.91 786.258L796.43 787.929L790.092 810.112L787.911 817.9L782.094 816.481L760.9 811.37L739.976 818.659L717.529 834.197L716.394 834.992L715.248 835.226L692.368 840.4L691.728 840.549L691.162 840.508L668.663 839.933L667.769 839.893L666.983 839.544L649.037 830.572L625.195 837.285L621.736 838.254L620.284 835.127L610.532 814.074L610.297 813.619L610.146 813.072L605.137 791.678L589.135 778.022L588.721 777.65L588.392 777.188L576.236 758.667L576.016 758.358L575.886 758.008L566.498 737.298L565.876 735.839L566.058 734L568.817 705.831L556.527 690.054L556.357 689.774L556.192 689.543L545.171 670.226L545.001 669.945L544.876 669.644L544.865 669.546L537.064 650.559L553.582 658.866ZM484.961 1078.02L498.704 1051.86L499.523 1050.29L500.805 1049.11L521.427 1030.47L534.943 1007.05L547.87 980.25L548.175 979.59L548.62 978.91L564.792 955.368L580.881 929.233L581.28 928.579L581.78 927.982L600.378 906.122L601.382 904.976L602.527 904.279L626.425 890.064L627.48 889.409L628.493 889.238L649.47 885.585L671.877 876.356L672.011 876.292L694.618 867.638L694.752 867.575L717.833 859.418L718.374 859.214L718.93 859.156L740.323 856.337L762.499 841.34L763.158 840.924L763.833 840.656L786.399 831.609L792.787 829.097L792.393 836.502L792.094 842.573L792.011 844.468L791.272 845.901L781.569 872.619L781.102 873.974L780.242 875.155L763.783 897.754L756.075 924.298L755.344 926.707L753.613 928.508L734.148 948.355L730.222 975.22L730.028 976.5L729.501 977.73L717.198 1005.11L716.321 1007.02L714.871 1008.38L693.165 1028.31L675.661 1050.32L673.718 1052.79L671.281 1053.22L648.194 1057.31L647.454 1057.4L646.743 1057.33L626.481 1054.4L604.411 1069.97L603.411 1070.7L602.319 1071.01L579.335 1077.42L577.648 1077.86L576.27 1077.22L556.23 1067.49L535.671 1072.9L512.733 1085.99L511.365 1086.8H510.054L488.025 1087.14L480.118 1087.22L484.961 1078.02ZM566.059 679.556L579.516 696.635L580.764 698.261L580.52 700.851L577.616 729.862L586.202 748.735L597.863 766.563L614.518 780.632L615.554 781.584L615.948 783.099L621.154 805.482L629.268 822.981L651.378 816.728L653.11 816.268L654.493 816.953L673.042 826.309L694.179 826.858L715.227 822.089L737.63 806.572L738.462 806.023L739.276 805.74L762.328 797.752L763.727 797.244L764.98 797.578L781.471 801.619L785.109 788.965L782.518 767.404L763.919 755.34L761.454 753.724L762.036 749.891L766.408 720.132L763.25 697.191L752.227 678.751L752.172 678.674L752.162 678.576L741.149 658.894L740.778 658.039L733.822 636.846L719.019 622.106L718.495 621.581L718.184 620.852L711.068 605.716L695.065 599.639L676.613 619.315L675.099 620.961L673.328 621.491L650.078 628.49L649.855 628.596L627.103 634.534L605.057 645.861L604.611 646.072L582.875 655.447L562.903 674.039L566.059 679.556ZM511.81 1073.18L534.218 1060.4L534.971 1059.99L535.745 1059.77L558.715 1053.68L560.353 1053.21L561.686 1053.87L581.637 1063.64L601.937 1057.99L624.957 1041.67L627.003 1040.18L629.001 1040.47L650.556 1043.66L670.376 1040.14L686.522 1019.91L686.972 1019.28L687.531 1018.81L708.128 999.92L719.101 975.49L723.264 946.863L723.734 943.753L725.975 941.453L745.95 921.107L753.446 895.229L753.926 893.558L754.994 892.124L771.701 869.202L779.545 847.541L765.018 853.293L742.273 868.663L740.96 869.543L739.624 869.764L717.402 872.718L694.862 880.67L672.433 889.239L649.624 898.659L648.995 898.906L648.438 898.963L627.839 902.644L606.191 915.534L589.096 935.65L573.408 961.132L573.245 961.364L573.126 961.575L557.116 984.89L544.54 1011.01L544.387 1011.34L544.185 1011.64L529.519 1037.05L528.73 1038.46L527.616 1039.45L507.172 1058.01L499.089 1073.39L511.81 1073.18ZM410.888 870.813L432.785 846.461L436.227 817.659L436.762 813.384L440.204 810.928L464.726 793.736L478.697 771.079L491.317 745.815L500.977 718.241L501.38 717.174L501.983 716.218L517.263 691.755L520.081 686.914L524.092 687.642L533.74 689.41L536.891 689.978L537.105 693.796L538.567 720.222L544.727 741.43L557.989 757.984L558.313 758.397L558.504 758.874L568.322 779.225L568.748 780.158L568.866 781.288L570.755 806.428L582.489 823.603L596.327 842.977L598.519 846.011L596.177 850.473L582.946 875.717L581.794 904.465L581.68 906.942L580.272 909.156L563.691 935.061L562.605 936.761L561.074 937.796L538.977 952.653L533.138 980.48L532.596 982.9L530.929 984.88L512.959 1006.03L500.504 1031.52L499.43 1033.78L497.558 1035.13L473.993 1052.08L459.534 1069.19L451.069 1079.13L450.358 1067.46L448.859 1041.57L448.838 1041.37L447.912 1016.03L441.84 993.44L441.699 992.99L437.152 968.851L437.06 968.43L437.059 967.967L435.87 944.144L419.737 928.796L417.494 926.611L418.661 922.552L426.611 894.758L410.009 881.18L405.185 877.177L410.888 870.813ZM437.367 884.762L439.928 886.848L438.693 891.145L430.6 919.368L445.834 933.749L447.141 935.038L447.278 937.241L448.464 962.818L452.884 986.19L459.191 1009.24L459.353 1009.88L459.391 1010.69L460.32 1036.96L460.276 1036.98L461.139 1051.01L467.933 1042.99L468.685 1042.12L469.557 1041.5L491.987 1025.35L503.978 1000.8L504.56 999.64L505.396 998.68L522.491 978.56L528.682 949.181L529.536 945.27L532.687 943.158L556.365 927.294L570.368 905.395L571.601 876.97L571.673 874.977L572.689 873.052L584.504 850.386L572.803 833.969L572.798 833.92L572.748 833.892L560.334 815.596L559.61 814.496L559.495 812.952L557.491 787.608L548.368 768.525L534.882 751.614L534.337 750.892L534.1 749.973L527.387 727.068L527.175 726.395L527.143 725.637L525.832 702.438L523.108 701.925L511.077 721.188L501.593 748.214L501.377 748.832L501.106 749.373L488.023 775.578L487.831 775.979L487.594 776.4L472.261 801.249L471.219 802.929L469.693 804.013L447.093 819.881L443.801 847.427L443.46 850.424L441.318 852.78L423.032 873.151L437.367 884.762Z" fill="#20CA4B"/>
<path d="M342.684 478.049L359.822 456.6L356.788 429.277L356.441 426.145L357.909 423.449L371.21 399.152L374.058 372.866L371.88 342.687L371.787 341.619L371.92 340.58L375.85 311.467L376.549 306.235L380.322 305.093L386.663 303.224L400.213 282.372L415.058 259.492L415.48 258.896L415.948 258.387L433.392 240.39L450.354 221.884L451.324 220.83L452.505 220.372L473.992 213.049L488.99 193.926L489.358 193.526L506.523 175.006L506.924 174.57L507.338 174.257L527.839 159.13L531.433 156.462L533.951 160.4L547.348 181.413L547.404 181.421L547.451 181.508L560.559 202.972L560.791 203.407L571.519 224.363L593.708 226.393L595.757 226.574L597.03 228.768L609.874 250.726L610.083 251.118L610.281 251.591L620.038 275.184L638.497 284.089L640.796 285.237L641.473 288.493L645.802 310.416L646.045 311.666L645.961 312.996L643.865 341.49L647.023 370.536L647.345 373.421L646.101 375.943L633.422 401.903L630.282 428.436L630.918 457.402L630.885 457.438L632.285 486.949L632.395 490.132L630.778 492.647L616.31 515.047L616.1 515.345L615.855 515.68L599.003 536.474L598.157 537.463L597.135 538.023L577.876 547.947L561.625 567.193L561.157 567.702L560.643 568.124L541.74 582.684L541.068 583.207L540.348 583.44L519.591 590.45L499.988 601.711L499.798 601.85L499.618 601.908L480.291 611.011L464.955 631.878L462.934 634.625L460.326 634.088L445.045 631.156L444.479 631.083L443.943 630.771L423.565 619.548L422.95 619.185L422.421 618.589L406.664 601.174L405.15 599.517L404.932 596.727L402.437 564.069L390.548 545.89L372.846 532.654L372.035 532.022L371.444 531.012L359.198 509.78L342.332 488.892L338.158 483.726L342.684 478.049ZM552.129 212.617L539.309 191.596L528.396 174.558L511.926 186.748L495.262 204.724L479.485 224.762L478.385 226.165L477 226.638L455.379 234.106L439.096 251.805L422.144 269.337L407.663 291.614L392.861 314.377L392.506 314.901L391.001 316.536L389.717 316.9L385.371 318.252L382.339 341.021L384.502 370.873L384.536 371.73L384.447 372.653L382.529 390.77L400.215 369.757L399.586 357.367L398.463 356.248L398.594 352.528L398.858 342.608L398.81 341.627L399.088 340.363L399.108 340.203L407.127 341.189L409.268 340.651L409.66 348.826L422.927 361.86L440.292 374.363L459.986 382.613L460.838 382.926L461.493 383.659L477.368 400.602L478.251 401.569L478.734 402.971L487.065 428.251L487.408 429.392L487.471 430.7L488.38 453.039L488.44 454.143L488.207 455.291L482.929 483.459L482.753 484.615L482.28 485.611L471.625 509.921L472.184 539.04L472.25 541.445L471.237 543.509L459.052 569.208L455.209 579.441L452.337 587.036L447.541 582.684L430.385 567.202L430.225 567.1L430.076 566.919L414.108 549.801L413.683 549.3L413.301 548.682L401.044 526.637L400.766 526.114L400.554 525.518L391.762 500.464L377.703 482.372L376.817 481.202L376.445 479.611L371.351 457.143L370.884 455.173L371.297 453.073L376.813 425.057L378.727 408.321L367.447 428.977L370.605 457.128L371.042 461.125L368.741 464.04L353.784 482.843L366.729 498.842L367.028 499.205L367.26 499.641L379.251 520.393L396.805 533.447L397.513 533.985L398.044 534.784L411.445 555.31L412.484 556.865L412.637 559.038L415.102 591.245L428.817 606.408L447.987 616.948L460.038 619.263L474.373 599.69L475.351 598.353L476.599 597.822L497.116 588.181L516.64 576.869L517.043 576.636L517.46 576.527L538.026 569.655L555.687 556.033L572.326 536.226L573.106 535.31L574.094 534.787L593.275 525.016L609.071 505.507L621.734 485.963L620.508 459.359L620.495 459.236L620.515 459.076L619.848 429.456L619.827 428.722L619.919 428.002L623.343 399.028L623.535 397.306L624.272 395.816L636.424 371.047L633.494 343.818L633.38 342.91L633.436 342.023L635.483 314.132L632.03 296.83L614.286 288.179L612.659 287.402L611.806 285.302L601.235 259.979L590.032 240.709L567.684 238.578L565.408 238.368L564.143 235.89L552.129 212.617ZM404.619 304.143L414.049 302.425L429.524 299.573L443.941 281.838L456.167 255.82L456.771 254.475L457.653 253.654L475.259 235.962L475.46 235.744L475.65 235.606L494.254 219.788L495.226 218.938L496.32 218.712L516.795 214.347L517.302 214.209L517.845 214.238L536.324 215.346L538.27 215.432L539.551 217.343L553.676 237.84L553.987 238.327L554.256 238.93L564.297 261.87L583.594 269.176L584.117 269.365L584.562 269.706L602.471 283.131L602.734 283.327L603.02 283.567L619.07 300.045L626.143 307.289L617.508 312.683L599.005 324.125L583.168 343.953L582.646 344.658L582.008 345.145L564.039 358.485L548.814 384.322L547.598 386.401L545.763 387.019L525.182 394.458L524.765 394.567L524.325 394.633L501.288 397.654L500.181 397.756L499.146 397.298L479.044 387.289L478.202 386.897L477.558 386.083L462.926 368.202L445.309 356.318L444.225 355.569L443.562 354.225L432.133 331.555L414.572 321.261L414.196 321.051L413.84 320.68L413.761 320.629L413.063 320.012L404.619 304.143ZM464.487 570.595L481.962 548.986L488.09 523.608L489.506 494.133L489.577 492.68L490.034 491.357L499.116 464.489L507.616 436.327L508.276 434.096L509.717 432.737L527.781 415.51L544.167 397.012L560.739 376.384L561.217 375.795L561.732 375.374L580.482 360.428L598.149 343.841L614.207 328.794L619.02 324.251L621.506 330.907L624.309 338.457L625.095 340.63L624.827 342.505L623.956 371.319L623.942 372.779L623.508 374.146L615.007 400.52L615.969 428.512L616.071 431.084L614.948 433.337L602.695 457.321L605.121 485.786L605.394 489.274L603.576 492.007L586.912 516.725L585.57 518.666L583.722 519.161L562.975 524.303L548.197 545.526L547.243 546.907L545.918 547.591L525.493 557.406L525.099 557.559L524.739 557.675L504.921 562.977L491.03 586.264L488.796 590L485.583 589.019L466.189 582.92L456.89 580.022L464.487 570.595ZM438.091 318.749L439.298 319.432L440.054 320.95L451.508 343.868L468.68 355.411L469.238 355.767L469.71 356.355L484.136 374.047L502.348 383.083L523.919 380.28L542.171 373.721L556.93 348.596L557.671 347.309L558.713 346.59L577.096 332.938L593.177 312.776L593.866 311.889L594.707 311.387L605.361 304.83L596.534 295.777L579.596 283.086L558.992 275.206L557.207 274.53L556.251 272.336L545.523 248.009L533.011 229.75L516.988 228.794L498.07 232.912L480.472 247.842L464.116 264.313L452.055 289.946L451.615 290.906L451.036 291.604L434.683 311.65L433.348 313.307L431.668 313.62L429.864 313.998L438.091 318.749ZM485.516 573.817L498.532 551.962L499.915 549.702L501.91 549.185L523.329 543.519L542.002 534.576L557.144 512.75L558.453 510.846L560.234 510.424L580.948 505.318L594.452 485.272L592.09 457.426L591.825 454.548L593.093 452.07L605.456 427.897L604.505 400.718L604.447 398.923L605.002 397.288L613.591 370.682L614.317 345.465L603.395 355.685L585.428 372.599L585.204 372.774L585.014 372.912L566.677 387.545L550.717 407.438L550.607 407.627L550.506 407.736L533.519 426.889L533.352 427.07L533.128 427.245L516.47 443.149L508.687 469.087L508.667 469.247L508.589 469.399L499.823 495.373L498.436 524.405L498.369 525.372L498.133 526.317L491.33 554.492L490.837 556.542L489.669 558.017L478.647 571.718L485.516 573.817ZM421.364 538.543L436.883 555.116L448.924 566.042L450.278 562.438L450.432 562.132L461.738 538.352L461.18 509.233L461.15 506.995L462.006 505.033L473.035 480.039L477.933 453.935L477.126 434.169L469.643 411.476L455.363 396.24L436.055 388.12L435.645 387.946L435.28 387.655L417.389 374.76L417.127 374.564L416.841 374.324L410.654 368.251L410.785 371.274L410.983 375.118L408.779 377.72L390.093 400.027L387.064 426.37L386.961 427.17L381.752 453.681L386.018 472.509L399.788 490.157L400.432 490.971L400.786 492.032L409.766 517.639L421.364 538.543Z" fill="#9D0AFF"/>
</g>
</g>
<defs>
<clipPath id="clip0_1666_6460">
<rect width="440" height="956" fill="white"/>
</clipPath>
</defs>
</svg>
