<svg width="380" height="956" viewBox="0 0 380 956" fill="none" xmlns="http://www.w3.org/2000/svg">
<g clip-path="url(#clip0_1667_6508)">
<mask id="mask0_1667_6508" style="mask-type:alpha" maskUnits="userSpaceOnUse" x="-60" y="-30" width="501" height="1016">
<path d="M-59.4258 297.496L-52.918 256.918L-56.7461 216.148L-57.1289 212.895L-56.5547 209.832L-49.4727 170.977L-58.0859 132.121L-59.043 127.91L-58.6602 123.891L-53.4922 82.738L-55.5977 40.8203L-55.7891 36.8008L-54.6406 32.9727L-43.1563 -8.1797L-21.1446 -1.8633H-20.1875L-23.4414 -22.918L16.3711 -29.2344L20.7734 -30L25.3671 -29.043L65.754 -20.4297L106.141 -19.0898L147.867 -24.2578L151.504 -24.6406L154.949 -24.2578L193.996 -17.75L234 -25.0234L237.637 -25.5977L241.273 -25.2148L283.191 -19.6641L325.109 -19.4727L367.984 -20.8125H371.047L374.109 -20.2383L412.965 -11.2422L430.191 -7.4141L431.914 10.1953L436.508 55.75L436.891 60.1523L435.742 64.5547L425.406 103.602L430.766 142.266L430.957 144.371V146.477L429.234 190.117V190.309L427.129 233.949V234.332L424.258 276.059L427.512 317.211L427.703 317.02L433.062 360.469V361.043L433.254 361.809L436.508 405.258L436.699 408.129L436.316 410.809L430 451.961L432.871 492.73L433.062 493.113V493.305L434.785 536.945V539.816L431.531 583.457H431.34V624.992L432.297 668.25V670.164L432.105 671.887L427.129 710.168L439.57 748.449L440.91 752.469L440.719 756.488L439.953 800.129V802.234L439.379 804.34L431.34 845.301L433.637 885.687L433.828 890.09L432.488 894.301L420.621 931.625L419.09 936.793L415.262 940.812L389.23 969.141L382.148 976.8L371.621 976.99L327.789 977.56L286.254 981.39L285.871 981.58H285.488L241.848 984.26H238.402L196.676 980.82L155.715 985.22L150.738 985.6L146.145 984.26L107.672 972.78L69.008 977.75L65.754 978.14L62.309 977.56L20.9648 971.63L-19.2305 975.46L-41.2422 977.37L-45.4531 955.551L-52.7265 916.313L-53.1094 913.633L-56.5547 870.184L-56.7461 867.695L-56.5547 865.398L-51.7695 824.629L-57.7031 784.434L-58.2773 780.031L-57.3203 775.82L-48.5156 735.051L-48.3242 695.047L-54.832 653.895L-55.4062 650.641L-55.0234 647.195L-50.2383 607.766L-58.8516 567.953L-60 562.594L-58.6601 557.043L-48.8985 517.422L-52.7266 478.184L-52.918 477.801V477.418L-55.9805 433.777V431.289L-54.4492 389.371L-57.5117 346.496V346.113L-59.8086 302.473L-60 299.984L-59.4258 297.496ZM-8.70317 343.434L-8.51167 343.242L-5.64057 386.883L-5.44917 388.031L-5.64057 389.18L-6.98047 431.098L-3.91797 473.973L-4.10938 474.164L0.292927 516.848L0.675827 521.059L-0.281273 525.078L-9.66017 563.359L-1.62107 601.449L-0.664074 605.277L-1.23827 609.297L-6.02347 649.301L0.293026 689.879L0.675827 691.984V693.898L0.293026 737.539V740.027L-0.281273 742.324L-8.70307 781.563L-2.96087 821.184L-2.38667 824.246L-2.76947 827.309L-7.74607 868.078L-4.49217 909.039L-1.42967 924.734L20.0078 922.629L22.8789 922.437L25.75 922.82L66.137 928.754L106.332 923.586L111.5 922.82L116.477 924.352L155.141 936.027L194.187 931.816L196.484 931.625L198.781 931.816L240.699 935.262L281.66 932.582L325.301 928.562H327.215L360.328 928.18L375.449 911.719L384.254 883.773L382.531 844.535L382.34 841.473L382.914 838.602L390.953 796.875L391.527 759.359L378.895 719.93L377.363 714.762L377.937 709.402L383.105 667.676L382.34 625.758V625.184L382.531 581.543V580.586L382.723 579.82L385.594 538.859L384.062 495.984L381 452.535L380.809 449.855L381.191 447.176L387.125 406.215L384.254 365.445L379.086 322.953L378.895 322.379V321.996L375.449 278.355L375.258 276.633L375.449 274.719L378.129 231.844V231.652L380.234 188.012V188.203L381.766 146.859L376.215 105.324L375.641 100.348L376.789 95.754L387.125 56.5156L384.828 32.5898L366.07 28.3789L325.684 29.5273H324.727L281.469 29.1445H280.129L238.785 23.9766L198.59 31.0586L194.57 31.8242L190.551 31.25L150.547 24.9336L110.16 29.7187L108.246 29.9102H106.332L62.883 28.5703H60.586L58.48 27.9961L19.4336 19.957L-1.04688 23.2109L-6.59767 42.1602L-4.49217 81.973V84.078L-4.68357 86.184L-9.46877 125.613L-0.664074 165.234L0.292927 169.828L-0.472672 174.613L-7.74607 215.383L-4.10938 255.387L-3.72657 258.449L-4.30077 261.512L-10.8086 302.09L-8.70317 343.434Z" fill="black"/>
</mask>
<g mask="url(#mask0_1667_6508)">
<path d="M-176.778 13.6245L-164.27 -16.3658L-159.153 -43.2454L-158.961 -44.4312L-158.401 -45.5383L-145.658 -70.9314L-145.256 -71.6847L-130.575 -95.3256L-122.419 -119.836L-121.751 -147.424L-121.676 -150.23L-119.871 -152.478L-106.208 -169.834L-115.123 -175.962L-104.624 -181.461L-83.9578 -197.819L-83.5886 -198.121L-83.1634 -198.398L-61.0592 -211.276L-59.584 -212.103L-58.0439 -212.096L-35.6683 -211.335L-19.3477 -234.966L-16.7497 -238.769L-13.1302 -238.005L10.5555 -233.101L27.614 -252.887L29.5001 -255.014L31.8767 -255.228L58.151 -257.648L61.931 -258L63.136 -254.073L70.285 -230.254L79.535 -207.914L79.628 -207.746L79.677 -207.554L87.409 -184.746L100.057 -165.217L101.302 -163.264L100.936 -160.631L96.891 -132.468L118.106 -122.689L119.866 -121.82L120.625 -119.83L129.079 -96.5312L129.412 -95.6203L129.426 -94.5968L130.873 -67.4657L139.677 -45.7063L139.807 -45.3944L139.892 -45.0595L146.745 -20.6507L147.076 -19.3592L146.946 -17.9341L144.915 1.6315L144.959 1.60861L142.171 29.0588L141.029 56.7325L141.022 56.8989L140.971 57.0882L138.644 84.786L138.44 87.28L136.916 89.272L119.414 112.166L117.247 137.392L117.201 137.795L117.1 138.174L111.981 165.434L111.937 165.457L108.197 192.483L107.888 194.761L106.471 196.589L87.158 221.516L85.258 223.976L82.594 224.232L59.427 226.381L59.096 226.446L58.797 226.44L36.2461 225.771L13.7252 231.217L12.3147 231.522L11.0195 231.115L-10.8714 223.534L-32.3902 226.502L-54.8315 235.163L-77.6566 248.907L-81.0513 250.956L-83.6473 248.572L-101.857 231.739L-103.08 230.643L-103.459 228.779L-108.724 203.594L-108.847 203.115L-108.882 202.591L-110.51 176.694L-120.902 156.092L-121.254 155.3L-121.431 154.416L-126.273 129.334L-133.373 105.705L-133.385 105.657L-140.066 83.275L-158.475 67.793L-159.493 66.916L-159.993 65.55L-168.303 42.2301L-168.259 42.2072L-176.97 19.2599L-178 16.5979L-176.778 13.6245ZM-78.0767 235.074L-57.9272 222.894L-57.4583 222.594L-56.9525 222.437L-33.568 213.392L-32.931 213.167L-32.3132 213.06L-9.1039 209.912L-7.9558 209.745L-6.92841 210.075L14.7507 217.603L36.6101 212.286L37.3031 212.086L37.9577 212.123L60.72 212.845L81.081 210.971L97.033 190.354L100.596 165.157L100.591 164.942L100.642 164.753L105.734 137.778L108.109 110.652L108.313 108.158L109.837 106.166L127.264 83.366L129.419 58.0923L130.574 30.4664L130.568 30.2522L130.607 30.015L133.401 2.39841L133.389 2.35062L135.257 -15.7193L128.865 -38.5245L119.821 -61.0263L119.42 -62.01L119.325 -63.1541L117.841 -90.4287L110.503 -110.731L92.033 -119.289L91.927 -117.768L89.606 -90.2374L107.953 -77.708L110.172 -76.2117L110.252 -72.9978L110.669 -45.4354L120.475 -24.7979L123.774 -17.7358L116.465 -14.5045L99.077 -6.6465L98.047 -6.21519L97.018 -6.1646L74.772 -5.25749L52.961 6.05661L50.293 7.45422L47.998 6.05161L28.6454 -5.9509L6.5051 -3.47119L5.3011 -3.32889L4.1931 -3.77959L-16.6706 -12.3862L-10.7033 12.0523L-10.3055 13.7973L-10.7688 15.6677L-18.0064 45.5027L-18.1586 46.0706L-18.3982 46.6845L-28.8745 72.79L-29.2086 73.616L-29.6669 74.344L-44.5247 97.101L-51.5832 122.99L-51.9381 124.315L-52.7288 125.489L-67.6934 148.41L-76.3655 174.004L-87.1785 171.311L-87.0963 171.051L-87.1086 171.003L-86.9757 170.554L-86.0962 167.597L-99.8249 151.402L-100.91 150.071L-101.102 148.164L-103.808 123.862L-119.192 109.727L-115.111 123.325L-114.994 123.589L-114.951 123.947L-110.257 148.455L-99.6662 169.441L-99.0726 170.595L-98.9724 171.954L-97.336 198.66L-92.5223 221.695L-78.0767 235.074ZM-100.54 -129.721L-94.7393 -134.386L-80.4106 -145.852L-86.2585 -128.79L-74.5162 -126.15L-81.2339 -148.676L-79.19 -149.801L-72.2144 -158.012L-69.9143 -156.395L-50.8292 -163.243L-32.9611 -185.677L-30.7165 -188.535L-27.7429 -188.356L-3.43149 -186.818L17.5426 -197.911L17.5863 -197.934L42.034 -210.575L46.802 -213.072L48.871 -208.295L58.341 -186.451L72.552 -167.795L73.32 -166.732L73.589 -165.299L78.109 -140.7L85.122 -130.374L89.051 -157.825L77.413 -175.93L77.023 -176.485L76.795 -177.179L68.791 -200.66L59.585 -223.022L59.467 -223.286L59.381 -223.621L53.233 -243.732L33.1719 -241.853L15.487 -221.414L12.9238 -218.444L9.8277 -219.101L-13.4223 -223.854L-29.2916 -200.784L-31.5379 -197.546L-34.7424 -197.658L-58.8576 -198.43L-79.2802 -186.541L-91.644 -176.702L-88.2307 -174.42L-93.2904 -168.026L-110.25 -146.502L-110.814 -121.41L-100.54 -129.721ZM-56.8797 186.914L-48.6507 159.978L-48.3849 159.079L-47.9073 158.232L-35.0815 135.291L-32.5616 107.764L-32.2806 104.796L-30.2072 102.625L-10.3138 81.897L0.753204 59.0636L1.1871 58.2395L1.74521 57.5132L17.6082 37.3226L19.671 34.7231L22.4274 34.636L44.678 33.9431L65.314 19.0123L65.77 18.6646L66.208 18.4355L89.261 6.742L90.355 6.16919L91.427 6.0957L114.866 4.6178L116.083 4.52341L117.159 5.0448L122.654 7.70172L126.623 9.63791L125.267 14.7977L121.098 41.5061L121.007 42.3133L111.137 69.62L110.941 70.211L110.633 70.752L97.394 95.374L92.175 121.276L92.029 122.058L91.77 122.791L81.734 147.905L75.054 167.139L74.164 169.667L72.118 171.173L49.724 187.567L48.429 188.516L24.4641 192.006L1.6098 200.991L0.260605 201.535L-1.0853 201.318L-22.4955 197.935L-44.2203 209.584L-49.3579 212.383L-51.2739 207.038L-56.8504 191.673L-57.614 189.469L-56.8797 186.914ZM-63.2486 -131.942L-48.5186 -115.131L-47.3089 -113.703L-47.1683 -111.606L-45.3573 -86.3476L-24.7066 -76.0559L-23.2135 -75.2643L-22.4727 -73.5362L-12.8866 -51.0472L-12.5469 -50.3027L-12.4259 -49.4437L-8.81219 -24.3151L8.62801 -17.0626L31.1742 -19.7006L32.8087 -19.9056L34.1145 -19.0702L52.503 -7.53929L72.857 -18.1452L74.039 -18.7638L75.211 -18.8353L97.581 -19.6447L106.696 -23.7674L99.659 -38.6383L99.097 -39.8632L99.059 -41.363L98.641 -67.1885L79.99 -79.9382L77.454 -81.7026L77.782 -85.4555L80.107 -114.128L67.908 -132.102L67.207 -133.091L66.976 -134.381L62.461 -158.766L48.692 -177.057L48.313 -177.564L48.054 -178.188L40.3613 -195.809L20.7258 -185.688L-1.64819 -173.862L-3.09189 -173.106L-4.54449 -173.159L-27.3788 -174.548L-44.3564 -153.285L-45.7105 -151.599L-47.478 -150.945L-66.8816 -143.984L-63.2486 -131.942ZM-42.3848 194.678L-24.0286 184.793L-22.3224 183.899L-20.6213 184.148L1.069 187.655L23.1113 178.987L23.736 178.714L24.3538 178.608L46.147 175.55L65.232 161.54L71.098 144.74L71.199 144.362L81.014 119.742L86.373 93.224L86.597 91.968L87.244 90.815L100.81 65.533L109.766 40.6586L113.178 18.7414L112.213 18.2698L91.175 19.6297L69.797 30.5004L47.974 46.2162L46.428 47.3509L44.757 47.4124L23.46 48.1483L10.293 64.919L-0.975189 88.129L-1.5979 89.378L-2.4937 90.335L-21.2849 109.943L-23.6494 136.141L-23.838 137.922L-24.7056 139.57L-38.0528 163.38L-45.2256 186.887L-42.3848 194.678ZM-40.7559 -58.9148L-39.3169 -57.1726L-39.4404 -54.5577L-40.7371 -27.2915L-20.0078 -17.8549L-23.7915 -44.0338L-32.3777 -64.1708L-53.9177 -75.0277L-54.4778 -75.277L-40.7559 -58.9148ZM-106.817 64.1251L-103.82 66.137L-104.719 70.568L-110.448 99.125L-94.1942 113.944L-92.7535 115.306L-92.4641 117.596L-89.7903 142.348L-80.9687 152.758L-78.1077 144.369L-77.7352 143.306L-77.1264 142.39L-62.2563 119.681L-55.2102 93.744L-54.8115 92.396L-54.0645 91.245L-38.9618 68.089L-28.9961 43.282L-22.3931 16.0041L-27.735 -5.99469L-49.5967 -15.9777L-52.6896 -17.3964L-52.5157 -21.557L-51.1879 -50.2501L-64.8223 -66.6581L-65.6783 -67.6747L-65.9902 -69.0849L-71.4502 -94.0604L-80.3897 -113.253L-86.7063 -114.665L-87.058 -101.133L-87.103 -99.3733L-87.8709 -97.7232L-99.9663 -72.1266L-100.419 -71.1839L-101.065 -70.4118L-119.12 -47.9336L-127.497 -24.2845L-127.922 3.28479L-127.943 3.78412L-128.008 4.30621L-131.605 28.5992L-127.197 50.4363L-106.817 64.1251ZM-60.6994 -101.481L-60.4402 -100.857L-60.2685 -100.188L-57.1635 -85.7532L-58.6162 -105.936L-67.7056 -116.423L-60.6994 -101.481ZM-157.466 35.1439L-157.442 35.2396L-149.63 57.1931L-131.11 72.724L-129.923 73.676L-129.462 75.28L-122.309 99.314L-122.1 100.127L-116.893 74.177L-135.924 61.3008L-137.603 60.1723L-138.092 57.8782L-143.182 32.6008L-143.458 31.3341L-143.258 29.9819L-139.583 4.83392L-139.111 -23.5196L-139.111 -24.8758L-138.644 -26.1513L-129.283 -52.5408L-128.753 -53.9577L-109.569 -77.8408L-98.6315 -100.986L-98.1808 -117.229L-99.875 -117.644L-110.87 -120.078L-110.873 -119.317L-111.265 -118.135L-120.091 -91.5923L-120.376 -90.5749L-120.953 -89.73L-136.112 -65.2422L-148.05 -41.3556L-153.059 -15.021L-153.181 -14.1431L-153.559 -13.2941L-165.185 14.7152L-157.466 35.1439Z" fill="#FFC400"/>
<path d="M-215.017 619.436L-219.755 585.856L-219.798 585.586L-219.809 585.354L-222.017 557.394L-222.1 556.274L-221.933 555.22L-217.334 528.497L-222.321 502.176L-222.53 500.984L-222.432 499.778L-219.925 471.601L-219.881 471.211L-219.809 470.781L-214.835 443.537L-215.721 428.306L-228.308 428.848L-219.685 416.861L-208.686 393.176L-208.376 392.581L-193.408 371.775L-179.42 350.355L-178.505 348.918L-177.092 348.271L-156.749 338.923L-152.783 310.446L-152.132 305.92L-148.555 304.98L-125.183 298.748L-118.801 273.416L-117.816 269.494L-114.595 268.803L-91.1806 263.5L-88.7488 263L-86.7577 264.924L-69.3416 281.951L-50.4152 297.126L-50.2568 297.235L-50.1272 297.384L-32.5413 313.434L-12.125 324.315L-10.083 325.345L-9.1692 327.861L0.612289 354.348L23.9421 352.537L25.8694 352.41L27.5005 353.846L45.9799 369.971L46.7139 370.596L47.2149 371.465L61.3779 394.494L79.4189 409.09L81.9069 411.145L82.0169 414.861L82.7749 439.981L82.7819 440.136L82.7569 440.253L82.7539 467.501L90.0109 493.136L99.1509 519.692L99.1909 519.884L99.2269 519.998L107.347 547.066L108.07 549.436L107.385 551.87L99.6219 579.204L106.923 603.79L107.218 604.862L107.239 605.985L108.201 633.538L108.351 636.787L106.455 638.928L89.9539 657.75L89.8379 657.911L89.7199 657.994L72.5799 647.998L72.2589 648.362L71.9029 648.611L52.7779 662.437L52.5109 662.643L52.2409 662.772L32.3686 673.688L15.3537 690.014L14.2653 691.033L12.9287 691.327L-9.8334 696.136L-27.009 709.64L-42.5988 728.924L-43.8172 730.453L-45.5213 730.764L-65.52 734.941L-68.1032 735.486L-70.1086 733.253L-87.106 714.657L-87.3004 714.433L-103.588 694.602L-103.912 694.229L-104.146 693.814L-117.564 671.641L-136.282 658.318L-136.949 657.845L-137.503 657.134L-153.403 664.659L-170.664 647.005L-186.96 630.314L-210.391 625.269L-214.327 624.404L-215.017 619.436ZM-183.808 616.797L-182.353 617.078L-181.194 618.265L-174.331 625.352L-175.13 623.994L-190.316 598.763L-191.979 595.971L-191.275 592.606L-185.682 566.806L-195.039 541.539L-195.499 540.204L-195.563 538.811L-196.515 510.832L-196.554 509.322L-196.157 507.947L-187.88 481.791L-193.959 456.412L-194.149 455.607L-194.288 452.59L-193.48 450.809L-189.272 441.584L-186.567 435.684L-181.81 439.031L-162.238 452.897L-161.698 453.298L-161.215 453.78L-148.463 468.153L-150.184 465.442L-164.928 443.137L-176.337 436.608L-178.265 439.371L-185.686 430.837L-182.57 425.19L-183.024 424.668L-179.999 420.382L-179.678 419.359L-179.455 419.543L-175.082 413.217L-174.794 412.816L-174.473 412.453L-158.719 396.068L-152.772 367.965L-152.046 364.404L-149.308 363.232L-126.886 353.71L-113.566 335.112L-103.285 308.476L-100.926 302.398L-95.9747 305.31L-72.4691 319.304L-50.6183 328.685L-49.3974 329.21L-48.4866 330.331L-35.57 359.576L-15.4414 369.54L-13.5255 370.498L-12.5323 372.739L-1.46051 397.927L23.2677 389.855L25.9478 390.08L27.517 392.837L41.7159 417.958L44.3899 422.719L41.2649 426.816L35.8863 433.963L22.2218 457.073L21.4539 458.388L20.2611 459.14L1.23109 471.025L-13.5888 492.366L-15.4274 495.086L-18.2694 494.675L-41.3626 491.63L-58.0067 501.35L-58.8139 501.814L-59.6353 501.968L-82.6994 505.55L-81.9576 506.33L-63.6389 526.3L-62.1555 527.859L-61.7676 530.283L-56.6713 560.978L-56.5132 561.746L-56.5387 562.523L-56.9275 590.719L-56.9496 591.573L-57.0976 592.355L-62.5503 618.536L-59.5465 618.155L-59.3923 619.504L-59.6667 620.874L-65.2241 647.447L-63.8903 674.401L-74.4539 677.562L-77.1521 670.283L-99.0356 661.524L-100.09 659.945L-113.665 639.718L-136.061 633.812L-139.269 660.403L-140.333 656.615L-148.281 629.307L-171.072 626.83L-173.074 626.651L-163.767 636.183L-146.344 654.024L-146.089 654.245L-145.894 654.468L-130.315 646.647L-111.279 660.189L-110.264 660.917L-109.533 662.124L-95.8448 684.827L-79.788 704.319L-64.9833 720.614L-49.2682 717.371L-34.5254 699.017L-34.0892 698.493L-33.5847 698.121L-14.928 683.463L-14.0126 682.685L-12.9462 682.519L9.54559 677.84L25.9983 661.966L26.5281 661.476L27.1262 661.138L47.1209 650.217L65.9219 636.677L82.7819 619.66L97.0209 630.642L96.1929 607.347L88.5219 581.382L87.7669 578.975L88.4849 576.578L96.2219 549.361L88.9649 525.045L79.7489 498.182L79.6479 497.993L79.6049 497.724L71.9459 470.674L71.6149 469.488L71.6189 468.247L71.6759 440.183L71.0599 418.816L54.7049 405.499L53.8769 404.84L53.2789 403.86L39.0866 380.87L22.9695 366.729L-2.28751 368.668L-6.1098 368.96L-7.75742 364.501L-18.3017 336.111L-37.1154 326.048L-37.7132 325.726L-38.2245 325.285L-56.2209 308.982L-75.1185 293.768L-75.3741 293.547L-75.5974 293.363L-91.4364 277.93L-109.205 281.888L-115.565 307.026L-116.529 310.753L-119.62 311.593L-142.473 317.762L-146.349 345.537L-146.876 349.399L-149.791 350.735L-171.695 360.852L-184.8 380.797L-184.854 380.954L-199.388 401.159L-205.386 414.187L-205.025 420.682L-203.682 443.837L-203.632 444.92L-203.831 445.937L-208.971 474.236L-208.939 474.273L-211.293 500.428L-206.231 527.055L-205.976 528.593L-206.211 530.155L-210.875 557.462L-208.753 584.225L-208.781 584.265L-204.79 612.298L-183.808 616.797ZM-46.2594 682.616L-43.6921 653.238L-43.7348 652.31L-43.6551 651.376L-40.0938 625.437L-47.9393 625.963L-48.8096 623.058L-47.6771 620.331L-36.8932 594.641L-36.8949 569.292L-36.891 568.711L-36.8223 568.204L-33.3754 540.448L-32.9739 537.174L-30.6856 535.557L-12.9378 523.15L-4.5 499.536L12.6554 475.886L13.344 474.846L14.2665 474.223L34.0427 461.218L34.194 461.173L34.3129 461.09L53.1769 450.26L53.9809 448.401L61.8829 430.091L64.3109 450.832L70.3539 477.414L70.5439 478.219L70.5829 479.07L71.5129 507.244L71.5419 507.863L71.4479 508.487L68.3069 536.229L73.0379 562.328L73.1999 563.174L73.1489 564.068L72.6919 591.453L72.6849 591.957L72.6159 592.464L69.9619 612.121L69.8099 613.485L69.2469 614.596L57.1189 612.121L56.4729 613.43L55.4389 614.292L37.4128 628.649L17.5484 635.025L16.6184 636.154L15.3537 636.677L-5.397 659.067L-18.5958 680.295L-19.7098 682.09L-21.432 682.673L-39.1299 688.838L-45.5648 691.033L-46.2594 682.616ZM-159.349 431.019L-158.121 431.699L-157.325 432.981L-143.568 453.858L-120.53 452.371L-118.815 452.292L-117.353 453.387L-98.0842 468.003L-97.3208 468.588L-96.7269 469.491L-81.8529 491.286L-62.1393 488.246L-44.8717 478.071L-43.4988 477.233L-41.9535 477.471L-20.1859 480.383L-6.5484 460.685L-5.8598 459.646L-4.87601 459.019L14.0098 447.335L26.9315 425.422L27.101 425.104L27.3317 424.784L30.0533 421.247L20.098 403.644L-2.36531 401.617L-4.6326 415.75L-9 407.536L-21.2041 381.666L-40.4574 372.049L-38.8227 361.591L-39.6363 360.582L-55.2465 341.457L-76.0672 332.455L-76.3482 332.351L-76.6327 332.171L-95.6223 320.952L-103.936 342.304L-104.265 343.172L-104.755 343.854L-119.456 364.453L-120.407 365.776L-121.73 366.38L-142.765 375.372L-148.412 401.989L-148.867 404.103L-150.215 405.483L-166.985 423.116L-168.77 425.678L-159.349 431.019ZM-26.3212 669.798L-13.1224 648.57L10.5294 623.876L29.8423 618.184L30.2784 617.66L30.7505 617.251L48.1729 630.722L59.2539 608.157L61.5969 590.414L62.0539 564.346L57.2329 537.63L56.9879 536.324L57.1439 535.038L60.4219 506.941L59.5309 480.277L55.9079 464.242L39.076 473.894L20.5503 486.065L7.05299 506.144L-3.8605 531.685L-4.6071 533.464L-6.00531 534.42L-22.7946 546.317L-25.7496 570.097L-32 596.608L-32.1137 601.045L-38 604.862L-36.6848 624.476L-37.4908 622.686L-36.7193 625.501L-40.3206 627.089L-37.398 654.494L-35.8655 673.106L-26.3212 669.798ZM-144.935 472.138L-124.214 479.633L-122.122 480.428L-120.941 482.738L-108.932 506.952L-87.1551 504.747L-88.2098 503.168L-104.495 479.384L-121.441 466.56L-145.553 468.058L-148.366 468.265L-144.935 472.138ZM-143.969 615.659L-140.36 616.074L-139.119 620.358L-130.947 620.94L-109.735 626.436L-107.779 626.927L-106.494 628.845L-92.7182 649.45L-75.8986 656.195L-76.3586 646.875L-76.4121 645.715L-76.1846 644.658L-70.6743 618.396L-73.7358 618.857L-73.89 617.508L-73.6155 616.139L-68.0329 589.447L-67.6594 562.919L-72.2458 535.301L-87.335 518.825L-111.22 521.244L-114.642 521.556L-116.499 517.882L-129.12 492.378L-149.001 485.116L-150.251 484.631L-151.22 483.59L-167.95 464.788L-182.318 454.636L-182.679 455.466L-176.719 480.269L-176.118 482.644L-176.844 484.887L-185.388 511.909L-184.532 537.14L-174.761 563.395L-173.916 565.76L-179.83 593.241L-167.895 613.195L-143.969 615.659Z" fill="#F63609"/>
<path d="M-59.7396 847.902L-52.8608 823.634L-52.3387 821.748L-50.8256 820.741L-32.9375 808.532L-17.1304 791.915L-16.5426 791.281L-15.7736 790.943L4.5829 781.193L4.8614 781.055L24.8072 773.137L38.8102 754.631L39.6731 753.433L41.0566 753.004L62.6073 745.874L82.7753 736.304L83.3773 736.048L84.0473 735.93L107.247 732.266L119.64 726.679L118.233 724.122L109.026 708L123.572 714.665L147.347 717.269L148.656 717.39L149.825 718.139L172.141 731.658L172.231 731.7L193.437 744.87L216.662 750.145L217.223 750.295L240.803 758.177L243.023 758.876L244.516 761.048L261.871 786.535L283.192 791.469L309.656 796.209L311.291 797.967L323.394 811.112L324.318 812.067L324.842 813.263L338.901 843.511L340.198 846.337L339.358 848.981L332.088 871.9L287.087 898.439L287.499 901.018L286.273 902.954L273.292 923.52L278.858 948.82L279.042 949.54L279.071 950.3L279.715 977L279.722 977.85L279.549 978.62L323.223 1002.81L322.18 1028.21L322.053 1029.21L317.451 1052.82L324.515 1079.6L325.137 1081.91L324.403 1083.85L316.214 1106.46L320.33 1132.26L320.414 1132.99L320.408 1133.67L319.651 1160L319.547 1163.78L316.548 1165.01L294.386 1174.2L283.843 1196.04L283.557 1196.66L283.158 1197.11L268.056 1215.22L267.579 1215.8L266.956 1216.15L248.082 1228.12L229.721 1241.33L229.187 1241.73L228.54 1241.96L206.478 1249.6L206.367 1249.66L184.557 1256.61L168.043 1268.66L157.903 1292.01L157.419 1293.07L156.664 1293.78L139.751 1309.15L137.697 1311.03L134.883 1310.11L114.969 1303.53L114.689 1303.46L114.42 1303.34L90.3043 1292.76L89.8103 1292.54L66.6973 1280.14L65.2373 1279.37L64.1753 1277.92L47.1621 1254.66L47.0832 1254.57L46.9701 1254.42L32.3076 1232.82L7.7026 1228.4L4.6564 1227.85L2.8423 1224.68L-11.8751 1198.92L-29.1257 1179.59L-49.5015 1165.36L-72.9318 1155.27L-97.3356 1145.09L-104 1142.36L-101.738 1135.58L-91.6367 1105.78L-97.6752 1078.62L-98.3237 1075.77L-96.9985 1073.62L-83.8777 1052.42L-77.3506 1030.38L-80.5998 1003.81L-80.8268 1001.96L-80.1791 1000.39L-71.3674 978.772L-74.9168 952.432L-75.1063 951.072L-74.8253 949.812L-69.2651 925.692L-67.7314 900.088L-67.7347 899.662L-67.6374 899.228L-63.1331 874.51L-63.178 874.49L-59.8926 848.363L-59.7396 847.902ZM-51.4488 878.482L-51.492 878.675L-51.4795 878.84L-56.0163 903.703L-57.4602 929.342L-57.5001 929.962L-57.619 930.492L-63.062 953.882L-59.3513 980.822L-59.0903 982.742L-59.7487 984.362L-68.7167 1006.02L-65.4368 1032.23L-65.2347 1033.76L-65.6379 1035.11L-72.831 1059.24L-73.0596 1060.04L-73.4462 1060.66L-85.6284 1080.31L-79.6971 1106.63L-79.2673 1108.68L-79.8683 1110.48L-88.3301 1135.4L-70.6139 1142.72L-70.5242 1142.77L-46.2858 1153.23L-45.6913 1153.45L-45.0952 1153.89L-23.4823 1169L-22.7965 1169.47L-22.1646 1170.18L-3.7292 1190.85L-3.1315 1191.5L-2.6667 1192.3L10.6905 1215.74L34.9255 1220.04L37.6916 1220.51L39.4791 1223.14L55.9183 1247.41L71.5863 1268.94L93.3403 1280.55L116.817 1290.88L133.523 1296.31L147.515 1283.59L157.831 1259.89L158.414 1258.61L159.482 1257.83L177.764 1244.52L178.364 1244.05L179.056 1243.84L201.39 1236.75L222.76 1229.32L240.609 1216.41L240.832 1216.3L259.417 1204.51L273.577 1187.51L284.716 1164.56L285.541 1162.87L287.18 1162.18L307.881 1153.55L308.548 1131.59L304.313 1104.78L303.996 1102.88L304.599 1101.3L312.59 1079.13L305.708 1052.86L305.259 1051.12L305.57 1049.51L310.344 1024.91L262.501 999.67L262.531 999.1L262.649 998.57L267.883 974.13L267.23 949.23L261.256 921.781L260.619 918.885L261.989 916.749L275.068 895.96L320.21 870.337L319.951 868.624L320.431 867.144L327.307 845.319L315.124 819.066L305.515 808.712L283.295 804.695L283.004 804.668L258.915 799.05L256.372 798.47L254.698 796.002L237.006 770.253L215.734 763.111L215.724 763.159L192.163 757.837L191.166 757.646L190.211 757.049L167.959 743.24L146.902 730.509L133.996 729.112L136.887 734.103L131.214 736.659L112.492 745.084L111.935 745.36L111.32 745.451L88.1103 749.163L68.3873 758.512L68.1093 758.651L67.8413 758.74L47.3054 765.538L33.536 783.885L32.7055 784.939L31.5124 785.402L10.3628 793.832L10.3179 793.811L-8.9462 803.105L-24.5537 819.494L-24.9312 819.852L-25.3427 820.142L-42.1525 831.516L-48.3129 853.244L-51.4488 878.482ZM136.689 767.437L139.513 766.765L142.125 766.155L144.545 768.167L165.742 785.797L186.052 798.769L209.456 801.257L209.893 801.298L210.262 801.414L234.2 807.706L234.951 807.89L235.613 808.247L258.21 820.514L281.032 832.884L283.11 833.995L284.28 836.285L296.867 861.395L298.071 863.753L297.676 866.176L244.787 890.8L253.456 916.825L254.086 918.654L253.786 920.43L249.807 946.56L249.658 947.45L249.339 948.2L239.083 970.98L237.474 995.59L286.612 1020.57L290.536 1047.67L290.608 1048.23L290.59 1048.75L290.674 1075.31L290.675 1075.52L290.666 1075.78L289.08 1101.84L288.908 1104.15L287.499 1105.58L280.609 1112.67L278.556 1114.76L275.552 1113.81L250.717 1105.78L248.733 1105.14L247.309 1103.32L231.189 1082.7L207.215 1078.78L204.303 1078.3L202.469 1075.44L187.558 1052.08L163.341 1044.38L159.417 1043.12L158.331 1038.69L151.241 1010.04L84.8933 990.93L82.2413 987.96L82.9173 984.28L87.5093 957.85L86.0473 933.91L79.5273 906.689L79.4233 906.269L79.3643 905.87L124.691 878.1L124.347 875.658L125.451 873.825L138.312 852.246L133.589 827.391L133.519 827.04L133.494 826.71L130.599 799.665L130.515 798.935L130.576 798.22L132.85 772.852L132.861 772.803L132.926 768.317L136.689 767.437ZM-41.1413 1124.56L-21.44 1113.98L-21.0392 1113.74L-20.6152 1113.61L-0.465698 1107.43L13.3119 1087.28L13.8872 1086.48L14.6438 1085.98L33.6027 1073.41L34.0591 1073.14L34.5497 1072.94L55.7263 1065.06L57.2983 1064.45L59.0923 1065.06L84.1063 1073.17L103.91 1065.67L104.233 1065.55L104.601 1065.45L126.853 1060.72L127.378 1060.58L127.915 1060.62L152.106 1060.7L155.07 1060.73L157.182 1063.45L175.223 1086.55L193.372 1104.96L215.883 1114.74L217.375 1115.37L218.515 1116.69L235.333 1136.41L259.084 1141.76L265.392 1143.22L264.786 1150.11L264.321 1155.06L264.084 1157.66L262.294 1159.02L262.227 1159.09L262.217 1159.14L246.432 1174.33L232.906 1193.8L232.264 1194.67L231.407 1195.19L211.971 1206.79L211.392 1207.16L210.711 1207.33L189.156 1212.49L177.568 1232.37L176.608 1234L174.957 1234.52L153.249 1241.68L135.094 1253.98L132.59 1255.65L129.647 1253.99L109.609 1242.89L109.395 1242.74L109.126 1242.62L89.0483 1229.27L64.5373 1221.12L63.8083 1220.84L63.1113 1220.42L40.9696 1206.34L40.0593 1205.76L39.3484 1204.96L20.9131 1184.29L20.4392 1183.75L20.0426 1183.09L4.8771 1158.66L-12.8732 1142.66L-38.056 1137.29L-57.2004 1133.25L-41.1413 1124.56ZM142.409 801.091L145.127 826.939L150.405 854.173L150.896 856.842L149.693 858.895L136.633 880.702L90.8793 905.301L97.5933 932.98L97.7773 933.7L97.8273 934.36L99.3923 960.06L99.4433 960.93L99.3153 961.72L95.1713 985.28L160.267 1002.91L161.609 1004.43L162.095 1006.46L168.574 1032.75L191.277 1039.91L193.687 1040.65L195.182 1043.03L209.788 1065.98L233.482 1069.83L235.968 1070.22L237.731 1072.52L254.145 1093.59L273.901 1099.98L277.373 1096.42L278.846 1073.08L278.756 1047.21L274.888 1020.09L274.816 1019.53L274.835 1019L225.667 993.05L225.685 992.52L227.417 966.48L227.486 965.29L227.959 964.29L238.17 941.49L241.844 917.828L233.197 891.707L232.578 889.829L232.877 888.053L285.66 864.124L275.346 843.669L254.636 832.48L232.791 820.61L209.929 814.599L185.562 811.989L184.208 811.847L182.915 810.989L160.739 796.843L160.391 796.63L160.019 796.3L143.99 783.004L142.409 801.091ZM-10.9378 1129.84L-9.28 1130.18L-7.8832 1131.45L12.0968 1149.43L12.964 1150.2L13.5759 1151.22L28.8561 1176.03L46.1749 1195.49L66.7203 1208.52L91.4213 1216.7L92.2063 1216.96L92.9823 1217.47L113.791 1231.31L130.302 1240.47L146.578 1229.49L147.112 1229.1L147.748 1228.91L168.273 1222.16L180.061 1202.05L181.109 1200.25L183.04 1199.81L205.812 1194.3L223.757 1183.6L237.04 1164.55L237.327 1164.15L237.649 1163.82L249.093 1152.75L232.837 1149.08L230.764 1148.61L229.151 1146.75L211.848 1126.55L189.618 1116.84L188.361 1116.27L187.346 1115.27L167.991 1095.61L167.675 1095.26L167.404 1094.92L151.07 1074.15L130.357 1074.01L109.255 1078.48L87.8793 1086.59L86.2623 1087.18L84.4573 1086.62L59.3983 1078.48L40.3744 1085.6L22.5387 1097.36L8.3961 1118.03L7.4342 1119.45L5.8945 1119.91L-15.3259 1126.45L-18.5999 1128.24L-10.9378 1129.84ZM-50.7458 958.562L-41.5815 936.252L-39.9205 911.184L-39.8332 909.47L-38.9487 908.175L-25.5734 888.053L-24.748 863.403L-24.6183 859.956L-21.9338 858.582L-6.1715 850.553L9.9315 834.604L10.4977 834.066L11.1105 833.763L30.3047 824.118L45.2646 806.423L45.8632 805.741L46.5981 805.334L66.1413 794.574L83.7163 780.893L84.1383 780.555L84.6843 780.327L104.846 771.445L108.965 768.975L112.479 773.614L120.197 783.793L122.141 786.384L121.852 789.44L119.303 815.372L119.281 815.469L119.304 815.586L116.016 841.286L116.071 841.258L113.287 867.136L113.255 867.281L113.278 867.397L60.6983 892.854L63.9203 918.88L64.1123 920.456L63.6983 921.86L56.0773 945.68L56.2833 970.59L60.0463 997.08L60.6973 1001.68L106.237 1002.75L88.0413 1011.26L81.2903 1037.61L80.4333 1040.99L77.3163 1041.42L53.8683 1044.86L36.4684 1057.99L34.9012 1059.23L32.807 1058.86L8.2502 1054.89L-6.8968 1070.11L-7.0855 1070.29L-7.2634 1070.42L-25.2105 1085.1L-25.2554 1085.08L-42.8974 1100.16L-52.6296 1108.45L-52.8467 1093.53L-53.127 1067.63L-53.1627 1067.35L-53.1428 1067.04L-51.4345 1040.88L-51.4178 1040.14L-51.2216 1039.49L-44.4385 1015.87L-42.3651 992.052L-50.9211 963.322L-51.6794 960.742L-50.7458 958.562ZM-30.7748 991.152L-30.3499 992.562L-30.4729 994.002L-32.7308 1019.96L-32.7815 1020.62L-32.9669 1021.23L-39.7609 1044.9L-41.3553 1069.89L-41.204 1080.69L-33.1828 1073.84L-33.1163 1073.77L-15.5358 1059.4L1.3313 1042.47L3.0515 1040.76L5.53729 1041.16L30.4083 1045.27L47.174 1032.55L48.1193 1031.87L49.3033 1031.67L70.7403 1028.58L77.3073 1003.05L28.9313 1001.15L30.9813 1000.18L47.7193 992.44L44.5803 970.01L44.5053 969.02L44.2653 942.5L44.2223 941.37L44.5393 940.4L52.0173 916.987L48.8993 891.38L48.7793 890.368L48.9293 889.481L101.549 863.405L104.344 837.479L104.355 837.43L104.321 837.362L107.543 811.737L109.757 788.84L107.227 785.555L90.8543 792.772L73.4573 806.322L73.1573 806.557L72.8683 806.743L53.8483 817.158L38.9437 834.825L38.3343 835.556L37.4988 835.97L18.0152 845.8L1.9679 861.722L1.44659 862.28L0.833801 862.584L-13.0794 869.653L-13.7726 892.61L-13.8475 894.489L-14.7878 895.812L-32.7308 921.292L-34.2513 945.729L-34.3436 946.799L-34.7609 947.779L-39.0082 963.622L-30.7748 991.152Z" fill="#06C0F9"/>
<path d="M182.835 -79.1176L195.059 -104.846L184.89 -125.286L184.078 -127.011L184.338 -128.939L187.877 -153.874L180.729 -174.894L179.681 -177.879L181.51 -180.678L195.985 -202.449L196.474 -203.216L197.173 -203.813L216.511 -221.005L228.141 -243.216L237.845 -266.843L244.36 -292.999L244.781 -294.751L246.071 -296.08L264.419 -315.419L264.971 -315.996L265.68 -316.445L286.936 -330.229L289.463 -356.214L289.865 -360.352L293.707 -361.896L302.254 -365.356L293.154 -371.22L311.535 -373.846L312.181 -373.789L335.51 -372.047L357.9 -385.844L359.51 -386.82L361.336 -386.832L385.546 -386.609L409.351 -394.289L411.527 -394.948L413.509 -394.137L437.647 -384.351L460.41 -390.688L461.332 -390.919L462.222 -390.897L485.161 -390.492L507.282 -408.131L511.161 -411.273L514.915 -408.426L535.2 -393.014L537.544 -391.259L537.51 -388.219L537.197 -363.744L549.405 -343.098L550.025 -341.993L550.164 -340.719L552.829 -316.023L559.825 -292.941L568.612 -269.667L568.978 -268.674L569.005 -267.584L569.288 -242.348L575.988 -219.274L576.117 -218.844L576.197 -218.408L579.497 -193.803L585.284 -169.652L585.371 -169.117L585.409 -168.575L586.846 -144.5L599.693 -123.896L600.477 -122.565L600.587 -120.988L601.89 -95.3017L601.841 -95.2947L604.852 -70.5984L604.946 -69.9649L604.893 -69.3105L603.023 -45.2106L602.91 -44.0003L602.396 -42.882L591.361 -19.2141L591.099 -18.7289L590.833 -18.2928L576.114 3.51331L575.803 4.00549L575.436 4.40619L557.793 23.2466L549.35 46.5443L549.353 46.5935L540.249 71.031L531.832 96.116L530.971 98.627L528.644 99.954L504.886 113.25L505.037 138.703L505.039 140.146L504.392 141.482L493.514 165.277L492.402 167.725L489.957 168.771L462.863 180.254L460.082 181.447L457.566 180.065L437.092 169.009L412.46 176.16L410.379 176.756L408.449 175.987L385.532 166.723L362.668 161.033L338.076 159.571L313.094 160.304L310.678 160.351L308.986 158.752L289.981 141.167L266.631 144.055L266.582 144.062L240.574 147.081L237.589 147.458L235.559 145.26L217.757 125.811L217.059 125.015L216.641 123.981L207.53 100.305L207.112 99.27L207.13 98.123L206.93 73.374L200.447 49.8698L199.925 48.0536L200.535 46.1754L208.532 21.4487L195.717 1.28781L195.162 0.4216L194.943 -0.59201L189.576 -25.1008L189.197 -26.9872L189.904 -28.8794L199.305 -53.309L183.506 -72.3472L181.023 -75.3759L182.835 -79.1176ZM211.433 -59.2212L213.696 -56.5095L212.363 -52.9853L202.241 -26.8605L207.021 -5.10379L220.775 16.4656L222.277 18.888L221.342 21.7581L213.016 47.4274L219.276 69.8683L219.477 70.636L219.487 71.48L219.621 95.99L227.945 117.589L243.024 134.093L266.045 131.451L292.081 128.129L294.871 127.78L296.824 129.591L316.049 147.493L339.16 146.828L339.404 146.793L339.704 146.85L364.691 148.305L365.236 148.327L365.788 148.447L389.807 154.42L390.208 154.511L390.564 154.66L411.858 163.31L436.923 155.997L439.343 155.303L441.5 156.488L461.52 167.41L483.34 158.173L492.415 138.267L492.327 110.168L492.344 106.185L495.907 104.184L520.853 90.221L528.364 67.7032L528.447 67.4922L537.594 42.9497L537.59 42.9005L546.625 18.1749L547.073 16.8172L548.087 15.7768L566.191 -3.5275L580.232 -24.4406L590.588 -46.5188L592.337 -68.8104L589.389 -93.3166L589.358 -93.76L588.12 -117.814L575.318 -138.475L574.538 -139.756L574.431 -141.283L572.869 -166.436L567.26 -190.164L567.19 -190.452L567.17 -190.748L563.834 -215.149L557.037 -238.906L556.783 -239.716L556.773 -240.56L556.416 -265.437L548.086 -287.831L547.974 -288.014L547.96 -288.211L540.665 -312.046L540.525 -312.623L540.439 -313.158L537.881 -337.024L525.447 -358.085L524.603 -359.557L524.629 -361.302L524.843 -384.369L510.657 -395.179L490.639 -379.234L488.77 -377.723L486.448 -377.739L462.127 -378.146L438.148 -371.535L436.063 -370.989L434.185 -371.716L410.201 -381.425L387.65 -374.173L386.634 -373.878L385.645 -373.886L362.134 -374.01L339.549 -360.185L337.753 -359.033L335.718 -359.19L322.416 -360.176L318.047 -358.407L301.484 -351.662L299.089 -326.592L298.776 -323.313L295.991 -321.472L272.518 -306.227L256.05 -288.948L249.801 -263.923L249.689 -263.41L249.521 -262.988L239.393 -238.355L239.264 -238.088L239.138 -237.771L226.889 -214.527L226.326 -213.401L225.347 -212.565L205.642 -194.973L193.583 -176.781L200.269 -157.436L200.763 -156.014L200.524 -154.487L197.006 -129.952L207.691 -108.492L209.067 -105.753L207.689 -102.869L195.805 -77.9355L211.433 -59.2212ZM334.113 -327.068L341.199 -328.826L341.259 -329.382L343.091 -329.296L346.388 -330.165L346.395 -330.066L346.461 -329.827L346.531 -329.538L346.551 -329.243L364.106 -328.865L386.674 -342.936L387.478 -343.449L388.396 -343.729L413.182 -350.803L414.345 -351.118L415.539 -350.99L439.425 -348.333L462.565 -357.759L463.91 -358.299L465.299 -358.199L492.507 -356.762L495.282 -356.612L496.918 -354.407L511.947 -333.667L512.602 -332.765L512.877 -331.66L518.742 -308.516L533.206 -288.79L534.461 -287.078L534.319 -284.869L532.778 -257.482L532.789 -257.334L530.951 -233.488L549.432 -215.629L550.649 -214.459L551.067 -212.728L556.717 -188.409L557.138 -186.628L556.571 -184.855L547.398 -157.871L554.983 -136.962L568.318 -115.731L569.538 -113.816L569.159 -111.473L567.273 -99.6105L566.507 -95.0231L562.086 -93.9935L536.006 -87.7797L509.922 -81.6152L508.756 -81.349L507.558 -81.5262L483.31 -85.1272L458.772 -85.1044L456.551 -85.0857L454.915 -86.5934L434.008 -105.25L415.395 -120.055L391.916 -128.891L389.99 -129.611L388.972 -131.455L377.003 -152.931L376.605 -153.671L376.4 -154.487L370.381 -180.545L370.242 -181.122L370.197 -181.763L369.411 -207.125L362.089 -229.912L361.908 -230.384L361.822 -230.918L358.371 -255.552L351.982 -278.422L339.771 -299.814L339.318 -300.645L339.103 -301.609L336.072 -316.7L334.833 -316.772L334.113 -327.068ZM351.191 -305.973L363.279 -284.912L363.621 -284.265L363.819 -283.547L370.581 -259.585L370.709 -259.156L370.737 -258.762L374.205 -233.882L381.683 -210.968L381.941 -210.109L381.954 -209.216L382.698 -183.748L388.429 -158.992L398.983 -140.1L421.398 -131.66L422.207 -131.377L422.94 -130.785L442.443 -115.262L442.704 -115.05L461.881 -97.8382L484.788 -97.8768L485.232 -97.8904L485.682 -97.8055L509.135 -94.2898L533.954 -100.174L555.567 -105.302L556.403 -110.297L543.898 -130.254L543.567 -130.754L543.326 -131.366L534.871 -154.837L534.084 -156.914L534.819 -159.109L544.122 -186.36L539.201 -207.301L519.974 -225.949L518.013 -227.858L518.257 -230.729L520.251 -257.285L521.65 -282.462L507.835 -301.385L507.179 -302.287L506.904 -303.392L500.938 -326.571L488.204 -344.157L465.207 -345.399L441.917 -336.001L440.38 -335.384L438.837 -335.561L414.609 -338.17L391.709 -331.664L368.435 -317.094L366.779 -316.062L364.901 -316.092L349.127 -316.426L351.191 -305.973ZM210.693 -104.393L222.839 -129.812L211.218 -149.845L209.363 -153.063L211.35 -156.431L224.225 -177.775L224.662 -178.584L225.358 -179.23L243.166 -196.403L248.965 -221.512L249.392 -223.165L250.535 -224.473L267.075 -243.554L277.142 -266.934L285.308 -292.083L286.001 -294.172L287.734 -295.514L308.827 -311.613L309.498 -312.605L311.615 -313.405L319.03 -316.106L326.396 -318.8L327.031 -311.129L328.368 -295.548L328.426 -294.71L328.286 -293.894L323.851 -267.637L333.933 -247.035L333.936 -246.986L333.989 -246.944L344.282 -224.731L359.653 -204.736L361.341 -202.489L360.703 -199.612L355.127 -174.137L372.167 -157.117L373.814 -155.461L373.881 -153.082L374.723 -126.932L374.747 -126.587L374.722 -126.235L372.798 -100.087L372.713 -99.1798L372.384 -98.2372L363.935 -75.7347L363.767 -75.3126L363.55 -74.8836L351.441 -52.4554L342.94 -27.1593L341.918 -24.1274L338.988 -22.9624L312.959 -12.4771L299.474 7.21219L286.996 29.2952L278.801 55.4431L278.041 57.9897L275.767 59.3595L240.888 80.264L242.688 67.8669L245.785 45.7808L234.953 24.3413L234.322 23.088L234.271 21.6524L234.107 -3.99789L234.118 -4.54681L234.181 -5.05341L238.073 -29.8901L229.557 -52.1083L229.139 -53.1432L229.154 -54.3394L229.152 -77.6744L211.521 -97.4957L208.842 -100.496L210.693 -104.393ZM240.251 -84.8825L241.751 -83.206L241.766 -80.8697L241.656 -56.3245L250.395 -33.7402L250.997 -32.1843L250.72 -30.5027L246.67 -4.3996L246.787 19.1677L257.897 41.065L258.807 42.776L258.501 44.7601L256.846 56.3906L267.651 49.9211L275.233 25.6021L275.482 24.9198L275.831 24.2727L288.834 1.21921L289.013 0.945007L289.142 0.677704L303.973 -20.9453L305.183 -22.7103L307.104 -23.4823L332.126 -33.5254L339.815 -56.3173L339.973 -56.8871L340.28 -57.4286L352.431 -79.9623L360.334 -101.093L362.194 -126.038L361.403 -149.359L343.718 -167.133L341.433 -169.443L342.187 -172.785L347.832 -198.669L333.751 -217.156L333.371 -217.649L333.085 -218.205L322.566 -240.834L311.669 -263.209L310.805 -264.977L311.159 -266.968L315.752 -294.492L315.196 -301.03L296.489 -286.814L288.859 -263.185L288.782 -262.875L288.656 -262.559L278.162 -238.222L277.687 -237.258L277.005 -236.414L260.78 -217.777L254.95 -192.414L254.498 -190.409L252.97 -188.947L234.239 -170.847L223.983 -153.708L235.427 -134.098L237.055 -131.295L235.547 -128.144L223.75 -103.373L240.251 -84.8825ZM313.445 -306.999L313.383 -307.189L313.275 -307.323L313.445 -306.999Z" fill="#FF37A5"/>
<path d="M415.614 21.2375L394.335 41.4753H358.917L357.5 50.5H397.45L434.008 27.8148L415.614 21.2375Z" fill="#FF37A5"/>
<path d="M289.098 65.7143L305.859 45.5571L306.086 45.2758L306.317 45.0438L323.825 27.8148L331.642 2.61652L332.531 -0.197388L335.106 -1.51059L360.187 -14.2488L366.877 -4.0097L366.363 -3.58801L365.742 -3.30011L342.718 8.49731L335.259 32.4505L334.734 34.1177L333.486 35.3408L314.873 53.7227L298.938 72.966L289.098 65.7143Z" fill="#FF37A5"/>
<path d="M354.838 928.789L355.006 902.724L350.337 879.21L350.064 877.948L350.331 876.481L355.356 848.475L355.682 846.671L356.684 845.061L371.835 820.711L384.87 794.941L385.265 794.238L400.36 769.347L400.641 768.905L400.928 768.511L418.388 745.18L433.893 721.074L434.095 720.772L434.342 720.449L451.339 698.059L462.129 672.322L473.011 644.788L474.152 641.824L476.61 640.246L486.704 633.761L487.095 633.472L487.541 633.26L510.269 622.178L510.893 621.882L533.993 613.459L534.177 613.423L534.405 613.366L556.287 607.17L576.987 589.264L578.447 588.005L580.095 587.636L601.656 583.294L621.777 563.445L622.455 562.763L623.203 562.305L645.71 548.233L647.911 546.881L649.845 547.459L673.007 553.907L693.179 544.809L713.12 527.262L719.472 521.725L721.119 528.936L726.315 551.22L741.577 566.31L743.567 568.306L736.047 601.103L751.46 614.059L753.215 615.599L753.052 618.512L751.358 645.661L760.766 663.886L776.526 679.256L777.049 679.781L777.41 680.538L786.942 701.283L787.553 702.643L787.41 704.412L785.395 732.074L792.86 752.767L792.91 752.795L800.333 773.973L815.111 789.807L817.016 791.895L816.092 795.581L808.213 826.744L807.479 829.567L805.39 831.536L784.89 850.895L780.734 877.354L780.259 880.415L778.062 882.694L757.732 903.673L747.799 927.303L745.059 956.546L744.752 959.424L742.799 961.793L724.555 983.9L714.211 1009.42L713.463 1011.22L712.196 1012.54L693.392 1032.44L691.455 1059.96L691.238 1062.8L689.34 1065.24L668.885 1091.28L666.655 1094.14L663.815 1094.3L642.097 1095.37L619.682 1103.62L619.141 1103.83L618.635 1103.91L595.913 1107.46L594.439 1107.7L593.294 1107.06L574.991 1096.91L553.609 1116.79L551.733 1118.56L549.637 1118.68L528.01 1120.16L505.454 1129.31L503.113 1130.21L501.35 1129.04L482.517 1116.52L461.605 1128.39L459.568 1129.51L457.788 1129.06L438.675 1124.15L416.663 1145.62L412.12 1150.09L409.14 1146.24L392.861 1125.04L392.147 1124.04L391.908 1122.65L388.243 1097.99L388.009 1096.66L388.405 1095.08L394.768 1067.78L379.632 1052.99L377.288 1050.75L378.668 1046.49L388.153 1017.25L375.678 1001.04L374.485 999.49L374.694 997.02L376.744 971.92L360.222 957.326L359.036 956.29L358.751 954.466L354.907 929.891L354.805 929.371L354.838 928.789ZM369.778 946.609L386.952 961.618L388.751 963.137L388.465 966.211L386.332 991.87L399.441 1008.75L401.233 1011.1L400.035 1014.86L390.609 1043.77L405.521 1058.2L407.56 1060.22L406.685 1063.94L399.77 1093.56L403.037 1115.32L415.621 1131.67L435.887 1111.86L438.603 1109.18L441.353 1109.94L461.297 1115.18L483.09 1102.79L485.876 1101.21L487.992 1102.63L507.19 1115.49L528.124 1106.96L528.977 1106.61L529.816 1106.57L550.192 1105.21L573.024 1083.98L576.311 1080.92L579.198 1082.55L599.204 1093.74L620.034 1090.46L642.623 1082.08L643.436 1081.79L644.181 1081.75L663.803 1080.8L680.165 1059.95L682.184 1031.87L682.439 1028.51L684.888 1025.95L704.746 1004.94L715.026 979.7L715.622 978.23L716.621 977.04L733.866 956.128L736.532 928.416L736.621 927.033L737.227 925.663L748.509 898.816L749.218 897.088L750.529 895.745L769.89 875.792L774.149 848.975L774.648 845.696L777.123 843.389L797.925 823.784L804.189 799.109L790.761 784.542L790.128 783.862L789.797 782.937L782.053 760.932L774.176 738.99L773.724 737.812L773.848 736.31L775.799 708.936L767.239 690.308L751.563 674.848L751.095 674.399L750.75 673.79L740.386 653.594L739.68 652.227L739.772 650.43L741.362 624.517L725.475 611.064L723.213 609.146L724.112 605.214L730.78 575.913L716.699 561.81L715.806 560.893L715.473 559.504L711.601 543.14L697.145 555.818L696.244 556.606L695.257 557.022L672.358 567.361L670.613 568.137L669.071 567.733L646.297 561.412L626.689 573.645L605.677 594.38L604.019 595.991L602.143 596.416L580.22 600.879L559.778 618.56L558.491 619.686L557.082 620.096L533.786 626.653L511.722 634.688L489.352 645.601L482.023 650.312L472.326 674.861L472.292 674.98L472.253 675.051L460.823 702.277L460.341 703.485L459.56 704.526L442.266 727.211L426.48 751.759L426.277 752.061L426.069 752.314L408.733 775.484L394.117 799.58L381.077 825.301L380.885 825.702L380.643 826.074L366.222 849.356L361.821 873.922L366.363 896.671L366.48 897.337L366.508 898.046L366.296 924.595L369.778 946.609ZM523.582 658.866L529.912 662.052L548.602 644.635L549.626 643.685L550.792 643.184L573.737 633.288L596.091 621.764L596.71 621.419L597.35 621.27L620.43 615.331L620.47 615.261L641.903 608.813L661.998 587.378L665.12 584.094L668.194 585.266L688.734 593.06L690.152 593.625L690.873 595.139L698.276 611.222L713.274 626.025L714.001 626.711L714.353 627.833L721.515 649.65L732.203 668.918L732.243 668.848L743.82 688.107L744.336 688.998L744.504 690.155L747.898 715.356L748.046 716.317L747.881 717.426L743.882 744.482L761.713 755.931L763.371 757.001L763.663 759.337L766.706 784.756L766.91 786.258L766.43 787.929L760.092 810.112L757.911 817.9L752.094 816.481L730.9 811.37L709.976 818.659L687.529 834.197L686.394 834.992L685.248 835.226L662.368 840.4L661.728 840.549L661.162 840.508L638.663 839.933L637.769 839.893L636.983 839.544L619.037 830.572L595.195 837.285L591.736 838.254L590.284 835.127L580.532 814.074L580.297 813.619L580.146 813.072L575.137 791.678L559.135 778.022L558.721 777.65L558.392 777.188L546.236 758.667L546.016 758.358L545.886 758.008L536.498 737.298L535.876 735.839L536.058 734L538.817 705.831L526.527 690.054L526.357 689.774L526.192 689.543L515.171 670.226L515.001 669.945L514.876 669.644L514.865 669.546L507.064 650.559L523.582 658.866ZM454.961 1078.02L468.704 1051.86L469.523 1050.29L470.805 1049.11L491.427 1030.47L504.943 1007.05L517.87 980.25L518.175 979.59L518.62 978.91L534.792 955.368L550.881 929.233L551.28 928.579L551.78 927.982L570.378 906.122L571.382 904.976L572.527 904.279L596.425 890.064L597.48 889.409L598.493 889.238L619.47 885.585L641.877 876.356L642.011 876.292L664.618 867.638L664.752 867.575L687.833 859.418L688.374 859.214L688.93 859.156L710.323 856.337L732.499 841.34L733.158 840.924L733.833 840.656L756.399 831.609L762.787 829.097L762.393 836.502L762.094 842.573L762.011 844.468L761.272 845.901L751.569 872.619L751.102 873.974L750.242 875.155L733.783 897.754L726.075 924.298L725.344 926.707L723.613 928.508L704.148 948.355L700.222 975.22L700.028 976.5L699.501 977.73L687.198 1005.11L686.321 1007.02L684.871 1008.38L663.165 1028.31L645.661 1050.32L643.718 1052.79L641.281 1053.22L618.194 1057.31L617.454 1057.4L616.743 1057.33L596.481 1054.4L574.411 1069.97L573.411 1070.7L572.319 1071.01L549.335 1077.42L547.648 1077.86L546.27 1077.22L526.23 1067.49L505.671 1072.9L482.733 1085.99L481.365 1086.8H480.054L458.025 1087.14L450.118 1087.22L454.961 1078.02ZM536.059 679.556L549.516 696.635L550.764 698.261L550.52 700.851L547.616 729.862L556.202 748.735L567.863 766.563L584.518 780.632L585.554 781.584L585.948 783.099L591.154 805.482L599.268 822.981L621.378 816.728L623.11 816.268L624.493 816.953L643.042 826.309L664.179 826.858L685.227 822.089L707.63 806.572L708.462 806.023L709.276 805.74L732.328 797.752L733.727 797.244L734.98 797.578L751.471 801.619L755.109 788.965L752.518 767.404L733.919 755.34L731.454 753.724L732.036 749.891L736.408 720.132L733.25 697.191L722.227 678.751L722.172 678.674L722.162 678.576L711.149 658.894L710.778 658.039L703.822 636.846L689.019 622.106L688.495 621.581L688.184 620.852L681.068 605.716L665.065 599.639L646.613 619.315L645.099 620.961L643.328 621.491L620.078 628.49L619.855 628.596L597.103 634.534L575.057 645.861L574.611 646.072L552.875 655.447L532.903 674.039L536.059 679.556ZM481.81 1073.18L504.218 1060.4L504.971 1059.99L505.745 1059.77L528.715 1053.68L530.353 1053.21L531.686 1053.87L551.637 1063.64L571.937 1057.99L594.957 1041.67L597.003 1040.18L599.001 1040.47L620.556 1043.66L640.376 1040.14L656.522 1019.91L656.972 1019.28L657.531 1018.81L678.128 999.92L689.101 975.49L693.264 946.863L693.734 943.753L695.975 941.453L715.95 921.107L723.446 895.229L723.926 893.558L724.994 892.124L741.701 869.202L749.545 847.541L735.018 853.293L712.273 868.663L710.96 869.543L709.624 869.764L687.402 872.718L664.862 880.67L642.433 889.239L619.624 898.659L618.995 898.906L618.438 898.963L597.839 902.644L576.191 915.534L559.096 935.65L543.408 961.132L543.245 961.364L543.126 961.575L527.116 984.89L514.54 1011.01L514.387 1011.34L514.185 1011.64L499.519 1037.05L498.73 1038.46L497.616 1039.45L477.172 1058.01L469.089 1073.39L481.81 1073.18ZM380.888 870.813L402.785 846.461L406.227 817.659L406.762 813.384L410.204 810.928L434.726 793.736L448.697 771.079L461.317 745.815L470.977 718.241L471.38 717.174L471.983 716.218L487.263 691.755L490.081 686.914L494.092 687.642L503.74 689.41L506.891 689.978L507.105 693.796L508.567 720.222L514.727 741.43L527.989 757.984L528.313 758.397L528.504 758.874L538.322 779.225L538.748 780.158L538.866 781.288L540.755 806.428L552.489 823.603L566.327 842.977L568.519 846.011L566.177 850.473L552.946 875.717L551.794 904.465L551.68 906.942L550.272 909.156L533.691 935.061L532.605 936.761L531.074 937.796L508.977 952.653L503.138 980.48L502.596 982.9L500.929 984.88L482.959 1006.03L470.504 1031.52L469.43 1033.78L467.558 1035.13L443.993 1052.08L429.534 1069.19L421.069 1079.13L420.358 1067.46L418.859 1041.57L418.838 1041.37L417.912 1016.03L411.84 993.44L411.699 992.99L407.152 968.851L407.06 968.43L407.059 967.967L405.87 944.144L389.737 928.796L387.494 926.611L388.661 922.552L396.611 894.758L380.009 881.18L375.185 877.177L380.888 870.813ZM407.367 884.762L409.928 886.848L408.693 891.145L400.6 919.368L415.834 933.749L417.141 935.038L417.278 937.241L418.464 962.818L422.884 986.19L429.191 1009.24L429.353 1009.88L429.391 1010.69L430.32 1036.96L430.276 1036.98L431.139 1051.01L437.933 1042.99L438.685 1042.12L439.557 1041.5L461.987 1025.35L473.978 1000.8L474.56 999.64L475.396 998.68L492.491 978.56L498.682 949.181L499.536 945.27L502.687 943.158L526.365 927.294L540.368 905.395L541.601 876.97L541.673 874.977L542.689 873.052L554.504 850.386L542.803 833.969L542.798 833.92L542.748 833.892L530.334 815.596L529.61 814.496L529.495 812.952L527.491 787.608L518.368 768.525L504.882 751.614L504.337 750.892L504.1 749.973L497.387 727.068L497.175 726.395L497.143 725.637L495.832 702.438L493.108 701.925L481.077 721.188L471.593 748.214L471.377 748.832L471.106 749.373L458.023 775.578L457.831 775.979L457.594 776.4L442.261 801.249L441.219 802.929L439.693 804.013L417.093 819.881L413.801 847.427L413.46 850.424L411.318 852.78L393.032 873.151L407.367 884.762Z" fill="#20CA4B"/>
<path d="M417.093 716.218L400.641 729.862L369 741.43L366.993 729.862L393.517 719.012L426.554 692.848L417.093 716.218Z" fill="#20CA4B"/>
</g>
</g>
<defs>
<clipPath id="clip0_1667_6508">
<rect width="380" height="956" fill="white"/>
</clipPath>
</defs>
</svg>
