<svg width="52" height="52" viewBox="0 0 52 52" fill="none" xmlns="http://www.w3.org/2000/svg">
<path d="M16.9637 14.8544L44.8901 13.5645V38.4364L15.4541 37.0219L7.11098 26.7396L16.9637 14.8544Z" stroke="#FFF6EF" stroke-width="4.875"/>
<path fill-rule="evenodd" clip-rule="evenodd" d="M23.3544 22.8518L25.0444 24.7258L27.0419 26.7232L25.0749 28.495L23.4443 30.1256L22.9446 30.8524L23.05 31.1982L24.771 32.6788L25.2995 32.799L27.1163 31.2193L29.22 28.9014L31.7831 31.7286L33.1946 32.9472L33.5985 32.7511L34.6821 31.6675L35.2723 30.6787L34.8144 29.9023L33.4966 28.5844L31.4916 26.6299L32.7821 25.5536L34.9709 23.1505L35.4184 22.5682L35.3157 22.1424L34.1164 20.6075L33.5909 20.3307L32.1858 21.485L31.0338 22.5567L29.3487 24.3221L27.5425 22.2703L25.9927 20.7205L25.3904 20.2458L24.8576 20.7096L23.2666 22.5128L23.3544 22.8518Z" fill="#FFF6EF"/>
</svg>
